<svg width="441" height="31" viewBox="0 0 441 31" fill="none" xmlns="http://www.w3.org/2000/svg">
<rect width="441" height="31" rx="15.5" fill="white"/>
<path d="M81.5172 22.2C80.9305 22.2 80.3439 22.1533 79.7572 22.06C79.1705 21.98 78.6172 21.8533 78.0972 21.68C77.5772 21.4933 77.1105 21.2667 76.6972 21C76.4572 20.84 76.2905 20.6467 76.1972 20.42C76.1039 20.1933 76.0705 19.9733 76.0972 19.76C76.1372 19.5333 76.2239 19.34 76.3572 19.18C76.5039 19.0067 76.6839 18.9 76.8972 18.86C77.1105 18.82 77.3439 18.88 77.5972 19.04C78.1839 19.3867 78.8039 19.64 79.4572 19.8C80.1105 19.96 80.7972 20.04 81.5172 20.04C82.5705 20.04 83.3372 19.8667 83.8172 19.52C84.2972 19.16 84.5372 18.7 84.5372 18.14C84.5372 17.6733 84.3639 17.3067 84.0172 17.04C83.6839 16.7733 83.1039 16.5533 82.2772 16.38L80.0772 15.92C78.8105 15.6533 77.8639 15.2067 77.2372 14.58C76.6239 13.94 76.3172 13.1 76.3172 12.06C76.3172 11.4067 76.4505 10.8133 76.7172 10.28C76.9839 9.74667 77.3572 9.28667 77.8372 8.9C78.3305 8.51333 78.9105 8.22 79.5772 8.02C80.2572 7.80667 81.0039 7.7 81.8172 7.7C82.6172 7.7 83.3772 7.8 84.0972 8C84.8172 8.2 85.4639 8.49333 86.0372 8.88C86.2505 9.02667 86.3905 9.20667 86.4572 9.42C86.5372 9.63333 86.5572 9.84667 86.5172 10.06C86.4772 10.26 86.3839 10.4333 86.2372 10.58C86.0905 10.7267 85.9039 10.8133 85.6772 10.84C85.4639 10.8667 85.2172 10.8 84.9372 10.64C84.4439 10.36 83.9439 10.16 83.4372 10.04C82.9305 9.92 82.3839 9.86 81.7972 9.86C81.1839 9.86 80.6572 9.94667 80.2172 10.12C79.7772 10.2933 79.4372 10.54 79.1972 10.86C78.9705 11.1667 78.8572 11.5333 78.8572 11.96C78.8572 12.44 79.0172 12.8267 79.3372 13.12C79.6572 13.4 80.2039 13.62 80.9772 13.78L83.1572 14.24C84.4772 14.52 85.4572 14.96 86.0972 15.56C86.7505 16.16 87.0772 16.96 87.0772 17.96C87.0772 18.6 86.9439 19.18 86.6772 19.7C86.4239 20.22 86.0505 20.6667 85.5572 21.04C85.0772 21.4133 84.4972 21.7 83.8172 21.9C83.1372 22.1 82.3705 22.2 81.5172 22.2ZM90.6344 22C90.1944 22 89.8544 21.8867 89.6144 21.66C89.3877 21.42 89.2744 21.08 89.2744 20.64V9.26C89.2744 8.82 89.3877 8.48667 89.6144 8.26C89.8544 8.02 90.1944 7.9 90.6344 7.9H97.7744C98.1077 7.9 98.361 7.98667 98.5344 8.16C98.721 8.33333 98.8144 8.58 98.8144 8.9C98.8144 9.23333 98.721 9.49333 98.5344 9.68C98.361 9.85333 98.1077 9.94 97.7744 9.94H91.7344V13.82H97.3344C97.681 13.82 97.941 13.9067 98.1144 14.08C98.2877 14.2533 98.3744 14.5067 98.3744 14.84C98.3744 15.1733 98.2877 15.4267 98.1144 15.6C97.941 15.7733 97.681 15.86 97.3344 15.86H91.7344V19.96H97.7744C98.1077 19.96 98.361 20.0467 98.5344 20.22C98.721 20.3933 98.8144 20.6467 98.8144 20.98C98.8144 21.3133 98.721 21.5667 98.5344 21.74C98.361 21.9133 98.1077 22 97.7744 22H90.6344ZM102.508 22C102.095 22 101.775 21.8867 101.548 21.66C101.321 21.42 101.208 21.0933 101.208 20.68V9.14C101.208 8.71333 101.315 8.39333 101.528 8.18C101.755 7.95333 102.075 7.84 102.488 7.84C102.901 7.84 103.215 7.95333 103.428 8.18C103.655 8.39333 103.768 8.71333 103.768 9.14V19.82H109.568C109.928 19.82 110.201 19.9133 110.388 20.1C110.588 20.2867 110.688 20.5533 110.688 20.9C110.688 21.2467 110.588 21.52 110.388 21.72C110.201 21.9067 109.928 22 109.568 22H102.508ZM113.798 22C113.358 22 113.018 21.8867 112.778 21.66C112.552 21.42 112.438 21.08 112.438 20.64V9.26C112.438 8.82 112.552 8.48667 112.778 8.26C113.018 8.02 113.358 7.9 113.798 7.9H120.938C121.272 7.9 121.525 7.98667 121.698 8.16C121.885 8.33333 121.978 8.58 121.978 8.9C121.978 9.23333 121.885 9.49333 121.698 9.68C121.525 9.85333 121.272 9.94 120.938 9.94H114.898V13.82H120.498C120.845 13.82 121.105 13.9067 121.278 14.08C121.452 14.2533 121.538 14.5067 121.538 14.84C121.538 15.1733 121.452 15.4267 121.278 15.6C121.105 15.7733 120.845 15.86 120.498 15.86H114.898V19.96H120.938C121.272 19.96 121.525 20.0467 121.698 20.22C121.885 20.3933 121.978 20.6467 121.978 20.98C121.978 21.3133 121.885 21.5667 121.698 21.74C121.525 21.9133 121.272 22 120.938 22H113.798ZM130.913 22.2C129.446 22.2 128.186 21.9067 127.133 21.32C126.093 20.72 125.293 19.88 124.733 18.8C124.173 17.7067 123.893 16.42 123.893 14.94C123.893 13.8333 124.053 12.84 124.373 11.96C124.693 11.0667 125.153 10.3067 125.752 9.68C126.353 9.04 127.086 8.55333 127.952 8.22C128.833 7.87333 129.819 7.7 130.913 7.7C131.646 7.7 132.366 7.79333 133.073 7.98C133.779 8.16667 134.399 8.43333 134.933 8.78C135.213 8.95333 135.399 9.16667 135.493 9.42C135.586 9.66 135.606 9.9 135.553 10.14C135.499 10.3667 135.386 10.56 135.213 10.72C135.053 10.88 134.846 10.9733 134.593 11C134.353 11.0133 134.086 10.9267 133.793 10.74C133.379 10.4733 132.933 10.28 132.453 10.16C131.973 10.04 131.486 9.98 130.993 9.98C130.046 9.98 129.246 10.1733 128.593 10.56C127.939 10.9467 127.446 11.5067 127.113 12.24C126.779 12.9733 126.613 13.8733 126.613 14.94C126.613 15.9933 126.779 16.8933 127.113 17.64C127.446 18.3867 127.939 18.9533 128.593 19.34C129.246 19.7267 130.046 19.92 130.993 19.92C131.499 19.92 131.999 19.86 132.493 19.74C132.986 19.6067 133.453 19.4067 133.893 19.14C134.186 18.9667 134.446 18.8933 134.673 18.92C134.913 18.9333 135.113 19.0133 135.273 19.16C135.433 19.3067 135.539 19.4933 135.593 19.72C135.646 19.9333 135.633 20.16 135.553 20.4C135.473 20.6267 135.313 20.8267 135.073 21C134.539 21.3867 133.899 21.6867 133.153 21.9C132.419 22.1 131.673 22.2 130.913 22.2ZM142.431 22.16C142.018 22.16 141.698 22.0467 141.471 21.82C141.258 21.58 141.151 21.2533 141.151 20.84V10.04H137.251C136.904 10.04 136.631 9.94667 136.431 9.76C136.244 9.56 136.151 9.29333 136.151 8.96C136.151 8.61333 136.244 8.35333 136.431 8.18C136.631 7.99333 136.904 7.9 137.251 7.9H147.611C147.958 7.9 148.224 7.99333 148.411 8.18C148.611 8.35333 148.711 8.61333 148.711 8.96C148.711 9.29333 148.611 9.56 148.411 9.76C148.224 9.94667 147.958 10.04 147.611 10.04H143.711V20.84C143.711 21.2533 143.604 21.58 143.391 21.82C143.178 22.0467 142.858 22.16 142.431 22.16ZM160.283 22.16C159.869 22.16 159.549 22.0467 159.323 21.82C159.109 21.58 159.003 21.2533 159.003 20.84V10.04H155.103C154.756 10.04 154.483 9.94667 154.283 9.76C154.096 9.56 154.002 9.29333 154.002 8.96C154.002 8.61333 154.096 8.35333 154.283 8.18C154.483 7.99333 154.756 7.9 155.103 7.9H165.463C165.809 7.9 166.076 7.99333 166.263 8.18C166.463 8.35333 166.562 8.61333 166.562 8.96C166.562 9.29333 166.463 9.56 166.263 9.76C166.076 9.94667 165.809 10.04 165.463 10.04H161.563V20.84C161.563 21.2533 161.456 21.58 161.243 21.82C161.029 22.0467 160.709 22.16 160.283 22.16ZM169.304 22.16C168.891 22.16 168.571 22.0467 168.344 21.82C168.131 21.58 168.024 21.2533 168.024 20.84V9.06C168.024 8.63333 168.131 8.30667 168.344 8.08C168.571 7.85333 168.891 7.74 169.304 7.74C169.718 7.74 170.031 7.85333 170.244 8.08C170.471 8.30667 170.584 8.63333 170.584 9.06V13.78H177.844V9.06C177.844 8.63333 177.951 8.30667 178.164 8.08C178.391 7.85333 178.711 7.74 179.124 7.74C179.538 7.74 179.851 7.85333 180.064 8.08C180.291 8.30667 180.404 8.63333 180.404 9.06V20.84C180.404 21.2533 180.291 21.58 180.064 21.82C179.851 22.0467 179.538 22.16 179.124 22.16C178.711 22.16 178.391 22.0467 178.164 21.82C177.951 21.58 177.844 21.2533 177.844 20.84V15.92H170.584V20.84C170.584 21.2533 170.478 21.58 170.264 21.82C170.051 22.0467 169.731 22.16 169.304 22.16ZM184.853 22C184.413 22 184.073 21.8867 183.833 21.66C183.606 21.42 183.493 21.08 183.493 20.64V9.26C183.493 8.82 183.606 8.48667 183.833 8.26C184.073 8.02 184.413 7.9 184.853 7.9H191.993C192.326 7.9 192.58 7.98667 192.753 8.16C192.94 8.33333 193.033 8.58 193.033 8.9C193.033 9.23333 192.94 9.49333 192.753 9.68C192.58 9.85333 192.326 9.94 191.993 9.94H185.953V13.82H191.553C191.9 13.82 192.16 13.9067 192.333 14.08C192.506 14.2533 192.593 14.5067 192.593 14.84C192.593 15.1733 192.506 15.4267 192.333 15.6C192.16 15.7733 191.9 15.86 191.553 15.86H185.953V19.96H191.993C192.326 19.96 192.58 20.0467 192.753 20.22C192.94 20.3933 193.033 20.6467 193.033 20.98C193.033 21.3133 192.94 21.5667 192.753 21.74C192.58 21.9133 192.326 22 191.993 22H184.853ZM207.416 22.2C205.95 22.2 204.69 21.9067 203.636 21.32C202.596 20.72 201.796 19.88 201.236 18.8C200.676 17.7067 200.396 16.42 200.396 14.94C200.396 13.8333 200.556 12.84 200.876 11.96C201.196 11.0667 201.656 10.3067 202.256 9.68C202.856 9.04 203.59 8.55333 204.456 8.22C205.336 7.87333 206.323 7.7 207.416 7.7C208.15 7.7 208.87 7.79333 209.576 7.98C210.283 8.16667 210.903 8.43333 211.436 8.78C211.716 8.95333 211.903 9.16667 211.996 9.42C212.09 9.66 212.11 9.9 212.056 10.14C212.003 10.3667 211.89 10.56 211.716 10.72C211.556 10.88 211.35 10.9733 211.096 11C210.856 11.0133 210.59 10.9267 210.296 10.74C209.883 10.4733 209.436 10.28 208.956 10.16C208.476 10.04 207.99 9.98 207.496 9.98C206.55 9.98 205.75 10.1733 205.096 10.56C204.443 10.9467 203.95 11.5067 203.616 12.24C203.283 12.9733 203.116 13.8733 203.116 14.94C203.116 15.9933 203.283 16.8933 203.616 17.64C203.95 18.3867 204.443 18.9533 205.096 19.34C205.75 19.7267 206.55 19.92 207.496 19.92C208.003 19.92 208.503 19.86 208.996 19.74C209.49 19.6067 209.956 19.4067 210.396 19.14C210.69 18.9667 210.95 18.8933 211.176 18.92C211.416 18.9333 211.616 19.0133 211.776 19.16C211.936 19.3067 212.043 19.4933 212.096 19.72C212.15 19.9333 212.136 20.16 212.056 20.4C211.976 20.6267 211.816 20.8267 211.576 21C211.043 21.3867 210.403 21.6867 209.656 21.9C208.923 22.1 208.176 22.2 207.416 22.2ZM220.321 22.2C218.961 22.2 217.768 21.9 216.741 21.3C215.728 20.7 214.941 19.86 214.381 18.78C213.821 17.6867 213.541 16.4067 213.541 14.94C213.541 13.8333 213.701 12.84 214.021 11.96C214.341 11.0667 214.794 10.3067 215.381 9.68C215.981 9.04 216.694 8.55333 217.521 8.22C218.361 7.87333 219.294 7.7 220.321 7.7C221.694 7.7 222.888 8 223.901 8.6C224.914 9.18667 225.701 10.02 226.261 11.1C226.821 12.18 227.101 13.4533 227.101 14.92C227.101 16.0267 226.941 17.0267 226.621 17.92C226.301 18.8133 225.841 19.58 225.241 20.22C224.654 20.86 223.941 21.3533 223.101 21.7C222.274 22.0333 221.348 22.2 220.321 22.2ZM220.321 20C221.188 20 221.921 19.8 222.521 19.4C223.134 19 223.601 18.42 223.921 17.66C224.254 16.9 224.421 15.9933 224.421 14.94C224.421 13.34 224.061 12.1 223.341 11.22C222.634 10.34 221.628 9.9 220.321 9.9C219.468 9.9 218.734 10.1 218.121 10.5C217.508 10.8867 217.034 11.46 216.701 12.22C216.381 12.9667 216.221 13.8733 216.221 14.94C216.221 16.5267 216.581 17.7667 217.301 18.66C218.021 19.5533 219.028 20 220.321 20ZM230.984 22.16C230.571 22.16 230.251 22.0467 230.024 21.82C229.811 21.58 229.704 21.2533 229.704 20.84V9.2C229.704 8.77333 229.817 8.45333 230.044 8.24C230.271 8.01333 230.591 7.9 231.004 7.9H235.824C237.371 7.9 238.564 8.27333 239.404 9.02C240.244 9.75333 240.664 10.7867 240.664 12.12C240.664 12.9867 240.471 13.7333 240.084 14.36C239.711 14.9867 239.164 15.4667 238.444 15.8C237.724 16.1333 236.851 16.3 235.824 16.3L236.004 16H236.664C237.211 16 237.684 16.1333 238.084 16.4C238.497 16.6667 238.857 17.0867 239.164 17.66L240.664 20.44C240.824 20.72 240.897 20.9933 240.884 21.26C240.871 21.5267 240.771 21.7467 240.584 21.92C240.397 22.08 240.124 22.16 239.764 22.16C239.404 22.16 239.111 22.0867 238.884 21.94C238.657 21.78 238.457 21.54 238.284 21.22L236.264 17.5C236.024 17.0467 235.737 16.7467 235.404 16.6C235.084 16.44 234.671 16.36 234.164 16.36H232.264V20.84C232.264 21.2533 232.157 21.58 231.944 21.82C231.731 22.0467 231.411 22.16 230.984 22.16ZM232.264 14.46H235.384C236.304 14.46 236.997 14.2733 237.464 13.9C237.944 13.5133 238.184 12.94 238.184 12.18C238.184 11.4333 237.944 10.8733 237.464 10.5C236.997 10.1133 236.304 9.92 235.384 9.92H232.264V14.46ZM244.695 22.16C244.282 22.16 243.962 22.0467 243.735 21.82C243.522 21.58 243.415 21.2533 243.415 20.84V9.2C243.415 8.77333 243.528 8.45333 243.755 8.24C243.982 8.01333 244.302 7.9 244.715 7.9H249.535C251.082 7.9 252.275 8.27333 253.115 9.02C253.955 9.75333 254.375 10.7867 254.375 12.12C254.375 12.9867 254.182 13.7333 253.795 14.36C253.422 14.9867 252.875 15.4667 252.155 15.8C251.435 16.1333 250.562 16.3 249.535 16.3L249.715 16H250.375C250.922 16 251.395 16.1333 251.795 16.4C252.208 16.6667 252.568 17.0867 252.875 17.66L254.375 20.44C254.535 20.72 254.608 20.9933 254.595 21.26C254.582 21.5267 254.482 21.7467 254.295 21.92C254.108 22.08 253.835 22.16 253.475 22.16C253.115 22.16 252.822 22.0867 252.595 21.94C252.368 21.78 252.168 21.54 251.995 21.22L249.975 17.5C249.735 17.0467 249.448 16.7467 249.115 16.6C248.795 16.44 248.382 16.36 247.875 16.36H245.975V20.84C245.975 21.2533 245.868 21.58 245.655 21.82C245.442 22.0467 245.122 22.16 244.695 22.16ZM245.975 14.46H249.095C250.015 14.46 250.708 14.2733 251.175 13.9C251.655 13.5133 251.895 12.94 251.895 12.18C251.895 11.4333 251.655 10.8733 251.175 10.5C250.708 10.1133 250.015 9.92 249.095 9.92H245.975V14.46ZM258.486 22C258.046 22 257.706 21.8867 257.466 21.66C257.239 21.42 257.126 21.08 257.126 20.64V9.26C257.126 8.82 257.239 8.48667 257.466 8.26C257.706 8.02 258.046 7.9 258.486 7.9H265.626C265.959 7.9 266.213 7.98667 266.386 8.16C266.573 8.33333 266.666 8.58 266.666 8.9C266.666 9.23333 266.573 9.49333 266.386 9.68C266.213 9.85333 265.959 9.94 265.626 9.94H259.586V13.82H265.186C265.533 13.82 265.793 13.9067 265.966 14.08C266.139 14.2533 266.226 14.5067 266.226 14.84C266.226 15.1733 266.139 15.4267 265.966 15.6C265.793 15.7733 265.533 15.86 265.186 15.86H259.586V19.96H265.626C265.959 19.96 266.213 20.0467 266.386 20.22C266.573 20.3933 266.666 20.6467 266.666 20.98C266.666 21.3133 266.573 21.5667 266.386 21.74C266.213 21.9133 265.959 22 265.626 22H258.486ZM275.6 22.2C274.133 22.2 272.873 21.9067 271.82 21.32C270.78 20.72 269.98 19.88 269.42 18.8C268.86 17.7067 268.58 16.42 268.58 14.94C268.58 13.8333 268.74 12.84 269.06 11.96C269.38 11.0667 269.84 10.3067 270.44 9.68C271.04 9.04 271.773 8.55333 272.64 8.22C273.52 7.87333 274.507 7.7 275.6 7.7C276.333 7.7 277.053 7.79333 277.76 7.98C278.467 8.16667 279.087 8.43333 279.62 8.78C279.9 8.95333 280.087 9.16667 280.18 9.42C280.273 9.66 280.293 9.9 280.24 10.14C280.187 10.3667 280.073 10.56 279.9 10.72C279.74 10.88 279.533 10.9733 279.28 11C279.04 11.0133 278.773 10.9267 278.48 10.74C278.067 10.4733 277.62 10.28 277.14 10.16C276.66 10.04 276.173 9.98 275.68 9.98C274.733 9.98 273.933 10.1733 273.28 10.56C272.627 10.9467 272.133 11.5067 271.8 12.24C271.467 12.9733 271.3 13.8733 271.3 14.94C271.3 15.9933 271.467 16.8933 271.8 17.64C272.133 18.3867 272.627 18.9533 273.28 19.34C273.933 19.7267 274.733 19.92 275.68 19.92C276.187 19.92 276.687 19.86 277.18 19.74C277.673 19.6067 278.14 19.4067 278.58 19.14C278.873 18.9667 279.133 18.8933 279.36 18.92C279.6 18.9333 279.8 19.0133 279.96 19.16C280.12 19.3067 280.227 19.4933 280.28 19.72C280.333 19.9333 280.32 20.16 280.24 20.4C280.16 20.6267 280 20.8267 279.76 21C279.227 21.3867 278.587 21.6867 277.84 21.9C277.107 22.1 276.36 22.2 275.6 22.2ZM287.118 22.16C286.705 22.16 286.385 22.0467 286.158 21.82C285.945 21.58 285.838 21.2533 285.838 20.84V10.04H281.938C281.592 10.04 281.318 9.94667 281.118 9.76C280.932 9.56 280.838 9.29333 280.838 8.96C280.838 8.61333 280.932 8.35333 281.118 8.18C281.318 7.99333 281.592 7.9 281.938 7.9H292.298C292.645 7.9 292.912 7.99333 293.098 8.18C293.298 8.35333 293.398 8.61333 293.398 8.96C293.398 9.29333 293.298 9.56 293.098 9.76C292.912 9.94667 292.645 10.04 292.298 10.04H288.398V20.84C288.398 21.2533 288.292 21.58 288.078 21.82C287.865 22.0467 287.545 22.16 287.118 22.16ZM300.43 22.16C300.11 22.16 299.85 22.0867 299.65 21.94C299.463 21.7933 299.35 21.6 299.31 21.36C299.27 21.1067 299.317 20.8267 299.45 20.52L304.73 8.82C304.903 8.43333 305.11 8.16 305.35 8C305.603 7.82667 305.89 7.74 306.21 7.74C306.517 7.74 306.79 7.82667 307.03 8C307.283 8.16 307.497 8.43333 307.67 8.82L312.97 20.52C313.117 20.8267 313.17 21.1067 313.13 21.36C313.09 21.6133 312.977 21.8133 312.79 21.96C312.603 22.0933 312.357 22.16 312.05 22.16C311.677 22.16 311.383 22.0733 311.17 21.9C310.97 21.7133 310.79 21.4333 310.63 21.06L309.33 18.04L310.41 18.74H301.97L303.05 18.04L301.77 21.06C301.597 21.4467 301.417 21.7267 301.23 21.9C301.043 22.0733 300.777 22.16 300.43 22.16ZM306.17 10.68L303.37 17.34L302.85 16.7H309.53L309.03 17.34L306.21 10.68H306.17ZM320.935 22.2C319.962 22.2 319.102 22.0733 318.355 21.82C317.622 21.5667 317.002 21.1933 316.495 20.7C315.988 20.1933 315.608 19.5667 315.355 18.82C315.102 18.0733 314.975 17.2067 314.975 16.22V9.04C314.975 8.6 315.082 8.27333 315.295 8.06C315.522 7.84667 315.842 7.74 316.255 7.74C316.668 7.74 316.982 7.84667 317.195 8.06C317.422 8.27333 317.535 8.6 317.535 9.04V16.2C317.535 17.4667 317.822 18.42 318.395 19.06C318.982 19.6867 319.828 20 320.935 20C322.042 20 322.882 19.6867 323.455 19.06C324.028 18.42 324.315 17.4667 324.315 16.2V9.04C324.315 8.6 324.422 8.27333 324.635 8.06C324.862 7.84667 325.182 7.74 325.595 7.74C325.995 7.74 326.302 7.84667 326.515 8.06C326.742 8.27333 326.855 8.6 326.855 9.04V16.22C326.855 17.5267 326.628 18.6267 326.175 19.52C325.735 20.4133 325.075 21.0867 324.195 21.54C323.315 21.98 322.228 22.2 320.935 22.2ZM331.201 22C330.761 22 330.421 21.8867 330.181 21.66C329.954 21.42 329.841 21.08 329.841 20.64V9.26C329.841 8.82 329.954 8.48667 330.181 8.26C330.421 8.02 330.761 7.9 331.201 7.9H335.081C337.441 7.9 339.261 8.50667 340.541 9.72C341.834 10.9333 342.481 12.6733 342.481 14.94C342.481 16.0733 342.314 17.08 341.981 17.96C341.661 18.8267 341.181 19.56 340.541 20.16C339.914 20.76 339.141 21.22 338.221 21.54C337.314 21.8467 336.267 22 335.081 22H331.201ZM332.401 19.88H334.921C335.747 19.88 336.461 19.78 337.061 19.58C337.674 19.3667 338.181 19.06 338.581 18.66C338.994 18.2467 339.301 17.7333 339.501 17.12C339.701 16.4933 339.801 15.7667 339.801 14.94C339.801 13.2867 339.394 12.0533 338.581 11.24C337.767 10.4267 336.547 10.02 334.921 10.02H332.401V19.88ZM346.355 22.16C345.942 22.16 345.622 22.0467 345.395 21.82C345.182 21.58 345.075 21.2533 345.075 20.84V9.06C345.075 8.63333 345.182 8.30667 345.395 8.08C345.622 7.85333 345.942 7.74 346.355 7.74C346.768 7.74 347.082 7.85333 347.295 8.08C347.522 8.30667 347.635 8.63333 347.635 9.06V20.84C347.635 21.2533 347.528 21.58 347.315 21.82C347.102 22.0467 346.782 22.16 346.355 22.16ZM357.04 22.2C355.68 22.2 354.486 21.9 353.46 21.3C352.446 20.7 351.66 19.86 351.1 18.78C350.54 17.6867 350.26 16.4067 350.26 14.94C350.26 13.8333 350.42 12.84 350.74 11.96C351.06 11.0667 351.513 10.3067 352.1 9.68C352.7 9.04 353.413 8.55333 354.24 8.22C355.08 7.87333 356.013 7.7 357.04 7.7C358.413 7.7 359.606 8 360.62 8.6C361.633 9.18667 362.42 10.02 362.98 11.1C363.54 12.18 363.82 13.4533 363.82 14.92C363.82 16.0267 363.66 17.0267 363.34 17.92C363.02 18.8133 362.56 19.58 361.96 20.22C361.373 20.86 360.66 21.3533 359.82 21.7C358.993 22.0333 358.066 22.2 357.04 22.2ZM357.04 20C357.906 20 358.64 19.8 359.24 19.4C359.853 19 360.32 18.42 360.64 17.66C360.973 16.9 361.14 15.9933 361.14 14.94C361.14 13.34 360.78 12.1 360.06 11.22C359.353 10.34 358.346 9.9 357.04 9.9C356.186 9.9 355.453 10.1 354.84 10.5C354.226 10.8867 353.753 11.46 353.42 12.22C353.1 12.9667 352.94 13.8733 352.94 14.94C352.94 16.5267 353.3 17.7667 354.02 18.66C354.74 19.5533 355.746 20 357.04 20Z" fill="black"/>
</svg>
