<svg xmlns="http://www.w3.org/2000/svg" viewBox="0 0 1080 540"><defs><clipPath id="clippath"><path d="M0 0h1080v540H0z" class="cls-18"/></clipPath><clipPath id="clippath-1"><path d="M.94-5.59h544.92v544.92H.94z" class="cls-18"/></clipPath><clipPath id="clippath-2"><path d="M556.6-5.59h544.92v544.92H556.6z" class="cls-18"/></clipPath><clipPath id="clippath-3"><path d="M842.65 420.42c1.02 21.08 15.44 38.15 32.19 38.14 16.76-.01 29.51-17.11 28.49-38.18-1.02-21.08-15.44-38.15-32.19-38.14s-29.51 17.11-28.49 38.18Z" class="cls-18"/></clipPath><clipPath id="clippath-4"><path d="M0 587.81h1080v536.35H0z" class="cls-18"/></clipPath><style>.cls-3{fill:#3d1606}.cls-11,.cls-17,.cls-18,.cls-19,.cls-21,.cls-22,.cls-23,.cls-26,.cls-27,.cls-28,.cls-29,.cls-3,.cls-30,.cls-31,.cls-34,.cls-37,.cls-39,.cls-40,.cls-41,.cls-44,.cls-47,.cls-7,.cls-8{stroke-width:0}.cls-7{fill:#6ce4e6}.cls-8{fill:#f67db1}.cls-11{fill:#443c31}.cls-18,.cls-51,.cls-52,.cls-53,.cls-54,.cls-55{fill:none}.cls-51,.cls-52,.cls-53,.cls-54{stroke-width:2px}.cls-51,.cls-54,.cls-55{stroke-linecap:round;stroke-linejoin:round}.cls-51,.cls-55{stroke:#fff}.cls-17{fill:#1f1a15}.cls-19{fill:#ffca43}.cls-21{fill:#51463a}.cls-22{fill:#ff5949}.cls-52{stroke:#f2cf98}.cls-52,.cls-53{stroke-miterlimit:10}.cls-23{fill:#ffb223}.cls-53{stroke:#e8d1ac}.cls-26{fill:#c05e22}.cls-27{fill:#f0d8b2}.cls-28{fill:#ffdb6a}.cls-29{fill:#ffd657}.cls-30{fill:#ff746c}.cls-31{fill:#924010}.cls-34{fill:#ffae00}.cls-54{stroke:#3edce2}.cls-37{fill:#e2bd9f}.cls-55{stroke-width:3px}.cls-39{fill:#cd6e2f}.cls-40{fill:#6a5d51}.cls-41{fill:#c49b58}.cls-44{fill:#3a3128}.cls-47{fill:#ff9f00}</style></defs><g id="Auditory_Training" data-name="Auditory Training"><path d="M0 0h1080v540H0z" style="fill:#ffe6bd;stroke-width:0"/><g style="opacity:.31"><g style="clip-path:url(#clippath)"><g id="BG" style="clip-path:url(#clippath-1)"><path d="M102.66 416.91c1.52 5.37-1.6 10.95-6.97 12.47-5.37 1.52-10.95-1.6-12.47-6.97-1.52-5.37 1.6-10.95 6.97-12.47 5.37-1.52 10.95 1.6 12.47 6.97Z" class="cls-51"/><path d="M86.13 420.15a6.855 6.855 0 0 1 4.13-6.78M143.78 394.78c1.52 5.37-1.6 10.95-6.97 12.47-5.37 1.52-10.95-1.6-12.47-6.97-1.52-5.37 1.6-10.95 6.97-12.47 5.37-1.52 10.95 1.6 12.47 6.97Z" class="cls-51"/><path d="M130.27 391.84c.58-.39 1.22-.69 1.93-.89.63-.18 1.27-.26 1.9-.26M127.48 399.39c-.51-1.81-.24-3.66.61-5.19" class="cls-51"/><path d="M102.66 416.91c-1.62-5.73-10.72-37.88-12.62-44.61 5.45-2.93 41.11-22.13 41.11-22.13l12.62 44.61" class="cls-51"/><path d="M93.96 385.18c3.49-1.95 40.98-21.66 40.98-21.66M26.07 176.81c1.52 5.37-1.6 10.95-6.97 12.47-5.37 1.52-10.95-1.6-12.47-6.97-1.52-5.37 1.6-10.95 6.97-12.47 5.37-1.52 10.95 1.6 12.47 6.97Z" class="cls-51"/><path d="M12.57 173.87c.58-.39 1.22-.69 1.93-.89.63-.18 1.27-.26 1.9-.26M9.78 181.42c-.51-1.81-.24-3.66.61-5.19" class="cls-51"/><path d="M-15.04 198.94c-1.62-5.73-10.72-37.88-12.62-44.61 5.45-2.93 41.11-22.13 41.11-22.13l12.62 44.61" class="cls-51"/><path d="M-23.75 167.22c3.49-1.95 40.98-21.66 40.98-21.66M174.77 217.01c2.5-6.23 6.8-11.55 12.26-15.31M161.08 227.41c-2.55 6.03-9.51 8.85-15.54 6.3-6.03-2.55-8.86-9.51-6.3-15.54 2.55-6.03 9.51-8.86 15.54-6.3 6.03 2.55 8.85 9.51 6.3 15.54Z" class="cls-51"/><path d="M143.55 218.24c1.92-2.8 5.46-4.11 8.76-3.18M214.99 237.33c-2.55 6.03-9.51 8.85-15.54 6.3-6.03-2.55-8.86-9.51-6.3-15.54 2.55-6.03 9.51-8.85 15.54-6.3 6.03 2.55 8.85 9.51 6.3 15.54Z" class="cls-51"/><path d="M204.78 224.72c.81.07 1.63.27 2.41.6.71.3 1.36.69 1.93 1.16M196.68 229.59a8.02 8.02 0 0 1 4.37-4.31" class="cls-51"/><path d="M161.08 227.41c2.72-6.44 18-42.58 21.2-50.13 7.15 1.32 53.92 9.92 53.92 9.92s-18.48 43.69-21.2 50.13" class="cls-51"/><path d="M176.4 191.95c4.63.78 53.44 10.26 53.44 10.26M240.16.53c-4.5 3.3-10.82 2.32-14.12-2.18-3.3-4.5-2.32-10.82 2.18-14.12 4.5-3.3 10.82-2.32 14.12 2.18 3.3 4.5 2.32 10.82-2.18 14.12Z" class="cls-51"/><path d="M212.23-22.52c4.81-3.52 31.76-23.26 37.4-27.39 4.65 4.09 27.92 23.05 27.92 23.05S244.95-2.99 240.15.53M268.07 23.58c-4.5 3.3-10.82 2.32-14.12-2.18-3.3-4.5-2.32-10.82 2.18-14.12 4.5-3.3 10.82-2.32 14.12 2.18 3.3 4.5 2.32 10.82-2.18 14.12Z" class="cls-51"/><path d="M258.96 9.37c2.2-1.14 4.84-.98 6.87.34M277.56-26.86c4.65 4.08 27.93 23.05 27.93 23.05s-32.6 23.87-37.41 27.39M57.13 113.82c-1.11 5.47-6.44 9-11.91 7.89-5.47-1.11-9-6.44-7.89-11.91 1.11-5.47 6.44-9 11.91-7.89 5.47 1.11 9 6.44 7.89 11.91Z" class="cls-51"/><path d="M40.92 109.19a6.831 6.831 0 0 1 6.46-4.21M93.3 112.07c-1.11 5.47-6.44 9-11.91 7.89-5.47-1.11-9-6.44-7.89-11.91 1.11-5.47 6.44-9 11.91-7.89 5.47 1.11 9 6.44 7.89 11.91Z" class="cls-51"/><path d="M81.83 103.41a6.828 6.828 0 0 1 4.65.55M76.7 108.7c.34-1.7 1.29-3.12 2.58-4.09" class="cls-51"/><path d="M57.13 113.82c1.19-5.84 7.83-38.58 9.22-45.44 6.19-.11 36.17-1.75 36.17-1.75s-8.04 39.6-9.22 45.44M129.46 110.33c-1.11 5.47-6.44 9-11.91 7.89-5.47-1.11-9-6.44-7.89-11.91 1.11-5.47 6.44-9 11.91-7.89 5.47 1.11 9 6.44 7.89 11.91Z" class="cls-51"/><path d="M113.15 105.95a6.846 6.846 0 0 1 5.3-4.37M102.52 66.64c6.19-.11 36.17-1.75 36.17-1.75s-8.04 39.6-9.22 45.44M63.93 81.63c3.23-.19 35.82-1.36 35.82-1.36M448.05 357.21c3.59-1.37 7.43-2.23 11.43-2.49M427.78 374.68c2.93-5.19 7.01-9.65 11.89-13.03M410.36 402.85c-2.76 5.52-9.47 7.77-14.99 5.01s-7.77-9.47-5.01-15c2.76-5.52 9.47-7.77 15-5.01 5.52 2.76 7.77 9.47 5.01 15Z" class="cls-51"/><path d="M394.37 393.24a7.582 7.582 0 0 1 8.11-2.65M449.52 411.38c-2.76 5.52-9.47 7.77-15 5.01-5.52-2.76-7.77-9.47-5.01-15 2.76-5.52 9.47-7.77 15-5.01 5.52 2.76 7.77 9.47 5.01 14.99Z" class="cls-51"/><path d="M439.76 398.83a7.553 7.553 0 0 1 4.82 1.93M432.75 403.01a7.58 7.58 0 0 1 3.93-3.63" class="cls-51"/><path d="M410.36 402.85c2.94-5.9 19.46-38.99 22.92-45.91 6.65 1.66 39.16 8.53 39.16 8.53s-19.98 40.01-22.92 45.91M488.67 419.91c-2.76 5.52-9.47 7.77-15 5.01-5.52-2.76-7.77-9.47-5.01-15 2.76-5.52 9.47-7.77 15-5.01 5.52 2.76 7.77 9.47 5.01 15Z" class="cls-51"/><path d="M472.5 410.54a7.604 7.604 0 0 1 6.93-3.15M472.44 365.47c6.65 1.66 39.16 8.53 39.16 8.53s-19.98 40.01-22.92 45.91M426.88 370.4c3.51.72 38.68 8.84 38.68 8.84M304.37 185.76c-2.44 3.95-7.62 5.18-11.57 2.74-3.95-2.44-5.18-7.62-2.74-11.57a8.418 8.418 0 0 1 11.58-2.74 8.418 8.418 0 0 1 2.74 11.58Z" class="cls-51"/><path d="M292.37 178.36a5.704 5.704 0 0 1 6.77-2.37M322.82 167.35c-6.94 3.25-2.55 11.79 2.98 10.3 11.81-3.18-.44-23.77-1.16-24.75 0 0-17.66 28.64-20.26 32.86M442.11 48c-1.4 5.4-6.92 8.64-12.32 7.24-5.4-1.4-8.64-6.92-7.24-12.32 1.4-5.4 6.92-8.64 12.32-7.24 5.4 1.4 8.64 6.92 7.23 12.32Z" class="cls-51"/><path d="M425.72 43.74c.83-3.18 3.77-5.25 6.93-5.11M456.79 20.36c-6.82 6.18 1.23 14.43 7.05 10.77 12.44-7.82-8.89-27.13-10.07-28 0 0-10.17 39.11-11.67 44.87M537.79 202.13c.88 6.19-3.43 11.92-9.62 12.8-6.19.88-11.92-3.43-12.8-9.62-.88-6.19 3.43-11.92 9.62-12.8 6.19-.88 11.92 3.43 12.8 9.62Z" class="cls-51"/><path d="M519 204.79c-.52-3.64 1.63-7.06 4.96-8.27M541.04 167.19c-4.38 9.34 7.5 14.4 11.95 8.1 9.49-13.45-20.9-24.23-22.5-24.62 0 0 6.36 44.84 7.3 51.45" class="cls-51"/><path d="M58.08 284.25c-2.44 5.02-8.49 7.11-13.5 4.66-5.02-2.44-7.11-8.49-4.67-13.5 2.44-5.02 8.49-7.11 13.5-4.67 5.02 2.44 7.1 8.49 4.67 13.5Z" class="cls-54"/><path d="M42.85 276.84a6.843 6.843 0 0 1 7.8-3.64M77.92 260.04c-7.9 4.72-1.64 14.39 4.79 11.95 13.73-5.21-3.37-28.35-4.35-29.43 0 0-17.67 36.34-20.28 41.69" class="cls-54"/><path d="M58.08 284.25c-2.44 5.02-8.49 7.11-13.5 4.66-5.02-2.44-7.11-8.49-4.67-13.5 2.44-5.02 8.49-7.11 13.5-4.67 5.02 2.44 7.1 8.49 4.67 13.5Z" class="cls-51"/><path d="M42.85 276.84a6.843 6.843 0 0 1 7.8-3.64M77.92 260.04c-7.9 4.72-1.64 14.39 4.79 11.95 13.73-5.21-3.37-28.35-4.35-29.43 0 0-17.67 36.34-20.28 41.69M283.24 304.97c3.17 6.77.26 14.82-6.51 17.99-6.77 3.17-14.82.26-17.99-6.51-3.17-6.76-.26-14.82 6.51-17.99 6.77-3.17 14.82-.26 17.99 6.51Z" class="cls-51"/><path d="M262.34 313.69c-1.32-3.82.05-8.05 3.27-10.39M274.73 263.92c-1.74 12.2 13.61 13.82 16.48 5.07 6.13-18.7-32.36-20.36-34.32-20.25 0 0 22.97 49 26.36 56.22" class="cls-51"/><path d="M280.47 276.17c-1.74 12.2 13.61 13.82 16.48 5.07 6.13-18.69-32.36-20.36-34.32-20.24M360.42 113.88c2.69 5.73.22 12.56-5.51 15.24-5.73 2.69-12.56.22-15.24-5.51-2.69-5.73-.22-12.56 5.51-15.24 5.73-2.69 12.56-.22 15.25 5.51Z" class="cls-51"/><path d="M342.71 121.27c-1.12-3.23.04-6.82 2.77-8.8M353.2 79.1c-1.47 10.34 11.53 11.71 13.97 4.3 5.2-15.84-27.42-17.25-29.08-17.15 0 0 19.46 41.52 22.33 47.64" class="cls-51"/><path d="M358.07 89.48c-1.47 10.34 11.53 11.71 13.97 4.29 5.2-15.84-27.42-17.25-29.08-17.15M459.47 259.23a26.79 26.79 0 0 1 11.79-13.27" class="cls-51"/><path d="m507.87 230.07-20.74 78.87" class="cls-55"/><path d="m497.95 227.46-20.74 78.87M481.23 256.74a4.36 4.36 0 0 1-5.32 3.11c-2.33-.61-3.72-3-3.11-5.33.61-2.33 3-3.72 5.32-3.11 2.33.61 3.72 3 3.11 5.32ZM476.23 275.76a4.36 4.36 0 0 1-5.32 3.11c-2.33-.61-3.72-3-3.11-5.33.61-2.33 3-3.72 5.33-3.11 2.33.61 3.72 3 3.11 5.33Z" class="cls-51"/><path d="m309.52 44.37-13.19 72.4" class="cls-55"/><path d="m300.41 42.71-13.19 72.4M287.4 70.21a3.934 3.934 0 0 1-4.57 3.17 3.946 3.946 0 0 1-3.17-4.58 3.932 3.932 0 0 1 4.58-3.16c2.14.39 3.56 2.44 3.17 4.57ZM284.22 87.67a3.946 3.946 0 0 1-4.58 3.17 3.946 3.946 0 0 1-3.17-4.58 3.946 3.946 0 0 1 4.58-3.17c2.14.39 3.55 2.44 3.17 4.58ZM407.34 250.22a10.111 10.111 0 0 1-12.89 6.17c-5.26-1.85-8.02-7.62-6.17-12.88 1.85-5.26 7.62-8.02 12.88-6.17 5.26 1.86 8.02 7.62 6.17 12.88Z" class="cls-51"/><path d="M391.64 243.92a6.84 6.84 0 0 1 7.18-3.81M389.99 253.24c5.51 7.34 21.4 9.52 28.16-3.29-9.49 26.92-16.02 45.45-16.02 45.45M493.93 464.68a10.094 10.094 0 0 1-7.56 12.12c-5.43 1.26-10.86-2.12-12.12-7.55-1.26-5.43 2.12-10.86 7.56-12.12 5.43-1.26 10.86 2.12 12.12 7.55Z" class="cls-51"/><path d="M477.31 467.8a6.837 6.837 0 0 1 4.01-7.07M480.92 476.55c8.59 3.23 23.17-3.47 21.99-17.9 6.45 27.8 10.9 46.94 10.9 46.94" class="cls-51"/><path d="M139.26 144.82c-.58 0-1.1-.36-1.31-.91-1.43-3.92-2.37-4.86-6.29-6.29-.55-.2-.91-.72-.91-1.3s.36-1.1.91-1.3c3.92-1.43 4.86-2.38 6.29-6.29.2-.55.72-.91 1.31-.91s1.1.37 1.31.91c1.43 3.92 2.37 4.86 6.29 6.29.55.2.91.72.91 1.3s-.36 1.1-.91 1.3c-3.92 1.43-4.86 2.38-6.29 6.29-.2.55-.72.91-1.31.91ZM522.32 334.15c-.58 0-1.1-.36-1.31-.91-1.43-3.92-2.37-4.86-6.29-6.29-.55-.2-.91-.72-.91-1.3s.36-1.1.91-1.3c3.92-1.43 4.86-2.38 6.29-6.29.2-.55.72-.91 1.31-.91s1.1.36 1.31.91c1.43 3.92 2.37 4.86 6.29 6.29.55.2.91.72.91 1.3s-.36 1.1-.91 1.3c-3.92 1.43-4.86 2.38-6.29 6.29-.2.55-.72.91-1.31.91Z" class="cls-53"/><path d="M356.94 29.88c-.74 0-1.4-.46-1.65-1.16-1.82-4.96-3.01-6.16-7.98-7.98-.69-.25-1.16-.91-1.16-1.65s.46-1.4 1.16-1.65c4.97-1.82 6.16-3.01 7.98-7.97.25-.69.91-1.16 1.65-1.16s1.4.46 1.65 1.16c1.82 4.96 3.01 6.16 7.98 7.97.7.26 1.15.91 1.15 1.65s-.46 1.4-1.15 1.65c-4.97 1.82-6.16 3.01-7.98 7.98-.25.69-.91 1.16-1.65 1.16Z" class="cls-52"/><path d="M341.7 41.27c-.49 0-.93-.31-1.1-.77-1.21-3.31-2-4.1-5.31-5.31-.46-.17-.77-.61-.77-1.1s.31-.93.77-1.1c3.31-1.21 4.1-2.01 5.31-5.31.17-.46.61-.77 1.1-.77s.93.31 1.1.77c1.21 3.31 2.01 4.1 5.31 5.31.46.17.77.61.77 1.1s-.31.93-.77 1.1c-3.31 1.21-4.1 2.01-5.31 5.31-.17.46-.61.77-1.1.77Z" class="cls-51"/><path d="M72.99 317.42c-.83 0-1.57-.52-1.85-1.3-2.03-5.56-3.37-6.89-8.93-8.93-.78-.29-1.29-1.02-1.29-1.85s.52-1.57 1.29-1.85c5.56-2.03 6.89-3.37 8.93-8.93a1.965 1.965 0 0 1 3.7 0c2.03 5.56 3.37 6.89 8.93 8.93.78.29 1.29 1.02 1.29 1.85s-.52 1.57-1.29 1.85c-5.56 2.03-6.89 3.37-8.93 8.93-.28.78-1.02 1.3-1.85 1.3ZM359.42 297.47c-.83 0-1.57-.52-1.85-1.3-2.03-5.56-3.37-6.89-8.93-8.93-.78-.29-1.29-1.02-1.29-1.85s.52-1.57 1.29-1.85c5.56-2.03 6.89-3.37 8.93-8.93a1.965 1.965 0 0 1 3.7 0c2.03 5.56 3.37 6.89 8.93 8.93.78.29 1.29 1.02 1.29 1.85s-.52 1.57-1.29 1.85c-5.56 2.03-6.89 3.37-8.93 8.93-.29.78-1.02 1.3-1.85 1.3Z" class="cls-53"/><path d="M83.37 512.08c-.83 0-1.57-.52-1.85-1.3-2.03-5.56-3.37-6.89-8.93-8.93-.78-.29-1.29-1.02-1.29-1.85s.52-1.57 1.29-1.85c5.56-2.03 6.89-3.37 8.93-8.93a1.965 1.965 0 0 1 3.7 0c2.03 5.56 3.37 6.89 8.93 8.93.78.29 1.29 1.02 1.29 1.85s-.52 1.57-1.29 1.85c-5.56 2.03-6.89 3.37-8.93 8.93-.28.78-1.02 1.3-1.85 1.3Z" class="cls-52"/><path d="M337.5 221.03c1.79-.6 3.7-.92 5.68-.92 1.1 0 2.18.1 3.22.29M326.52 231.44a18 18 0 0 1 6.05-7.85M342.98 256.05c-.67 0-1.28-.42-1.51-1.05-1.66-4.52-2.74-5.61-7.27-7.27a1.611 1.611 0 0 1 0-3.02c4.53-1.66 5.61-2.74 7.27-7.27.23-.63.83-1.05 1.51-1.05s1.28.42 1.51 1.05c1.66 4.52 2.74 5.61 7.27 7.27.63.23 1.05.83 1.05 1.51s-.42 1.28-1.05 1.51c-4.53 1.66-5.61 2.74-7.27 7.27-.23.63-.83 1.05-1.51 1.05Z" class="cls-51"/><path d="M448.32 512.08c-.83 0-1.57-.52-1.85-1.3-2.03-5.56-3.37-6.89-8.93-8.93-.78-.29-1.29-1.02-1.29-1.85s.52-1.57 1.29-1.85c5.56-2.03 6.89-3.37 8.93-8.93a1.965 1.965 0 0 1 3.7 0c2.03 5.56 3.37 6.89 8.93 8.93.78.29 1.29 1.02 1.29 1.85s-.52 1.57-1.29 1.85c-5.56 2.03-6.89 3.37-8.93 8.93-.28.78-1.02 1.3-1.85 1.3Z" class="cls-53"/><path d="M475.9 200.84c-.83 0-1.57-.52-1.85-1.3-2.03-5.56-3.37-6.89-8.93-8.93-.78-.29-1.29-1.02-1.29-1.85s.52-1.57 1.29-1.85c5.56-2.03 6.89-3.37 8.93-8.93a1.965 1.965 0 0 1 3.7 0c2.03 5.56 3.37 6.89 8.93 8.93.78.29 1.29 1.02 1.29 1.85s-.52 1.57-1.29 1.85c-5.56 2.03-6.89 3.37-8.93 8.93-.28.78-1.02 1.3-1.85 1.3Z" class="cls-51"/><circle cx="108.97" cy="158.98" r="6.04" class="cls-51"/><circle cx="124.43" cy="13.8" r="6.04" class="cls-51"/><circle cx="43.08" cy="338.94" r="6.04" class="cls-51"/><path d="M293.41 342.21c0 2.83-2.29 5.12-5.12 5.12s-5.12-2.29-5.12-5.12 2.29-5.12 5.12-5.12 5.12 2.29 5.12 5.12ZM420.9 433.62a6.041 6.041 0 1 1-12.082-.002 6.041 6.041 0 0 1 12.082.002ZM512.44 400.2c0 2.66-2.15 4.81-4.81 4.81s-4.81-2.15-4.81-4.81 2.15-4.81 4.81-4.81 4.81 2.15 4.81 4.81ZM508.53 43.45c0 2.66-2.15 4.81-4.81 4.81s-4.81-2.15-4.81-4.81 2.15-4.81 4.81-4.81 4.81 2.15 4.81 4.81ZM231.71 143.71c0 2.66-2.15 4.81-4.81 4.81s-4.81-2.15-4.81-4.81 2.15-4.81 4.81-4.81 4.81 2.15 4.81 4.81ZM124.46 237.45c0 2.66-2.15 4.81-4.81 4.81s-4.81-2.15-4.81-4.81 2.15-4.81 4.81-4.81 4.81 2.15 4.81 4.81ZM59.79 351.51c0 2.66-2.15 4.81-4.81 4.81s-4.81-2.15-4.81-4.81 2.15-4.81 4.81-4.81 4.81 2.15 4.81 4.81ZM337.67 443.66c-1.35 7.25-8.31 12.02-15.56 10.67-7.25-1.35-12.02-8.32-10.67-15.56 1.35-7.24 8.31-12.02 15.56-10.68 7.25 1.35 12.02 8.32 10.67 15.56Z" class="cls-51"/><path d="M315.68 439.57c.79-4.26 4.48-7.27 8.66-7.37M354.45 405.88c-8.41 8.78 2.96 18.9 10.29 13.54 15.66-11.45-14.22-34.92-15.86-35.96l-11.21 60.2M217.67 477.41a4.42 4.42 0 0 1-4.61 4.23 4.42 4.42 0 0 1-4.23-4.61 4.42 4.42 0 0 1 4.61-4.23 4.42 4.42 0 0 1 4.23 4.61Z" class="cls-51"/><path d="M223.2 454.15c-15.2-1.06-10.31-20.5 3.4-21.39 13.71-.89 24.99 18.67 8.47 29.25-16.63 10.64-44.68-10.78-22.35-31.71 49.51-46.41 12.59-69.47 12.95-33.95.19 18.96 3.23 69.45 1.92 83.49-.97 10.38-10.59 13.68-16.72 9.45-4.42-3.05-6.56-12.44.16-15.88" class="cls-51"/></g><g id="BG-2" data-name="BG" style="clip-path:url(#clippath-2)"><path d="M658.32 416.91c1.52 5.37-1.6 10.95-6.97 12.47-5.37 1.52-10.95-1.6-12.47-6.97-1.52-5.37 1.6-10.95 6.97-12.47 5.37-1.52 10.95 1.6 12.47 6.97Z" class="cls-51"/><path d="M641.79 420.15a6.855 6.855 0 0 1 4.13-6.78M699.43 394.78c1.52 5.37-1.6 10.95-6.97 12.47-5.37 1.52-10.95-1.6-12.47-6.97-1.52-5.37 1.6-10.95 6.97-12.47 5.37-1.52 10.95 1.6 12.47 6.97Z" class="cls-51"/><path d="M685.93 391.84c.58-.39 1.22-.69 1.93-.89.63-.18 1.27-.26 1.9-.26M683.14 399.39c-.51-1.81-.24-3.66.61-5.19" class="cls-51"/><path d="M658.32 416.91c-1.62-5.73-10.72-37.88-12.62-44.61 5.45-2.93 41.11-22.13 41.11-22.13l12.62 44.61" class="cls-51"/><path d="M649.62 385.18c3.49-1.95 40.98-21.66 40.98-21.66M540.62 198.94c1.52 5.37-1.6 10.95-6.97 12.47-5.37 1.52-10.95-1.6-12.47-6.97-1.52-5.37 1.6-10.95 6.97-12.47 5.37-1.52 10.95 1.6 12.47 6.97Z" class="cls-51"/><path d="M524.08 202.19a6.855 6.855 0 0 1 4.13-6.78M581.73 176.81c1.52 5.37-1.6 10.95-6.97 12.47-5.37 1.52-10.95-1.6-12.47-6.97s1.6-10.95 6.97-12.47c5.37-1.52 10.95 1.6 12.47 6.97Z" class="cls-51"/><path d="M568.23 173.87c.58-.39 1.22-.69 1.93-.89.63-.18 1.27-.26 1.9-.26M565.44 181.42c-.51-1.81-.24-3.66.61-5.19" class="cls-51"/><path d="M540.62 198.94c-1.62-5.73-10.72-37.88-12.62-44.61 5.45-2.93 41.11-22.13 41.11-22.13l12.62 44.61" class="cls-51"/><path d="M531.91 167.22c3.49-1.95 40.98-21.66 40.98-21.66M760.54 28.15c-3.07 4.66-9.33 5.95-13.99 2.89-4.66-3.07-5.95-9.33-2.89-13.99 3.07-4.66 9.33-5.95 13.99-2.89 4.66 3.07 5.95 9.33 2.89 13.99Z" class="cls-51"/><path d="M747.22 17.82a6.86 6.86 0 0 1 7.56-1.51M794.76 40c-3.07 4.66-9.33 5.95-13.99 2.89-4.66-3.07-5.95-9.33-2.89-13.99 3.07-4.66 9.33-5.95 13.99-2.89 4.66 3.07 5.95 9.33 2.89 13.99Z" class="cls-51"/><path d="M787.34 27.69c.95.14 1.88.49 2.73 1.05.53.35.99.75 1.38 1.2M780.61 30.69a6.767 6.767 0 0 1 3.91-2.83" class="cls-51"/><path d="M760.54 28.15c3.27-4.98 21.64-32.89 25.48-38.73 5.79 2.2 34.22 11.85 34.22 11.85S798.03 35.02 794.76 40M828.97 51.85c-3.07 4.66-9.33 5.95-13.99 2.89-4.66-3.07-5.95-9.33-2.89-13.99 3.07-4.66 9.33-5.95 13.99-2.89s5.95 9.33 2.89 13.99Z" class="cls-51"/><path d="M815.47 41.71a6.842 6.842 0 0 1 6.55-2.08M820.23 1.27c5.79 2.2 34.22 11.84 34.22 11.84l-25.48 38.73M778.83.81c3.07 1.03 33.76 12.07 33.76 12.07M579.05 88.93c-1.11 5.47-6.44 9-11.91 7.89-5.47-1.11-9-6.44-7.89-11.91 1.11-5.47 6.44-9 11.91-7.89 5.47 1.11 9 6.44 7.89 11.91Z" class="cls-51"/><path d="M562.84 84.3a6.831 6.831 0 0 1 6.46-4.21M615.22 87.18c-1.11 5.47-6.44 9-11.91 7.89-5.47-1.11-9-6.44-7.89-11.91 1.11-5.47 6.44-9 11.91-7.89 5.47 1.11 9 6.44 7.89 11.91Z" class="cls-51"/><path d="M603.75 78.52a6.828 6.828 0 0 1 4.65.55M598.62 83.81c.34-1.7 1.29-3.12 2.58-4.09" class="cls-51"/><path d="M579.05 88.93c1.19-5.84 7.83-38.58 9.22-45.44 6.19-.11 36.17-1.75 36.17-1.75s-8.04 39.6-9.22 45.44M651.38 85.44c-1.11 5.47-6.44 9-11.91 7.89-5.47-1.11-9-6.44-7.89-11.91 1.11-5.47 6.44-9 11.91-7.89 5.47 1.11 9 6.44 7.89 11.91Z" class="cls-51"/><path d="M635.07 81.06a6.846 6.846 0 0 1 5.3-4.37M624.44 41.75c6.19-.11 36.17-1.75 36.17-1.75s-8.04 39.6-9.22 45.44M585.85 56.74c3.23-.19 35.82-1.36 35.82-1.36M980.9 351.16c3.59-1.37 7.43-2.23 11.43-2.49M960.62 368.63c2.93-5.19 7.01-9.65 11.89-13.03M962.4 396.43c-2.49 4.99-8.56 7.02-13.55 4.53-4.99-2.49-7.02-8.56-4.53-13.55 2.49-4.99 8.56-7.02 13.55-4.53s7.02 8.56 4.53 13.55Z" class="cls-51"/><path d="M947.94 387.76a6.853 6.853 0 0 1 7.33-2.39M997.78 404.14c-2.49 4.99-8.56 7.02-13.55 4.53-4.99-2.49-7.02-8.56-4.53-13.55 2.49-4.99 8.56-7.02 13.55-4.53 4.99 2.49 7.02 8.56 4.53 13.55Z" class="cls-51"/><path d="M988.96 392.8c.96.03 1.92.26 2.83.72.56.28 1.07.63 1.52 1.03M982.63 396.58a6.784 6.784 0 0 1 3.55-3.28" class="cls-51"/><path d="M962.4 396.43c2.66-5.33 17.59-35.23 20.71-41.48 6.01 1.5 35.38 7.71 35.38 7.71s-18.05 36.15-20.71 41.48M1033.15 411.85c-2.49 4.99-8.56 7.02-13.55 4.53-4.99-2.49-7.02-8.56-4.53-13.55 2.49-4.99 8.56-7.02 13.55-4.53 4.99 2.49 7.02 8.56 4.53 13.55Z" class="cls-51"/><path d="M1018.54 403.38a6.843 6.843 0 0 1 6.26-2.85M1018.48 362.66c6.01 1.5 35.38 7.71 35.38 7.71s-18.05 36.15-20.71 41.48M977.32 367.12c3.17.65 34.95 7.99 34.95 7.99M771.32 251.92c-3.32 5.38-10.37 7.05-15.75 3.73-5.38-3.32-7.06-10.37-3.74-15.75 3.32-5.38 10.37-7.05 15.75-3.74 5.38 3.32 7.05 10.37 3.73 15.75Z" class="cls-51"/><path d="M754.98 241.85c1.95-3.17 5.84-4.44 9.21-3.23M796.43 226.86c-9.44 4.43-3.47 16.04 4.05 14.02 16.08-4.32-.59-32.35-1.58-33.68l-27.58 44.72M997.77 48c-1.4 5.4-6.92 8.64-12.32 7.24-5.4-1.4-8.64-6.92-7.24-12.32 1.4-5.4 6.92-8.64 12.32-7.24 5.4 1.4 8.64 6.92 7.23 12.32Z" class="cls-51"/><path d="M981.38 43.74c.83-3.18 3.77-5.25 6.93-5.11M1012.45 20.36c-6.82 6.18 1.23 14.43 7.05 10.77 12.44-7.82-8.89-27.13-10.07-28 0 0-10.17 39.11-11.67 44.87M1093.45 202.13c.88 6.19-3.43 11.92-9.62 12.8-6.19.88-11.92-3.43-12.8-9.62-.88-6.19 3.43-11.92 9.62-12.8 6.19-.88 11.92 3.43 12.8 9.62Z" class="cls-51"/><path d="M1074.65 204.79c-.52-3.64 1.63-7.06 4.96-8.27" class="cls-51"/><path d="M738.05 490.31c-2.44 5.02-8.49 7.11-13.5 4.66-5.02-2.44-7.11-8.49-4.67-13.5 2.44-5.02 8.49-7.11 13.5-4.67 5.02 2.44 7.1 8.49 4.67 13.5Z" class="cls-54"/><path d="M722.82 482.9a6.843 6.843 0 0 1 7.8-3.64M757.89 466.1c-7.9 4.72-1.64 14.39 4.79 11.95 13.73-5.21-3.37-28.35-4.35-29.43 0 0-17.67 36.34-20.28 41.69" class="cls-54"/><path d="M738.05 490.31c-2.44 5.02-8.49 7.11-13.5 4.66-5.02-2.44-7.11-8.49-4.67-13.5 2.44-5.02 8.49-7.11 13.5-4.67 5.02 2.44 7.1 8.49 4.67 13.5Z" class="cls-51"/><path d="M722.82 482.9a6.843 6.843 0 0 1 7.8-3.64M757.89 466.1c-7.9 4.72-1.64 14.39 4.79 11.95 13.73-5.21-3.37-28.35-4.35-29.43 0 0-17.67 36.34-20.28 41.69M582.98 441.11c1-1.06 2.09-2.03 3.27-2.89M577.12 452.92c.54-3.2 1.74-6.17 3.46-8.77M591.83 469.05c3.15 5.21 1.47 11.98-3.74 15.13-5.21 3.15-11.99 1.47-15.13-3.74-3.15-5.21-1.47-11.99 3.74-15.13 5.21-3.15 11.99-1.47 15.13 3.74Z" class="cls-51"/><path d="M576.02 478.6a7.467 7.467 0 0 1 1.29-9.3M581.43 436.52c-.37 10.03 12.21 10.04 13.79 2.7 3.37-15.67-27.96-13.73-29.54-13.48 0 0 22.79 37.74 26.15 43.31M779.8 362.97c3.56 7.6.29 16.64-7.31 20.2-7.6 3.56-16.64.29-20.2-7.31-3.56-7.59-.29-16.64 7.31-20.2 7.6-3.56 16.64-.29 20.2 7.31Z" class="cls-51"/><path d="M756.33 372.76c-1.48-4.28.06-9.03 3.68-11.66M770.24 316.88c-1.95 13.7 15.28 15.52 18.51 5.69 6.89-20.99-36.33-22.86-38.54-22.73 0 0 25.79 55.01 29.59 63.12" class="cls-51"/><path d="M776.69 330.64c-1.95 13.7 15.28 15.52 18.51 5.69 6.89-20.99-36.34-22.86-38.54-22.73M916.08 113.88c2.69 5.73.22 12.56-5.51 15.24-5.73 2.69-12.56.22-15.24-5.51-2.69-5.73-.22-12.56 5.51-15.24 5.73-2.69 12.56-.22 15.25 5.51Z" class="cls-51"/><path d="M898.37 121.27c-1.12-3.23.04-6.82 2.77-8.8M908.86 79.1c-1.47 10.34 11.53 11.71 13.97 4.3 5.2-15.84-27.42-17.25-29.08-17.15 0 0 19.46 41.52 22.33 47.64" class="cls-51"/><path d="M913.73 89.48c-1.47 10.34 11.53 11.71 13.97 4.29 5.2-15.84-27.42-17.25-29.08-17.15M653.07 249.36c2.15-6.65 6.22-12.44 11.54-16.74M694.38 269.06c1.97 7.05-2.14 14.36-9.19 16.33-7.05 1.97-14.36-2.14-16.33-9.19-1.97-7.05 2.14-14.36 9.19-16.33 7.05-1.97 14.36 2.14 16.33 9.19Z" class="cls-51"/><path d="M672.78 274.11c-.66-3.9 1.35-7.77 4.84-9.51M692.78 228.03c-3.65 11.51 10.92 15.55 15.1 7.56 8.94-17.07-27.98-24.89-29.89-25.1 0 0 14.28 51.04 16.39 58.57" class="cls-51"/><path d="M696.35 240.79c-3.65 11.51 10.92 15.55 15.1 7.56 8.94-17.07-27.98-24.89-29.89-25.1M819.08 503.57a4.348 4.348 0 0 1-4.86 3.77 4.344 4.344 0 1 1 4.85-3.77Z" class="cls-51"/><path d="M826.39 481.25c-14.8-2.27-8.43-20.91 5.07-20.67 13.49.24 22.94 20.31 5.91 29.32-17.14 9.07-42.86-14.19-19.3-32.86 52.24-41.4 17.97-66.98 15.43-32.19-1.35 18.58-2.48 68.25-4.91 81.89-1.79 10.08-11.48 12.53-17.13 7.89-4.08-3.34-5.41-12.71 1.45-15.53M962.84 195.06a10.111 10.111 0 0 1-12.89 6.17c-5.26-1.85-8.02-7.62-6.17-12.88 1.85-5.26 7.62-8.02 12.88-6.17 5.26 1.86 8.02 7.62 6.17 12.88Z" class="cls-51"/><path d="M947.15 188.76a6.84 6.84 0 0 1 7.18-3.81M945.5 198.09c5.51 7.34 21.4 9.52 28.16-3.29-9.49 26.92-16.02 45.45-16.02 45.45M1049.59 464.68a10.094 10.094 0 0 1-7.56 12.12c-5.43 1.26-10.86-2.12-12.12-7.55-1.26-5.43 2.12-10.86 7.56-12.12 5.43-1.26 10.86 2.12 12.12 7.55Z" class="cls-51"/><path d="M1032.96 467.8a6.837 6.837 0 0 1 4.01-7.07M1036.58 476.55c8.59 3.23 23.17-3.47 21.99-17.9 6.45 27.8 10.9 46.94 10.9 46.94M746.74 66.22a25.54 25.54 0 0 1 7.61-1.15c.49 0 .98.01 1.47.04M731.59 78.75c2.17-4.07 5.4-7.48 9.32-9.89" class="cls-51"/><path d="M675.94 133.15c-.58 0-1.1-.36-1.31-.91-1.43-3.92-2.37-4.86-6.29-6.29-.55-.2-.91-.72-.91-1.3s.36-1.1.91-1.3c3.92-1.43 4.86-2.38 6.29-6.29.2-.55.72-.91 1.31-.91s1.1.37 1.31.91c1.43 3.92 2.37 4.86 6.29 6.29.55.2.91.72.91 1.3s-.36 1.1-.91 1.3c-3.92 1.43-4.86 2.38-6.29 6.29-.2.55-.72.91-1.31.91ZM1077.98 334.15c-.58 0-1.1-.36-1.31-.91-1.43-3.92-2.37-4.86-6.29-6.29-.55-.2-.91-.72-.91-1.3s.36-1.1.91-1.3c3.92-1.43 4.86-2.38 6.29-6.29.2-.55.72-.91 1.31-.91s1.1.36 1.31.91c1.43 3.92 2.37 4.86 6.29 6.29.55.2.91.72.91 1.3s-.36 1.1-.91 1.3c-3.92 1.43-4.86 2.38-6.29 6.29-.2.55-.72.91-1.31.91Z" class="cls-53"/><path d="M939.67 36.08c-1.04 0-1.97-.65-2.33-1.63-2.56-6.98-4.23-8.66-11.21-11.21-.98-.36-1.63-1.29-1.63-2.32s.65-1.97 1.63-2.33c6.98-2.56 8.66-4.23 11.21-11.21.36-.98 1.28-1.63 2.33-1.63s1.97.65 2.32 1.63c2.55 6.98 4.23 8.66 11.21 11.21.98.36 1.62 1.29 1.62 2.33s-.65 1.97-1.62 2.32c-6.98 2.56-8.66 4.23-11.21 11.21a2.48 2.48 0 0 1-2.32 1.63Z" class="cls-52"/><path d="M897.36 41.27c-.49 0-.93-.31-1.1-.77-1.21-3.31-2-4.1-5.31-5.31-.46-.17-.77-.61-.77-1.1s.31-.93.77-1.1c3.31-1.21 4.1-2.01 5.31-5.31.17-.46.61-.77 1.1-.77s.93.31 1.1.77c1.21 3.31 2.01 4.1 5.31 5.31.46.17.77.61.77 1.1s-.31.93-.77 1.1c-3.31 1.21-4.1 2.01-5.31 5.31-.17.46-.61.77-1.1.77Z" class="cls-51"/><path d="M628.65 317.42c-.83 0-1.57-.52-1.85-1.3-2.03-5.56-3.37-6.89-8.93-8.93-.78-.29-1.29-1.02-1.29-1.85s.52-1.57 1.29-1.85c5.56-2.03 6.89-3.37 8.93-8.93a1.965 1.965 0 0 1 3.7 0c2.03 5.56 3.37 6.89 8.93 8.93.78.29 1.29 1.02 1.29 1.85s-.52 1.57-1.29 1.85c-5.56 2.03-6.89 3.37-8.93 8.93-.28.78-1.02 1.3-1.85 1.3ZM915.07 297.47c-.83 0-1.57-.52-1.85-1.3-2.03-5.56-3.37-6.89-8.93-8.93-.78-.29-1.29-1.02-1.29-1.85s.52-1.57 1.29-1.85c5.56-2.03 6.89-3.37 8.93-8.93a1.965 1.965 0 0 1 3.7 0c2.03 5.56 3.37 6.89 8.93 8.93.78.29 1.29 1.02 1.29 1.85s-.52 1.57-1.29 1.85c-5.56 2.03-6.89 3.37-8.93 8.93-.29.78-1.02 1.3-1.85 1.3Z" class="cls-53"/><path d="M641.56 515.84c-.83 0-1.57-.52-1.85-1.3-2.03-5.56-3.37-6.89-8.93-8.93-.78-.29-1.29-1.02-1.29-1.85s.52-1.57 1.29-1.85c5.56-2.03 6.89-3.37 8.93-8.93a1.965 1.965 0 0 1 3.7 0c2.03 5.56 3.37 6.89 8.93 8.93.78.29 1.29 1.02 1.29 1.85s-.52 1.57-1.29 1.85c-5.56 2.03-6.89 3.37-8.93 8.93-.28.78-1.02 1.3-1.85 1.3Z" class="cls-52"/><path d="M905.71 117.45c1.79-.6 3.7-.92 5.68-.92 1.1 0 2.18.1 3.22.29M894.73 127.87a18 18 0 0 1 6.05-7.85M911.19 152.48c-.67 0-1.28-.42-1.51-1.05-1.66-4.52-2.74-5.61-7.27-7.27a1.611 1.611 0 0 1 0-3.02c4.53-1.66 5.61-2.74 7.27-7.27.23-.63.83-1.05 1.51-1.05s1.28.42 1.51 1.05c1.66 4.52 2.74 5.61 7.27 7.27.63.23 1.05.83 1.05 1.51s-.42 1.28-1.05 1.51c-4.53 1.66-5.61 2.74-7.27 7.27-.23.63-.83 1.05-1.51 1.05Z" class="cls-51"/><path d="M1003.98 512.08c-.83 0-1.57-.52-1.85-1.3-2.03-5.56-3.37-6.89-8.93-8.93-.78-.29-1.29-1.02-1.29-1.85s.52-1.57 1.29-1.85c5.56-2.03 6.89-3.37 8.93-8.93a1.965 1.965 0 0 1 3.7 0c2.03 5.56 3.37 6.89 8.93 8.93.78.29 1.29 1.02 1.29 1.85s-.52 1.57-1.29 1.85c-5.56 2.03-6.89 3.37-8.93 8.93-.28.78-1.02 1.3-1.85 1.3Z" class="cls-53"/><path d="M1031.56 200.84c-.83 0-1.57-.52-1.85-1.3-2.03-5.56-3.37-6.89-8.93-8.93-.78-.29-1.29-1.02-1.29-1.85s.52-1.57 1.29-1.85c5.56-2.03 6.89-3.37 8.93-8.93a1.965 1.965 0 0 1 3.7 0c2.03 5.56 3.37 6.89 8.93 8.93.78.29 1.29 1.02 1.29 1.85s-.52 1.57-1.29 1.85c-5.56 2.03-6.89 3.37-8.93 8.93-.28.78-1.02 1.3-1.85 1.3Z" class="cls-51"/><circle cx="664.63" cy="158.98" r="6.04" class="cls-51"/><circle cx="680.09" cy="13.8" r="6.04" class="cls-51"/><circle cx="598.74" cy="338.94" r="6.04" class="cls-51"/><path d="M849.07 342.21c0 2.83-2.29 5.12-5.12 5.12s-5.12-2.29-5.12-5.12 2.29-5.12 5.12-5.12 5.12 2.29 5.12 5.12ZM976.55 433.62a6.041 6.041 0 1 1-12.082-.002 6.041 6.041 0 0 1 12.082.002ZM1068.1 400.2c0 2.66-2.15 4.81-4.81 4.81s-4.81-2.15-4.81-4.81 2.15-4.81 4.81-4.81 4.81 2.15 4.81 4.81ZM1064.19 43.45c0 2.66-2.15 4.81-4.81 4.81s-4.81-2.15-4.81-4.81 2.15-4.81 4.81-4.81 4.81 2.15 4.81 4.81ZM787.37 143.71c0 2.66-2.15 4.81-4.81 4.81s-4.81-2.15-4.81-4.81 2.15-4.81 4.81-4.81 4.81 2.15 4.81 4.81ZM680.12 237.45c0 2.66-2.15 4.81-4.81 4.81s-4.81-2.15-4.81-4.81 2.15-4.81 4.81-4.81 4.81 2.15 4.81 4.81ZM615.45 351.51c0 2.66-2.15 4.81-4.81 4.81s-4.81-2.15-4.81-4.81 2.15-4.81 4.81-4.81 4.81 2.15 4.81 4.81ZM890.27 394.37c-1.35 7.25-8.31 12.02-15.56 10.67-7.25-1.35-12.02-8.32-10.67-15.56 1.35-7.24 8.31-12.02 15.56-10.68 7.25 1.35 12.02 8.32 10.67 15.56Z" class="cls-51"/><path d="M868.29 390.28c.79-4.26 4.48-7.27 8.66-7.37M907.06 356.59c-8.41 8.78 2.96 18.9 10.29 13.54 15.66-11.45-14.22-34.92-15.86-35.96l-11.21 60.2M1008.61 58.65c3-1.18 6.25-1.86 9.64-1.96M990.94 79.61c1.4-6.85 5.26-12.82 10.6-16.94M1014.39 103.42c3.38 9.2-1.33 19.4-10.53 22.78-9.2 3.38-19.4-1.33-22.78-10.53-3.38-9.2 1.33-19.4 10.53-22.78 9.2-3.38 19.4 1.33 22.78 10.53Z" class="cls-51"/><path d="M986.1 112.47c-1.29-5.14.97-10.51 5.45-13.21M994.31 126.94c15.67 3.77 39.63-11.1 34.43-36 17.31 47.05 29.23 79.44 29.23 79.44" class="cls-51"/></g></g></g><ellipse cx="206.24" cy="474.7" class="cls-27" rx="165.33" ry="22.98"/><ellipse cx="863.09" cy="474.7" class="cls-27" rx="165.33" ry="22.98"/><path d="M838.26 284.35c-8.42-19.66-20.77-35.81-36.71-47.97-47.51-36.27-128.24-39.89-246.81-11.06-119.43 29.04-189.33 5.11-217.73-15.42l-.02.9c9.92 7.11 24.78 14.6 45.2 20.19 32.69 8.94 89.18 15.33 172.71-4.98 118.34-28.77 198.87-25.19 246.21 10.94 32.02 24.44 49.06 64.9 50.63 120.25l.71-.02c-.8-28.18-5.58-52.68-14.2-72.83Z" class="cls-37"/><path d="M848.2 272.38c-8.39-20.44-20.9-37.48-37.18-50.66-49.04-39.71-133.42-47.18-257.96-22.85-80.16 15.66-134.33 7.06-165.66-2.9-22.23-7.07-38.87-16.67-49.6-26.03l-.02.91c10.83 9.31 27.4 18.8 49.4 25.8 31.41 9.99 85.71 18.61 166.01 2.92 124.32-24.28 208.5-16.86 257.37 22.71 32.53 26.34 49.5 68.06 50.44 124.03h.71c-.48-28.35-5.02-53.21-13.52-73.92Z" class="cls-37"/><path d="M858.27 260.68c-8.29-21.14-20.86-39.04-37.37-53.19-50.36-43.18-138.52-54.65-269.52-35.08-76.65 11.45-128.7.66-158.86-10.4-25.35-9.3-42.97-21.44-53.91-32.82l-.02.99c11.05 11.3 28.61 23.29 53.69 32.49 30.24 11.1 82.41 21.91 159.21 10.44 130.78-19.54 218.75-8.12 268.95 34.92 33.26 28.51 49.56 70.17 49.83 127.35h.71c-.14-28.4-4.42-53.53-12.71-74.7Z" class="cls-37"/><path d="M868.47 249.39c-8.09-21.72-20.6-40.37-37.19-55.43-51.39-46.66-143.5-62.37-281.59-48.02-57.71 6-110.28-.08-152.01-17.6-24.91-10.45-45.25-24.67-58.26-40.4l-.02 1.08c13.11 15.57 33.33 29.62 58.01 39.97 41.84 17.56 94.52 23.66 152.36 17.65 137.88-14.33 229.81 1.31 281.04 47.83 33.2 30.15 49.13 72.67 48.71 129.98h.71c.21-28.31-3.75-53.58-11.76-75.08Z" class="cls-37"/><path d="M842.29 181.44c-52.05-50.12-148.31-70.38-294.28-61.95-104.04 6-176.44-30.69-207.76-73.48l-.02 1.05c14.17 18.86 36.04 36.04 62.31 48.55 40.44 19.25 90.75 27.76 145.51 24.59 145.75-8.41 241.84 11.78 293.74 61.75 32.74 31.53 48.11 74.57 46.98 131.6h.71c1.13-57.22-14.3-100.44-47.2-132.11Z" class="cls-37"/><path d="M831.38 280.81c-.13 0-.25-.07-.31-.2a.353.353 0 0 1 .16-.48l57.33-28.42c.18-.09.39-.02.48.16.09.18.02.39-.16.48l-57.33 28.42c-.05.03-.11.04-.16.04ZM767.03 225.09s-.07 0-.1-.02a.355.355 0 0 1-.23-.45l25.74-82.88c.06-.19.25-.3.45-.23.19.06.29.26.23.45l-25.74 82.88c-.05.15-.19.25-.35.25ZM625.31 218.72c-.18 0-.34-.15-.35-.33l-6.6-105.65c-.01-.2.14-.36.33-.38.18-.01.36.14.38.33l6.6 105.65c.01.2-.14.36-.33.38h-.03ZM374.23 238.81h-.07a.364.364 0 0 1-.27-.43l35.4-151.18c.04-.19.24-.31.43-.27.19.04.31.24.27.43l-35.4 151.18c-.04.17-.19.28-.35.27Z" class="cls-37"/><path d="M811.09 176.97c-.25 1.78-3.32 2.83-6.87 2.34-3.55-.49-6.22-2.33-5.98-4.12.25-1.78 3.32-2.83 6.87-2.34s6.22 2.33 5.98 4.12ZM822.81 185.16c-.25 1.78-3.32 2.83-6.87 2.34-3.55-.49-6.22-2.33-5.98-4.12.25-1.78 3.32-2.83 6.87-2.34s6.22 2.33 5.98 4.12Z" class="cls-19"/><path d="m809.14 176.43 9.53-16.14 15.04 8.15-11.23 17.49-1.59-1.03 10.12-15.76-11.64-6.32-8.6 14.57-1.63-.96zM868.83 290.49c-1.2.7-3.3-.67-4.68-3.06-1.39-2.39-1.54-4.89-.34-5.58 1.2-.7 3.3.67 4.68 3.06 1.39 2.39 1.54 4.89.34 5.58ZM869.43 301.49c-1.2.7-3.3-.67-4.68-3.06-1.39-2.39-1.54-4.89-.34-5.58 1.2-.7 3.3.67 4.68 3.06 1.39 2.39 1.54 4.89.34 5.58Z" class="cls-19"/><path d="m868.24 289.05 14.32-1.88 2.19 13-15.94 1.49-.14-1.45 14.38-1.35-1.7-10.06-12.92 1.7-.19-1.45zM704.41 141.77c.63 1.84-1.82 4.34-5.48 5.59-3.65 1.25-7.13.78-7.76-1.06-.63-1.84 1.82-4.34 5.48-5.59 3.65-1.25 7.13-.78 7.76 1.06ZM719.68 143.96c.63 1.84-1.82 4.34-5.48 5.59-3.65 1.25-7.13.78-7.76-1.06-.63-1.84 1.82-4.34 5.48-5.59 3.65-1.25 7.13-.78 7.76 1.06Z" class="cls-19"/><path d="m702.27 142.19 1.34-20.17 18.43.55-2.3 22.29-2.03-.21 2.08-20.11-14.28-.42-1.2 18.21-2.04-.14zM586.71 153.26c1.13 2.03-1.24 5.5-5.28 7.75-4.05 2.25-8.24 2.42-9.37.38-1.13-2.03 1.24-5.5 5.28-7.75 4.05-2.25 8.24-2.42 9.37-.38ZM605.18 152.63c1.13 2.03-1.24 5.5-5.28 7.75-4.05 2.25-8.24 2.42-9.37.38-1.13-2.03 1.24-5.5 5.28-7.75 4.05-2.25 8.24-2.42 9.37-.38Z" class="cls-19"/><path d="m584.29 154.21-2.67-24.07 21.86-3.23 1.96 26.77-2.44.18-1.77-24.15-16.92 2.5 2.4 21.73-2.42.27zM432.3 121.19c.11 2.76-4.26 5.18-9.76 5.39-5.5.21-10.04-1.85-10.15-4.61-.11-2.76 4.26-5.18 9.76-5.39 5.5-.21 10.04 1.85 10.15 4.61ZM452.23 130.42c.11 2.76-4.26 5.18-9.76 5.39-5.5.21-10.04-1.85-10.15-4.61-.11-2.76 4.26-5.18 9.76-5.39 5.5-.21 10.04 1.85 10.15 4.61Z" class="cls-19"/><path d="m429.21 120.89 10.07-26.96 24.92 8.28-12.25 29.46-2.69-1.12 11.06-26.57-19.3-6.41-9.09 24.34-2.72-1.02zM828.28 257.18c-.49 2.04-4.18 2.89-8.24 1.91-4.05-.98-6.94-3.43-6.45-5.47.49-2.04 4.18-2.89 8.24-1.91 4.06.98 6.94 3.43 6.45 5.47Z" class="cls-19"/><path d="M839.69 243.42c.32-.66.67-1.32 1.05-1.95l-1.71-2.73-12.94 17.58 1.77 1.31 11.68-15.87.15 1.66Z" class="cls-19"/><path d="M839.03 238.74s4.49 2.92 4.06 6.66c-.43 3.74-2.38 7.99.95 9.76-6.11-.58-8.72-7.22-7.78-9.92.94-2.7 2.77-6.49 2.77-6.49ZM525.74 200.09c1.19 2.74-2.26 6.87-7.71 9.24-5.44 2.36-10.82 2.06-12.01-.67-1.19-2.74 2.26-6.87 7.71-9.24 5.44-2.36 10.82-2.06 12.01.67Z" class="cls-19"/><path d="M526.87 174.69c-.2-1.03-.37-2.07-.48-3.11l-4.28-1.62.42 31.05 3.13-.04-.37-28.03 1.59 1.76Z" class="cls-19"/><path d="M522.1 169.95s7.6-.54 10.32 4.07c2.72 4.61 4.17 11.11 9.46 10.25-7.42 4.59-16.09-.71-17.34-4.58-1.25-3.88-2.43-9.74-2.43-9.74Z" class="cls-19"/><path d="M669.81 217.59c-.55 0-1.1-.09-1.62-.26-3.52-1.17-5.88-5.84-7.01-13.9-.31-2.21-.63-5.31-.93-9.09-5.46-.28-10.79-2.95-15.45-7.83-12.06-12.62-.33-34.1 13.48-48.79.09-25.72 1.69-50.02 6.41-55.61.77-.91 1.63-1.38 2.57-1.41 3.39-.1 6.47 2.26 8.36 6.49 5.12 11.42 1.39 33.24-15.56 51.28-.02 4.9.03 9.85.11 14.74 2.71-1.12 5.71-1.06 8.37-.31 8.58 2.42 16.37 11.95 14 23.12-1.76 8.3-8.21 15.37-16.05 17.59-1.48.42-2.96.66-4.44.73.3 3.53.62 6.53.94 8.83 1.34 9.59 4.2 11.91 5.78 12.43 1.46.48 3.2-.1 4.65-1.57 1.38-1.39 1.93-3 1.67-3.75-.16-.47.09-.99.56-1.15.47-.16.99.09 1.15.56.62 1.79-.61 4.11-2.1 5.61-1.46 1.48-3.21 2.28-4.89 2.28Zm-8.95-42.04c.29 6.31.64 12.1 1.03 16.99 1.37-.05 2.73-.27 4.1-.66 7.21-2.05 13.15-8.57 14.78-16.23 2.09-9.83-4.89-18.79-12.72-21-2.95-.83-5.63-.62-7.84.54.13 6.37.32 12.6.58 18.43 2.72.91 5.61.54 7.53-1.12.86-.75 1.8-2.75 1.84-4.98.03-1.29-.24-3.11-1.67-4.45-1.61-1.51-3.45-1.13-4.54-.35-.94.68-1.65 1.88-1.12 3.03.21.45 0 .99-.44 1.2-.45.21-.99 0-1.2-.44-.82-1.78-.12-3.94 1.71-5.26 1.78-1.28 4.58-1.62 6.83.5 1.49 1.4 2.28 3.46 2.24 5.8-.05 2.5-1.06 5.09-2.46 6.31-2.27 1.98-5.5 2.54-8.63 1.68Zm-2.59-35.15c-12.68 14.03-22.98 33.55-12.17 44.87 4.25 4.45 9.08 6.92 14 7.25-.38-5-.74-11.01-1.04-17.62-.6-.28-1.19-.61-1.75-.99-3.32-2.26-6.1-6.84-3.95-12.91 1.17-3.31 2.97-5.5 5.04-6.85-.09-4.54-.14-9.15-.14-13.74Zm.18 15.98c-1.44 1.25-2.59 3-3.38 5.22-1.54 4.33-.32 8.38 3.26 10.81.21.14.43.28.64.4-.22-5.21-.4-10.75-.53-16.43Zm9.01-73.87h-.16c-.4.01-.82.27-1.24.77-4.22 5.01-5.82 27.75-6 52.5 17.11-19.16 17.69-39.38 13.89-47.85-1.57-3.5-3.87-5.42-6.49-5.42Z" class="cls-37"/><text style="font-family:Milk-Mango,&quot;Milk Mango&quot;;fill:#f47c37;font-size:78.26px" transform="translate(347.61 355.49)"><tspan x="0" y="0">AUDI</tspan><tspan x="188.91" y="0" style="letter-spacing:-.03em">T</tspan><tspan x="234.61" y="0">ORY</tspan></text><text style="fill:#004d40;font-size:83.19px;font-family:Milk-Mango,&quot;Milk Mango&quot;" transform="translate(348.46 431.7)"><tspan x="0" y="0">TRAINING</tspan></text><path d="m131.55 210.38-.65-7.99 16.98-.63.44.34c1.36 1.04 8.21 6.39 9.26 9.26l-2.89 1.05c-.47-1.29-4.33-4.84-7.81-7.54l-12.67.47.39 4.79-3.06.25Z" class="cls-19"/><path d="m254.96 433.54-.98-2.91 4.36-1.46c1.56-.52 2.8-1.64 3.49-3.13.69-1.49.74-3.16.13-4.69l-32.4-81.12a5.898 5.898 0 0 0-3.19-3.26 5.866 5.866 0 0 0-4.56-.03l-2.44 1-1.17-2.84 2.44-1c2.24-.92 4.71-.91 6.93.04 2.23.94 3.95 2.7 4.85 4.95l32.4 81.12a8.91 8.91 0 0 1-.19 7.12 8.886 8.886 0 0 1-5.3 4.75l-4.36 1.46Z" class="cls-23"/><path d="M88.24 210.54s53.29-3.2 63.58-1.77c10.29 1.43 15.64 2.63 29.06 31.43 13.42 28.81 74.89 182.38 78.96 193.15 4.07 10.78 16.72 10.94 14.74-2.72-1.98-13.66-14.67-38.88-22.56-64.39-7.89-25.52-6.75-51.71-6.22-56.3.8-6.91-2.77-13.82-2.77-13.82 20.02 8.55 54.01 18.41 54.01 18.41-7.79 3.42-18.38 31.03-12.63 51.49 5.74 20.46 18.78 64.95 13.7 83.94-5.08 18.99-26.78 25.14-42.29 17.93-15.5-7.21-24.56-39.85-28.71-50.37-4.15-10.53-58.51-184.4-65.96-192.32-7.45-7.92-28.29-8.18-41.62-8.57-13.33-.39-33.75 1.15-33.75 1.15l2.46-7.24Z" class="cls-23"/><path d="M285.59 309.39s-9.59 17.95-10.37 36.67c-.78 18.72 7.76 43.87 9.86 49.73 2.1 5.86 7.19 22.25 7 27.68-5.35-15.42-12.06-27.12-16.91-42.81-4.85-15.69-8.74-32.88-5.52-49.49 3.22-16.61 4.79-22.56 4.79-22.56l11.16.77Z" style="fill:#ffdea5;stroke-width:0"/><path d="M245.8 309.95c-.53 4.59-1.67 30.78 6.22 56.3 7.89 25.52 20.58 50.74 22.56 64.39.18 1.22.23 2.33.19 3.33 3.17-.6 5.53-3.96 4.58-10.44-1.98-13.66-10.04-30.72-17.92-56.24-7.89-25.52-1.18-55.8-.65-60.38.16-1.34.14-2.69.03-3.98-6.31-2.22-12.52-4.55-17.77-6.8 0 0 3.56 6.91 2.77 13.82Z" class="cls-47"/><path d="m175.27 275.66-9.92-25.12 5.36-6.13 2.32 2.02-4.13 4.72 8.55 21.66 5.07.55-.33 3.05-6.92-.75zM205.39 361.18a5.363 5.363 0 0 1-3.37-3.42l-21.3-65.9 2.92-.95 21.3 65.9a2.266 2.266 0 0 0 2.45 1.55l5.3-.67.39 3.05-5.3.67c-.83.1-1.64.01-2.39-.24ZM254.95 474.96c-5.23-1.78-12.9-5.87-21-19.34-6.36-10.6-15.97-37.19-27.04-74.87-.31-1.05-.5-1.69-.54-1.84-.31-.88-.78-2.22 7.66-8.97l1.92 2.4c-2.7 2.16-5.8 4.96-6.53 6.05.1.34.25.84.44 1.49 11 37.44 20.49 63.78 26.73 74.16 9.2 15.32 17.33 17.53 22.18 18.86.72.2 1.36.37 1.92.56.41.14.74.11 1.09-.09 1.5-.85 2.71-4.16 3.12-6.05l3 .65c-.14.64-1.42 6.28-4.61 8.08-1.12.64-2.37.75-3.6.33-.5-.17-1.08-.33-1.73-.51-.88-.24-1.89-.51-3.01-.9Zm-45.68-97.06s0 .02.01.03c0-.01 0-.02-.01-.03Z" class="cls-23"/><path d="M260.59 460.78c-15.5-7.21-24.56-39.85-28.71-50.37-4.15-10.53-50.35-172.14-71.19-190.1-8.24-7.1-45.74-5-59.07-5.4-10.87-.32-12.69.91-12.99 1.38l-.06.17s0-.07.06-.17l2-5.89-2.4.14-2.46 7.24s20.41-1.55 33.75-1.15c13.33.39 34.17.65 41.62 8.57 7.45 7.92 61.81 181.8 65.96 192.32 4.15 10.53 13.21 43.17 28.71 50.37 14.19 6.6 33.56 2 40.64-13.38-8.96 9.54-24.17 11.7-35.86 6.27Z" class="cls-47"/><path d="M297.58 313.95c-.86 2.51-13.78.39-28.86-4.74s-26.61-11.33-25.76-13.85c.86-2.51 13.78-.39 28.86 4.74s26.61 11.33 25.76 13.85Z" style="fill:#f58d00;stroke-width:0"/><path d="M294.04 315.53c-5.99 0-17.31-3.05-25.47-5.83-7.32-2.49-14.04-5.31-18.93-7.94-7.93-4.26-7.34-5.99-7.14-6.56 1.26-3.7 18.33.62 29.51 4.42 11.17 3.8 27.34 10.8 26.08 14.5-.34 1-1.83 1.41-4.03 1.41Zm-47.77-20.73c-1.68 0-2.65.26-2.81.73-.19.55 1.01 2.29 6.66 5.33 4.84 2.6 11.51 5.4 18.78 7.87 16.62 5.65 27.63 6.76 28.21 5.06.58-1.7-8.82-7.54-25.44-13.2-11.98-4.08-21.05-5.79-25.39-5.79Z" style="fill:#ffd14f;stroke-width:0"/><path d="M243.12 376.21c1.36 4.89.15 9.49-2.69 10.28-2.84.79-6.25-2.53-7.6-7.42-1.36-4.89-.15-9.49 2.69-10.28 2.84-.79 6.25 2.53 7.6 7.42Z" class="cls-19"/><path d="M235.52 368.79c-.37.1-.71.27-1.02.49-.2 1.61-.06 3.47.47 5.38 1.36 4.89 4.76 8.21 7.6 7.42.37-.1.71-.27 1.02-.49.2-1.61.06-3.47-.47-5.38-1.36-4.89-4.76-8.21-7.6-7.42Z" class="cls-28"/><path d="M249.79 394.36c1.36 4.89.15 9.49-2.69 10.28-2.84.79-6.25-2.53-7.6-7.42-1.36-4.89-.15-9.49 2.69-10.28 2.84-.79 6.25 2.53 7.6 7.42Z" class="cls-19"/><path d="M242.18 386.94c-.34.1-.66.25-.96.45-.02 1.3.15 2.7.55 4.14 1.36 4.89 4.76 8.21 7.6 7.42.35-.1.66-.25.96-.45.02-1.3-.15-2.7-.55-4.14-1.36-4.89-4.76-8.21-7.61-7.42Z" class="cls-28"/><path d="M255.14 410.13c1.36 4.89.15 9.49-2.69 10.28-2.84.79-6.25-2.53-7.6-7.42-1.36-4.89-.15-9.49 2.69-10.28 2.84-.79 6.25 2.53 7.6 7.42Z" class="cls-19"/><path d="M255.14 410.13c-1.36-4.89-4.76-8.21-7.6-7.42-.67.18-1.24.59-1.71 1.14.03 1.15.21 2.37.55 3.61 1.36 4.89 4.76 8.21 7.6 7.42.67-.18 1.24-.59 1.71-1.14-.03-1.15-.21-2.37-.55-3.61Z" class="cls-28"/><path d="M261.99 426.55c1.36 4.89.15 9.49-2.69 10.28-2.84.79-6.25-2.53-7.6-7.42-1.36-4.89-.15-9.49 2.69-10.28 2.84-.79 6.25 2.53 7.61 7.42Z" class="cls-19"/><path d="M254.38 419.13c-.32.09-.61.23-.89.41 0 1.23.18 2.55.55 3.89 1.36 4.89 4.76 8.21 7.6 7.42.32-.09.61-.23.89-.41 0-1.23-.18-2.55-.55-3.89-1.36-4.89-4.76-8.21-7.6-7.42Z" class="cls-28"/><path d="m107.05 207 1.11 11.35-21.6 1.98-20.57-2.86 8.43-4.07 7.24-1.79 2.31-3.15 23.08-1.46z" style="fill:#9a7e6e;stroke-width:0"/><path d="m66.12 217.41-.13.06 20.57 2.86 21.6-1.98-.46-4.69-41.58 3.75z" style="fill:#826556;stroke-width:0"/><path d="M188.33 290.31c1.55 5.59.5 10.77-2.34 11.55-2.84.79-6.41-3.1-7.96-8.7-1.55-5.59-.5-10.77 2.34-11.55 2.84-.79 6.41 3.1 7.96 8.7ZM195.33 313.85c1.55 5.59.5 10.77-2.34 11.55-2.84.79-6.41-3.1-7.96-8.7-1.55-5.59-.5-10.77 2.34-11.55 2.84-.79 6.41 3.1 7.96 8.7ZM202.82 339.72c1.55 5.59.5 10.77-2.34 11.55-2.84.79-6.41-3.1-7.96-8.7-1.55-5.59-.5-10.77 2.34-11.55 2.84-.79 6.41 3.1 7.96 8.7Z" class="cls-19"/><path d="M188.33 290.31c-1.55-5.59-5.12-9.49-7.96-8.7-.34.1-.66.26-.95.47.05 1.4.27 2.92.7 4.47 1.55 5.59 5.12 9.49 7.96 8.7.34-.1.66-.26.95-.47-.05-1.4-.27-2.92-.7-4.47ZM195.33 313.85c-1.55-5.59-5.12-9.49-7.96-8.7-.34.1-.66.26-.95.47.05 1.4.27 2.92.7 4.47 1.55 5.59 5.12 9.49 7.96 8.7.34-.1.66-.26.95-.47-.05-1.4-.27-2.92-.7-4.47ZM202.82 339.72c-1.55-5.59-5.12-9.49-7.96-8.7-.34.1-.66.26-.95.47.05 1.4.27 2.92.7 4.47 1.55 5.59 5.12 9.49 7.96 8.7.34-.1.66-.26.95-.47-.05-1.4-.27-2.92-.7-4.47Z" class="cls-28"/><path d="M191.29 267.91s.82 3.27 3.86 5.5 6.5 3.82 6.3 6.86c-.21 3.04-1.54 4.11.44 5.61s5.31 3.88 5.29 6.36c-.02 2.48-.81 4.01.91 6.25 1.72 2.24 3.88 1.6 4.23 4.2.36 2.61-.76 3.45 3.3 8.99 4.06 5.53 2.41 10.36 2.24 12.09s-3.53 5.15-3.53 5.15-24.21-57.55-23.03-61.01Z" class="cls-23"/><path d="M207.61 281.69c1.11 4-.3 7.88-3.14 8.67-2.84.79-6.05-1.81-7.16-5.81s.3-7.88 3.14-8.67 6.05 1.81 7.16 5.81ZM213.76 295.73c1.11 4-.3 7.88-3.14 8.66-2.84.79-6.05-1.81-7.16-5.81-1.11-4 .3-7.88 3.14-8.66 2.84-.79 6.05 1.81 7.16 5.81Z" class="cls-19"/><path d="M219.5 309.49c1.11 4-.3 7.88-3.14 8.66-2.84.79-6.05-1.81-7.16-5.81-1.11-4 .3-7.88 3.14-8.67 2.84-.79 6.05 1.81 7.16 5.81ZM223.48 324.3c1.11 4-.3 7.88-3.14 8.66-2.84.79-6.05-1.81-7.16-5.81-1.11-4 .3-7.88 3.14-8.66 2.84-.79 6.05 1.81 7.16 5.81Z" class="cls-19"/><path d="M200.46 275.88c-.48.13-.92.36-1.31.66 0 .89.11 1.82.37 2.75 1.11 4 4.31 6.6 7.16 5.81.48-.13.92-.36 1.31-.66 0-.89-.11-1.82-.37-2.75-1.11-4-4.31-6.6-7.16-5.81ZM206.6 289.92c-.48.13-.92.36-1.31.66 0 .89.11 1.82.37 2.75 1.11 4 4.31 6.6 7.16 5.81.48-.13.92-.36 1.31-.66 0-.89-.11-1.82-.37-2.75-1.11-4-4.31-6.6-7.16-5.81ZM212.34 303.68c-.48.13-.92.36-1.31.66 0 .89.11 1.82.37 2.75 1.11 4 4.31 6.6 7.16 5.81.48-.13.92-.36 1.31-.66 0-.89-.11-1.82-.37-2.75-1.11-4-4.31-6.6-7.16-5.81ZM216.32 318.5c-.48.13-.92.36-1.31.66 0 .89.11 1.82.37 2.75 1.11 4 4.31 6.6 7.16 5.81.48-.13.92-.36 1.31-.66 0-.89-.11-1.82-.37-2.75-1.11-4-4.31-6.6-7.16-5.81Z" class="cls-28"/><path d="M289.66 403.36c-2.16 6.36-9.07 9.76-15.43 7.59-6.36-2.16-9.76-9.07-7.59-15.43 2.16-6.36 9.07-9.76 15.43-7.59 6.36 2.16 9.76 9.07 7.59 15.43Z" class="cls-19"/><path d="M282.07 387.93c-3.8-1.29-7.79-.59-10.85 1.54-1.66 6.14 1.7 12.6 7.81 14.68 3.8 1.29 7.79.59 10.85-1.54 1.66-6.14-1.7-12.6-7.81-14.68Z" class="cls-28"/><path d="M294.86 428.07c-1.7 5-7.13 7.67-12.12 5.97-5-1.7-7.67-7.13-5.97-12.12 1.7-5 7.13-7.67 12.12-5.97s7.67 7.13 5.97 12.12Z" class="cls-19"/><path d="M288.9 415.95c-3.19-1.09-6.56-.38-9.02 1.57-.72 4.51 1.88 9.02 6.35 10.54 3.19 1.09 6.56.38 9.02-1.57.72-4.51-1.88-9.02-6.35-10.54Z" class="cls-28"/><path d="M287.4 454.28c-1.7 5-7.13 7.67-12.12 5.97-5-1.7-7.67-7.13-5.97-12.12 1.7-5 7.13-7.67 12.12-5.97 5 1.7 7.67 7.13 5.97 12.12Z" class="cls-19"/><path d="M281.43 442.15c-2.53-.86-5.16-.6-7.37.51-.05.12-.1.23-.14.35-1.7 5 .97 10.42 5.97 12.12 2.53.86 5.16.6 7.37-.51.05-.12.1-.23.14-.35 1.7-5-.97-10.42-5.97-12.12Z" class="cls-28"/><path d="M162.28 235.34c-.77-1.31.02-2.93 1.73-6.17 1.07-2.03 2.4-4.55 3.57-7.75 1.83-5.01 1.8-9.75-.07-13.33-.99-1.9-2.47-3.36-4.28-4.25-.88-.43-1.93.04-2.18.98-.19.73.19 1.45.86 1.79 1.21.6 2.18 1.59 2.87 2.9 1.45 2.77 1.41 6.73-.09 10.85-1.1 3.01-2.37 5.43-3.4 7.38-1.86 3.53-3.32 6.31-1.66 9.15.91 1.55 2.55 2.51 4.31 3.12 1.4.48 2.88.72 4.14.86l-1.24-3.3c-3.09-.57-4.18-1.58-4.56-2.23Z" class="cls-19"/><path d="M257.99 301.77s6.58-24.26-3.24-37.33c-9.82-13.07-16.79-3.05-11.43 3.43 5.36 6.48 15.03 22.79 14.67 33.91ZM282.94 308.69s7.39-28.2 24.82-35.67c17.43-7.47 18.65 6.63 9.51 10.05s-28.27 14.24-34.33 25.62ZM269.52 303.68s19.15-20.75 16.14-38.88c-3-18.13-15.15-11.75-13.16-2.52 1.98 9.24 3.15 30.51-2.98 41.4Z" class="cls-41"/><path d="M883.32 174.55a3.86 3.86 0 1 1-7.42-2.14 3.86 3.86 0 1 1 7.42 2.14ZM880.48 184.4a3.86 3.86 0 1 1-7.42-2.14 3.86 3.86 0 1 1 7.42 2.14ZM877.64 194.25a3.86 3.86 0 1 1-7.42-2.14 3.86 3.86 0 1 1 7.42 2.14ZM839.25 161.83a3.86 3.86 0 1 1-7.42-2.14 3.86 3.86 0 1 1 7.42 2.14ZM836.41 171.68a3.86 3.86 0 1 1-7.42-2.14 3.86 3.86 0 1 1 7.42 2.14ZM833.57 181.53a3.86 3.86 0 1 1-7.42-2.14 3.86 3.86 0 1 1 7.42 2.14Z" class="cls-34"/><path d="M856.49 421.65c-2.29-11.03-15.01-31.83-1.09-48.12s12.57-32.08 9.55-40.59c-3.02-8.5-15.82-19.54-37.22-25.71-21.4-6.17-38.11-3.65-45.2 1.93-7.08 5.59-16.64 18.24-13.54 39.44 3.1 21.2-18.75 32.03-26.56 40.14-7.81 8.11-24.71 30.74-11.45 53.14 13.26 22.4 34.21 28.16 40.46 29.96 6.25 1.8 8.11 2.34 8.11 2.34s1.86.54 8.11 2.34c6.25 1.8 27.04 8.09 50.2-3.8 23.16-11.89 20.91-40.04 18.62-51.07Z" style="fill:#ce5709;stroke-width:0"/><path d="M849.28 421.49c-2.29-11.03-15.01-31.83-1.09-48.12 13.91-16.29 12.57-32.08 9.55-40.59-3.02-8.5-15.82-19.54-37.22-25.71-21.4-6.17-38.11-3.65-45.2 1.93-7.08 5.59-16.64 18.24-13.54 39.44 3.1 21.2-18.75 32.03-26.56 40.14-7.81 8.11-24.71 30.74-11.45 53.14 13.26 22.4 34.21 28.16 40.46 29.96 6.25 1.8 8.11 2.34 8.11 2.34s1.86.54 8.11 2.34c6.25 1.8 27.04 8.09 50.2-3.8 23.16-11.89 20.91-40.04 18.62-51.07Z" style="fill:#ff8f22;stroke-width:0"/><path d="M844.53 406.59c-3.22-10.41-5.29-22.75 3.66-33.22 13.91-16.29 12.57-32.08 9.55-40.59-3.02-8.5-15.82-19.54-37.22-25.71-20.84-6.01-37.22-3.78-44.61 1.5-2.27 43.76 29.11 81.8 68.62 98.02Z" style="fill:#ffa034;stroke-width:0"/><path d="M831.44 359.91c-4.12 14.28-19.04 22.52-33.32 18.4-14.28-4.12-22.52-19.04-18.4-33.32 4.12-14.28 19.04-22.52 33.32-18.4 14.28 4.12 22.52 19.04 18.4 33.32Z" style="fill:#ffba00;stroke-width:0"/><path d="m857.46 202.25-9.32-2.68-9.31-2.69L795.6 335.7l13.67 3.95 13.68 3.94 34.51-141.34z" style="fill:#6b2907;stroke-width:0"/><path d="M825.2 358.11c-3.13 10.83-14.44 17.08-25.28 13.96-10.83-3.13-17.08-14.44-13.96-25.28 3.13-10.83 14.44-17.08 25.28-13.96 10.83 3.13 17.08 14.44 13.96 25.28Z" style="fill:#e15100;stroke-width:0"/><path d="M792.94 353.05c3.13-10.83 14.44-17.08 25.28-13.96 1.46.42 2.84 1.01 4.12 1.71a20.31 20.31 0 0 0-11.1-7.97c-10.83-3.13-22.15 3.12-25.28 13.96-2.7 9.37 1.61 19.09 9.83 23.57-3.38-4.87-4.63-11.17-2.85-17.31Z" style="fill:#c44300;stroke-width:0"/><path d="m841.278 164.476.712-2.47 30.678 8.855-.713 2.47zM838.487 173.605l.712-2.47 30.68 8.85-.713 2.47zM835.778 183.523l.713-2.469 30.677 8.855-.712 2.469z" class="cls-31"/><path d="M870.35 154.67c-2.34-.68-4.92-1.42-6.9-1.99 0 0-1.36-.39-3.3-.95-1.98-.57-4.56-1.31-6.9-1.99-3.49 5.52-12.42 4.76-12.42 4.76s-5.55 19.25-9.42 32.64c5.14 3.84 6.25 13.59 6.25 13.59l7.71 2.22 3.29.95 7.71 2.22s6.13-7.66 12.53-8.17c3.86-13.39 9.42-32.64 9.42-32.64s-7.96-4.11-7.97-10.64Zm-22.46 32.13c-.57 1.99-2.67 3.15-4.67 2.58l-.17-.05c-1.99-.57-3.15-2.67-2.58-4.67l6.23-21.59c.57-1.99 2.67-3.15 4.67-2.58l.17.05c1.99.57 3.15 2.67 2.58 4.67l-6.23 21.59Zm14.69 4.23c-.57 1.99-2.67 3.15-4.67 2.58l-.17-.05c-1.99-.57-3.15-2.67-2.58-4.67l6.23-21.59c.57-1.99 2.67-3.15 4.67-2.58l.17.05c1.99.57 3.15 2.67 2.58 4.67l-6.23 21.59Z" style="fill:#a35418;stroke-width:0"/><path d="M870.35 154.67c-2.34-.68-4.92-1.42-6.9-1.99 0 0-1.36-.39-3.29-.95-1.98-.57-4.56-1.31-6.9-1.99-3.49 5.52-12.42 4.76-12.42 4.76s-.92 3.19-2.27 7.88c1.34 3.54 3.21 6.86 5.47 9.92l2.66-9.22c.57-1.99 2.67-3.15 4.67-2.58l.17.05c1.99.57 3.15 2.67 2.58 4.67l-3.99 13.83c2 1.84 4.15 3.54 6.42 5.06l4.85-16.8c.57-1.99 2.67-3.15 4.67-2.58l.17.05c1.99.57 3.15 2.67 2.58 4.67l-5.36 18.59c2.43 1.17 4.93 2.16 7.47 2.96l7.41-25.69s-7.96-4.11-7.97-10.64Z" style="fill:#bd652c;stroke-width:0"/><path d="m796.06 448.97-32.67-9.43c-2.79-.81-4.42-3.75-3.61-6.55.81-2.79 3.75-4.42 6.55-3.61l32.67 9.43c2.79.81 4.42 3.75 3.61 6.55-.81 2.79-3.75 4.42-6.55 3.61Z" class="cls-31"/><path d="m766.92 437.58-.81-.26 73.13-235.88 2.22-18.9.85.1-2.24 18.99-73.15 235.95z" class="cls-3"/><path d="m773.89 439.58-.82-.24 69.08-237.38 4.32-28.66.84.13-4.32 28.72-69.1 237.43z" class="cls-3"/><path d="m778.79 440.99 66.7-238.01 5.28-38.4.85.12-5.3 38.45-66.71 238.08-.82-.24zM784.09 442.53l64.78-238.73 14.38-35.72.8.32-14.37 35.67-64.77 238.68-.82-.22z" class="cls-3"/><path d="m788.98 443.94 62.84-239.13 10.94-26.91.8.32-10.93 26.86-62.82 239.08-.83-.22z" class="cls-3"/><path d="m793.71 445.31 60.97-239.67 7.27-17.31.79.33-7.25 17.26-60.95 239.6-.83-.21z" class="cls-3"/><path d="m933.11 487.37 80.07-9a5.821 5.821 0 0 0 5.17-5.78V335.64a5.82 5.82 0 0 0-5.21-5.79l-62.53-6.52-32.05 42.6 14.55 121.44Z" class="cls-17"/><path d="m997.3 341.47-25.5-2.5v7.84c0 2.74 2.08 5.03 4.81 5.29l16.26 1.55c2.38.23 4.43-1.64 4.43-4.03v-8.14Z" style="fill:#070604;stroke-width:0"/><path d="m950.61 323.33-105.82 1.94-17.8 32.68v113.67l106.12 15.75V360.55l17.5-37.22z" class="cls-21"/><path d="m844.79 325.27 105.82-1.94-17.5 37.22-106.12-2.6 17.8-32.68z" class="cls-40"/><path d="m943.21 328.02-97.05 1.2-14.03 25.67 96.7 1.54 14.38-28.41z" class="cls-21"/><path d="M926.99 336.27c-.22 1.19.39 2.15 1.35 2.15.96 0 1.92-.96 2.14-2.14.22-1.19-.39-2.15-1.35-2.15-.96 0-1.92.96-2.14 2.14ZM922.63 346.71c-.22 1.19.39 2.15 1.35 2.15.96 0 1.92-.96 2.14-2.14.22-1.19-.39-2.15-1.35-2.15s-1.92.96-2.14 2.14Z" class="cls-17"/><path d="m847.3 330.5-13.35 24.42-1.82-.03 14.03-25.67 97.05-1.2-.66 1.3-95.25 1.18zM925.24 370.29l-93.11-3.42v97.56l93.11 12.67V370.29z" class="cls-11"/><path d="M846.59 420.42c1.02 21.08 15.44 38.15 32.19 38.14 16.76-.01 29.51-17.11 28.49-38.18-1.02-21.08-15.44-38.15-32.19-38.14s-29.51 17.11-28.49 38.18Z" style="fill:#2b231d;stroke-width:0"/><path d="M842.65 420.42c1.02 21.08 15.44 38.15 32.19 38.14 16.76-.01 29.51-17.11 28.49-38.18-1.02-21.08-15.44-38.15-32.19-38.14s-29.51 17.11-28.49 38.18Z" class="cls-44"/><g style="clip-path:url(#clippath-3)"><path d="m871.51 460.03.66-.1c-5.58-36.85-2.09-78.75-2.05-79.17l-.67-.06c-.04.42-3.53 42.4 2.06 79.33ZM875.84 460.08l.66-.1c-5.58-36.85-2.09-78.75-2.05-79.17l-.67-.06c-.04.42-3.53 42.4 2.06 79.33ZM880.18 460.12l.66-.1c-5.58-36.85-2.09-78.75-2.05-79.17l-.67-.06c-.04.42-3.53 42.4 2.06 79.33ZM884.52 460.16l.66-.1c-5.58-36.85-2.09-78.75-2.05-79.17l-.67-.06c-.04.42-3.53 42.4 2.06 79.33ZM888.85 460.2l.66-.1c-5.58-36.85-2.09-78.75-2.05-79.17l-.67-.06c-.04.42-3.53 42.4 2.06 79.33ZM893.19 460.25l.66-.1c-5.58-36.85-2.09-78.75-2.05-79.17l-.67-.06c-.04.42-3.53 42.4 2.06 79.33ZM897.53 460.29l.66-.1c-5.58-36.85-2.09-78.75-2.05-79.17l-.67-.06c-.04.42-3.53 42.4 2.06 79.33ZM901.86 460.33l.66-.1c-5.58-36.85-2.09-78.75-2.05-79.17l-.67-.06c-.04.42-3.53 42.4 2.06 79.33ZM867.6 460.03l.66-.1c-5.58-36.85-2.09-78.75-2.05-79.17l-.67-.06c-.04.42-3.53 42.4 2.06 79.33ZM863.7 460.03l.66-.1c-5.58-36.85-2.09-78.75-2.05-79.17l-.67-.06c-.04.42-3.53 42.4 2.06 79.33ZM859.79 460.03l.66-.1c-5.58-36.85-2.09-78.75-2.05-79.17l-.67-.06c-.04.42-3.53 42.4 2.06 79.33ZM855.88 460.03l.66-.1c-5.58-36.85-2.09-78.75-2.05-79.17l-.67-.06c-.04.42-3.53 42.4 2.06 79.33ZM851.98 460.03l.66-.1c-5.58-36.85-2.09-78.75-2.05-79.17l-.67-.06c-.04.42-3.53 42.4 2.06 79.33ZM848.07 460.03l.66-.1c-5.58-36.85-2.09-78.75-2.05-79.17l-.67-.06c-.04.42-3.53 42.4 2.06 79.33Z" class="cls-40"/><path d="m906.74 387.57.03-.67-65.56-2.39-.02.67 65.55 2.39zM906.72 394.11l.03-.67-65.51-2.93-.03.67 65.51 2.93zM906.69 400.64l.04-.67-65.47-3.46-.03.67 65.46 3.46zM906.67 407.18l.04-.67-65.42-4-.05.67 65.43 4zM906.64 413.71l.05-.67-65.38-4.53-.05.67 65.38 4.53zM906.62 420.24l.05-.66-65.33-5.06-.06.66 65.34 5.06zM841.253 421.134l.058-.668 65.287 5.632-.057.667zM841.354 427.196l.062-.667 65.252 6.145-.063.667zM841.29 433.17l.069-.666 65.212 6.647-.068.667zM841.35 439.183l.074-.666 65.165 7.183-.073.666zM841.32 445.163l.078-.665 65.127 7.696-.079.666zM841.393 451.219l.084-.665 65.085 8.2-.083.664z" class="cls-40"/></g><path d="M834.35 366.95v96.37l90.89 12.36v1.42l-93.11-12.67v-97.56l2.22.08z" class="cls-44"/><path d="M909.32 354.36c.23 0 .46-.12.58-.34l5.13-9.07a.67.67 0 0 0-.25-.91.67.67 0 0 0-.91.25l-5.13 9.07a.67.67 0 0 0 .58 1ZM903.2 354.29c.23 0 .46-.12.58-.34l5.11-9.02a.67.67 0 0 0-.25-.91.67.67 0 0 0-.91.25l-5.11 9.02a.67.67 0 0 0 .58 1ZM897.07 354.21c.23 0 .46-.12.58-.34l5.08-8.97a.67.67 0 0 0-.25-.91.67.67 0 0 0-.91.25l-5.08 8.97a.67.67 0 0 0 .58 1ZM890.95 354.14c.23 0 .46-.12.58-.34l5.05-8.92a.67.67 0 0 0-.25-.91.67.67 0 0 0-.91.25l-5.05 8.92a.67.67 0 0 0 .58 1ZM884.82 354.07c.23 0 .46-.12.58-.34l5.02-8.87a.67.67 0 0 0-.25-.91.67.67 0 0 0-.91.25l-5.02 8.87a.67.67 0 0 0 .58 1ZM878.7 353.99c.23 0 .46-.12.58-.34l5-8.83a.67.67 0 0 0-.25-.91.67.67 0 0 0-.91.25l-5 8.83a.67.67 0 0 0 .58 1ZM872.57 353.92c.23 0 .46-.12.58-.34l4.97-8.78a.67.67 0 0 0-.25-.91.67.67 0 0 0-.91.25l-4.97 8.78a.67.67 0 0 0 .58 1ZM866.45 353.84c.23 0 .46-.12.58-.34l4.94-8.73a.67.67 0 0 0-.25-.91.67.67 0 0 0-.91.25l-4.94 8.73a.67.67 0 0 0 .58 1ZM860.32 353.77c.23 0 .46-.12.58-.34l4.91-8.68a.67.67 0 0 0-.25-.91.67.67 0 0 0-.91.25l-4.91 8.68a.67.67 0 0 0 .58 1ZM854.2 353.7c.23 0 .46-.12.58-.34l4.89-8.63a.67.67 0 0 0-.25-.91.67.67 0 0 0-.91.25l-4.89 8.63a.67.67 0 0 0 .58 1ZM848.07 353.62c.23 0 .46-.12.58-.34l4.86-8.58a.67.67 0 0 0-.25-.91.67.67 0 0 0-.91.25l-4.86 8.58a.67.67 0 0 0 .58 1ZM841.95 353.55c.23 0 .46-.12.58-.34l4.83-8.53a.67.67 0 0 0-.25-.91.67.67 0 0 0-.91.25l-4.83 8.53a.67.67 0 0 0 .58 1ZM852.08 336.92c-.25 1.39-1.48 1.82-.59 2.31.28.16 2.31 1 2.67 1 1.48 0 2.95-1.47 3.29-3.3.27-1.46-.27-2.69-1.25-3.14-.25-.11-2.17-.74-2.47-.74-1.48 0-1.31 2.04-1.65 3.87Z" class="cls-17"/><path d="M850.26 336.21c-.32 1.76.57 3.18 2 3.19 1.42 0 2.84-1.42 3.16-3.18.32-1.76-.57-3.18-2-3.19s-2.84 1.42-3.16 3.18Z" class="cls-11"/><path d="M850.95 336.14c-.22 1.19.39 2.15 1.35 2.15s1.92-.96 2.14-2.14c.22-1.19-.39-2.15-1.35-2.15-.96 0-1.92.96-2.14 2.14Z" class="cls-40"/><path d="M864.01 336.94c-.25 1.39-1.48 1.82-.59 2.31.28.16 2.31 1 2.67 1 1.48 0 2.95-1.47 3.29-3.3.27-1.46-.27-2.69-1.25-3.14-.25-.11-2.17-.74-2.47-.74-1.48 0-1.31 2.04-1.65 3.87Z" class="cls-17"/><path d="M862.18 336.22c-.32 1.76.57 3.18 2 3.19s2.84-1.42 3.16-3.18c.32-1.76-.57-3.18-2-3.19-1.42 0-2.84 1.42-3.16 3.18Z" class="cls-11"/><path d="M862.87 336.15c-.22 1.19.39 2.15 1.35 2.15s1.92-.96 2.14-2.14c.22-1.19-.39-2.15-1.35-2.15-.96 0-1.92.96-2.14 2.14Z" class="cls-40"/><path d="M875.93 336.95c-.25 1.39-1.48 1.82-.59 2.31.28.16 2.31 1 2.67 1 1.48 0 2.95-1.47 3.29-3.3.27-1.46-.27-2.69-1.25-3.14-.25-.11-2.17-.74-2.47-.74-1.48 0-1.31 2.04-1.65 3.87Z" class="cls-17"/><path d="M874.1 336.23c-.32 1.76.57 3.18 2 3.19 1.42 0 2.84-1.42 3.16-3.18.32-1.76-.57-3.18-2-3.19-1.42 0-2.84 1.42-3.16 3.18Z" class="cls-11"/><path d="M874.79 336.16c-.22 1.19.39 2.15 1.35 2.15.96 0 1.92-.96 2.14-2.14.22-1.19-.39-2.15-1.35-2.15-.96 0-1.92.96-2.14 2.14Z" class="cls-40"/><path d="M887.85 336.96c-.25 1.39-1.48 1.82-.59 2.31.28.16 2.31 1 2.67 1 1.48 0 2.95-1.47 3.29-3.3.27-1.46-.27-2.69-1.25-3.14-.25-.11-2.17-.74-2.47-.74-1.48 0-1.31 2.04-1.65 3.87Z" class="cls-17"/><path d="M886.03 336.24c-.32 1.76.57 3.18 2 3.19 1.42 0 2.84-1.42 3.16-3.18.32-1.76-.57-3.18-2-3.19s-2.84 1.42-3.16 3.18Z" class="cls-11"/><path d="M886.72 336.18c-.22 1.19.39 2.15 1.35 2.15s1.92-.96 2.14-2.14c.22-1.19-.39-2.15-1.35-2.15-.96 0-1.92.96-2.14 2.14Z" class="cls-40"/><path d="M899.77 336.97c-.25 1.39-1.48 1.82-.59 2.31.28.16 2.31 1 2.67 1 1.48 0 2.95-1.47 3.29-3.3.27-1.46-.27-2.69-1.25-3.14-.25-.11-2.17-.74-2.47-.74-1.48 0-1.31 2.04-1.65 3.87Z" class="cls-17"/><path d="M897.95 336.26c-.32 1.76.57 3.18 2 3.19s2.84-1.42 3.16-3.18c.32-1.76-.57-3.18-2-3.19-1.42 0-2.84 1.42-3.16 3.18Z" class="cls-11"/><path d="M898.64 336.19c-.22 1.19.39 2.15 1.35 2.15s1.92-.96 2.14-2.14c.22-1.19-.39-2.15-1.35-2.15s-1.92.96-2.14 2.14Z" class="cls-40"/><path d="M911.7 336.98c-.25 1.39-1.48 1.82-.59 2.31.28.16 2.31 1 2.67 1 1.48 0 2.95-1.47 3.29-3.3.27-1.46-.27-2.69-1.25-3.14-.25-.11-2.17-.74-2.47-.74-1.48 0-1.31 2.04-1.65 3.87Z" class="cls-17"/><path d="M909.87 336.27c-.32 1.76.57 3.18 2 3.19 1.42 0 2.84-1.42 3.16-3.18.32-1.76-.57-3.18-2-3.19s-2.84 1.42-3.16 3.18Z" class="cls-11"/><path d="M910.56 336.2c-.22 1.19.39 2.15 1.35 2.15.96 0 1.92-.96 2.14-2.14.22-1.19-.39-2.15-1.35-2.15-.96 0-1.92.96-2.14 2.14Z" class="cls-40"/><path d="M73.35 466.83c0 11.35 38.63 20.54 86.29 20.54s86.29-9.2 86.29-20.54c0-.51.16-9.44 0-9.94-3.29-10.63-40.79-10.6-86.29-10.6s-83.98.07-86.29 10.93c-.07.35 0 9.26 0 9.62Z" class="cls-22"/><ellipse cx="159.64" cy="457.73" class="cls-30" rx="86.29" ry="20.54"/><path d="M78.96 455.89c0 9.59 36.12 17.36 80.68 17.36s80.68-7.77 80.68-17.36c0-1.18-.55-50.23-1.6-51.35-7.45-7.93-40.03 14.26-79.08 14.26s-74.49-22.72-79.92-14.26c-.5.78-.76 50.54-.76 51.35Z" style="fill:#00bbd1;stroke-width:0"/><path d="M78.96 455.89c0-.81.26-50.57.76-51.35 5.29-8.24 37.46 13.12 76.85 14.21-2.61 19.85-9.95 39.56-23.2 53.56-31.66-2.35-54.41-8.81-54.41-16.42Z" style="fill:#00cedd;stroke-width:0"/><path d="M73.35 404.54c0 11.35 38.63 20.54 86.29 20.54s86.29-9.2 86.29-20.54c0-.51.16-9.43 0-9.94-3.29-10.63-40.79-10.6-86.29-10.6s-83.98.07-86.29 10.92c-.07.35 0 9.26 0 9.62Z" class="cls-22"/><ellipse cx="159.64" cy="395.44" class="cls-30" rx="86.29" ry="20.54"/><ellipse cx="159.64" cy="393.6" rx="80.68" ry="17.36" style="fill:#fffbb4;stroke-width:0"/><path d="M159.64 376.23c13.35 0 25.94.7 37.03 1.94 3.01 1.82 4.66 3.78 4.66 5.82 0 9.59-36.12 17.36-80.68 17.36-13.35 0-25.94-.7-37.03-1.94-3.01-1.82-4.66-3.78-4.66-5.82 0-9.59 36.12-17.36 80.68-17.36Z" style="fill:#fffbc9;stroke-width:0"/><path d="M153.31 484.12c1.22 0 2.27-.78 2.69-1.99l21.66-62.65 24.12 58.99c.48 1.17 1.55 1.89 2.78 1.82 1.22-.07 2.24-.91 2.59-2.15l18.29-64.09 13.51 53.84c.19.76.96 1.22 1.73 1.03.76-.19 1.23-.96 1.03-1.73l-13.49-53.83c-.32-1.32-1.42-2.24-2.72-2.26-1.31-.01-2.42.84-2.79 2.15l-18.29 64.09-24.12-58.98c-.47-1.14-1.55-1.86-2.7-1.82-1.18.03-2.21.81-2.61 1.99l-21.66 62.65-21.19-62.63c-.4-1.18-1.42-1.97-2.61-2.01-1.16-.06-2.24.67-2.71 1.81l-23.43 56.49s-.01-.04-.01-.07l-8.97-61.12c-.22-1.45-1.34-2.5-2.72-2.55-1.36-.03-2.56.88-2.89 2.28l-12.73 53.69c-.18.76.29 1.53 1.06 1.71.76.18 1.53-.29 1.71-1.06l12.73-53.69c-.01-.11.01-.06.03.03l8.97 61.12c.21 1.36 1.21 2.38 2.5 2.54 1.27.15 2.44-.57 2.95-1.79l23.44-56.5 21.19 62.64c.41 1.22 1.47 2 2.69 2.01Z" style="fill:#ffc100;stroke-width:0"/><path d="M72.03 327.05c-2.49-1.71-5.9-1.09-7.61 1.4s-1.09 5.9 1.4 7.61 88.12 60.68 91.22 56.18c3.1-4.51-82.52-63.47-85.01-65.19Z" class="cls-39"/><path d="M159.43 382.77c-4.16-2.87-9.86-1.82-12.73 2.35-2.87 4.16-1.82 9.86 2.35 12.73 4.16 2.87 9.86 1.82 12.73-2.35 2.87-4.16 1.82-9.86-2.35-12.73Z" class="cls-26"/><path d="M160.62 386.85c0 2.56-2.56 4.64-5.72 4.64s-5.72-2.08-5.72-4.64 2.56-4.64 5.72-4.64 5.72 2.08 5.72 4.64ZM120.18 310.48a5.47 5.47 0 0 0-7.73.35 5.47 5.47 0 0 0 .35 7.73c2.23 2.04 78.99 72.16 82.68 68.12 3.69-4.04-73.07-74.16-75.3-76.2Z" class="cls-39"/><path d="M199.14 377.63c-3.73-3.41-9.52-3.15-12.93.58s-3.15 9.52.58 12.93 9.52 3.15 12.93-.58 3.15-9.52-.58-12.93Z" class="cls-26"/><path d="M198.68 380.88c0 2.56-2.56 4.64-5.72 4.64s-5.72-2.08-5.72-4.64 2.56-4.64 5.72-4.64 5.72 2.08 5.72 4.64Z" class="cls-39"/></g><g id="Barakhadi_Practice" data-name="Barakhadi Practice" style="clip-path:url(#clippath-4)"><g id="BG-3" data-name="BG" style="opacity:.26"><path d="M291.07 415.11a7.25 7.25 0 0 1 10.14-1.5c3.21 2.38 3.88 6.92 1.5 10.13-2.38 3.22-6.92 3.88-10.14 1.5-3.21-2.39-3.88-6.93-1.5-10.13ZM207.5 274.59c3.62.47 6.17 3.79 5.69 7.41a6.597 6.597 0 0 1-7.41 5.69c-3.62-.48-6.17-3.79-5.69-7.41a6.597 6.597 0 0 1 7.41-5.69ZM1010.23 373.56a6.554 6.554 0 0 1-8.26 4.2 6.554 6.554 0 0 1-4.2-8.26 6.554 6.554 0 0 1 8.26-4.2 6.554 6.554 0 0 1 4.2 8.26ZM339.2 343.81c4.12.98 6.66 5.12 5.68 9.24-.98 4.12-5.12 6.66-9.24 5.68-4.12-.98-6.67-5.12-5.68-9.24.98-4.12 5.12-6.66 9.24-5.68ZM378.26 437.95c-4.67.91-9.2-2.15-10.1-6.82-.91-4.67 2.15-9.2 6.82-10.1a8.61 8.61 0 0 1 10.1 6.82c.9 4.67-2.16 9.2-6.83 10.1ZM319.31 551.12c-1.25 7.6-8.42 12.76-16.04 11.51-7.6-1.25-12.76-8.43-11.51-16.04 1.25-7.61 8.43-12.77 16.04-11.51 7.61 1.25 12.77 8.43 11.51 16.04ZM871.36 555.82c-1.78-8.52 3.7-16.88 12.22-18.65 8.52-1.78 16.88 3.7 18.66 12.21 1.78 8.53-3.69 16.88-12.22 18.66-8.52 1.77-16.87-3.7-18.66-12.22ZM897.42 278.31a7.045 7.045 0 0 1-9.24 3.74 7.05 7.05 0 0 1-3.74-9.24 7.041 7.041 0 0 1 9.24-3.74 7.041 7.041 0 0 1 3.74 9.24ZM663.86 368.57c2.71 2.49 2.9 6.72.41 9.43a6.672 6.672 0 0 1-9.43.41 6.672 6.672 0 0 1-.41-9.43c2.5-2.71 6.72-2.9 9.44-.41ZM92.89 248.34c6.59 2.95 9.54 10.68 6.6 17.26-2.95 6.59-10.68 9.54-17.26 6.6-6.59-2.95-9.54-10.67-6.6-17.26 2.94-6.59 10.67-9.54 17.26-6.6ZM543.85 456.97c4.07-.56 7.82 2.29 8.38 6.36.56 4.07-2.29 7.82-6.36 8.38-4.07.55-7.82-2.29-8.38-6.36-.56-4.07 2.29-7.82 6.36-8.38ZM1081.29 320.15c7.79 5.53 9.63 16.34 4.09 24.13-5.53 7.79-16.33 9.63-24.13 4.09-7.79-5.53-9.62-16.33-4.09-24.12 5.53-7.79 16.34-9.63 24.12-4.1ZM19.17 371.11a7.273 7.273 0 0 1-10.18 1.44c-3.21-2.41-3.85-6.97-1.44-10.18a7.262 7.262 0 0 1 10.18-1.44 7.273 7.273 0 0 1 1.44 10.18ZM519.85 303.91c.33 4.24-2.84 7.95-7.08 8.28-4.24.33-7.95-2.84-8.28-7.08-.33-4.24 2.84-7.95 7.08-8.28 4.24-.33 7.95 2.84 8.28 7.08ZM251.51 334.83c5.98-1.91 12.38 1.39 14.29 7.38 1.91 5.98-1.39 12.37-7.38 14.28-5.98 1.91-12.38-1.39-14.29-7.38-1.91-5.98 1.4-12.37 7.38-14.28ZM77.36 442.76c-2.64-9.08 2.58-18.58 11.66-21.21 9.09-2.64 18.58 2.58 21.22 11.66 2.63 9.09-2.59 18.58-11.67 21.22-9.08 2.63-18.58-2.59-21.21-11.67Z" class="cls-7"/><path d="M856.6 478.13c-2.03 4-6.93 5.6-10.93 3.57s-5.6-6.93-3.57-10.93 6.93-5.6 10.93-3.57 5.6 6.93 3.57 10.93ZM837.83 394.77c-.23 3.67-3.4 6.45-7.07 6.23a6.676 6.676 0 0 1-6.23-7.08c.24-3.66 3.4-6.45 7.07-6.23 3.67.24 6.46 3.4 6.23 7.08ZM702.05 498.08c.28 3.91-2.67 7.3-6.58 7.58a7.1 7.1 0 0 1-7.59-6.58c-.28-3.92 2.67-7.31 6.59-7.59 3.91-.28 7.3 2.67 7.58 6.59ZM583.43 382.41c-1.54 4.71-6.62 7.29-11.33 5.74-4.71-1.54-7.29-6.62-5.74-11.34 1.54-4.71 6.62-7.28 11.34-5.74 4.71 1.54 7.29 6.62 5.74 11.33ZM44.67 543.45a7.17 7.17 0 0 1-6.12-8.08c.54-3.92 4.15-6.66 8.07-6.12s6.66 4.16 6.12 8.08a7.17 7.17 0 0 1-8.08 6.12ZM188.12 524.88c-5.93-8.08-4.19-19.45 3.9-25.38 8.08-5.93 19.45-4.19 25.38 3.9 5.93 8.08 4.19 19.45-3.9 25.38s-19.45 4.19-25.39-3.9ZM761.68 510.76c4.5-2.14 9.89-.22 12.02 4.28 2.14 4.5.22 9.88-4.28 12.02-4.5 2.14-9.88.22-12.02-4.28-2.14-4.51-.22-9.89 4.28-12.02ZM157.7 385.38c-.99 8.24-8.48 14.13-16.72 13.14-8.25-.99-14.14-8.47-13.14-16.72.99-8.24 8.47-14.13 16.71-13.14 8.25.99 14.14 8.47 13.15 16.72ZM1052.71 538.32c10.17-.35 18.69 7.61 19.04 17.78.35 10.16-7.61 18.69-17.78 19.03-10.16.35-18.68-7.61-19.03-17.77-.35-10.16 7.61-18.69 17.77-19.04ZM377.09 535.21c-6.9-3.12-9.97-11.24-6.85-18.15 3.12-6.9 11.24-9.97 18.15-6.85 6.9 3.12 9.97 11.24 6.85 18.15-3.11 6.9-11.24 9.97-18.15 6.85ZM220.23 416.62c2.73 6 .09 13.08-5.91 15.82-6 2.73-13.08.09-15.81-5.91-2.73-6-.09-13.08 5.91-15.81 6-2.74 13.08-.09 15.82 5.91ZM807.07 266.15c9.65-1.87 19 4.44 20.87 14.1 1.87 9.65-4.44 19-14.09 20.87-9.65 1.88-19-4.44-20.87-14.1s4.44-18.99 14.09-20.87Z" class="cls-8"/><path d="M536.32 513.62c10.4-.17 18.97 8.12 19.14 18.51.17 10.39-8.12 18.96-18.52 19.14-10.39.17-18.96-8.12-19.13-18.51-.17-10.39 8.12-18.96 18.51-19.14ZM630.18 445.39c5.4.65 9.25 5.56 8.6 10.95-.65 5.4-5.55 9.25-10.95 8.6-5.4-.65-9.25-5.55-8.6-10.95.65-5.4 5.55-9.25 10.95-8.6ZM268 486.42c-1.69-3.53-.2-7.77 3.33-9.46 3.53-1.69 7.77-.19 9.46 3.34 1.69 3.53.2 7.76-3.33 9.46a7.096 7.096 0 0 1-9.46-3.34ZM732.95 437.33c-8.07 3.14-17.17-.84-20.32-8.92-3.15-8.07.84-17.17 8.92-20.32 8.07-3.14 17.17.85 20.32 8.92 3.15 8.08-.85 17.18-8.92 20.32ZM886.32 384.95c-5.05-8.74-2.05-19.92 6.69-24.97 8.75-5.05 19.93-2.05 24.97 6.69 5.05 8.74 2.05 19.93-6.69 24.97-8.74 5.05-19.92 2.05-24.97-6.69ZM961.38 293.08c8.19 3.8 11.75 13.52 7.95 21.71-3.8 8.19-13.52 11.74-21.71 7.95-8.19-3.8-11.74-13.52-7.95-21.71 3.8-8.19 13.51-11.74 21.7-7.95ZM499.99 389.57c3.93 2.73 4.9 8.14 2.17 12.07-2.74 3.93-8.15 4.9-12.08 2.17-3.93-2.74-4.9-8.15-2.16-12.08 2.73-3.93 8.14-4.9 12.07-2.16ZM457.98 471.99a8.53 8.53 0 0 1-5.44 10.78c-4.48 1.48-9.31-.96-10.79-5.44-1.47-4.48.96-9.31 5.44-10.78a8.53 8.53 0 0 1 10.78 5.44ZM1035.91 472.39c4.25-2.16 9.44-.47 11.61 3.78 2.16 4.25.47 9.45-3.78 11.61-4.25 2.17-9.44.47-11.61-3.77-2.16-4.26-.47-9.45 3.78-11.61ZM367.64 271.04c3.76-6.22 11.84-8.21 18.06-4.45 6.22 3.75 8.21 11.84 4.45 18.06-3.76 6.21-11.84 8.21-18.06 4.45-6.22-3.76-8.21-11.84-4.45-18.06ZM308.75 276.39c-2.5 7.65-10.73 11.83-18.38 9.33-7.65-2.5-11.83-10.74-9.33-18.39 2.51-7.65 10.74-11.83 18.39-9.33s11.83 10.74 9.32 18.39ZM26.21 305.78c.46-7.26 6.73-12.78 13.99-12.32 7.27.46 12.78 6.73 12.32 13.99-.46 7.27-6.72 12.78-13.99 12.32-7.27-.46-12.78-6.73-12.32-13.99ZM141.98 516.93c-7.41 4.47-17.05 2.09-21.52-5.33-4.47-7.42-2.08-17.06 5.33-21.53s17.05-2.08 21.52 5.33c4.47 7.42 2.08 17.06-5.33 21.53ZM148.71 313.4c-1.42 6.36-7.73 10.37-14.1 8.95-6.37-1.42-10.37-7.73-8.95-14.1 1.42-6.36 7.74-10.37 14.1-8.95 6.36 1.42 10.37 7.74 8.95 14.11ZM1021.24 275.44c-4.94.49-9.34-3.11-9.83-8.05-.49-4.94 3.11-9.34 8.05-9.83 4.93-.49 9.34 3.11 9.83 8.05.49 4.94-3.11 9.34-8.05 9.83ZM595.9 277.76c-2.21 7.76-10.29 12.26-18.05 10.06-7.76-2.21-12.26-10.29-10.06-18.05 2.21-7.76 10.29-12.26 18.05-10.06 7.76 2.21 12.26 10.29 10.06 18.05ZM642.58 304.26c-.13-4.84 3.69-8.86 8.52-8.99 4.83-.13 8.86 3.69 8.99 8.53.13 4.83-3.69 8.86-8.52 8.98a8.752 8.752 0 0 1-8.99-8.52ZM703.6 261.89c4.85-6.31 13.89-7.49 20.2-2.65 6.31 4.85 7.49 13.89 2.65 20.2s-13.89 7.5-20.2 2.65c-6.3-4.85-7.49-13.89-2.65-20.2ZM429.78 355.14c-3.78 3.47-9.66 3.22-13.13-.56-3.47-3.78-3.22-9.66.56-13.13 3.78-3.47 9.66-3.22 13.14.56 3.47 3.78 3.21 9.66-.57 13.13ZM458.4 257.64c3.64.31 6.35 3.52 6.04 7.16-.31 3.64-3.52 6.35-7.16 6.04-3.64-.31-6.35-3.52-6.04-7.16.31-3.64 3.52-6.35 7.16-6.04ZM34.56 451.04c-4.02 6.87-12.84 9.18-19.71 5.16-6.87-4.02-9.18-12.85-5.16-19.72 4.02-6.86 12.85-9.17 19.71-5.15 6.87 4.02 9.18 12.85 5.15 19.71ZM769.85 339.58c6.89 2.11 10.77 9.41 8.66 16.3-2.1 6.89-9.4 10.77-16.3 8.67-6.89-2.11-10.77-9.41-8.66-16.3 2.11-6.89 9.4-10.77 16.3-8.67ZM957.09 423.9c9.2 3.02 14.21 12.93 11.18 22.12-3.02 9.2-12.93 14.21-22.13 11.18-9.2-3.02-14.2-12.93-11.17-22.12 3.02-9.2 12.92-14.2 22.12-11.18ZM1075.21 439.66c-4.8-1.56-7.42-6.72-5.85-11.51a9.115 9.115 0 0 1 11.51-5.85c4.8 1.56 7.42 6.72 5.85 11.51-1.56 4.8-6.72 7.42-11.51 5.85ZM962.57 517.6c3.03-2.77 7.74-2.55 10.51.48a7.431 7.431 0 0 1-.48 10.5c-3.03 2.77-7.74 2.55-10.51-.48a7.431 7.431 0 0 1 .48-10.5Z" class="cls-29"/></g></g></svg>