<svg width="572" height="112" viewBox="0 0 572 112" fill="none" xmlns="http://www.w3.org/2000/svg">
<path d="M24 2C11.8497 2 2 11.8497 2 24L2 87.0625C2 99.2128 11.8497 109.062 24 109.062H547.83C559.98 109.062 569.83 99.2128 569.83 87.0625V24C569.83 11.8497 559.98 2 547.83 2L24 2Z" fill="#F47C37" stroke="#031C17" stroke-width="4"/>
<circle cx="61.5" cy="55.5" r="34" fill="white" stroke="black" stroke-width="3"/>
<g filter="url(#filter0_d_2611_10259)">
<ellipse cx="61.6051" cy="55.3805" rx="28.6559" ry="28.6559" fill="#F2882C"/>
<path d="M88.7611 55.3805C88.7611 70.3783 76.6029 82.5364 61.6051 82.5364C46.6073 82.5364 34.4492 70.3783 34.4492 55.3805C34.4492 40.3827 46.6073 28.2246 61.6051 28.2246C76.6029 28.2246 88.7611 40.3827 88.7611 55.3805Z" stroke="black" stroke-width="3"/>
</g>
<g filter="url(#filter1_d_2611_10259)">
<path d="M73.7053 53.8649C74.8392 54.6614 74.8392 56.3416 73.7053 57.1381L55.4043 69.9935C54.079 70.9244 52.2547 69.9765 52.2547 68.3569L52.2547 42.6461C52.2547 41.0265 54.079 40.0786 55.4043 41.0095L73.7053 53.8649Z" fill="white"/>
<path d="M74.5675 58.3655C76.5518 56.9717 76.5518 54.0313 74.5675 52.6375L56.2665 39.7821C53.9473 38.1529 50.7547 39.8119 50.7547 42.6461L50.7547 68.3569C50.7547 71.1911 53.9473 72.8501 56.2665 71.221L74.5675 58.3655Z" stroke="black" stroke-width="3"/>
</g>
<defs>
<filter id="filter0_d_2611_10259" x="23.1492" y="19.9246" width="76.9125" height="76.9125" filterUnits="userSpaceOnUse" color-interpolation-filters="sRGB">
<feFlood flood-opacity="0" result="BackgroundImageFix"/>
<feColorMatrix in="SourceAlpha" type="matrix" values="0 0 0 0 0 0 0 0 0 0 0 0 0 0 0 0 0 0 127 0" result="hardAlpha"/>
<feMorphology radius="2" operator="dilate" in="SourceAlpha" result="effect1_dropShadow_2611_10259"/>
<feOffset dy="3"/>
<feGaussianBlur stdDeviation="3.9"/>
<feComposite in2="hardAlpha" operator="out"/>
<feColorMatrix type="matrix" values="0 0 0 0 0 0 0 0 0 0 0 0 0 0 0 0 0 0 0.25 0"/>
<feBlend mode="normal" in2="BackgroundImageFix" result="effect1_dropShadow_2611_10259"/>
<feBlend mode="normal" in="SourceGraphic" in2="effect1_dropShadow_2611_10259" result="shape"/>
</filter>
<filter id="filter1_d_2611_10259" x="49.2539" y="37.6367" width="29.3008" height="35.7285" filterUnits="userSpaceOnUse" color-interpolation-filters="sRGB">
<feFlood flood-opacity="0" result="BackgroundImageFix"/>
<feColorMatrix in="SourceAlpha" type="matrix" values="0 0 0 0 0 0 0 0 0 0 0 0 0 0 0 0 0 0 127 0" result="hardAlpha"/>
<feOffset dx="1"/>
<feComposite in2="hardAlpha" operator="out"/>
<feColorMatrix type="matrix" values="0 0 0 0 0 0 0 0 0 0 0 0 0 0 0 0 0 0 0.5 0"/>
<feBlend mode="normal" in2="BackgroundImageFix" result="effect1_dropShadow_2611_10259"/>
<feBlend mode="normal" in="SourceGraphic" in2="effect1_dropShadow_2611_10259" result="shape"/>
</filter>
</defs>
</svg>
