<svg xmlns="http://www.w3.org/2000/svg" xmlns:xlink="http://www.w3.org/1999/xlink" viewBox="0 0 1080 540"><defs><radialGradient id="radial-gradient" cx="31.71" cy="495.88" r="180.57" fx="31.71" fy="495.88" gradientTransform="matrix(.41 0 0 .07 115.04 461.38)" gradientUnits="userSpaceOnUse"><stop offset="0" stop-color="#000100"/><stop offset="1" stop-color="#000100" stop-opacity="0"/></radialGradient><radialGradient xlink:href="#radial-gradient" id="radial-gradient-2" cx="346.15" r="180.55" fx="346.15" gradientTransform="matrix(.46 0 0 .07 48.3 461.38)"/><radialGradient xlink:href="#radial-gradient" id="radial-gradient-3" cx="633.58" r="180.58" fx="633.58" gradientTransform="matrix(.49 0 0 .07 -8.46 461.38)"/><radialGradient xlink:href="#radial-gradient" id="radial-gradient-4" cx="1018.07" r="180.56" fx="1018.07" gradientTransform="matrix(.65 0 0 .07 -235.65 461.38)"/><radialGradient xlink:href="#radial-gradient" id="radial-gradient-5" cx="1276.09" r="180.55" fx="1276.09" gradientTransform="matrix(.6 0 0 .07 -196.55 461.38)"/><radialGradient xlink:href="#radial-gradient" id="radial-gradient-6" cx="1585.79" r="180.57" fx="1585.79" gradientTransform="matrix(.47 0 0 .07 -73.89 461.38)"/><radialGradient xlink:href="#radial-gradient" id="radial-gradient-7" cx="1915.56" r="180.57" fx="1915.56" gradientTransform="matrix(.75 0 0 .07 -613.54 461.38)"/><radialGradient xlink:href="#radial-gradient" id="radial-gradient-8" cx="2192.65" r="180.57" fx="2192.65" gradientTransform="matrix(.56 0 0 .07 -292.42 461.38)"/><radialGradient xlink:href="#radial-gradient" id="radial-gradient-9" cx="147.65" cy="494.15" r="68.06" fx="147.65" fy="494.15"/><radialGradient xlink:href="#radial-gradient" id="radial-gradient-10" cx="962.88" cy="497.09" r="68.06" fx="962.88" fy="497.09" gradientTransform="matrix(1 0 0 .86 0 69.95)"/><clipPath id="clippath"><path d="M0 1.05h1080V537.4H0z" class="cls-14"/></clipPath><clipPath id="clippath-1"><path d="M0 644.63h1080v536.35H0z" class="cls-14"/></clipPath><style>.cls-1{font-size:230.27px;fill:#fff;font-family:AdobeDevanagari-Regular,&quot;Adobe Devanagari&quot;}.cls-10,.cls-12,.cls-14,.cls-15,.cls-16,.cls-19,.cls-20,.cls-25,.cls-26,.cls-9{stroke-width:0}.cls-12,.cls-20{isolation:isolate;mix-blend-mode:screen}.cls-9{fill:#6ce4e6}.cls-10{fill:#f67db1}.cls-12{fill:#ff7bab}.cls-14{fill:none}.cls-15{fill:#e5e5e5}.cls-16{fill:#ffd657}.cls-19{fill:#f1f1f1}.cls-20{fill:#ff921e}.cls-25{fill:#cbcbcb}.cls-26{fill:#c1e3c9}</style></defs><g style="isolation:isolate"><g id="Barakhadi_Practice" data-name="Barakhadi Practice"><g style="clip-path:url(#clippath)"><g id="BG" style="opacity:.26"><path d="M343.21 116.13c6.3-3.51 14.27-1.24 17.78 5.07 3.51 6.31 1.24 14.27-5.07 17.78-6.31 3.51-14.28 1.24-17.78-5.07-3.51-6.31-1.24-14.27 5.07-17.78ZM489.03 369.82c3.62.97 5.78 4.7 4.8 8.32a6.795 6.795 0 1 1-4.81-8.32ZM852.11 53.27c4.95-2.03 10.61.34 12.63 5.3 2.02 4.95-.35 10.61-5.3 12.64-4.95 2.02-10.61-.35-12.63-5.3-2.03-4.95.34-10.61 5.3-12.63ZM1078.21 542.61c-7.95 5.55-18.89 3.61-24.44-4.35-5.55-7.94-3.61-18.89 4.34-24.44 7.95-5.55 18.89-3.6 24.44 4.35 5.55 7.94 3.6 18.89-4.35 24.44ZM8.34 45.83c-3.55-2.07-4.75-6.64-2.68-10.19a7.446 7.446 0 0 1 10.19-2.68c3.55 2.07 4.75 6.63 2.68 10.19a7.446 7.446 0 0 1-10.19 2.68ZM983.33 3.68c6.47-4.57 15.41-3.04 19.99 3.42 4.57 6.47 3.04 15.41-3.43 19.99-6.46 4.57-15.41 3.04-19.98-3.42-4.57-6.47-3.04-15.41 3.42-19.99ZM984.31 490.11c-4.34 4.41-11.43 4.46-15.84.13-4.41-4.34-4.47-11.43-.13-15.84 4.33-4.41 11.43-4.47 15.84-.13 4.4 4.34 4.46 11.43.13 15.84ZM78.53 291.57c6.74-4.22 15.62-2.18 19.84 4.55 4.22 6.73 2.19 15.62-4.55 19.85-6.73 4.22-15.62 2.18-19.84-4.55-4.22-6.73-2.18-15.62 4.55-19.85ZM26.5 334.79c-1.14 3.71-5.08 5.78-8.79 4.63a7.024 7.024 0 0 1-4.63-8.79 7.027 7.027 0 0 1 8.79-4.63c3.7 1.15 5.78 5.09 4.63 8.79ZM9.19 120.14c6.26-5.2 15.55-4.35 20.75 1.9 5.2 6.25 4.35 15.54-1.91 20.74-6.25 5.2-15.54 4.35-20.74-1.9-5.21-6.25-4.35-15.54 1.9-20.74ZM4.26 526.36c-.81-5.28 2.82-10.22 8.11-11.02 5.28-.81 10.22 2.82 11.03 8.11.8 5.28-2.83 10.22-8.11 11.02-5.29.81-10.22-2.82-11.03-8.11ZM702.08 47.74c1.15 6.13-2.89 12.03-9.02 13.18-6.13 1.15-12.03-2.89-13.18-9.02-1.15-6.13 2.89-12.03 9.02-13.18 6.13-1.15 12.03 2.89 13.18 9.02ZM181.45 114.02c-6.9 4.16-15.87 1.94-20.03-4.96-4.16-6.9-1.94-15.87 4.96-20.03 6.9-4.16 15.87-1.94 20.03 4.96 4.17 6.9 1.95 15.87-4.96 20.03ZM222.03 11.8c-4.13-5.82-2.76-13.89 3.07-18.02 5.82-4.13 13.89-2.76 18.03 3.07 4.13 5.82 2.75 13.89-3.07 18.02-5.82 4.13-13.89 2.76-18.02-3.07ZM16.47 231.22c-4.73 3.76-11.61 2.98-15.38-1.75-3.76-4.73-2.98-11.61 1.75-15.38 4.73-3.76 11.62-2.98 15.38 1.75 3.77 4.73 2.98 11.62-1.75 15.38ZM534.05 24.43c-1.69-7.12 2.71-14.25 9.83-15.94 7.12-1.69 14.26 2.71 15.95 9.83 1.69 7.12-2.71 14.26-9.83 15.95-7.12 1.69-14.25-2.71-15.95-9.83ZM790.83-9.11c7.75 1.25 13.02 8.56 11.77 16.31-1.25 7.75-8.55 13.02-16.3 11.76-7.75-1.25-13.03-8.55-11.77-16.3s8.56-13.03 16.31-11.77ZM515.95 535.35c-1.65-5.19 1.21-10.73 6.4-12.38 5.19-1.65 10.73 1.22 12.39 6.4 1.65 5.19-1.22 10.73-6.41 12.38-5.18 1.65-10.73-1.22-12.38-6.4Z" class="cls-9"/><path d="M596.25 46.6c3.87-7.35 12.96-10.18 20.31-6.31 7.35 3.87 10.18 12.97 6.31 20.32s-12.97 10.18-20.32 6.31-10.18-12.96-6.31-20.31ZM1009.81 296.17c.8-9.5 9.14-16.57 18.65-15.78 9.5.8 16.57 9.14 15.78 18.65-.8 9.51-9.15 16.57-18.65 15.78-9.5-.8-16.57-9.14-15.78-18.65ZM267.72 160.08a7.558 7.558 0 0 1 9.6-4.73 7.558 7.558 0 0 1 4.73 9.6 7.558 7.558 0 0 1-9.6 4.73 7.558 7.558 0 0 1-4.73-9.6ZM883.68 464.4c2.6-2.87 7.04-3.1 9.91-.5a7.01 7.01 0 0 1 .5 9.91c-2.6 2.87-7.03 3.09-9.91.5-2.87-2.6-3.09-7.03-.5-9.91ZM934.61 146.6c-2.6 3.64-7.66 4.49-11.3 1.9s-4.5-7.66-1.9-11.3c2.6-3.65 7.66-4.5 11.3-1.91 3.64 2.6 4.5 7.66 1.9 11.31ZM322.96 392.45c-4.6 8.84-15.5 12.28-24.35 7.69-8.84-4.6-12.29-15.5-7.69-24.35 4.6-8.84 15.5-12.29 24.35-7.69 8.84 4.6 12.29 15.5 7.69 24.35ZM94.4 54.52c-6.03 4.51-14.57 3.26-19.07-2.77-4.5-6.03-3.26-14.56 2.77-19.07 6.03-4.5 14.57-3.26 19.07 2.77 4.5 6.03 3.26 14.57-2.77 19.07ZM470.9 72.68c5.69-6.76 15.78-7.64 22.54-1.95 6.77 5.68 7.64 15.78 1.95 22.54-5.68 6.76-15.78 7.64-22.54 1.95-6.76-5.69-7.64-15.78-1.95-22.54ZM445.35 11.29c-2.51-5.84.2-12.61 6.04-15.11 5.84-2.51 12.61.2 15.11 6.04 2.51 5.84-.2 12.61-6.04 15.11-5.84 2.51-12.61-.2-15.11-6.04ZM158.08-11.26c8.25 3.84 11.84 13.64 7.99 21.9-3.84 8.25-13.64 11.83-21.9 7.99-8.25-3.84-11.83-13.65-7.99-21.9 3.85-8.25 13.65-11.83 21.9-7.99ZM36.36 426.92a8.118 8.118 0 0 1-9.05 7.04c-4.44-.56-7.59-4.61-7.04-9.04.55-4.44 4.6-7.59 9.04-7.04 4.44.56 7.6 4.61 7.04 9.04ZM1078.63 250.35c-6.44-.38-11.36-5.91-10.98-12.35.38-6.44 5.91-11.36 12.35-10.98 6.44.38 11.35 5.91 10.98 12.35-.38 6.44-5.91 11.35-12.35 10.98ZM374.16 471.17c-.6 10.13-9.3 17.86-19.43 17.26-10.13-.6-17.86-9.29-17.26-19.42.59-10.13 9.3-17.86 19.43-17.27 10.13.6 17.86 9.3 17.26 19.43ZM1051.38 456.77c2.53-3.47 7.4-4.22 10.87-1.69 3.47 2.54 4.22 7.41 1.69 10.88-2.53 3.47-7.4 4.22-10.87 1.69-3.47-2.54-4.22-7.41-1.69-10.87ZM698.11 434c-1.85 4.09-6.67 5.89-10.76 4.04-4.08-1.85-5.89-6.67-4.04-10.76a8.13 8.13 0 0 1 10.76-4.04c4.09 1.85 5.9 6.67 4.04 10.76ZM810.03 419.64c1.58-5.4 7.24-8.49 12.64-6.91s8.49 7.24 6.91 12.64-7.24 8.49-12.64 6.91-8.49-7.24-6.91-12.64ZM392.9 411.83c-4.42-.46-7.64-4.42-7.18-8.84a8.065 8.065 0 0 1 8.84-7.19c4.43.46 7.64 4.42 7.19 8.84-.46 4.43-4.42 7.64-8.85 7.19ZM244.62 72.16c2.02-7.35 9.62-11.67 16.97-9.65 7.35 2.02 11.67 9.62 9.65 16.97-2.02 7.35-9.62 11.67-16.97 9.65-7.35-2.02-11.67-9.62-9.65-16.97ZM761.78 84.37a6.887 6.887 0 0 1 8.03 5.53 6.895 6.895 0 1 1-8.03-5.53ZM953.56 385.97c-3.85 3.25-9.6 2.76-12.84-1.09-3.25-3.85-2.76-9.6 1.09-12.84 3.85-3.25 9.6-2.76 12.84 1.09 3.25 3.85 2.76 9.6-1.09 12.84ZM755.64 484.79c5.58 6.49 4.85 16.26-1.63 21.84-6.49 5.58-16.26 4.85-21.84-1.63-5.58-6.48-4.85-16.26 1.63-21.84 6.48-5.59 16.26-4.85 21.84 1.62ZM1076.6 50.48c6.6-6.31 17.06-6.08 23.36.51 6.31 6.6 6.08 17.06-.51 23.36-6.6 6.31-17.06 6.08-23.36-.51-6.31-6.6-6.08-17.06.51-23.36ZM117.75 400.31c-7.28-6.82-7.66-18.25-.84-25.54 6.82-7.28 18.26-7.66 25.54-.84 7.28 6.82 7.66 18.25.84 25.54-6.82 7.28-18.26 7.66-25.54.84ZM233.31 425.1c-1.04-4.46 1.73-8.92 6.18-9.96 4.46-1.04 8.92 1.73 9.96 6.19 1.04 4.46-1.73 8.92-6.19 9.96-4.45 1.04-8.91-1.73-9.96-6.18Z" class="cls-10"/><path d="M834.61 145.18c1.18 4.74-1.71 9.55-6.45 10.73-4.74 1.18-9.55-1.71-10.73-6.45-1.18-4.74 1.71-9.55 6.45-10.73 4.74-1.18 9.55 1.7 10.73 6.45ZM543.56 354.93c4.92-6.37 14.07-7.56 20.44-2.64 6.37 4.92 7.56 14.07 2.64 20.45-4.92 6.37-14.07 7.56-20.45 2.64-6.37-4.92-7.55-14.07-2.64-20.45ZM622.23 526.17c5.9 2.68 8.51 9.64 5.83 15.53-2.68 5.9-9.63 8.52-15.53 5.84-5.9-2.68-8.51-9.64-5.84-15.53 2.68-5.9 9.63-8.51 15.54-5.84ZM460.92 484.98c-8.36.54-15.57-5.8-16.11-14.15-.54-8.35 5.8-15.56 14.15-16.11 8.35-.54 15.56 5.8 16.11 14.15.54 8.35-5.8 15.57-14.15 16.11ZM644.6 131.18c2.97-3.96 8.6-4.77 12.56-1.79a8.977 8.977 0 0 1 1.8 12.56c-2.97 3.96-8.6 4.77-12.56 1.8-3.96-2.97-4.77-8.6-1.8-12.56ZM550.68 122.56c1.18-4.96 6.15-8.01 11.11-6.83 4.96 1.18 8.01 6.15 6.83 11.11-1.18 4.96-6.16 8.01-11.12 6.83-4.95-1.18-8.01-6.16-6.82-11.11ZM1024.4 395a6.582 6.582 0 0 1-6.32-6.83c.14-3.63 3.2-6.46 6.83-6.32 3.63.14 6.46 3.2 6.32 6.83a6.582 6.582 0 0 1-6.83 6.32ZM268.18 510.06c4.33-1.51 9.07.78 10.58 5.11 1.51 4.33-.78 9.07-5.11 10.59-4.33 1.51-9.08-.78-10.59-5.11-1.5-4.34.78-9.08 5.12-10.59ZM364.46 34.77c-.74 6.89-6.93 11.87-13.81 11.13-6.89-.75-11.87-6.93-11.13-13.81.74-6.89 6.93-11.87 13.81-11.13 6.89.74 11.88 6.93 11.13 13.81ZM916.91 46.79c2.99-6.67 10.83-9.65 17.5-6.66s9.64 10.83 6.65 17.49c-2.99 6.67-10.83 9.65-17.49 6.66-6.67-2.99-9.65-10.83-6.66-17.49ZM1015.79 98.83c-2.42 5.2-8.6 7.46-13.81 5.04-5.2-2.42-7.45-8.6-5.04-13.8 2.42-5.2 8.6-7.46 13.8-5.04 5.2 2.42 7.46 8.6 5.04 13.8ZM174.75 469.04a7.873 7.873 0 0 1 2.75 10.79c-2.22 3.74-7.06 4.97-10.8 2.75-3.74-2.22-4.96-7.05-2.74-10.79a7.873 7.873 0 0 1 10.79-2.75ZM424.59 112.48c5.15 2.4 7.38 8.51 4.99 13.66-2.39 5.15-8.5 7.38-13.65 4.99-5.15-2.4-7.38-8.51-4.99-13.66 2.4-5.15 8.51-7.38 13.66-4.99ZM566.48 455.7c-5.48-7.67-3.71-18.34 3.96-23.82s18.33-3.71 23.82 3.96c5.48 7.67 3.71 18.34-3.96 23.82s-18.34 3.71-23.82-3.96ZM74.19 470.52c2.36-6.81 9.79-10.41 16.6-8.05 6.81 2.36 10.41 9.79 8.05 16.6-2.36 6.8-9.79 10.41-16.6 8.05-6.8-2.36-10.41-9.79-8.05-16.59Z" class="cls-16"/></g></g><g id="Letters"><path d="M143.47 0h4.25v174.18h-4.25zM229.2 0h4.28v161.68h-4.28zM287.62 0h4.41v196.48h-4.41zM354.62 0h4.18v144h-4.18zM499.04 0h4.09v144.78h-4.09zM520.18 0h4.09v125.7h-4.09zM626.4 0h4.36v134.43h-4.36zM642.74 0h4.36v189.96h-4.36zM722.33 0h4.34v186.89h-4.34zM744.8 0h4.34v158.99h-4.34zM892.4 0h4.32v171.59h-4.32z" class="cls-19"/><path d="m121.8 166.77 13.39 191.85 98.16 13.39 31.23-225.31-142.77 20.08Zm23.91 11.18c-3.3 0-5.98-2.68-5.98-5.98s2.68-5.98 5.98-5.98 5.98 2.68 5.98 5.98-2.68 5.98-5.98 5.98Zm85.62-11.29c-3.3 0-5.98-2.68-5.98-5.98s2.68-5.98 5.98-5.98 5.98 2.68 5.98 5.98-2.68 5.98-5.98 5.98Z" class="cls-12"/><path d="m334.4 214.77-94.77-10.83v120.5L352 316.32l-17.6-101.54Zm-44.57 8.15c-3.3 0-5.98-2.68-5.98-5.98s2.68-5.98 5.98-5.98 5.98 2.68 5.98 5.98-2.68 5.98-5.98 5.98Z" class="cls-20"/><path d="M338.1 134.43V351.4h163.24l26.86-216.97H338.09Zm18.61 14.26c-3.3 0-5.98-2.68-5.98-5.98s2.68-5.98 5.98-5.98 5.98 2.68 5.98 5.98-2.68 5.98-5.98 5.98Zm144.37 0c-3.3 0-5.98-2.68-5.98-5.98s2.68-5.98 5.98-5.98 5.98 2.68 5.98 5.98-2.68 5.98-5.98 5.98Z" style="mix-blend-mode:screen;isolation:isolate;stroke-width:0;fill:#3fa8f4"/><path d="m507.06 115.93 31.65 176.01 82.59-21.66 18.96-143.52-133.2-10.83Zm15.16 15.01c-3.3 0-5.98-2.68-5.98-5.98s2.68-5.98 5.98-5.98 5.98 2.68 5.98 5.98-2.68 5.98-5.98 5.98Zm106.36 8.54c-3.3 0-5.98-2.68-5.98-5.98s2.68-5.98 5.98-5.98 5.98 2.68 5.98 5.98-2.68 5.98-5.98 5.98Z" style="fill:#8bc53f;mix-blend-mode:screen;isolation:isolate;stroke-width:0"/><path d="m621.07 184.9 8.12 129.98 97.48 10.83 14.89-140.81h-120.5Zm23.86 16.48c-3.3 0-5.98-2.68-5.98-5.98s2.68-5.98 5.98-5.98 5.98 2.68 5.98 5.98-2.68 5.98-5.98 5.98Zm79.57-.95c-3.3 0-5.98-2.68-5.98-5.98s2.68-5.98 5.98-5.98 5.98 2.68 5.98 5.98-2.68 5.98-5.98 5.98Z" class="cls-20"/><path d="m928.14 171.37-197.65-24.71v245.16l210.96-13.3-13.3-207.15Zm-180.59-6.4c-3.3 0-5.98-2.68-5.98-5.98s2.68-5.98 5.98-5.98 5.98 2.68 5.98 5.98-2.68 5.98-5.98 5.98ZM894.56 182c-3.3 0-5.98-2.68-5.98-5.98s2.68-5.98 5.98-5.98 5.98 2.68 5.98 5.98-2.68 5.98-5.98 5.98Z" class="cls-12"/><text class="cls-1" transform="translate(353.87 309.98)"><tspan x="0" y="0">क</tspan></text><text class="cls-1" transform="translate(767.36 331.29)"><tspan x="0" y="0">ल</tspan></text><text style="font-size:153.77px;fill:#fff;font-family:AdobeDevanagari-Regular,&quot;Adobe Devanagari&quot;" transform="translate(147.92 301.49)"><tspan x="0" y="0">म</tspan></text><text style="font-size:115.29px;fill:#fff;font-family:AdobeDevanagari-Regular,&quot;Adobe Devanagari&quot;" transform="translate(268.08 301.49)"><tspan x="0" y="0">ब</tspan></text><text style="font-size:154.05px;fill:#fff;font-family:AdobeDevanagari-Regular,&quot;Adobe Devanagari&quot;" transform="translate(543.34 242.92)"><tspan x="0" y="0">न</tspan></text><text style="font-size:104.04px;fill:#fff;font-family:AdobeDevanagari-Regular,&quot;Adobe Devanagari&quot;" transform="translate(650.91 282.78)"><tspan x="0" y="0">ज</tspan></text><path d="M148.44 167.34c0 1.41-1.21 2.56-2.7 2.56h-.29c-1.49 0-2.7-1.15-2.7-2.56v-23.92c0-1.41 1.21-2.56 2.7-2.56h.29c1.49 0 2.7 1.15 2.7 2.56v23.92Z" class="cls-19"/><path d="M151.57 154.6c0 1.08-.88 1.96-1.96 1.96h-8.04c-1.08 0-1.96-.88-1.96-1.96s.88-1.96 1.96-1.96h8.04c1.08 0 1.96.88 1.96 1.96Z" class="cls-15"/><path d="M151.57 150.67c0 1.08-.88 1.96-1.96 1.96h-8.04c-1.08 0-1.96-.88-1.96-1.96s.88-1.96 1.96-1.96h8.04c1.08 0 1.96.88 1.96 1.96Z" class="cls-25"/><path d="M151.57 146.75c0 1.08-.88 1.96-1.96 1.96h-8.04c-1.08 0-1.96-.88-1.96-1.96s.88-1.96 1.96-1.96h8.04c1.08 0 1.96.88 1.96 1.96Z" class="cls-15"/><path d="M151.57 142.82c0 1.08-.88 1.96-1.96 1.96h-8.04c-1.08 0-1.96-.88-1.96-1.96s.88-1.96 1.96-1.96h8.04c1.08 0 1.96.88 1.96 1.96Z" class="cls-25"/><path d="M234.18 156.74c0 1.41-1.21 2.56-2.7 2.56h-.29c-1.49 0-2.7-1.15-2.7-2.56v-23.92c0-1.41 1.21-2.56 2.7-2.56h.29c1.49 0 2.7 1.15 2.7 2.56v23.92Z" class="cls-19"/><path d="M237.32 144c0 1.08-.88 1.96-1.96 1.96h-8.04c-1.08 0-1.96-.88-1.96-1.96s.88-1.96 1.96-1.96h8.04c1.08 0 1.96.88 1.96 1.96Z" class="cls-15"/><path d="M237.32 140.08c0 1.08-.88 1.96-1.96 1.96h-8.04c-1.08 0-1.96-.88-1.96-1.96s.88-1.96 1.96-1.96h8.04c1.08 0 1.96.88 1.96 1.96Z" class="cls-25"/><path d="M237.32 136.15c0 1.08-.88 1.96-1.96 1.96h-8.04c-1.08 0-1.96-.88-1.96-1.96s.88-1.96 1.96-1.96h8.04c1.08 0 1.96.88 1.96 1.96Z" class="cls-15"/><path d="M237.32 132.23c0 1.08-.88 1.96-1.96 1.96h-8.04c-1.08 0-1.96-.88-1.96-1.96s.88-1.96 1.96-1.96h8.04c1.08 0 1.96.88 1.96 1.96Z" class="cls-25"/><path d="M359.56 137.26c0 1.41-1.21 2.56-2.7 2.56h-.29c-1.49 0-2.7-1.15-2.7-2.56v-23.92c0-1.41 1.21-2.56 2.7-2.56h.29c1.49 0 2.7 1.15 2.7 2.56v23.92Z" class="cls-19"/><path d="M362.69 124.52c0 1.08-.88 1.96-1.96 1.96h-8.04c-1.08 0-1.96-.88-1.96-1.96s.88-1.96 1.96-1.96h8.04c1.08 0 1.96.88 1.96 1.96Z" class="cls-15"/><path d="M362.69 120.59c0 1.08-.88 1.96-1.96 1.96h-8.04c-1.08 0-1.96-.88-1.96-1.96s.88-1.96 1.96-1.96h8.04c1.08 0 1.96.88 1.96 1.96Z" class="cls-25"/><path d="M362.69 116.66c0 1.08-.88 1.96-1.96 1.96h-8.04c-1.08 0-1.96-.88-1.96-1.96s.88-1.96 1.96-1.96h8.04c1.08 0 1.96.88 1.96 1.96Z" class="cls-15"/><path d="M362.69 112.74c0 1.08-.88 1.96-1.96 1.96h-8.04c-1.08 0-1.96-.88-1.96-1.96s.88-1.96 1.96-1.96h8.04c1.08 0 1.96.88 1.96 1.96Z" class="cls-25"/><path d="M525.07 120.97c0 1.41-1.21 2.56-2.7 2.56h-.29c-1.49 0-2.7-1.15-2.7-2.56V97.05c0-1.41 1.21-2.56 2.7-2.56h.29c1.49 0 2.7 1.15 2.7 2.56v23.92Z" class="cls-19"/><path d="M528.2 108.23c0 1.08-.88 1.96-1.96 1.96h-8.04c-1.08 0-1.96-.88-1.96-1.96s.88-1.96 1.96-1.96h8.04c1.08 0 1.96.88 1.96 1.96Z" class="cls-15"/><path d="M528.2 104.3c0 1.08-.88 1.96-1.96 1.96h-8.04c-1.08 0-1.96-.88-1.96-1.96s.88-1.96 1.96-1.96h8.04c1.08 0 1.96.88 1.96 1.96Z" class="cls-25"/><path d="M528.2 100.38c0 1.08-.88 1.96-1.96 1.96h-8.04c-1.08 0-1.96-.88-1.96-1.96s.88-1.96 1.96-1.96h8.04c1.08 0 1.96.88 1.96 1.96Z" class="cls-15"/><path d="M528.2 96.45c0 1.08-.88 1.96-1.96 1.96h-8.04c-1.08 0-1.96-.88-1.96-1.96s.88-1.96 1.96-1.96h8.04c1.08 0 1.96.88 1.96 1.96Z" class="cls-25"/><path d="M631.43 129.32c0 1.41-1.21 2.56-2.7 2.56h-.29c-1.49 0-2.7-1.15-2.7-2.56V105.4c0-1.41 1.21-2.56 2.7-2.56h.29c1.49 0 2.7 1.15 2.7 2.56v23.92Z" class="cls-19"/><path d="M634.57 116.58c0 1.08-.88 1.96-1.96 1.96h-8.04c-1.08 0-1.96-.88-1.96-1.96s.88-1.96 1.96-1.96h8.04c1.08 0 1.96.88 1.96 1.96Z" class="cls-15"/><path d="M634.57 112.65c0 1.08-.88 1.96-1.96 1.96h-8.04c-1.08 0-1.96-.88-1.96-1.96s.88-1.96 1.96-1.96h8.04c1.08 0 1.96.88 1.96 1.96Z" class="cls-25"/><path d="M634.57 108.73c0 1.08-.88 1.96-1.96 1.96h-8.04c-1.08 0-1.96-.88-1.96-1.96s.88-1.96 1.96-1.96h8.04c1.08 0 1.96.88 1.96 1.96Z" class="cls-15"/><path d="M634.57 104.8c0 1.08-.88 1.96-1.96 1.96h-8.04c-1.08 0-1.96-.88-1.96-1.96s.88-1.96 1.96-1.96h8.04c1.08 0 1.96.88 1.96 1.96Z" class="cls-25"/><path d="M647.77 191.61c0 1.41-1.21 2.56-2.7 2.56h-.29c-1.49 0-2.7-1.15-2.7-2.56v-23.92c0-1.41 1.21-2.56 2.7-2.56h.29c1.49 0 2.7 1.15 2.7 2.56v23.92Z" class="cls-19"/><path d="M650.91 178.86c0 1.08-.88 1.96-1.96 1.96h-8.04c-1.08 0-1.96-.88-1.96-1.96s.88-1.96 1.96-1.96h8.04c1.08 0 1.96.88 1.96 1.96Z" class="cls-15"/><path d="M650.91 174.94c0 1.08-.88 1.96-1.96 1.96h-8.04c-1.08 0-1.96-.88-1.96-1.96s.88-1.96 1.96-1.96h8.04c1.08 0 1.96.88 1.96 1.96Z" class="cls-25"/><path d="M650.91 171.01c0 1.08-.88 1.96-1.96 1.96h-8.04c-1.08 0-1.96-.88-1.96-1.96s.88-1.96 1.96-1.96h8.04c1.08 0 1.96.88 1.96 1.96Z" class="cls-15"/><path d="M650.91 167.09c0 1.08-.88 1.96-1.96 1.96h-8.04c-1.08 0-1.96-.88-1.96-1.96s.88-1.96 1.96-1.96h8.04c1.08 0 1.96.88 1.96 1.96Z" class="cls-25"/><path d="M727.34 190.82c0 1.41-1.21 2.56-2.7 2.56h-.29c-1.49 0-2.7-1.15-2.7-2.56V166.9c0-1.41 1.21-2.56 2.7-2.56h.29c1.49 0 2.7 1.15 2.7 2.56v23.92Z" class="cls-19"/><path d="M730.48 178.08c0 1.08-.88 1.96-1.96 1.96h-8.04c-1.08 0-1.96-.88-1.96-1.96s.88-1.96 1.96-1.96h8.04c1.08 0 1.96.88 1.96 1.96Z" class="cls-15"/><path d="M730.48 174.16c0 1.08-.88 1.96-1.96 1.96h-8.04c-1.08 0-1.96-.88-1.96-1.96s.88-1.96 1.96-1.96h8.04c1.08 0 1.96.88 1.96 1.96Z" class="cls-25"/><path d="M730.48 170.23c0 1.08-.88 1.96-1.96 1.96h-8.04c-1.08 0-1.96-.88-1.96-1.96s.88-1.96 1.96-1.96h8.04c1.08 0 1.96.88 1.96 1.96Z" class="cls-15"/><path d="M730.48 166.3c0 1.08-.88 1.96-1.96 1.96h-8.04c-1.08 0-1.96-.88-1.96-1.96s.88-1.96 1.96-1.96h8.04c1.08 0 1.96.88 1.96 1.96Z" class="cls-25"/><path d="M750.39 154.61c0 1.41-1.21 2.56-2.7 2.56h-.29c-1.49 0-2.7-1.15-2.7-2.56v-23.92c0-1.41 1.21-2.56 2.7-2.56h.29c1.49 0 2.7 1.15 2.7 2.56v23.92Z" class="cls-19"/><path d="M753.53 141.87c0 1.08-.88 1.96-1.96 1.96h-8.04c-1.08 0-1.96-.88-1.96-1.96s.88-1.96 1.96-1.96h8.04c1.08 0 1.96.88 1.96 1.96Z" class="cls-15"/><path d="M753.53 137.95c0 1.08-.88 1.96-1.96 1.96h-8.04c-1.08 0-1.96-.88-1.96-1.96s.88-1.96 1.96-1.96h8.04c1.08 0 1.96.88 1.96 1.96Z" class="cls-25"/><path d="M753.53 134.02c0 1.08-.88 1.96-1.96 1.96h-8.04c-1.08 0-1.96-.88-1.96-1.96s.88-1.96 1.96-1.96h8.04c1.08 0 1.96.88 1.96 1.96Z" class="cls-15"/><path d="M753.53 130.09c0 1.08-.88 1.96-1.96 1.96h-8.04c-1.08 0-1.96-.88-1.96-1.96s.88-1.96 1.96-1.96h8.04c1.08 0 1.96.88 1.96 1.96Z" class="cls-25"/><path d="M897.4 171.71c0 1.41-1.21 2.56-2.7 2.56h-.29c-1.49 0-2.7-1.15-2.7-2.56v-23.92c0-1.41 1.21-2.56 2.7-2.56h.29c1.49 0 2.7 1.15 2.7 2.56v23.92Z" class="cls-19"/><path d="M900.54 158.97c0 1.08-.88 1.96-1.96 1.96h-8.04c-1.08 0-1.96-.88-1.96-1.96s.88-1.96 1.96-1.96h8.04c1.08 0 1.96.88 1.96 1.96Z" class="cls-15"/><path d="M900.54 155.04c0 1.08-.88 1.96-1.96 1.96h-8.04c-1.08 0-1.96-.88-1.96-1.96s.88-1.96 1.96-1.96h8.04c1.08 0 1.96.88 1.96 1.96Z" class="cls-25"/><path d="M900.54 151.12c0 1.08-.88 1.96-1.96 1.96h-8.04c-1.08 0-1.96-.88-1.96-1.96s.88-1.96 1.96-1.96h8.04c1.08 0 1.96.88 1.96 1.96Z" class="cls-15"/><path d="M900.54 147.19c0 1.08-.88 1.96-1.96 1.96h-8.04c-1.08 0-1.96-.88-1.96-1.96s.88-1.96 1.96-1.96h8.04c1.08 0 1.96.88 1.96 1.96Z" class="cls-25"/><path d="M503.93 138.44c0 1.41-1.21 2.56-2.7 2.56h-.29c-1.49 0-2.7-1.15-2.7-2.56v-23.92c0-1.41 1.21-2.56 2.7-2.56h.29c1.49 0 2.7 1.15 2.7 2.56v23.92Z" class="cls-19"/><path d="M507.06 125.7c0 1.08-.88 1.96-1.96 1.96h-8.04c-1.08 0-1.96-.88-1.96-1.96s.88-1.96 1.96-1.96h8.04c1.08 0 1.96.88 1.96 1.96Z" class="cls-15"/><path d="M507.06 121.77c0 1.08-.88 1.96-1.96 1.96h-8.04c-1.08 0-1.96-.88-1.96-1.96s.88-1.96 1.96-1.96h8.04c1.08 0 1.96.88 1.96 1.96Z" class="cls-25"/><path d="M507.06 117.85c0 1.08-.88 1.96-1.96 1.96h-8.04c-1.08 0-1.96-.88-1.96-1.96s.88-1.96 1.96-1.96h8.04c1.08 0 1.96.88 1.96 1.96Z" class="cls-15"/><path d="M507.06 113.92c0 1.08-.88 1.96-1.96 1.96h-8.04c-1.08 0-1.96-.88-1.96-1.96s.88-1.96 1.96-1.96h8.04c1.08 0 1.96.88 1.96 1.96Z" class="cls-25"/><path d="M292.67 213.15c0 1.41-1.21 2.56-2.7 2.56h-.29c-1.49 0-2.7-1.15-2.7-2.56v-23.92c0-1.41 1.21-2.56 2.7-2.56h.29c1.49 0 2.7 1.15 2.7 2.56v23.92Z" class="cls-19"/><path d="M295.81 200.41c0 1.08-.88 1.96-1.96 1.96h-8.04c-1.08 0-1.96-.88-1.96-1.96s.88-1.97 1.96-1.97h8.04c1.08 0 1.96.88 1.96 1.97Z" class="cls-15"/><path d="M295.81 196.48c0 1.08-.88 1.96-1.96 1.96h-8.04c-1.08 0-1.96-.88-1.96-1.96s.88-1.96 1.96-1.96h8.04c1.08 0 1.96.88 1.96 1.96Z" class="cls-25"/><path d="M295.81 192.56c0 1.08-.88 1.96-1.96 1.96h-8.04c-1.08 0-1.96-.88-1.96-1.96s.88-1.96 1.96-1.96h8.04c1.08 0 1.96.88 1.96 1.96Z" class="cls-15"/><path d="M295.81 188.63c0 1.08-.88 1.96-1.96 1.96h-8.04c-1.08 0-1.96-.88-1.96-1.96s.88-1.96 1.96-1.96h8.04c1.08 0 1.96.88 1.96 1.96Z" class="cls-25"/><g id="Shadows"><path d="M202.93 495.89c0 6.62-33.53 11.99-74.9 11.99s-74.9-5.37-74.9-11.99 33.53-12 74.9-12 74.9 5.37 74.9 12Z" style="fill:url(#radial-gradient);opacity:.1;stroke-width:0"/><path d="M292.96 495.89c0 6.62-37.84 11.99-84.52 11.99s-84.52-5.37-84.52-11.99 37.84-12 84.52-12 84.52 5.37 84.52 12Z" style="fill:url(#radial-gradient-2);opacity:.1;stroke-width:0"/><path d="M392.19 495.89c0 6.62-40.15 11.99-89.69 11.99s-89.69-5.37-89.69-11.99 40.16-12 89.69-12 89.69 5.37 89.69 12Z" style="fill:url(#radial-gradient-3);opacity:.1;stroke-width:0"/><path d="M548.7 495.89c0 6.62-53.43 11.99-119.35 11.99S310 502.51 310 495.89s53.44-12 119.35-12 119.35 5.37 119.35 12Z" style="fill:url(#radial-gradient-4);opacity:.1;stroke-width:0"/><path d="M673.33 495.89c0 6.62-48.78 11.99-108.95 11.99s-108.95-5.37-108.95-11.99 48.78-12 108.95-12 108.95 5.37 108.95 12Z" style="fill:url(#radial-gradient-5);opacity:.1;stroke-width:0"/><path d="M759.44 495.89c0 6.62-38.55 11.99-86.1 11.99s-86.1-5.37-86.1-11.99 38.55-12 86.1-12 86.1 5.37 86.1 12Z" style="opacity:.1;fill:url(#radial-gradient-6);stroke-width:0"/><path d="M950.74 495.89c0 6.62-60.99 11.99-136.22 11.99s-136.22-5.37-136.22-11.99 60.99-12 136.22-12 136.22 5.37 136.22 12Z" style="fill:url(#radial-gradient-7);opacity:.1;stroke-width:0"/><path d="M1026.87 495.89c0 6.62-45.44 11.99-101.49 11.99s-101.49-5.37-101.49-11.99 45.44-12 101.49-12 101.49 5.37 101.49 12Z" style="fill:url(#radial-gradient-8);opacity:.1;stroke-width:0"/></g></g><ellipse cx="147.65" cy="494.15" rx="95.27" ry="13.67" style="fill:url(#radial-gradient-9);opacity:.1;stroke-width:0"/><ellipse cx="962.88" cy="495.11" rx="95.27" ry="11.69" style="fill:url(#radial-gradient-10);opacity:.1;stroke-width:0"/><g id="Illustrations"><image xlink:href="../Assets/PNGs-20240604T051757Z-001/PNGs/Mug.png" width="565" height="485" transform="matrix(.23 0 0 .23 902.48 394.6)"/><image xlink:href="../Assets/PNGs-20240604T051757Z-001/PNGs/Phone.png" width="506" height="691" transform="matrix(-.15 0 0 .15 230.8 385.67)"/><image xlink:href="../Assets/PNGs-20240604T051757Z-001/PNGs/Pani.png" width="607" height="691" transform="matrix(.11 0 0 .11 873.68 433.23)"/><image xlink:href="../Assets/PNGs-20240604T051757Z-001/PNGs/Cap.png" width="683" height="423" transform="rotate(-4.33 5460.831 -335.405) scale(.26)"/></g></g><g id="Layer_3" data-name="Layer 3" style="opacity:.4"><g style="clip-path:url(#clippath-1)"><path d="M127.8 398.71c39.13-33.09 83.24-58.84 109.46-39.3 38.57 28.75 6.56 99.39 12.72 137.63 6.69 41.46 40.07 68.41 68.06 96.39 22.6 22.59 57.46 68.95 21.97 97.79-11.74 9.55-28 10.92-41.71 17.32-16.92 7.91-29.74 24.07-33.59 42.34-1.51 7.18-1.76 14.75-4.86 21.39-6.48 13.87-22.92 19.43-37.65 23.59-20.61 5.83-69.76 9.78-66.24 41.85 2.81 25.65 37.93 38.37 50.57 57.71 42.73 65.37-46.83 117.23-98.66 131.22-67.81 18.3-139.92-.45-203.29-25.92-39.52-15.88-60.37-64.14-60.18-104.96.15-33.32 14.39-62.1 47.54-73.02 17.27-5.69 36.64-4.74 53.27 2.61 45.66 20.18 128.38 6.29 134.88-55.89 2.72-26-9.55-51.24-24.17-72.91-14.63-21.67-32.12-41.8-42.16-65.94-23.41-56.25 4.34-109.89 38.69-154.36 11.72-15.17 41.69-49.08 75.36-77.55ZM1219.5 729.61c34.95 37.48 62.81 80.29 44.56 107.43-26.85 39.92-98.96 11.37-136.85 19.39-41.09 8.69-66.39 43.34-92.98 72.65-21.47 23.67-66.08 60.74-96.61 26.69-10.1-11.27-12.26-27.44-19.33-40.82-8.72-16.52-25.48-28.54-43.92-31.49-7.24-1.16-14.81-1.04-21.6-3.82-14.16-5.8-20.52-21.95-25.39-36.46-6.82-20.3-13.16-69.2-45.02-64.13-25.48 4.05-36.49 39.75-55.19 53.31-63.22 45.85-119.36-41.08-135.85-92.18-21.57-66.84-6.34-139.78 16.02-204.31 13.95-40.25 61.13-63.41 101.91-65.21 33.29-1.46 62.72 11.36 75.24 43.94 6.52 16.97 6.52 36.36-.02 53.33-17.94 46.58-.05 128.54 62.37 132.01 26.11 1.45 50.72-12.02 71.65-27.68 20.94-15.66 40.2-34.11 63.82-45.31 55.05-26.11 109.97-1 156.05 31.15 15.72 10.97 51.04 39.26 81.12 71.5Z" class="cls-26"/></g></g></g></svg>