<svg width="768" height="430" viewBox="0 0 768 430" fill="none" xmlns="http://www.w3.org/2000/svg">
<g clip-path="url(#clip0_310_2305)">
<rect width="768" height="432" transform="translate(0 -1)" fill="url(#paint0_linear_310_2305)"/>
<g clip-path="url(#clip1_310_2305)">
<mask id="mask0_310_2305" style="mask-type:luminance" maskUnits="userSpaceOnUse" x="-8" y="-327" width="949" height="949">
<path d="M940.197 -327H-8V621.197H940.197V-327Z" fill="white"/>
</mask>
<g mask="url(#mask0_310_2305)">
<path d="M306.485 242.306C355.229 193.562 355.229 114.532 306.485 65.7887C257.741 17.0449 178.712 17.0449 129.968 65.7887C81.2241 114.532 81.2241 193.562 129.968 242.306C178.712 291.049 257.741 291.049 306.485 242.306Z" fill="#FFFEB8"/>
</g>
<mask id="mask1_310_2305" style="mask-type:luminance" maskUnits="userSpaceOnUse" x="-8" y="-327" width="949" height="949">
<path d="M940.197 -327H-8V621.197H940.197V-327Z" fill="white"/>
</mask>
<g mask="url(#mask1_310_2305)">
<path d="M104.918 194.762C65.9573 194.762 28.134 197.327 -8 201.978V550.601C28.134 553.809 65.9554 555.522 104.918 555.522C359.27 555.522 565.462 482.886 565.462 393.285C565.462 303.683 359.27 194.762 104.918 194.762Z" fill="#95B131"/>
<path opacity="0.6" d="M104.918 194.762C65.9573 194.762 28.134 197.327 -8 201.978V550.601C28.134 553.809 65.9554 555.522 104.918 555.522C359.27 555.522 565.462 482.886 565.462 393.285C565.462 303.683 359.27 194.762 104.918 194.762Z" fill="url(#paint1_linear_310_2305)"/>
<path d="M525.332 218.612C496.778 214.92 467.051 212.905 436.516 212.905C217.488 212.905 39.9292 316.349 39.9292 401.443C39.9292 402.566 39.9766 403.684 40.0392 404.801H525.334V218.612H525.332Z" fill="#B5C72D"/>
<path d="M525.332 213.811C513.757 213.225 502.049 212.907 490.21 212.907C271.181 212.907 93.624 316.351 93.624 401.445C93.624 402.567 93.6714 403.686 93.734 404.803H525.332V213.811Z" fill="#C6D35C"/>
<path d="M525.332 212.966C309.986 215.436 136.72 317.388 136.72 401.447C136.72 402.569 136.768 403.688 136.83 404.805H525.332V212.966Z" fill="#B5C72D"/>
<path d="M525.332 215.891C336.826 233.382 192.923 324.843 192.923 401.445C192.923 402.567 192.971 403.686 193.033 404.803H525.332V215.891Z" fill="#C6D35C"/>
<path d="M525.332 222.366C361.899 249.769 242.79 331.754 242.79 401.445C242.79 402.567 242.837 403.686 242.9 404.803H525.332V222.366Z" fill="#B5C72D"/>
<g opacity="0.6">
<path d="M490.21 212.907C481.163 212.907 472.193 213.1 463.296 213.445C454.442 213.104 445.518 212.907 436.514 212.907C217.486 212.907 39.9272 316.351 39.9272 401.445C39.9272 402.567 39.9746 403.686 40.0372 404.803H93.7319H136.828H193.031H242.898H525.33V222.366V218.612V215.889V213.809V212.964C520.806 213.017 516.307 213.127 511.819 213.267C504.665 213.039 497.464 212.907 490.21 212.907Z" fill="url(#paint2_linear_310_2305)"/>
<path d="M634.45 401.445C634.45 402.567 634.498 403.686 634.56 404.803H688.257H731.353H787.556H837.423H940.099V282.388V258.644V239.138V228.221V218.894C764.901 242.099 634.45 328.51 634.45 401.445Z" fill="url(#paint3_linear_310_2305)"/>
</g>
<path d="M940 182.429C882.914 168.432 819.64 160.143 753.039 160.143C500.187 160.143 295.208 279.517 295.208 377.717C295.208 475.916 500.185 555.522 753.039 555.522C819.642 555.522 882.914 549.993 940 540.062V182.429Z" fill="#95B131"/>
<path opacity="0.6" d="M940 182.429C882.914 168.432 819.64 160.143 753.039 160.143C500.187 160.143 295.208 279.517 295.208 377.717C295.208 475.916 500.185 555.522 753.039 555.522C819.642 555.522 882.914 549.993 940 540.062V182.429Z" fill="url(#paint4_linear_310_2305)"/>
<path d="M940.097 218.894C764.901 242.1 634.45 328.51 634.45 401.447C634.45 402.569 634.498 403.688 634.56 404.805H940.099V218.894H940.097Z" fill="#B5C72D"/>
<path d="M940.096 228.221C792.597 260.125 688.145 336.179 688.145 401.445C688.145 402.567 688.192 403.686 688.254 404.803H940.096V228.221Z" fill="#C6D35C"/>
<path d="M940.097 239.138C815.765 275.316 731.241 342.739 731.241 401.445C731.241 402.568 731.289 403.686 731.351 404.803H940.097V239.138Z" fill="#B5C72D"/>
<path d="M634.45 401.445C634.45 402.567 634.498 403.686 634.56 404.803H688.257H731.353H787.556H837.423H940.099V282.388V258.644V239.138V228.221V218.894C764.901 242.1 634.45 328.51 634.45 401.445Z" fill="url(#paint5_linear_310_2305)"/>
</g>
<mask id="mask2_310_2305" style="mask-type:luminance" maskUnits="userSpaceOnUse" x="-8" y="-327" width="949" height="949">
<path d="M940.197 -327H-8V621.197H940.197V-327Z" fill="white"/>
</mask>
<g mask="url(#mask2_310_2305)">
<path d="M1016.91 289.774C927.253 281.504 837.508 275.152 747.579 270.712C747.522 272.451 747.493 273.321 747.437 275.06C837.318 279.498 927.016 285.846 1016.63 294.112C1016.74 292.378 1016.8 291.509 1016.91 289.774Z" fill="#895D34"/>
<path d="M1015.61 309.62C926.169 301.37 836.641 295.032 746.928 290.603C746.871 292.342 746.843 293.212 746.786 294.951C836.45 299.378 925.932 305.71 1015.33 313.956C1015.44 312.221 1015.5 311.355 1015.61 309.62Z" fill="#895D34"/>
<path d="M772.879 311.81C769.13 311.616 767.257 311.52 763.509 311.332C764.062 295.421 764.339 287.465 764.893 271.554C768.658 271.743 770.543 271.838 774.308 272.034C773.736 287.945 773.451 295.898 772.879 311.81Z" fill="#895D34"/>
<path d="M69.5674 278.98C69.6527 280.717 69.6963 281.586 69.7835 283.324C259.579 270.204 449.56 266.097 639.744 271.002C639.778 269.262 639.795 268.391 639.829 266.653C449.545 261.744 259.463 265.854 69.5674 278.98Z" fill="#895D34"/>
<path d="M70.5552 298.852C70.6405 300.589 70.6841 301.458 70.7713 303.196C260.108 290.108 449.63 286.011 639.357 290.904C639.391 289.164 639.408 288.296 639.442 286.555C449.615 281.658 259.992 285.757 70.5552 298.852Z" fill="#895D34"/>
<path d="M69.5674 278.98C70.3561 294.877 70.7505 302.825 71.5392 318.723C74.6752 318.499 76.2432 318.387 79.3792 318.167C78.6056 302.269 78.2188 294.321 77.4453 278.423C74.2941 278.643 72.7185 278.755 69.5674 278.98Z" fill="#895D34"/>
<path d="M121.952 315.338C118.206 315.573 116.332 315.693 112.588 315.934C111.879 300.032 111.524 292.08 110.815 276.178C114.579 275.936 116.461 275.816 120.225 275.581C120.915 291.485 121.26 299.437 121.952 315.338Z" fill="#895D34"/>
<path d="M164.536 312.83C160.79 313.037 158.915 313.141 155.168 313.355C154.541 297.448 154.228 289.494 153.602 273.588C157.368 273.374 159.25 273.27 163.016 273.061C163.624 288.969 163.928 296.922 164.536 312.83Z" fill="#895D34"/>
<path d="M207.136 310.64C203.387 310.818 201.514 310.909 197.764 311.095C197.22 295.184 196.948 287.228 196.404 271.317C200.172 271.131 202.054 271.04 205.82 270.86C206.347 286.771 206.61 294.727 207.136 310.64Z" fill="#895D34"/>
<path d="M249.746 308.771C245.996 308.92 244.123 308.998 240.372 309.155C239.912 293.24 239.68 285.283 239.22 269.368C242.987 269.211 244.87 269.133 248.639 268.981C249.081 284.896 249.303 292.854 249.746 308.771Z" fill="#895D34"/>
<path d="M292.366 307.218C288.616 307.341 286.741 307.404 282.99 307.532C282.611 291.614 282.422 283.654 282.042 267.737C285.81 267.608 287.694 267.544 291.464 267.423C291.824 283.34 292.004 291.299 292.366 307.218Z" fill="#895D34"/>
<path d="M334.992 305.985C331.242 306.08 329.367 306.129 325.614 306.23C325.319 290.309 325.171 282.348 324.875 266.427C328.644 266.327 330.529 266.277 334.296 266.182C334.575 282.105 334.715 290.065 334.992 305.985Z" fill="#895D34"/>
<path d="M377.626 305.073C373.874 305.14 371.998 305.174 368.248 305.246C368.034 289.323 367.928 281.362 367.715 265.439C371.485 265.367 373.369 265.331 377.138 265.265C377.334 281.189 377.43 289.151 377.626 305.073Z" fill="#895D34"/>
<path d="M420.265 304.48C416.513 304.518 414.638 304.539 410.886 304.582C410.755 288.658 410.688 280.696 410.558 264.772C414.327 264.728 416.212 264.708 419.983 264.668C420.096 280.594 420.151 288.555 420.265 304.48Z" fill="#895D34"/>
<path d="M462.904 304.205C459.152 304.214 457.277 304.222 453.525 304.237C453.477 288.313 453.453 280.349 453.405 264.425C457.176 264.408 459.061 264.402 462.83 264.393C462.861 280.317 462.876 288.28 462.904 304.205Z" fill="#895D34"/>
<path d="M505.545 304.25C501.792 304.233 499.917 304.226 496.165 304.213C496.199 288.288 496.216 280.325 496.252 264.4C500.021 264.412 501.906 264.419 505.677 264.438C505.624 280.363 505.598 288.326 505.545 304.25Z" fill="#895D34"/>
<path d="M548.186 304.614C544.434 304.569 542.559 304.546 538.809 304.506C538.926 288.582 538.985 280.621 539.102 264.696C542.872 264.736 544.756 264.759 548.526 264.804C548.389 280.727 548.321 288.69 548.186 304.614Z" fill="#895D34"/>
<path d="M590.821 305.297C587.071 305.223 585.196 305.187 581.443 305.119C581.642 289.196 581.743 281.235 581.944 265.31C585.713 265.379 587.598 265.415 591.367 265.489C591.149 281.413 591.041 289.374 590.821 305.297Z" fill="#895D34"/>
<path d="M633.455 306.298C629.705 306.196 627.829 306.146 624.079 306.05C624.362 290.129 624.504 282.168 624.786 266.247C628.556 266.344 630.44 266.393 634.209 266.495C633.906 282.418 633.754 290.379 633.455 306.298Z" fill="#895D34"/>
</g>
<mask id="mask3_310_2305" style="mask-type:luminance" maskUnits="userSpaceOnUse" x="-8" y="-327" width="949" height="949">
<path d="M940.197 -327H-8V621.197H940.197V-327Z" fill="white"/>
</mask>
<g mask="url(#mask3_310_2305)">
<path d="M589.79 230.851L631.252 160.143H816.108L774.646 230.851H589.79Z" fill="#704C2B"/>
<path opacity="0.6" d="M589.79 230.851L631.252 160.143H816.108L774.646 230.851H589.79Z" fill="url(#paint6_linear_310_2305)"/>
<path d="M885.09 321.768H646.378V206.421L681.369 171.902H850.097L885.09 231.575V321.768Z" fill="#AC361F"/>
<path d="M760.633 222.836H736.669V321.768H760.633V222.836Z" fill="#C03C22"/>
<path d="M790.643 222.836H766.68V321.768H790.643V222.836Z" fill="#C03C22"/>
<path opacity="0.6" d="M885.09 321.768H646.378V206.421L681.369 171.902H850.097L885.09 231.575V321.768Z" fill="url(#paint7_linear_310_2305)"/>
<path d="M730.974 321.768H608.168V231.575L643.159 171.902H695.981L730.974 231.575V321.768Z" fill="#DF4527"/>
<path opacity="0.6" d="M730.974 321.768H608.168V231.575L643.159 171.902H695.981L730.974 231.575V321.768Z" fill="url(#paint8_linear_310_2305)"/>
<path d="M903.038 230.851L861.576 160.143H676.72L718.181 230.851H903.038Z" fill="#835832"/>
<path d="M891.527 224.361L854.282 160.846H688.23L725.474 224.361H891.527Z" fill="#895D34"/>
<path opacity="0.6" d="M903.038 230.851L861.576 160.143H676.72L718.181 230.851H903.038Z" fill="url(#paint9_linear_310_2305)"/>
<path d="M692.301 244.923H639.376V321.768H692.301V244.923Z" fill="#825D36"/>
<path d="M685.405 250.584H639.376V321.768H685.405V250.584Z" fill="#986C3F"/>
<path d="M677.436 191.594H654.242V224.958H677.436V191.594Z" fill="#3C918A"/>
<path d="M674.412 194.051H654.242V224.958H674.412V194.051Z" fill="#46A9A2"/>
<path d="M666.82 192.603H664.327V224.958H666.82V192.603Z" fill="#3C918A"/>
<path d="M677.436 191.594H654.242V224.958H677.436V191.594Z" fill="url(#paint10_linear_310_2305)"/>
<path d="M646.378 246.834H644.177V321.768H646.378V246.834Z" fill="#825D36"/>
<path d="M654.242 246.834H652.041V321.768H654.242V246.834Z" fill="#825D36"/>
<path d="M662.108 246.834H659.906V321.768H662.108V246.834Z" fill="#825D36"/>
<path d="M669.974 246.834H667.772V321.768H669.974V246.834Z" fill="#825D36"/>
<path d="M677.838 246.834H675.637V321.768H677.838V246.834Z" fill="#825D36"/>
<path d="M685.705 246.834H683.504V321.768H685.705V246.834Z" fill="#825D36"/>
<path opacity="0.6" d="M692.301 244.923H639.376V321.768H692.301V244.923Z" fill="url(#paint11_linear_310_2305)"/>
</g>
<mask id="mask4_310_2305" style="mask-type:luminance" maskUnits="userSpaceOnUse" x="-8" y="-327" width="949" height="949">
<path d="M940.197 -327H-8V621.197H940.197V-327Z" fill="white"/>
</mask>
<g mask="url(#mask4_310_2305)">
<path d="M287.552 243.036L286.667 203.275H283.123L282.238 243.036H287.552Z" fill="#898133"/>
<path d="M297.715 201.683C297.715 214.437 291.976 224.776 284.896 224.776C277.816 224.776 272.077 214.437 272.077 201.683C272.077 188.928 277.816 167.585 284.896 167.585C291.976 167.585 297.715 188.928 297.715 201.683Z" fill="#717C22"/>
<path d="M284.502 243.036V203.275H283.123L282.238 243.036H284.502Z" fill="#70692A"/>
<path d="M284.502 167.621C277.604 168.392 272.077 189.167 272.077 201.682C272.077 214.196 277.606 224.36 284.502 224.74V167.621Z" fill="#899629"/>
</g>
<mask id="mask5_310_2305" style="mask-type:luminance" maskUnits="userSpaceOnUse" x="-8" y="-327" width="949" height="949">
<path d="M940.197 -327H-8V621.197H940.197V-327Z" fill="white"/>
</mask>
<g mask="url(#mask5_310_2305)">
<path d="M64.0387 215.891L63.1532 176.13H59.6096L58.7261 215.891H64.0387Z" fill="#898133"/>
<path d="M74.2012 174.536C74.2012 187.29 68.462 197.629 61.3823 197.629C54.3027 197.629 48.5635 187.29 48.5635 174.536C48.5635 161.781 54.3027 140.438 61.3823 140.438C68.462 140.438 74.2012 161.783 74.2012 174.536Z" fill="#717C22"/>
<path d="M60.988 215.891V176.13H59.6096L58.7261 215.891H60.988Z" fill="#70692A"/>
<path d="M60.988 140.474C54.0903 141.246 48.5635 162.02 48.5635 174.536C48.5635 187.049 54.0922 197.214 60.988 197.593V140.474Z" fill="#899629"/>
</g>
<mask id="mask6_310_2305" style="mask-type:luminance" maskUnits="userSpaceOnUse" x="-8" y="-327" width="949" height="949">
<path d="M940.197 -327H-8V621.197H940.197V-327Z" fill="white"/>
</mask>
<g mask="url(#mask6_310_2305)">
<path d="M458.204 241.002L457.319 201.241H453.775L452.89 241.002H458.204Z" fill="#898133"/>
<path d="M468.366 199.648C468.366 212.402 462.627 222.741 455.547 222.741C448.468 222.741 442.729 212.402 442.729 199.648C442.729 186.894 448.468 165.55 455.547 165.55C462.627 165.549 468.366 186.894 468.366 199.648Z" fill="#717C22"/>
<path d="M455.153 241.002V201.241H453.775L452.89 241.002H455.153Z" fill="#70692A"/>
<path d="M455.153 165.586C448.255 166.358 442.729 187.132 442.729 199.648C442.729 212.162 448.257 222.326 455.153 222.705V165.586Z" fill="#899629"/>
</g>
<mask id="mask7_310_2305" style="mask-type:luminance" maskUnits="userSpaceOnUse" x="-8" y="-327" width="949" height="949">
<path d="M940.197 -327H-8V621.197H940.197V-327Z" fill="white"/>
</mask>
<g mask="url(#mask7_310_2305)">
<path d="M388.723 223.809L388.065 194.199H385.425L384.766 223.809H388.723Z" fill="#898133"/>
<path d="M396.291 193.012C396.291 202.509 392.018 210.209 386.745 210.209C381.472 210.209 377.199 202.509 377.199 193.012C377.199 183.515 381.472 167.619 386.745 167.619C392.018 167.619 396.291 183.515 396.291 193.012Z" fill="#717C22"/>
<path d="M386.451 223.809V194.199H385.425L384.766 223.809H386.451Z" fill="#70692A"/>
<path d="M386.451 167.647C381.315 168.222 377.199 183.691 377.199 193.012C377.199 202.331 381.317 209.9 386.451 210.182V167.647Z" fill="#899629"/>
</g>
<mask id="mask8_310_2305" style="mask-type:luminance" maskUnits="userSpaceOnUse" x="-8" y="-327" width="949" height="949">
<path d="M940.197 -327H-8V621.197H940.197V-327Z" fill="white"/>
</mask>
<g mask="url(#mask8_310_2305)">
<path d="M177.135 210.209L176.477 180.601H173.838L173.178 210.209H177.135Z" fill="#898133"/>
<path d="M184.702 179.414C184.702 188.911 180.429 196.611 175.156 196.611C169.883 196.611 165.609 188.911 165.609 179.414C165.609 169.917 169.883 154.021 175.156 154.021C180.429 154.021 184.702 169.917 184.702 179.414Z" fill="#717C22"/>
<path d="M174.864 210.209V180.601H173.838L173.178 210.209H174.864Z" fill="#70692A"/>
<path d="M174.864 154.049C169.728 154.624 165.611 170.093 165.611 179.414C165.611 188.733 169.729 196.302 174.864 196.584V154.049Z" fill="#899629"/>
</g>
<mask id="mask9_310_2305" style="mask-type:luminance" maskUnits="userSpaceOnUse" x="-8" y="-327" width="949" height="949">
<path d="M940.197 -327H-8V621.197H940.197V-327Z" fill="white"/>
</mask>
<g mask="url(#mask9_310_2305)">
<path d="M992.93 652.68C650.177 621.174 306.116 621.178 -36.6373 652.701C-43.6923 544.955 -50.7473 437.209 -57.8062 329.465C299.012 296.611 657.266 296.606 1014.09 329.445C1007.03 437.188 999.984 544.934 992.93 652.68Z" fill="#D3E64A"/>
<path opacity="0.6" d="M992.93 652.68C650.177 621.174 306.116 621.178 -36.6373 652.701C-41.6674 575.89 -46.6956 499.082 -51.7275 422.273C301.054 389.809 655.228 389.804 1008.01 422.252C1002.98 499.061 997.957 575.871 992.93 652.68Z" fill="url(#paint12_linear_310_2305)"/>
<path d="M1008.01 422.25C655.228 389.802 301.053 389.807 -51.7278 422.271C-53.3299 397.809 -54.9321 373.348 -56.5342 348.886C299.438 316.11 656.842 316.104 1012.82 348.865C1011.21 373.327 1009.61 397.79 1008.01 422.25Z" fill="#D4A144"/>
<path d="M1008.01 422.25C655.228 389.802 301.053 389.807 -51.728 422.271C-53.1481 400.592 -53.8572 389.752 -55.2773 368.072C299.866 335.392 656.413 335.385 1011.56 368.051C1010.14 389.732 1009.43 400.571 1008.01 422.25Z" fill="#E3AD49"/>
<path d="M1008.01 422.25C655.228 389.802 301.053 389.807 -51.7278 422.271C-53.3299 397.809 -54.9321 373.348 -56.5342 348.886C299.438 316.11 656.842 316.104 1012.82 348.865C1011.21 373.327 1009.61 397.79 1008.01 422.25Z" fill="url(#paint13_linear_310_2305)"/>
</g>
</g>
</g>
<defs>
<linearGradient id="paint0_linear_310_2305" x1="384" y1="0" x2="384" y2="432" gradientUnits="userSpaceOnUse">
<stop stop-color="#00FFFF"/>
<stop offset="1" stop-color="#00C2FF"/>
</linearGradient>
<linearGradient id="paint1_linear_310_2305" x1="278.731" y1="361.143" x2="278.731" y2="272.144" gradientUnits="userSpaceOnUse">
<stop stop-color="#499836"/>
<stop offset="0.974" stop-color="#069100" stop-opacity="0"/>
</linearGradient>
<linearGradient id="paint2_linear_310_2305" x1="282.629" y1="418.236" x2="282.629" y2="258.393" gradientUnits="userSpaceOnUse">
<stop stop-color="#499836"/>
<stop offset="0.974" stop-color="#069100" stop-opacity="0"/>
</linearGradient>
<linearGradient id="paint3_linear_310_2305" x1="787.273" y1="418.236" x2="787.273" y2="258.393" gradientUnits="userSpaceOnUse">
<stop stop-color="#499836"/>
<stop offset="0.974" stop-color="#069100" stop-opacity="0"/>
</linearGradient>
<linearGradient id="paint4_linear_310_2305" x1="617.604" y1="361.143" x2="617.604" y2="272.145" gradientUnits="userSpaceOnUse">
<stop stop-color="#499836"/>
<stop offset="0.974" stop-color="#069100" stop-opacity="0"/>
</linearGradient>
<linearGradient id="paint5_linear_310_2305" x1="787.273" y1="522.347" x2="787.273" y2="245.15" gradientUnits="userSpaceOnUse">
<stop stop-color="#499836"/>
<stop offset="0.974" stop-color="#069100" stop-opacity="0"/>
</linearGradient>
<linearGradient id="paint6_linear_310_2305" x1="704.447" y1="188.641" x2="685.572" y2="275.027" gradientUnits="userSpaceOnUse">
<stop stop-color="#4A3030"/>
<stop offset="0.974" stop-color="#6D5223" stop-opacity="0"/>
</linearGradient>
<linearGradient id="paint7_linear_310_2305" x1="765.733" y1="221.674" x2="765.733" y2="257.627" gradientUnits="userSpaceOnUse">
<stop stop-color="#4A3030"/>
<stop offset="0.974" stop-color="#6D5223" stop-opacity="0"/>
</linearGradient>
<linearGradient id="paint8_linear_310_2305" x1="669.57" y1="154.122" x2="669.57" y2="208.831" gradientUnits="userSpaceOnUse">
<stop stop-color="#4A3030"/>
<stop offset="0.974" stop-color="#6D5223" stop-opacity="0"/>
</linearGradient>
<linearGradient id="paint9_linear_310_2305" x1="726.541" y1="257.861" x2="820.912" y2="164.941" gradientUnits="userSpaceOnUse">
<stop stop-color="#4A3030"/>
<stop offset="0.974" stop-color="#6D5223" stop-opacity="0"/>
</linearGradient>
<linearGradient id="paint10_linear_310_2305" x1="665.839" y1="153.654" x2="665.839" y2="223.782" gradientUnits="userSpaceOnUse">
<stop stop-color="#32687F"/>
<stop offset="0.9697" stop-color="#27464D" stop-opacity="0"/>
</linearGradient>
<linearGradient id="paint11_linear_310_2305" x1="665.839" y1="239.23" x2="665.839" y2="267.686" gradientUnits="userSpaceOnUse">
<stop stop-color="#4A3030"/>
<stop offset="0.974" stop-color="#6D5223" stop-opacity="0"/>
</linearGradient>
<linearGradient id="paint12_linear_310_2305" x1="478.142" y1="670.793" x2="478.142" y2="448.158" gradientUnits="userSpaceOnUse">
<stop stop-color="#499836"/>
<stop offset="0.974" stop-color="#069100" stop-opacity="0"/>
</linearGradient>
<linearGradient id="paint13_linear_310_2305" x1="478.141" y1="523.192" x2="478.141" y2="335.639" gradientUnits="userSpaceOnUse">
<stop stop-color="#DF8153"/>
<stop offset="1" stop-color="#825441" stop-opacity="0"/>
</linearGradient>
<clipPath id="clip0_310_2305">
<rect width="768" height="432" fill="white" transform="translate(0 -1)"/>
</clipPath>
<clipPath id="clip1_310_2305">
<rect width="948" height="948" fill="white" transform="translate(-8 -327)"/>
</clipPath>
</defs>
</svg>
