<svg width="178" height="64" viewBox="0 0 178 64" fill="none" xmlns="http://www.w3.org/2000/svg">
<rect x="2" y="2" width="174" height="60" rx="12" fill="url(#paint0_linear_2452_4670)" stroke="white" stroke-width="4"/>
<path d="M39.6206 42.308C37.4926 42.308 35.6726 41.888 34.1606 41.048C32.6486 40.208 31.482 39.032 30.6606 37.52C29.858 35.9893 29.4566 34.188 29.4566 32.116C29.4566 30.5667 29.6806 29.176 30.1286 27.944C30.5953 26.6933 31.2673 25.6293 32.1446 24.752C33.022 23.856 34.086 23.1653 35.3366 22.68C36.606 22.1947 38.034 21.952 39.6206 21.952C40.554 21.952 41.4966 22.0733 42.4486 22.316C43.4193 22.54 44.2593 22.8667 44.9686 23.296C45.4353 23.5573 45.7526 23.884 45.9206 24.276C46.0886 24.668 46.1353 25.06 46.0606 25.452C46.0046 25.844 45.846 26.18 45.5846 26.46C45.342 26.74 45.034 26.9173 44.6606 26.992C44.2873 27.0667 43.8673 26.9827 43.4006 26.74C42.8406 26.404 42.2526 26.1613 41.6366 26.012C41.0206 25.8627 40.3953 25.788 39.7606 25.788C38.51 25.788 37.4553 26.04 36.5966 26.544C35.7566 27.0293 35.122 27.7387 34.6926 28.672C34.2633 29.6053 34.0486 30.7533 34.0486 32.116C34.0486 33.46 34.2633 34.608 34.6926 35.56C35.122 36.512 35.7566 37.24 36.5966 37.744C37.4553 38.2293 38.51 38.472 39.7606 38.472C40.358 38.472 40.9646 38.3973 41.5806 38.248C42.2153 38.0987 42.822 37.8653 43.4006 37.548C43.886 37.3053 44.3153 37.2213 44.6886 37.296C45.0806 37.352 45.398 37.52 45.6406 37.8C45.902 38.0613 46.0606 38.3787 46.1166 38.752C46.1913 39.1253 46.154 39.4987 46.0046 39.872C45.8553 40.2453 45.5753 40.5627 45.1646 40.824C44.474 41.2907 43.6246 41.6547 42.6166 41.916C41.6086 42.1773 40.61 42.308 39.6206 42.308ZM51.3693 42.252C50.6599 42.252 50.1186 42.056 49.7453 41.664C49.3719 41.272 49.1853 40.7213 49.1853 40.012V24.248C49.1853 23.5387 49.3719 22.988 49.7453 22.596C50.1186 22.204 50.6599 22.008 51.3693 22.008C52.0599 22.008 52.5919 22.204 52.9653 22.596C53.3386 22.988 53.5253 23.5387 53.5253 24.248V30.184H62.7093V24.248C62.7093 23.5387 62.8959 22.988 63.2693 22.596C63.6426 22.204 64.1746 22.008 64.8653 22.008C65.5746 22.008 66.1159 22.204 66.4893 22.596C66.8626 22.988 67.0493 23.5387 67.0493 24.248V40.012C67.0493 40.7213 66.8626 41.272 66.4893 41.664C66.1159 42.056 65.5746 42.252 64.8653 42.252C64.1746 42.252 63.6426 42.056 63.2693 41.664C62.8959 41.272 62.7093 40.7213 62.7093 40.012V33.796H53.5253V40.012C53.5253 40.7213 53.3386 41.272 52.9653 41.664C52.6106 42.056 52.0786 42.252 51.3693 42.252ZM71.5929 42.252C71.0703 42.252 70.6409 42.1307 70.3049 41.888C69.9876 41.6453 69.7823 41.3187 69.6889 40.908C69.6143 40.4973 69.6983 40.04 69.9409 39.536L77.1089 23.828C77.4076 23.1933 77.7623 22.736 78.1729 22.456C78.5836 22.1573 79.0596 22.008 79.6009 22.008C80.1423 22.008 80.6183 22.1573 81.0289 22.456C81.4396 22.736 81.7849 23.1933 82.0649 23.828L89.2889 39.536C89.5316 40.04 89.6156 40.5067 89.5409 40.936C89.4849 41.3467 89.2983 41.6733 88.9809 41.916C88.6636 42.14 88.2529 42.252 87.7489 42.252C87.1143 42.252 86.6196 42.1027 86.2649 41.804C85.9289 41.5053 85.6303 41.0387 85.3689 40.404L83.6889 36.512L85.4249 37.716H73.7489L75.4849 36.512L73.8329 40.404C73.5529 41.0573 73.2543 41.5333 72.9369 41.832C72.6383 42.112 72.1903 42.252 71.5929 42.252ZM79.5449 26.88L75.9609 35.42L75.2049 34.328H83.9689L83.2129 35.42L79.6009 26.88H79.5449ZM94.131 42.252C93.4776 42.252 92.9736 42.0747 92.619 41.72C92.283 41.3467 92.115 40.824 92.115 40.152V24.192C92.115 23.4827 92.283 22.9413 92.619 22.568C92.9736 22.1947 93.4403 22.008 94.019 22.008C94.523 22.008 94.9056 22.1107 95.167 22.316C95.447 22.5027 95.7643 22.82 96.119 23.268L105.947 35.784H105.191V24.08C105.191 23.4267 105.359 22.9227 105.695 22.568C106.05 22.1947 106.554 22.008 107.207 22.008C107.86 22.008 108.355 22.1947 108.691 22.568C109.046 22.9227 109.223 23.4267 109.223 24.08V40.236C109.223 40.852 109.064 41.3467 108.747 41.72C108.43 42.0747 108 42.252 107.459 42.252C106.936 42.252 106.516 42.1493 106.199 41.944C105.9 41.7387 105.574 41.412 105.219 40.964L95.419 28.448H96.147V40.152C96.147 40.824 95.979 41.3467 95.643 41.72C95.307 42.0747 94.803 42.252 94.131 42.252ZM122.969 42.308C120.748 42.308 118.862 41.888 117.313 41.048C115.782 40.208 114.616 39.032 113.813 37.52C113.01 36.008 112.609 34.2347 112.609 32.2C112.609 30.632 112.842 29.2227 113.309 27.972C113.794 26.7027 114.485 25.6293 115.381 24.752C116.296 23.856 117.397 23.1653 118.685 22.68C119.992 22.1947 121.466 21.952 123.109 21.952C124.117 21.952 125.125 22.064 126.133 22.288C127.141 22.512 128.112 22.8853 129.045 23.408C129.437 23.632 129.698 23.9213 129.829 24.276C129.978 24.612 130.016 24.976 129.941 25.368C129.885 25.7413 129.736 26.0773 129.493 26.376C129.269 26.656 128.97 26.8427 128.597 26.936C128.242 27.0107 127.832 26.936 127.365 26.712C126.749 26.376 126.096 26.1333 125.405 25.984C124.714 25.816 123.958 25.732 123.137 25.732C121.812 25.732 120.701 25.984 119.805 26.488C118.909 26.9733 118.237 27.7013 117.789 28.672C117.36 29.624 117.145 30.8 117.145 32.2C117.145 34.3093 117.649 35.9053 118.657 36.988C119.684 38.0707 121.196 38.612 123.193 38.612C123.865 38.612 124.556 38.5467 125.265 38.416C125.974 38.2853 126.674 38.0987 127.365 37.856L126.553 39.62V34.244H124.033C123.473 34.244 123.044 34.104 122.745 33.824C122.446 33.544 122.297 33.1613 122.297 32.676C122.297 32.172 122.446 31.7893 122.745 31.528C123.044 31.248 123.473 31.108 124.033 31.108H128.429C128.989 31.108 129.409 31.2573 129.689 31.556C129.988 31.8547 130.137 32.284 130.137 32.844V39.34C130.137 39.8253 130.044 40.236 129.857 40.572C129.67 40.908 129.353 41.1507 128.905 41.3C128.065 41.5987 127.122 41.8413 126.077 42.028C125.032 42.2147 123.996 42.308 122.969 42.308ZM136.246 42C135.518 42 134.958 41.804 134.566 41.412C134.174 41.02 133.978 40.46 133.978 39.732V24.528C133.978 23.8 134.174 23.24 134.566 22.848C134.958 22.456 135.518 22.26 136.246 22.26H146.018C146.578 22.26 146.998 22.4093 147.278 22.708C147.577 22.988 147.726 23.3987 147.726 23.94C147.726 24.5 147.577 24.9293 147.278 25.228C146.998 25.508 146.578 25.648 146.018 25.648H138.122V30.268H145.374C145.953 30.268 146.382 30.4173 146.662 30.716C146.961 30.996 147.11 31.416 147.11 31.976C147.11 32.536 146.961 32.9653 146.662 33.264C146.382 33.544 145.953 33.684 145.374 33.684H138.122V38.612H146.018C146.578 38.612 146.998 38.7613 147.278 39.06C147.577 39.34 147.726 39.7507 147.726 40.292C147.726 40.852 147.577 41.2813 147.278 41.58C146.998 41.86 146.578 42 146.018 42H136.246Z" fill="white"/>
<g style="mix-blend-mode:screen">
<path d="M23.4006 7.37803C22.9075 6.43888 21.8211 5.74975 20.6604 5.67488C18.4426 5.53183 14.8998 5.39347 13.3167 5.82387C12.2298 6.11935 11.3089 6.65178 10.6113 7.16375C9.61487 7.895 9.64098 9.20206 10.4196 10.3243C11.8338 12.3624 15.0369 12.9213 17.133 11.894C17.6094 11.6605 18.0997 11.4606 18.5843 11.3226C18.8924 11.2348 19.2401 11.1911 19.6131 11.182C22.0845 11.1218 24.4669 9.40914 23.4006 7.37803Z" fill="white" fill-opacity="0.51"/>
</g>
<path d="M6.08097 16.3359C7.75871 17.2792 10.4841 15.4041 11.0612 14.3776C11.6383 13.3512 12.032 12.4774 10.3542 11.5341C8.67648 10.5908 6.84858 10.6583 6.27148 11.6847C5.69438 12.7112 4.40324 15.3926 6.08097 16.3359Z" fill="white" fill-opacity="0.51"/>
<defs>
<linearGradient id="paint0_linear_2452_4670" x1="89" y1="4" x2="89" y2="60" gradientUnits="userSpaceOnUse">
<stop stop-color="#FF8761"/>
<stop offset="0.213542" stop-color="#EB3A02"/>
<stop offset="0.5" stop-color="#E93A03"/>
<stop offset="1" stop-color="#D43300"/>
</linearGradient>
</defs>
</svg>
