<svg width="172" height="58" viewBox="0 0 172 58" fill="none" xmlns="http://www.w3.org/2000/svg">
<rect x="2" y="2" width="167.849" height="53.9375" rx="23.5684" fill="url(#paint0_linear_2989_4828)" stroke="#030303" stroke-width="3"/>
<rect x="2" y="2" width="168" height="54" rx="24" fill="url(#paint1_linear_2989_4828)" stroke="white" stroke-width="3"/>
<path d="M26.7011 37C26.1031 37 25.6431 36.839 25.3211 36.517C24.9991 36.195 24.8381 35.735 24.8381 35.137V22.648C24.8381 22.05 24.9991 21.59 25.3211 21.268C25.6431 20.946 26.1031 20.785 26.7011 20.785H31.1861C33.9614 20.785 36.1004 21.4903 37.6031 22.901C39.1211 24.2963 39.8801 26.2897 39.8801 28.881C39.8801 30.1843 39.6807 31.342 39.2821 32.354C38.8987 33.3507 38.3391 34.194 37.6031 34.884C36.8671 35.574 35.9624 36.103 34.8891 36.471C33.8157 36.8237 32.5814 37 31.1861 37H26.7011ZM28.4031 34.079H30.9791C31.8531 34.079 32.6121 33.9717 33.2561 33.757C33.9001 33.5423 34.4367 33.2203 34.8661 32.791C35.2954 32.3617 35.6174 31.825 35.8321 31.181C36.0467 30.5217 36.1541 29.755 36.1541 28.881C36.1541 27.133 35.7171 25.8373 34.8431 24.994C33.9844 24.1353 32.6964 23.706 30.9791 23.706H28.4031V34.079ZM44.4436 37.207C43.8609 37.207 43.4163 37.046 43.1096 36.724C42.8029 36.402 42.6496 35.9497 42.6496 35.367V22.418C42.6496 21.8353 42.8029 21.383 43.1096 21.061C43.4163 20.739 43.8609 20.578 44.4436 20.578C45.0109 20.578 45.4479 20.739 45.7546 21.061C46.0613 21.383 46.2146 21.8353 46.2146 22.418V35.367C46.2146 35.9497 46.0613 36.402 45.7546 36.724C45.4633 37.046 45.0263 37.207 44.4436 37.207ZM51.2947 37.207C50.7121 37.207 50.2597 37.046 49.9377 36.724C49.6311 36.402 49.4777 35.9343 49.4777 35.321V22.648C49.4777 22.05 49.6387 21.59 49.9607 21.268C50.2827 20.946 50.7427 20.785 51.3407 20.785H59.2067C59.6667 20.785 60.0117 20.9077 60.2417 21.153C60.4871 21.383 60.6097 21.7203 60.6097 22.165C60.6097 22.625 60.4871 22.9777 60.2417 23.223C60.0117 23.453 59.6667 23.568 59.2067 23.568H53.0427V27.524H58.7007C59.1607 27.524 59.5134 27.6467 59.7587 27.892C60.0041 28.122 60.1267 28.4593 60.1267 28.904C60.1267 29.3487 60.0041 29.6937 59.7587 29.939C59.5134 30.1843 59.1607 30.307 58.7007 30.307H53.0427V35.321C53.0427 36.5783 52.4601 37.207 51.2947 37.207ZM64.4119 37.207C63.8292 37.207 63.3769 37.046 63.0549 36.724C62.7482 36.402 62.5949 35.9343 62.5949 35.321V22.648C62.5949 22.05 62.7559 21.59 63.0779 21.268C63.3999 20.946 63.8599 20.785 64.4579 20.785H72.3239C72.7839 20.785 73.1289 20.9077 73.3589 21.153C73.6042 21.383 73.7269 21.7203 73.7269 22.165C73.7269 22.625 73.6042 22.9777 73.3589 23.223C73.1289 23.453 72.7839 23.568 72.3239 23.568H66.1599V27.524H71.8179C72.2779 27.524 72.6306 27.6467 72.8759 27.892C73.1212 28.122 73.2439 28.4593 73.2439 28.904C73.2439 29.3487 73.1212 29.6937 72.8759 29.939C72.6306 30.1843 72.2779 30.307 71.8179 30.307H66.1599V35.321C66.1599 36.5783 65.5772 37.207 64.4119 37.207ZM77.5751 37C76.9771 37 76.5171 36.839 76.1951 36.517C75.8731 36.195 75.7121 35.735 75.7121 35.137V22.648C75.7121 22.05 75.8731 21.59 76.1951 21.268C76.5171 20.946 76.9771 20.785 77.5751 20.785H85.6021C86.0621 20.785 86.4071 20.9077 86.6371 21.153C86.8824 21.383 87.0051 21.7203 87.0051 22.165C87.0051 22.625 86.8824 22.9777 86.6371 23.223C86.4071 23.453 86.0621 23.568 85.6021 23.568H79.1161V27.363H85.0731C85.5484 27.363 85.9011 27.4857 86.1311 27.731C86.3764 27.961 86.4991 28.306 86.4991 28.766C86.4991 29.226 86.3764 29.5787 86.1311 29.824C85.9011 30.054 85.5484 30.169 85.0731 30.169H79.1161V34.217H85.6021C86.0621 34.217 86.4071 34.3397 86.6371 34.585C86.8824 34.815 87.0051 35.1523 87.0051 35.597C87.0051 36.057 86.8824 36.4097 86.6371 36.655C86.4071 36.885 86.0621 37 85.6021 37H77.5751ZM91.4319 37.207C90.8492 37.207 90.4045 37.046 90.0979 36.724C89.7912 36.402 89.6379 35.9497 89.6379 35.367V22.602C89.6379 22.004 89.7912 21.5517 90.0979 21.245C90.4199 20.9383 90.8722 20.785 91.4549 20.785H97.0439C98.8532 20.785 100.249 21.222 101.23 22.096C102.211 22.97 102.702 24.189 102.702 25.753C102.702 26.765 102.48 27.639 102.035 28.375C101.59 29.111 100.946 29.6783 100.103 30.077C99.2749 30.4757 98.2552 30.675 97.0439 30.675L97.2279 30.284H98.1709C98.8149 30.284 99.3746 30.445 99.8499 30.767C100.341 31.0737 100.762 31.549 101.115 32.193L102.541 34.838C102.756 35.2213 102.855 35.597 102.84 35.965C102.825 36.333 102.687 36.632 102.426 36.862C102.165 37.092 101.782 37.207 101.276 37.207C100.77 37.207 100.356 37.0997 100.034 36.885C99.7272 36.6703 99.4512 36.3407 99.2059 35.896L96.9979 31.825C96.7679 31.3957 96.4842 31.1043 96.1469 30.951C95.8249 30.7977 95.4262 30.721 94.9509 30.721H93.2029V35.367C93.2029 35.9497 93.0495 36.402 92.7429 36.724C92.4515 37.046 92.0145 37.207 91.4319 37.207ZM93.2029 28.145H96.3999C97.3505 28.145 98.0635 27.9533 98.5389 27.57C99.0295 27.1867 99.2749 26.6117 99.2749 25.845C99.2749 25.0937 99.0295 24.5263 98.5389 24.143C98.0635 23.7597 97.3505 23.568 96.3999 23.568H93.2029V28.145ZM107.516 37C106.918 37 106.458 36.839 106.136 36.517C105.814 36.195 105.653 35.735 105.653 35.137V22.648C105.653 22.05 105.814 21.59 106.136 21.268C106.458 20.946 106.918 20.785 107.516 20.785H115.543C116.003 20.785 116.348 20.9077 116.578 21.153C116.823 21.383 116.946 21.7203 116.946 22.165C116.946 22.625 116.823 22.9777 116.578 23.223C116.348 23.453 116.003 23.568 115.543 23.568H109.057V27.363H115.014C115.489 27.363 115.842 27.4857 116.072 27.731C116.317 27.961 116.44 28.306 116.44 28.766C116.44 29.226 116.317 29.5787 116.072 29.824C115.842 30.054 115.489 30.169 115.014 30.169H109.057V34.217H115.543C116.003 34.217 116.348 34.3397 116.578 34.585C116.823 34.815 116.946 35.1523 116.946 35.597C116.946 36.057 116.823 36.4097 116.578 36.655C116.348 36.885 116.003 37 115.543 37H107.516ZM121.234 37.207C120.698 37.207 120.284 37.0613 119.992 36.77C119.716 36.4633 119.578 36.034 119.578 35.482V22.372C119.578 21.7893 119.716 21.3447 119.992 21.038C120.284 20.7313 120.667 20.578 121.142 20.578C121.556 20.578 121.871 20.6623 122.085 20.831C122.315 20.9843 122.576 21.245 122.867 21.613L130.94 31.894H130.319V22.28C130.319 21.7433 130.457 21.3293 130.733 21.038C131.025 20.7313 131.439 20.578 131.975 20.578C132.512 20.578 132.918 20.7313 133.194 21.038C133.486 21.3293 133.631 21.7433 133.631 22.28V35.551C133.631 36.057 133.501 36.4633 133.24 36.77C132.98 37.0613 132.627 37.207 132.182 37.207C131.753 37.207 131.408 37.1227 131.147 36.954C130.902 36.7853 130.634 36.517 130.342 36.149L122.292 25.868H122.89V35.482C122.89 36.034 122.752 36.4633 122.476 36.77C122.2 37.0613 121.786 37.207 121.234 37.207ZM142.554 37.207C141.971 37.207 141.526 37.046 141.22 36.724C140.913 36.402 140.76 35.9497 140.76 35.367V23.729H136.689C136.213 23.729 135.845 23.5987 135.585 23.338C135.324 23.0773 135.194 22.717 135.194 22.257C135.194 21.7817 135.324 21.4213 135.585 21.176C135.845 20.9153 136.213 20.785 136.689 20.785H148.396C148.871 20.785 149.239 20.9153 149.5 21.176C149.76 21.4213 149.891 21.7817 149.891 22.257C149.891 22.717 149.76 23.0773 149.5 23.338C149.239 23.5987 148.871 23.729 148.396 23.729H144.325V35.367C144.325 35.9497 144.171 36.402 143.865 36.724C143.573 37.046 143.136 37.207 142.554 37.207Z" fill="white"/>
<g style="mix-blend-mode:screen">
<path d="M28.6292 10.6514C28.1976 9.82908 27.3218 9.17611 26.3022 8.9904C24.6341 8.68656 22.0802 8.34753 20.5637 8.75981C19.1691 9.13896 17.6612 10.1099 16.5865 10.9069C15.6569 11.5963 15.537 12.7925 16.1853 13.8721C17.3586 15.8259 20.3971 16.4597 22.3348 15.4762C22.8578 15.2108 23.4004 14.9826 23.9359 14.8301C24.1646 14.7649 24.4151 14.7241 24.6816 14.7036C27.223 14.5086 29.7413 12.7697 28.6292 10.6514Z" fill="white" fill-opacity="0.51"/>
</g>
<path d="M10.3587 18.4417C11.5955 19.9165 14.8074 19.1241 15.7096 18.3675C16.6119 17.6108 17.2887 16.9322 16.0519 15.4574C14.8151 13.9827 13.0811 13.4005 12.1788 14.1572C11.2765 14.9138 9.12197 16.9669 10.3587 18.4417Z" fill="white" fill-opacity="0.51"/>
<defs>
<linearGradient id="paint0_linear_2989_4828" x1="85.9243" y1="2" x2="85.9243" y2="55.9375" gradientUnits="userSpaceOnUse">
<stop stop-color="#F9F9F9"/>
<stop offset="0.203125" stop-color="#8AB260"/>
<stop offset="0.921875" stop-color="#569119"/>
</linearGradient>
<linearGradient id="paint1_linear_2989_4828" x1="86" y1="2" x2="86" y2="56" gradientUnits="userSpaceOnUse">
<stop stop-color="#FF8761"/>
<stop offset="0.213542" stop-color="#EB3A02"/>
<stop offset="0.5" stop-color="#E93A03"/>
<stop offset="1" stop-color="#D43300"/>
</linearGradient>
</defs>
</svg>
