<svg width="172" height="58" viewBox="0 0 172 58" fill="none" xmlns="http://www.w3.org/2000/svg">
<rect x="2" y="2" width="167.849" height="53.9375" rx="23.5684" fill="url(#paint0_linear_2989_5539)" stroke="#030303" stroke-width="3"/>
<rect x="2" y="2" width="168" height="54" rx="24" fill="url(#paint1_linear_2989_5539)" stroke="white" stroke-width="3"/>
<path d="M57.5245 39.308C56.7778 39.308 55.9938 39.252 55.1725 39.14C54.3698 39.0467 53.6045 38.8973 52.8765 38.692C52.1485 38.4867 51.4952 38.244 50.9165 37.964C50.4125 37.7213 50.0578 37.404 49.8525 37.012C49.6472 36.6013 49.5725 36.172 49.6285 35.724C49.6845 35.276 49.8432 34.884 50.1045 34.548C50.3658 34.1933 50.7112 33.96 51.1405 33.848C51.5698 33.7173 52.0552 33.7733 52.5965 34.016C53.3058 34.352 54.1085 34.6133 55.0045 34.8C55.9005 34.9867 56.7405 35.08 57.5245 35.08C58.7565 35.08 59.6152 34.9213 60.1005 34.604C60.6045 34.268 60.8565 33.8573 60.8565 33.372C60.8565 32.9427 60.6792 32.5973 60.3245 32.336C59.9885 32.0747 59.3818 31.8507 58.5045 31.664L55.2285 30.964C53.4365 30.5907 52.1018 29.9373 51.2245 29.004C50.3472 28.0707 49.9085 26.8667 49.9085 25.392C49.9085 24.4213 50.1045 23.544 50.4965 22.76C50.9072 21.9573 51.4765 21.276 52.2045 20.716C52.9512 20.156 53.8285 19.7267 54.8365 19.428C55.8632 19.1107 57.0018 18.952 58.2525 18.952C59.2232 18.952 60.2032 19.064 61.1925 19.288C62.2005 19.4933 63.0685 19.8107 63.7965 20.24C64.2258 20.464 64.5338 20.772 64.7205 21.164C64.9072 21.556 64.9818 21.9667 64.9445 22.396C64.9072 22.8067 64.7578 23.1707 64.4965 23.488C64.2538 23.8053 63.9178 24.02 63.4885 24.132C63.0778 24.2253 62.5832 24.1507 62.0045 23.908C61.4632 23.6653 60.8472 23.488 60.1565 23.376C59.4845 23.2453 58.8312 23.18 58.1965 23.18C57.5058 23.18 56.9178 23.264 56.4325 23.432C55.9472 23.5813 55.5738 23.8053 55.3125 24.104C55.0698 24.4027 54.9485 24.748 54.9485 25.14C54.9485 25.532 55.1072 25.868 55.4245 26.148C55.7605 26.4093 56.3672 26.6333 57.2445 26.82L60.4925 27.52C62.3032 27.912 63.6565 28.556 64.5525 29.452C65.4485 30.348 65.8965 31.5147 65.8965 32.952C65.8965 33.9227 65.7005 34.8 65.3085 35.584C64.9165 36.368 64.3565 37.04 63.6285 37.6C62.9005 38.1413 62.0232 38.5613 60.9965 38.86C59.9698 39.1587 58.8125 39.308 57.5245 39.308ZM75.2406 39.252C74.4193 39.252 73.7846 39.028 73.3366 38.58C72.8886 38.1133 72.6646 37.4693 72.6646 36.648V23.46H68.2686C67.5779 23.46 67.0459 23.2827 66.6726 22.928C66.3179 22.5547 66.1406 22.032 66.1406 21.36C66.1406 20.6693 66.3179 20.1467 66.6726 19.792C67.0459 19.4373 67.5779 19.26 68.2686 19.26H82.2126C82.9033 19.26 83.4259 19.4373 83.7806 19.792C84.1539 20.1467 84.3406 20.6693 84.3406 21.36C84.3406 22.032 84.1539 22.5547 83.7806 22.928C83.4259 23.2827 82.9033 23.46 82.2126 23.46H77.8166V36.648C77.8166 37.4693 77.6019 38.1133 77.1726 38.58C76.7433 39.028 76.0993 39.252 75.2406 39.252ZM94.4077 39.308C92.4104 39.308 90.6557 38.888 89.1437 38.048C87.6317 37.1893 86.4557 35.9947 85.6157 34.464C84.7944 32.9333 84.3837 31.1507 84.3837 29.116C84.3837 27.5853 84.617 26.1947 85.0837 24.944C85.569 23.6933 86.2504 22.62 87.1277 21.724C88.0237 20.828 89.0877 20.1467 90.3197 19.68C91.5517 19.1947 92.9144 18.952 94.4077 18.952C96.405 18.952 98.1504 19.372 99.6437 20.212C101.156 21.052 102.332 22.2373 103.172 23.768C104.012 25.28 104.432 27.0627 104.432 29.116C104.432 30.6467 104.189 32.0373 103.704 33.288C103.237 34.5387 102.556 35.6213 101.66 36.536C100.782 37.432 99.7277 38.1227 98.4957 38.608C97.2637 39.0747 95.901 39.308 94.4077 39.308ZM94.4077 34.996C95.397 34.996 96.237 34.7627 96.9277 34.296C97.6184 33.8293 98.1504 33.1573 98.5237 32.28C98.897 31.4027 99.0837 30.348 99.0837 29.116C99.0837 27.268 98.673 25.8307 97.8517 24.804C97.0304 23.7773 95.8824 23.264 94.4077 23.264C93.437 23.264 92.597 23.4973 91.8877 23.964C91.197 24.412 90.665 25.0747 90.2917 25.952C89.9184 26.8107 89.7317 27.8653 89.7317 29.116C89.7317 30.964 90.1424 32.4107 90.9637 33.456C91.785 34.4827 92.933 34.996 94.4077 34.996ZM110.05 39.252C109.228 39.252 108.594 39.028 108.146 38.58C107.698 38.1133 107.474 37.4693 107.474 36.648V21.864C107.474 21.024 107.698 20.38 108.146 19.932C108.612 19.484 109.256 19.26 110.078 19.26H116.966C119.206 19.26 120.932 19.8387 122.146 20.996C123.378 22.1347 123.994 23.712 123.994 25.728C123.994 27.744 123.378 29.3307 122.146 30.488C120.932 31.6267 119.206 32.196 116.966 32.196H112.626V36.648C112.626 37.4693 112.411 38.1133 111.982 38.58C111.552 39.028 110.908 39.252 110.05 39.252ZM112.626 28.248H116.07C117.04 28.248 117.787 28.0427 118.31 27.632C118.832 27.2027 119.094 26.568 119.094 25.728C119.094 24.8693 118.832 24.2347 118.31 23.824C117.787 23.4133 117.04 23.208 116.07 23.208H112.626V28.248Z" fill="white"/>
<g style="mix-blend-mode:screen">
<path d="M28.6292 10.6514C28.1976 9.82908 27.3218 9.17611 26.3022 8.9904C24.6341 8.68656 22.0802 8.34753 20.5637 8.75981C19.1691 9.13896 17.6612 10.1099 16.5865 10.9069C15.6569 11.5963 15.537 12.7925 16.1853 13.8721C17.3586 15.8259 20.3971 16.4597 22.3348 15.4762C22.8578 15.2108 23.4004 14.9826 23.9359 14.8301C24.1646 14.7649 24.4151 14.7241 24.6816 14.7036C27.223 14.5086 29.7413 12.7697 28.6292 10.6514Z" fill="white" fill-opacity="0.51"/>
</g>
<path d="M10.3587 18.4417C11.5955 19.9165 14.8074 19.1241 15.7096 18.3675C16.6119 17.6108 17.2887 16.9322 16.0519 15.4574C14.8151 13.9827 13.0811 13.4005 12.1788 14.1572C11.2765 14.9138 9.12197 16.9669 10.3587 18.4417Z" fill="white" fill-opacity="0.51"/>
<defs>
<linearGradient id="paint0_linear_2989_5539" x1="85.9243" y1="2" x2="85.9243" y2="55.9375" gradientUnits="userSpaceOnUse">
<stop stop-color="#F9F9F9"/>
<stop offset="0.203125" stop-color="#8AB260"/>
<stop offset="0.921875" stop-color="#569119"/>
</linearGradient>
<linearGradient id="paint1_linear_2989_5539" x1="86" y1="2" x2="86" y2="56" gradientUnits="userSpaceOnUse">
<stop stop-color="#FF8761"/>
<stop offset="0.213542" stop-color="#EB3A02"/>
<stop offset="0.5" stop-color="#E93A03"/>
<stop offset="1" stop-color="#D43300"/>
</linearGradient>
</defs>
</svg>
