<svg width="38" height="38" viewBox="0 0 38 38" fill="none" xmlns="http://www.w3.org/2000/svg">
<g filter="url(#filter0_i_601_1928)">
<rect width="37.5" height="37.5" rx="18.75" fill="url(#paint0_linear_601_1928)"/>
</g>
<rect x="1.5" y="1.5" width="34.5" height="34.5" rx="17.25" stroke="white" stroke-width="3"/>
<g style="mix-blend-mode:screen">
<path d="M8.08761 8.96221C7.90474 8.44953 7.99037 7.82332 8.34305 7.34697C8.90863 6.58305 9.81614 5.47664 10.613 5.04106C11.3616 4.63185 12.415 4.40186 13.2021 4.27833C13.8587 4.17529 14.4156 4.594 14.6108 5.27312C14.949 6.44952 14.076 7.82561 12.9463 8.15419C12.5394 8.27252 12.1348 8.42173 11.7828 8.60906C11.5877 8.71285 11.3958 8.861 11.2101 9.03852C10.1991 10.005 8.52919 10.2002 8.08761 8.96221Z" fill="white" fill-opacity="0.51"/>
</g>
<path d="M18.9495 4.5631C19.0591 5.58267 17.3955 6.5355 16.703 6.60733C16.0105 6.67916 15.4443 6.69231 15.3346 5.67275C15.225 4.65318 15.6975 3.76843 16.39 3.6966C17.0824 3.62477 18.8399 3.54353 18.9495 4.5631Z" fill="white" fill-opacity="0.51"/>
<path d="M16.8847 25.6145V11.7242C16.8847 10.3764 15.2536 9.69944 14.2996 10.6535L11.2707 13.6824C10.9868 13.9664 10.6016 14.126 10.2 14.1261H7.79812C7.39647 14.1261 7.01127 14.2857 6.72726 14.5697C6.44325 14.8537 6.28369 15.2389 6.28369 15.6405L6.28369 21.6982C6.28369 22.0999 6.44325 22.4851 6.72726 22.7691C7.01127 23.0531 7.39647 23.2127 7.79812 23.2127H10.2C10.6016 23.2128 10.9868 23.3724 11.2707 23.6564L14.2996 26.6852C15.2536 27.6393 16.8847 26.9639 16.8847 25.6145Z" fill="white"/>
<path d="M19.5153 15.0023C19.267 14.6517 19.5144 14.134 19.944 14.134C20.089 14.134 20.2268 14.1967 20.3182 14.3092C20.8108 14.9154 22.3807 16.9785 22.3807 18.6493C22.3807 20.32 20.8108 22.3832 20.3182 22.9894C20.2268 23.1019 20.089 23.1645 19.944 23.1645C19.5144 23.1645 19.267 22.6468 19.5153 22.2962C20.1654 21.3786 21.0556 19.8945 21.0556 18.6493C21.0556 17.404 20.1654 15.92 19.5153 15.0023Z" fill="white"/>
<path d="M23.2638 13.7226C22.9342 13.253 23.2659 12.5636 23.8396 12.5636C24.0351 12.5636 24.2206 12.6485 24.3431 12.8008C25.0009 13.6194 27.0922 16.3985 27.0922 18.6493C27.0922 20.9002 25.0009 23.6793 24.3431 24.4979C24.2206 24.6502 24.0351 24.7351 23.8396 24.7351C23.2659 24.7351 22.9342 24.0457 23.2638 23.5761C24.1312 22.3401 25.3253 20.3328 25.3253 18.6493C25.3253 16.9659 24.1312 14.9586 23.2638 13.7226Z" fill="white"/>
<defs>
<filter id="filter0_i_601_1928" x="-7" y="-8" width="44.5" height="45.5" filterUnits="userSpaceOnUse" color-interpolation-filters="sRGB">
<feFlood flood-opacity="0" result="BackgroundImageFix"/>
<feBlend mode="normal" in="SourceGraphic" in2="BackgroundImageFix" result="shape"/>
<feColorMatrix in="SourceAlpha" type="matrix" values="0 0 0 0 0 0 0 0 0 0 0 0 0 0 0 0 0 0 127 0" result="hardAlpha"/>
<feOffset dx="-7" dy="-8"/>
<feGaussianBlur stdDeviation="4.7"/>
<feComposite in2="hardAlpha" operator="arithmetic" k2="-1" k3="1"/>
<feColorMatrix type="matrix" values="0 0 0 0 0 0 0 0 0 0 0 0 0 0 0 0 0 0 0.25 0"/>
<feBlend mode="normal" in2="shape" result="effect1_innerShadow_601_1928"/>
</filter>
<linearGradient id="paint0_linear_601_1928" x1="18.75" y1="0" x2="18.75" y2="37.5" gradientUnits="userSpaceOnUse">
<stop stop-color="#FA9960"/>
<stop offset="0.5" stop-color="#F27C36"/>
<stop offset="1" stop-color="#E86C23"/>
</linearGradient>
</defs>
</svg>
