<svg width="8" height="5" viewBox="0 0 8 5" fill="none" xmlns="http://www.w3.org/2000/svg">
<g style="mix-blend-mode:screen">
<path d="M0.0677259 3.87178C-0.0657724 3.49751 -0.00325834 3.04036 0.254203 2.69262C0.667093 2.13493 1.3296 1.32723 1.91133 1.00925C2.45784 0.710517 3.22681 0.542612 3.80142 0.452437C4.28077 0.377212 4.68728 0.682878 4.82981 1.17865C5.07671 2.03745 4.43941 3.04204 3.61466 3.28191C3.31765 3.36829 3.0223 3.47722 2.76531 3.61397C2.62291 3.68974 2.48277 3.7979 2.3472 3.92749C1.60913 4.63302 0.390095 4.77555 0.0677259 3.87178Z" fill="white" fill-opacity="0.51"/>
</g>
<path d="M7.99589 0.66061C8.07593 1.40492 6.86141 2.10051 6.35588 2.15295C5.85035 2.20539 5.43699 2.21499 5.35695 1.47068C5.27691 0.726372 5.62184 0.0804812 6.12737 0.0280426C6.6329 -0.0243961 7.91585 -0.0836981 7.99589 0.66061Z" fill="white" fill-opacity="0.51"/>
</svg>
