<svg width="54" height="74" viewBox="0 0 54 74" fill="none" xmlns="http://www.w3.org/2000/svg">
<path d="M0 45.2766C0 36.2873 7.28728 29 16.2766 29H37.7234C46.7127 29 54 36.2873 54 45.2766V47C54 61.9117 41.9117 74 27 74C12.0883 74 0 61.9117 0 47V45.2766Z" fill="#FFD0B1"/>
<path d="M13 35V21.5C13 13.4919 19.4919 7 27.5 7V7C35.5081 7 42 13.4919 42 21.5V35" stroke="#FFD0B1" stroke-width="14" stroke-linecap="round"/>
<path d="M32 55.7958C32 58.4444 29.9853 61 27.5 61C25.0147 61 23 58.4444 23 55.7958C23 53.1471 25.0147 51 27.5 51C29.9853 51 32 53.1471 32 55.7958Z" fill="#A2A2A2"/>
<rect x="26" y="58" width="3" height="8" rx="1.5" fill="#A2A2A2"/>
</svg>
