<svg width="85" height="10" viewBox="0 0 85 10" fill="none" xmlns="http://www.w3.org/2000/svg">
<path d="M0 5.93023C0 8.1779 1.73657 10 3.87875 10H81.1213C83.2634 10 85 8.1779 85 5.93023V4.06977C85 1.8221 83.2634 0 81.1213 0H3.87875C1.73658 0 0 1.8221 0 4.06977V5.93023Z" fill="#F17F29"/>
<path d="M11.6362 9.76744H9.08735L6.53846 0.116279H9.08735L11.6362 9.76744Z" fill="#F96900"/>
<path d="M22.3859 9.76744H19.8924L17.399 0.232557H19.8924L22.3859 9.76744Z" fill="#F96900"/>
<path d="M17.0665 9.76744H14.5176L11.9687 0.232557H14.5176L17.0665 9.76744Z" fill="#F96900"/>
<path d="M27.7053 9.76744H25.2119L22.7184 0.232557H25.2119L27.7053 9.76744Z" fill="#F96900"/>
<path d="M33.1356 9.76744H30.5867L28.0378 0.232557H30.5867L33.1356 9.76744Z" fill="#F96900"/>
<path d="M54.0808 9.76744H51.5874L49.0939 0.232557H51.5874L54.0808 9.76744Z" fill="#F96900"/>
<path d="M75.4694 9.76744H72.9759L70.4824 0.232557H72.9759L75.4694 9.76744Z" fill="#F96900"/>
<path d="M43.3312 9.76744H40.8377L38.3442 0.232557H40.8377L43.3312 9.76744Z" fill="#F96900"/>
<path d="M64.8305 9.76744H62.2816L59.7327 0.232557H62.2816L64.8305 9.76744Z" fill="#F96900"/>
<path d="M83.0574 0.611728L84.7784 7.22014L84.1868 8.19515L83.4876 8.95349L81.1213 0.232557H82.0355L83.0574 0.611728Z" fill="#F96900"/>
<path d="M38.0117 9.76744H35.5183L33.0248 0.232557H35.5183L38.0117 9.76744Z" fill="#F96900"/>
<path d="M59.4003 9.76744H56.9068L54.4133 0.232557H56.9068L59.4003 9.76744Z" fill="#F96900"/>
<path d="M80.8996 9.76744H78.3507L75.8018 0.232557H78.3507L80.8996 9.76744Z" fill="#F96900"/>
<path d="M48.7614 9.76744H46.2125L43.6636 0.232557H46.2125L48.7614 9.76744Z" fill="#F96900"/>
<path d="M70.1499 9.76744H67.6565L65.163 0.232557H67.6565L70.1499 9.76744Z" fill="#F96900"/>
<path d="M6.206 9.65116H3.72723L1.44068 1.12957C2.11125 0.482401 2.66753 0.28862 3.72708 0.232557L6.206 9.65116Z" fill="#F96900"/>
<path d="M0 5.93023C0 8.1779 1.73657 10 3.87875 10H81.1213C83.2634 10 85 8.1779 85 5.93023V4.06977C85 1.8221 83.2634 0 81.1213 0H3.87875C1.73658 0 0 1.8221 0 4.06977V5.93023Z" stroke="white"/>
<path d="M11.6362 9.76744H9.08735L6.53846 0.116279H9.08735L11.6362 9.76744Z" stroke="white"/>
<path d="M22.3859 9.76744H19.8924L17.399 0.232557H19.8924L22.3859 9.76744Z" stroke="white"/>
<path d="M17.0665 9.76744H14.5176L11.9687 0.232557H14.5176L17.0665 9.76744Z" stroke="white"/>
<path d="M27.7053 9.76744H25.2119L22.7184 0.232557H25.2119L27.7053 9.76744Z" stroke="white"/>
<path d="M33.1356 9.76744H30.5867L28.0378 0.232557H30.5867L33.1356 9.76744Z" stroke="white"/>
<path d="M54.0808 9.76744H51.5874L49.0939 0.232557H51.5874L54.0808 9.76744Z" stroke="white"/>
<path d="M75.4694 9.76744H72.9759L70.4824 0.232557H72.9759L75.4694 9.76744Z" stroke="white"/>
<path d="M43.3312 9.76744H40.8377L38.3442 0.232557H40.8377L43.3312 9.76744Z" stroke="white"/>
<path d="M64.8305 9.76744H62.2816L59.7327 0.232557H62.2816L64.8305 9.76744Z" stroke="white"/>
<path d="M83.0574 0.611728L84.7784 7.22014L84.1868 8.19515L83.4876 8.95349L81.1213 0.232557H82.0355L83.0574 0.611728Z" stroke="white"/>
<path d="M38.0117 9.76744H35.5183L33.0248 0.232557H35.5183L38.0117 9.76744Z" stroke="white"/>
<path d="M59.4003 9.76744H56.9068L54.4133 0.232557H56.9068L59.4003 9.76744Z" stroke="white"/>
<path d="M80.8996 9.76744H78.3507L75.8018 0.232557H78.3507L80.8996 9.76744Z" stroke="white"/>
<path d="M48.7614 9.76744H46.2125L43.6636 0.232557H46.2125L48.7614 9.76744Z" stroke="white"/>
<path d="M70.1499 9.76744H67.6565L65.163 0.232557H67.6565L70.1499 9.76744Z" stroke="white"/>
<path d="M6.206 9.65116H3.72723L1.44068 1.12957C2.11125 0.482401 2.66753 0.28862 3.72708 0.232557L6.206 9.65116Z" stroke="white"/>
</svg>
