<svg width="16" height="18" viewBox="0 0 16 18" fill="none" xmlns="http://www.w3.org/2000/svg">
<path d="M11.0448 0.624676L8.37446 0.089715L8.22011 0.852624C5.73084 1.74183 3.59454 4.39096 2.90405 7.81943C2.21356 11.2479 3.16234 14.5111 5.11238 16.2936L4.95906 17.0575L7.63458 17.5925C11.1868 18.3051 14.8317 15.083 15.7754 10.3977C16.719 5.71245 14.5971 1.33625 11.0448 0.624676Z" fill="#E86124"/>
<path d="M8.15307 15.1017L5.47319 14.5641L5.62707 13.8047C3.91277 12.25 2.97094 9.56598 3.22809 6.63048C3.09684 7.03533 2.98892 7.44722 2.90485 7.86417C2.2119 11.278 3.16406 14.5253 5.12104 16.2996L4.96717 17.0601L7.65221 17.5926C11.2171 18.302 14.875 15.0946 15.822 10.4307C15.9042 10.0151 15.9635 9.59543 15.9996 9.17349C14.7118 13.1495 11.3947 15.7416 8.15307 15.1017Z" fill="#DC4A26"/>
<path d="M13.096 9.89842C14.0399 5.20035 11.9238 0.812946 8.36956 0.098873C4.81535 -0.6152 1.16892 2.61447 0.225039 7.31254C-0.718845 12.0106 1.39724 16.398 4.95145 17.1121C8.50566 17.8262 12.1521 14.5965 13.096 9.89842Z" fill="#F0E92D"/>
<path d="M11.3171 9.54092C12.0002 6.14112 10.4689 2.96614 7.89687 2.4494C5.32486 1.93266 2.68612 4.26984 2.00307 7.66964C1.32002 11.0694 2.85132 14.2444 5.42333 14.7612C7.99534 15.2779 10.6341 12.9407 11.3171 9.54092Z" fill="#EF8521"/>
<path d="M6.5956 13.1098C4.00301 12.5854 2.20774 10.1711 2.06885 7.34424C2.0469 7.4375 2.02633 7.53179 2.00712 7.62713C1.32502 11.0467 2.85589 14.2444 5.42585 14.7646C7.08017 15.0993 8.76124 14.2465 9.93202 12.6787C8.89552 13.1824 7.72475 13.3336 6.5956 13.1098Z" fill="#E86124"/>
</svg>
