<svg width="195" height="23" viewBox="0 0 195 23" fill="none" xmlns="http://www.w3.org/2000/svg">
<path d="M0 9.23774C0 4.13588 3.98391 0 8.89832 0H186.102C191.016 0 195 4.13588 195 9.23774V13.4607C195 18.5626 191.016 22.6984 186.102 22.6984H8.89832C3.98392 22.6984 0 18.5626 0 13.4607V9.23774Z" fill="#77C241"/>
<path d="M26.6949 0.527871H20.8475L15 22.4345H20.8475L26.6949 0.527871Z" fill="#A8DE5A"/>
<path d="M51.356 0.527871H45.6356L39.9153 22.1706H45.6356L51.356 0.527871Z" fill="#A8DE5A"/>
<path d="M39.1526 0.527871H33.3051L27.4577 22.1706H33.3051L39.1526 0.527871Z" fill="#A8DE5A"/>
<path d="M63.5594 0.527871H57.8391L52.1187 22.1706H57.8391L63.5594 0.527871Z" fill="#A8DE5A"/>
<path d="M76.017 0.527871H70.1696L64.3221 22.1706H70.1696L76.017 0.527871Z" fill="#A8DE5A"/>
<path d="M124.068 0.527871H118.348L112.627 22.1706H118.348L124.068 0.527871Z" fill="#A8DE5A"/>
<path d="M173.136 0.527871H167.415L161.695 22.1706H167.415L173.136 0.527871Z" fill="#A8DE5A"/>
<path d="M99.4069 0.527871H93.6865L87.9662 22.1706H93.6865L99.4069 0.527871Z" fill="#A8DE5A"/>
<path d="M148.729 0.527871H142.882L137.034 22.1706H142.882L148.729 0.527871Z" fill="#A8DE5A"/>
<path d="M190.544 21.3099L194.492 6.30986L193.135 4.09674L191.531 2.37542L186.102 22.1706H188.199L190.544 21.3099Z" fill="#A8DE5A"/>
<path d="M87.2035 0.527871H81.4831L75.7628 22.1706H81.4831L87.2035 0.527871Z" fill="#A8DE5A"/>
<path d="M136.271 0.527871H130.551L124.831 22.1706H130.551L136.271 0.527871Z" fill="#A8DE5A"/>
<path d="M185.593 0.527871H179.746L173.899 22.1706H179.746L185.593 0.527871Z" fill="#A8DE5A"/>
<path d="M111.865 0.527871H106.017L100.17 22.1706H106.017L111.865 0.527871Z" fill="#A8DE5A"/>
<path d="M160.932 0.527871H155.212L149.492 22.1706H155.212L160.932 0.527871Z" fill="#A8DE5A"/>
<path d="M14.2373 0.791806H8.55072L3.30509 20.1345C4.84347 21.6035 6.11963 22.0433 8.55037 22.1706L14.2373 0.791806Z" fill="#A8DE5A"/>
<path d="M0 9.23774C0 4.13588 3.98391 0 8.89832 0H186.102C191.016 0 195 4.13588 195 9.23774V13.4607C195 18.5626 191.016 22.6984 186.102 22.6984H8.89832C3.98392 22.6984 0 18.5626 0 13.4607V9.23774Z" stroke="white"/>
<path d="M26.6949 0.527871H20.8475L15 22.4345H20.8475L26.6949 0.527871Z" stroke="white"/>
<path d="M51.356 0.527871H45.6356L39.9153 22.1706H45.6356L51.356 0.527871Z" stroke="white"/>
<path d="M39.1526 0.527871H33.3051L27.4577 22.1706H33.3051L39.1526 0.527871Z" stroke="white"/>
<path d="M63.5594 0.527871H57.8391L52.1187 22.1706H57.8391L63.5594 0.527871Z" stroke="white"/>
<path d="M76.017 0.527871H70.1696L64.3221 22.1706H70.1696L76.017 0.527871Z" stroke="white"/>
<path d="M124.068 0.527871H118.348L112.627 22.1706H118.348L124.068 0.527871Z" stroke="white"/>
<path d="M173.136 0.527871H167.415L161.695 22.1706H167.415L173.136 0.527871Z" stroke="white"/>
<path d="M99.4069 0.527871H93.6865L87.9662 22.1706H93.6865L99.4069 0.527871Z" stroke="white"/>
<path d="M148.729 0.527871H142.882L137.034 22.1706H142.882L148.729 0.527871Z" stroke="white"/>
<path d="M190.544 21.3099L194.492 6.30986L193.135 4.09674L191.531 2.37542L186.102 22.1706H188.199L190.544 21.3099Z" stroke="white"/>
<path d="M87.2035 0.527871H81.4831L75.7628 22.1706H81.4831L87.2035 0.527871Z" stroke="white"/>
<path d="M136.271 0.527871H130.551L124.831 22.1706H130.551L136.271 0.527871Z" stroke="white"/>
<path d="M185.593 0.527871H179.746L173.899 22.1706H179.746L185.593 0.527871Z" stroke="white"/>
<path d="M111.865 0.527871H106.017L100.17 22.1706H106.017L111.865 0.527871Z" stroke="white"/>
<path d="M160.932 0.527871H155.212L149.492 22.1706H155.212L160.932 0.527871Z" stroke="white"/>
<path d="M14.2373 0.791806H8.55072L3.30509 20.1345C4.84347 21.6035 6.11963 22.0433 8.55037 22.1706L14.2373 0.791806Z" stroke="white"/>
</svg>
