<svg width="111" height="72" viewBox="0 0 111 72" fill="none" xmlns="http://www.w3.org/2000/svg">
<g filter="url(#filter0_i_305_2011)">
<path fill-rule="evenodd" clip-rule="evenodd" d="M90.2817 27.7198C90.1857 27.2017 90.0765 26.6836 89.954 26.1658C85.5472 7.53601 65.5618 -3.68402 45.3153 1.1052C27.6325 5.28799 15.5988 20.2991 15.7707 36.4447C4.99465 40.6597 -1.70382 49.9839 0.378645 58.7876C2.73348 68.7426 15.4247 74.2623 28.7252 71.1162C32.2288 70.2874 35.4252 68.94 38.19 67.2227C45.1995 69.8461 53.216 70.4758 61.2738 68.5697C66.5072 67.3318 71.2458 65.1454 75.3196 62.2618C78.0321 63.2984 81.0191 63.9887 84.1811 64.245C97.804 65.3492 109.517 57.9785 110.344 47.7821C111.106 38.3767 102.339 29.8523 90.2817 27.7198Z" fill="#8FF7FF"/>
</g>
<defs>
<filter id="filter0_i_305_2011" x="0" y="0" width="110.39" height="72" filterUnits="userSpaceOnUse" color-interpolation-filters="sRGB">
<feFlood flood-opacity="0" result="BackgroundImageFix"/>
<feBlend mode="normal" in="SourceGraphic" in2="BackgroundImageFix" result="shape"/>
<feColorMatrix in="SourceAlpha" type="matrix" values="0 0 0 0 0 0 0 0 0 0 0 0 0 0 0 0 0 0 127 0" result="hardAlpha"/>
<feOffset dx="-6" dy="-3"/>
<feComposite in2="hardAlpha" operator="arithmetic" k2="-1" k3="1"/>
<feColorMatrix type="matrix" values="0 0 0 0 0.954167 0 0 0 0 0.996726 0 0 0 0 1 0 0 0 1 0"/>
<feBlend mode="normal" in2="shape" result="effect1_innerShadow_305_2011"/>
</filter>
</defs>
</svg>
