<svg width="267" height="69" viewBox="0 0 267 69" fill="none" xmlns="http://www.w3.org/2000/svg">
<g filter="url(#filter0_i_305_2094)">
<rect width="266.486" height="68.4722" rx="16" fill="url(#paint0_linear_305_2094)"/>
</g>
<rect x="2" y="2" width="262.486" height="64.4722" rx="14" stroke="white" stroke-width="4"/>
<path d="M85.4 45C84.488 45 83.78 44.748 83.276 44.244C82.796 43.74 82.556 43.044 82.556 42.156V22.392C82.556 21.456 82.796 20.748 83.276 20.268C83.756 19.788 84.452 19.548 85.364 19.548C86.252 19.548 86.936 19.788 87.416 20.268C87.896 20.748 88.136 21.456 88.136 22.392V40.284H97.784C98.552 40.284 99.14 40.488 99.548 40.896C99.98 41.304 100.196 41.88 100.196 42.624C100.196 43.392 99.98 43.98 99.548 44.388C99.14 44.796 98.552 45 97.784 45H85.4ZM111.045 45.396C109.149 45.396 107.493 45.024 106.077 44.28C104.685 43.536 103.605 42.468 102.837 41.076C102.069 39.684 101.685 38.04 101.685 36.144C101.685 34.728 101.901 33.456 102.333 32.328C102.765 31.2 103.389 30.24 104.205 29.448C105.045 28.632 106.041 28.02 107.193 27.612C108.345 27.18 109.629 26.964 111.045 26.964C112.941 26.964 114.585 27.336 115.977 28.08C117.393 28.824 118.485 29.88 119.253 31.248C120.045 32.616 120.441 34.248 120.441 36.144C120.441 37.584 120.213 38.868 119.757 39.996C119.325 41.124 118.701 42.096 117.885 42.912C117.069 43.728 116.073 44.352 114.897 44.784C113.745 45.192 112.461 45.396 111.045 45.396ZM111.045 41.328C111.837 41.328 112.521 41.136 113.097 40.752C113.673 40.368 114.129 39.804 114.465 39.06C114.801 38.292 114.969 37.32 114.969 36.144C114.969 34.392 114.609 33.108 113.889 32.292C113.169 31.452 112.221 31.032 111.045 31.032C110.277 31.032 109.593 31.212 108.993 31.572C108.417 31.932 107.961 32.496 107.625 33.264C107.313 34.008 107.157 34.968 107.157 36.144C107.157 37.896 107.517 39.204 108.237 40.068C108.957 40.908 109.893 41.328 111.045 41.328ZM132.244 51.876C130.948 51.876 129.7 51.768 128.5 51.552C127.324 51.336 126.28 51.012 125.368 50.58C124.816 50.34 124.42 50.028 124.18 49.644C123.964 49.26 123.868 48.852 123.892 48.42C123.94 47.988 124.084 47.604 124.324 47.268C124.588 46.932 124.912 46.692 125.296 46.548C125.68 46.428 126.088 46.464 126.52 46.656C127.576 47.136 128.548 47.448 129.436 47.592C130.348 47.736 131.128 47.808 131.776 47.808C133.312 47.808 134.464 47.46 135.232 46.764C136 46.068 136.384 45 136.384 43.56V40.824H136.708C136.348 41.928 135.604 42.828 134.476 43.524C133.348 44.22 132.1 44.568 130.732 44.568C129.148 44.568 127.768 44.208 126.592 43.488C125.416 42.744 124.504 41.712 123.856 40.392C123.208 39.048 122.884 37.5 122.884 35.748C122.884 34.428 123.064 33.228 123.424 32.148C123.808 31.068 124.336 30.144 125.008 29.376C125.704 28.608 126.532 28.02 127.492 27.612C128.476 27.18 129.556 26.964 130.732 26.964C132.148 26.964 133.396 27.312 134.476 28.008C135.58 28.68 136.312 29.568 136.672 30.672L136.312 31.824V29.772C136.312 28.884 136.54 28.212 136.996 27.756C137.476 27.276 138.148 27.036 139.012 27.036C139.876 27.036 140.536 27.276 140.992 27.756C141.448 28.212 141.676 28.884 141.676 29.772V42.948C141.676 45.9 140.86 48.12 139.228 49.608C137.62 51.12 135.292 51.876 132.244 51.876ZM132.352 40.5C133.168 40.5 133.864 40.308 134.44 39.924C135.04 39.54 135.508 39 135.844 38.304C136.18 37.584 136.348 36.732 136.348 35.748C136.348 34.26 135.976 33.108 135.232 32.292C134.512 31.452 133.552 31.032 132.352 31.032C131.536 31.032 130.828 31.224 130.228 31.608C129.628 31.968 129.16 32.508 128.824 33.228C128.512 33.924 128.356 34.764 128.356 35.748C128.356 37.236 128.716 38.4 129.436 39.24C130.156 40.08 131.128 40.5 132.352 40.5ZM159.227 45.324C158.315 45.324 157.619 45.072 157.139 44.568C156.659 44.064 156.419 43.356 156.419 42.444V22.176C156.419 21.264 156.659 20.556 157.139 20.052C157.619 19.548 158.315 19.296 159.227 19.296C160.115 19.296 160.799 19.548 161.279 20.052C161.759 20.556 161.999 21.264 161.999 22.176V42.444C161.999 43.356 161.759 44.064 161.279 44.568C160.823 45.072 160.139 45.324 159.227 45.324ZM169.375 45.324C168.487 45.324 167.803 45.084 167.323 44.604C166.867 44.124 166.639 43.44 166.639 42.552V29.772C166.639 28.884 166.867 28.212 167.323 27.756C167.803 27.276 168.463 27.036 169.303 27.036C170.167 27.036 170.827 27.276 171.283 27.756C171.739 28.212 171.967 28.884 171.967 29.772V31.824L171.571 30.636C172.123 29.46 172.939 28.56 174.019 27.936C175.123 27.288 176.371 26.964 177.763 26.964C179.179 26.964 180.343 27.24 181.255 27.792C182.167 28.32 182.851 29.136 183.307 30.24C183.763 31.32 183.991 32.7 183.991 34.38V42.552C183.991 43.44 183.751 44.124 183.271 44.604C182.815 45.084 182.143 45.324 181.255 45.324C180.391 45.324 179.719 45.084 179.239 44.604C178.783 44.124 178.555 43.44 178.555 42.552V34.632C178.555 33.408 178.327 32.532 177.871 32.004C177.439 31.452 176.767 31.176 175.855 31.176C174.703 31.176 173.779 31.536 173.083 32.256C172.411 32.976 172.075 33.936 172.075 35.136V42.552C172.075 44.4 171.175 45.324 169.375 45.324Z" fill="white"/>
<g style="mix-blend-mode:screen">
<path d="M7.30246 14.7301C6.8527 13.4471 7.24401 12.0189 8.34045 11.215C10.0813 9.93875 12.7842 8.14884 15.0092 7.52022C17.2743 6.88029 20.4078 6.67775 22.5799 6.6188C24.0713 6.57833 25.3559 7.60407 25.7235 9.05009C26.2669 11.1883 24.6178 13.2748 22.4171 13.4291C20.68 13.5509 18.7149 13.7846 17.0926 14.2286C15.8383 14.5718 14.5596 15.3337 13.4075 16.2026C11.3754 17.7351 8.14447 17.1319 7.30246 14.7301Z" fill="white" fill-opacity="0.51"/>
</g>
<circle cx="30.8381" cy="9.56184" r="3.39277" fill="white" fill-opacity="0.51"/>
<defs>
<filter id="filter0_i_305_2094" x="-8" y="-7" width="274.486" height="75.4722" filterUnits="userSpaceOnUse" color-interpolation-filters="sRGB">
<feFlood flood-opacity="0" result="BackgroundImageFix"/>
<feBlend mode="normal" in="SourceGraphic" in2="BackgroundImageFix" result="shape"/>
<feColorMatrix in="SourceAlpha" type="matrix" values="0 0 0 0 0 0 0 0 0 0 0 0 0 0 0 0 0 0 127 0" result="hardAlpha"/>
<feOffset dx="-8" dy="-7"/>
<feGaussianBlur stdDeviation="4.8"/>
<feComposite in2="hardAlpha" operator="arithmetic" k2="-1" k3="1"/>
<feColorMatrix type="matrix" values="0 0 0 0 0 0 0 0 0 0 0 0 0 0 0 0 0 0 0.36 0"/>
<feBlend mode="normal" in2="shape" result="effect1_innerShadow_305_2094"/>
</filter>
<linearGradient id="paint0_linear_305_2094" x1="133.243" y1="0" x2="133.243" y2="68.4722" gradientUnits="userSpaceOnUse">
<stop stop-color="#79FD6E"/>
<stop offset="0.324" stop-color="#68F824"/>
<stop offset="1" stop-color="#429601"/>
</linearGradient>
</defs>
</svg>
