<svg width="44" height="44" viewBox="0 0 44 44" fill="none" xmlns="http://www.w3.org/2000/svg">
<rect x="2.13933" y="2.13933" width="39.7213" height="39.7213" rx="19.8607" fill="url(#paint0_linear_788_1391)" stroke="white" stroke-width="3.72133"/>
<rect x="5.16846" y="5.16895" width="33.6623" height="33.6623" rx="16.8312" fill="url(#paint1_linear_788_1391)"/>
<g style="mix-blend-mode:screen">
<rect x="8.8999" y="7.01562" width="26.0066" height="20.7299" rx="10.365" fill="white" fill-opacity="0.14"/>
</g>
<g filter="url(#filter0_d_788_1391)">
<path d="M25.018 13.8576C25.1636 13.3141 25.6937 12.9762 26.2372 13.0581C26.4868 13.0785 26.7307 13.1842 26.9216 13.3751L30.7403 17.1938C31.1678 17.6213 31.1678 18.3145 30.7403 18.742C30.3128 19.1695 29.6196 19.1695 29.1921 18.742L26.6556 16.2055L24.0591 25.8959C24.2497 26.2985 24.3532 26.7305 24.3532 27.1799C24.3532 29.3656 21.9063 31.1374 18.888 31.1374C15.8697 31.1374 13.4229 29.3656 13.4229 27.1799C13.4229 24.9942 15.8697 23.2224 18.888 23.2224C20.1695 23.2224 21.3479 23.5418 22.2798 24.0766L25.018 13.8576Z" fill="white"/>
<path d="M26.2949 12.5612C25.5085 12.4513 24.7458 12.9417 24.535 13.7282L21.9562 23.3523C21.0556 22.9501 20.0044 22.7224 18.888 22.7224C17.2851 22.7224 15.8135 23.1921 14.7303 23.9766C13.6477 24.7605 12.9229 25.8867 12.9229 27.1799C12.9229 28.4731 13.6477 29.5993 14.7303 30.3833C15.8135 31.1677 17.2851 31.6374 18.888 31.6374C20.4909 31.6374 21.9625 31.1677 23.0457 30.3833C24.1284 29.5993 24.8532 28.4731 24.8532 27.1799C24.8532 26.7169 24.7594 26.2716 24.5876 25.8551L26.9144 17.1715L28.8385 19.0955C29.4613 19.7183 30.4711 19.7183 31.0938 19.0955C31.7166 18.4728 31.7166 17.463 31.0938 16.8402L27.2752 13.0215C27.0016 12.748 26.6523 12.5943 26.2949 12.5612Z" stroke="black"/>
</g>
<defs>
<filter id="filter0_d_788_1391" x="11.6229" y="12.0459" width="21.2382" height="21.8918" filterUnits="userSpaceOnUse" color-interpolation-filters="sRGB">
<feFlood flood-opacity="0" result="BackgroundImageFix"/>
<feColorMatrix in="SourceAlpha" type="matrix" values="0 0 0 0 0 0 0 0 0 0 0 0 0 0 0 0 0 0 127 0" result="hardAlpha"/>
<feOffset dy="1"/>
<feGaussianBlur stdDeviation="0.4"/>
<feComposite in2="hardAlpha" operator="out"/>
<feColorMatrix type="matrix" values="0 0 0 0 0 0 0 0 0 0 0 0 0 0 0 0 0 0 0.45 0"/>
<feBlend mode="normal" in2="BackgroundImageFix" result="effect1_dropShadow_788_1391"/>
<feBlend mode="normal" in="SourceGraphic" in2="effect1_dropShadow_788_1391" result="shape"/>
</filter>
<linearGradient id="paint0_linear_788_1391" x1="22" y1="4" x2="22" y2="40" gradientUnits="userSpaceOnUse">
<stop stop-color="#F9F9F9"/>
<stop offset="0.213542" stop-color="#FFB680"/>
<stop offset="0.921875" stop-color="#F96900"/>
</linearGradient>
<linearGradient id="paint1_linear_788_1391" x1="21.9996" y1="5.16895" x2="21.9996" y2="38.8313" gradientUnits="userSpaceOnUse">
<stop stop-color="#FF7F11"/>
<stop offset="0.213542" stop-color="#FF7F11"/>
<stop offset="0.5" stop-color="#FF7F11"/>
<stop offset="0.921875" stop-color="#F96900"/>
</linearGradient>
</defs>
</svg>
