<svg width="299" height="70" viewBox="0 0 299 70" fill="none" xmlns="http://www.w3.org/2000/svg">
<path d="M1.5 10C1.5 5.30558 5.30558 1.5 10 1.5H288.108C292.802 1.5 296.608 5.30558 296.608 10V58.2318C296.608 62.9262 292.802 66.7318 288.108 66.7318H10C5.30559 66.7318 1.5 62.9262 1.5 58.2318V10Z" fill="#F47C37" stroke="#031C17" stroke-width="3"/>
<circle cx="50.4952" cy="34.9659" r="25.9327" fill="white" stroke="black" stroke-width="2"/>
<g filter="url(#filter0_d_3310_4485)">
<circle cx="50.5774" cy="34.8743" r="21.9837" fill="#F2882C"/>
<circle cx="50.5774" cy="34.8743" r="20.9837" stroke="black" stroke-width="2"/>
</g>
<g filter="url(#filter1_d_3310_4485)">
<path d="M59.3147 33.3288C60.4485 34.1253 60.4485 35.8055 59.3147 36.602L46.5507 45.568C45.2254 46.4989 43.4011 45.5509 43.4011 43.9314L43.4011 25.9995C43.4011 24.3799 45.2254 23.432 46.5507 24.3629L59.3147 33.3288Z" fill="white"/>
<path d="M59.8895 37.4203C61.5903 36.2256 61.5903 33.7053 59.8895 32.5106L47.1255 23.5446C45.1376 22.1482 42.4011 23.5701 42.4011 25.9995L42.4011 43.9314C42.4011 46.3607 45.1376 47.7827 47.1255 46.3863L59.8895 37.4203Z" stroke="black" stroke-width="2"/>
</g>
<path d="M206.907 43.8244C206.456 43.8244 206.09 43.5604 206.09 43.2348V30.9841C206.09 30.6585 206.456 30.3945 206.907 30.3945C207.359 30.3945 207.725 30.6585 207.725 30.9841V43.2348C207.725 43.5604 207.359 43.8244 206.907 43.8244Z" fill="#EAEAEA"/>
<path d="M209.552 38.7112C209.1 38.7112 208.734 38.4473 208.734 38.1217V31.9294C208.734 31.6038 209.1 31.3398 209.552 31.3398C210.004 31.3398 210.37 31.6038 210.37 31.9294V38.1217C210.37 38.4473 210.003 38.7112 209.552 38.7112Z" fill="#EAEAEA"/>
<path d="M199.096 37.5371H198.875C198.485 37.5371 198.168 37.3087 198.168 37.0269V30.9138C198.168 30.5882 198.534 30.3242 198.986 30.3242C199.437 30.3242 199.803 30.5882 199.803 30.9138V37.0269C199.803 37.3087 199.486 37.5371 199.096 37.5371Z" fill="#EAEAEA"/>
<path d="M233.322 34.8645C232.87 34.8645 232.504 34.6006 232.504 34.275V23.7419C232.504 23.4163 232.87 23.1523 233.322 23.1523C233.773 23.1523 234.139 23.4163 234.139 23.7419V34.275C234.139 34.6006 233.773 34.8645 233.322 34.8645Z" fill="#EAEAEA"/>
<path d="M233.322 22.3937C232.87 22.3937 232.504 22.1297 232.504 21.8041V20.1033C232.504 19.7776 232.87 19.5137 233.322 19.5137C233.773 19.5137 234.139 19.7776 234.139 20.1033V21.8042C234.139 22.1297 233.773 22.3937 233.322 22.3937Z" fill="#EAEAEA"/>
<path d="M233.322 50.1093C232.87 50.1093 232.504 49.8454 232.504 49.5197V35.7947C232.504 35.469 232.87 35.2051 233.322 35.2051C233.773 35.2051 234.139 35.469 234.139 35.7947V49.5198C234.139 49.8454 233.773 50.1093 233.322 50.1093Z" fill="#EAEAEA"/>
<path d="M235.966 43.5285C235.514 43.5285 235.148 43.2646 235.148 42.939V27.1052C235.148 26.7796 235.514 26.5156 235.966 26.5156C236.418 26.5156 236.784 26.7796 236.784 27.1052V42.9391C236.784 43.2646 236.418 43.5285 235.966 43.5285Z" fill="#EAEAEA"/>
<path d="M230.685 29.6348C230.233 29.6348 229.867 29.3709 229.867 29.0452V22.1384C229.867 21.8128 230.233 21.5488 230.685 21.5488C231.136 21.5488 231.502 21.8128 231.502 22.1384V29.0454C231.502 29.3709 231.136 29.6348 230.685 29.6348Z" fill="#EAEAEA"/>
<path d="M230.685 52.4714C230.233 52.4714 229.867 52.2074 229.867 51.8818V30.7263C229.867 30.4007 230.233 30.1367 230.685 30.1367C231.136 30.1367 231.502 30.4007 231.502 30.7263V51.8819C231.502 52.2074 231.136 52.4714 230.685 52.4714Z" fill="#EAEAEA"/>
<path d="M201.736 40.2505H201.516C201.125 40.2505 200.809 40.0221 200.809 39.7403V30.7966C200.809 30.471 201.175 30.207 201.626 30.207C202.078 30.207 202.444 30.471 202.444 30.7966V39.7402C202.444 40.0221 202.127 40.2505 201.736 40.2505Z" fill="#EAEAEA"/>
<path d="M201.74 29.7193H201.52C201.129 29.7193 200.812 29.4908 200.812 29.2091V27.5525C200.812 27.2268 201.179 26.9629 201.63 26.9629C202.082 26.9629 202.448 27.2268 202.448 27.5525V29.2091C202.448 29.4908 202.131 29.7193 201.74 29.7193Z" fill="#EAEAEA"/>
<path d="M225.392 49.4084C225.843 49.4084 226.209 49.1444 226.209 48.8188V15.7478C226.209 15.4221 225.843 15.1582 225.392 15.1582C224.94 15.1582 224.574 15.4221 224.574 15.7478V48.8189C224.574 49.1444 224.94 49.4084 225.392 49.4084Z" fill="#EAEAEA"/>
<path d="M225.392 54.9038C225.843 54.9038 226.209 54.6399 226.209 54.3143V50.6072C226.209 50.2815 225.843 50.0176 225.392 50.0176C224.94 50.0176 224.574 50.2815 224.574 50.6072V54.3143C224.574 54.6399 224.94 54.9038 225.392 54.9038Z" fill="#EAEAEA"/>
<path d="M217.478 52.2145C217.929 52.2145 218.295 51.9505 218.295 51.6249V18.4236C218.295 18.0979 217.929 17.834 217.478 17.834C217.026 17.834 216.66 18.0979 216.66 18.4236V51.625C216.66 51.9505 217.026 52.2145 217.478 52.2145Z" fill="#EAEAEA"/>
<path d="M220.111 39.536C220.562 39.536 220.928 39.2721 220.928 38.9464V22.8005C220.928 22.4749 220.562 22.2109 220.111 22.2109C219.659 22.2109 219.293 22.4749 219.293 22.8005V38.9464C219.293 39.272 219.659 39.536 220.111 39.536Z" fill="#EAEAEA"/>
<path d="M220.111 48.3381C220.562 48.3381 220.928 48.0741 220.928 47.7485V40.4646C220.928 40.1389 220.562 39.875 220.111 39.875C219.659 39.875 219.293 40.1389 219.293 40.4646V47.7485C219.293 48.0741 219.659 48.3381 220.111 48.3381Z" fill="#EAEAEA"/>
<path d="M222.759 51.8426C223.211 51.8426 223.577 51.5786 223.577 51.253V27.9177C223.577 27.5921 223.211 27.3281 222.759 27.3281C222.307 27.3281 221.941 27.5921 221.941 27.9177V51.2531C221.941 51.5786 222.307 51.8426 222.759 51.8426Z" fill="#EAEAEA"/>
<path d="M222.759 26.7431C223.211 26.7431 223.577 26.4792 223.577 26.1535V21.3474C223.577 21.0217 223.211 20.7578 222.759 20.7578C222.307 20.7578 221.941 21.0217 221.941 21.3474V26.1535C221.942 26.4792 222.308 26.7431 222.759 26.7431Z" fill="#EAEAEA"/>
<path d="M222.759 20.1799C223.211 20.1799 223.577 19.9159 223.577 19.5903V17.99C223.577 17.6643 223.211 17.4004 222.759 17.4004C222.307 17.4004 221.941 17.6643 221.941 17.99V19.5903C221.942 19.9159 222.308 20.1799 222.759 20.1799Z" fill="#EAEAEA"/>
<path d="M214.833 45.1461C215.285 45.1461 215.651 44.8822 215.651 44.5565V25.4919C215.651 25.1663 215.285 24.9023 214.833 24.9023C214.382 24.9023 214.016 25.1663 214.016 25.4919V44.5566C214.016 44.8822 214.382 45.1461 214.833 45.1461Z" fill="#EAEAEA"/>
<path d="M228.04 47.0295C228.492 47.0295 228.858 46.7655 228.858 46.4399V23.615C228.858 23.2893 228.492 23.0254 228.04 23.0254C227.589 23.0254 227.223 23.2893 227.223 23.615V46.4399C227.223 46.7655 227.589 47.0295 228.04 47.0295Z" fill="#EAEAEA"/>
<path d="M212.193 41.0532C211.741 41.0532 211.375 40.7893 211.375 40.4637V29.5896C211.375 29.2639 211.741 29 212.193 29C212.644 29 213.01 29.2639 213.01 29.5896V40.4637C213.01 40.7893 212.644 41.0532 212.193 41.0532Z" fill="#EAEAEA"/>
<path d="M196.345 35.606C195.893 35.606 195.527 35.342 195.527 35.0164V32.8513C195.527 32.5257 195.893 32.2617 196.345 32.2617C196.797 32.2617 197.163 32.5257 197.163 32.8513V35.0164C197.163 35.3419 196.796 35.606 196.345 35.606Z" fill="#EAEAEA"/>
<path d="M272.907 35.3696C272.456 35.3696 272.09 35.1057 272.09 34.7801V32.615C272.09 32.2893 272.456 32.0254 272.907 32.0254C273.359 32.0254 273.725 32.2893 273.725 32.615V34.7801C273.725 35.1057 273.359 35.3696 272.907 35.3696Z" fill="#EAEAEA"/>
<path d="M204.381 36.8307H204.161C203.77 36.8307 203.453 36.6023 203.453 36.3205V24.5583C203.453 24.2327 203.819 23.9688 204.271 23.9688C204.722 23.9688 205.088 24.2327 205.088 24.5583V36.3205C205.088 36.6023 204.772 36.8307 204.381 36.8307Z" fill="#EAEAEA"/>
<path d="M204.381 44.7346H204.161C203.77 44.7346 203.453 44.5062 203.453 44.2245V38.1286C203.453 37.803 203.819 37.5391 204.271 37.5391C204.722 37.5391 205.088 37.803 205.088 38.1286V44.2245C205.088 44.5062 204.772 44.7346 204.381 44.7346Z" fill="#EAEAEA"/>
<path d="M259.739 50.7146C259.288 50.7146 258.922 50.4507 258.922 50.125V20.4939C258.922 20.1682 259.288 19.9043 259.739 19.9043C260.191 19.9043 260.557 20.1682 260.557 20.4939V50.1251C260.557 50.4507 260.191 50.7146 259.739 50.7146Z" fill="#EAEAEA"/>
<path d="M246.529 48.684C246.077 48.684 245.711 48.4201 245.711 48.0945V33.2497C245.711 32.9241 246.077 32.6602 246.529 32.6602C246.98 32.6602 247.346 32.9241 247.346 33.2497V48.0945C247.346 48.42 246.98 48.684 246.529 48.684Z" fill="#EAEAEA"/>
<path d="M262.384 39.5543C261.932 39.5543 261.566 39.2904 261.566 38.9648V25.0408C261.566 24.7151 261.932 24.4512 262.384 24.4512C262.836 24.4512 263.202 24.7151 263.202 25.0408V38.9649C263.202 39.2904 262.836 39.5543 262.384 39.5543Z" fill="#EAEAEA"/>
<path d="M262.384 45.6623C261.932 45.6623 261.566 45.3983 261.566 45.0727V40.6931C261.566 40.3675 261.932 40.1035 262.384 40.1035C262.836 40.1035 263.202 40.3675 263.202 40.6931V45.0727C263.202 45.3983 262.836 45.6623 262.384 45.6623Z" fill="#EAEAEA"/>
<path d="M257.091 32.0294C256.639 32.0294 256.273 31.7655 256.273 31.4398V28.9802C256.273 28.6546 256.639 28.3906 257.091 28.3906C257.543 28.3906 257.909 28.6546 257.909 28.9802V31.4398C257.909 31.7655 257.543 32.0294 257.091 32.0294Z" fill="#EAEAEA"/>
<path d="M257.091 54.128C256.639 54.128 256.273 53.8641 256.273 53.5385V33.4997C256.273 33.1741 256.639 32.9102 257.091 32.9102C257.543 32.9102 257.909 33.1741 257.909 33.4997V53.5386C257.909 53.8641 257.543 54.128 257.091 54.128Z" fill="#EAEAEA"/>
<path d="M254.458 48.9163C254.007 48.9163 253.641 48.6524 253.641 48.3267V33.0115C253.641 32.6858 254.007 32.4219 254.458 32.4219C254.91 32.4219 255.276 32.6858 255.276 33.0115V48.3267C255.276 48.6524 254.91 48.9163 254.458 48.9163Z" fill="#EAEAEA"/>
<path d="M265.017 46.4525C264.565 46.4525 264.199 46.1886 264.199 45.863V33.2497C264.199 32.9241 264.565 32.6602 265.017 32.6602C265.468 32.6602 265.834 32.9241 265.834 33.2497V45.863C265.834 46.1885 265.468 46.4525 265.017 46.4525Z" fill="#EAEAEA"/>
<path d="M249.173 41.3312C248.721 41.3312 248.355 41.0673 248.355 40.7417V31.8572C248.355 31.5315 248.721 31.2676 249.173 31.2676C249.625 31.2676 249.991 31.5315 249.991 31.8572V40.7417C249.991 41.0673 249.625 41.3312 249.173 41.3312Z" fill="#EAEAEA"/>
<path d="M249.173 52.273C248.721 52.273 248.355 52.0091 248.355 51.6835V42.3142C248.355 41.9885 248.721 41.7246 249.173 41.7246C249.625 41.7246 249.991 41.9885 249.991 42.3142V51.6835C249.991 52.0091 249.625 52.273 249.173 52.273Z" fill="#EAEAEA"/>
<path d="M241.243 40.1056C240.792 40.1056 240.426 39.8417 240.426 39.5161V30.5368C240.426 30.2112 240.792 29.9473 241.243 29.9473C241.695 29.9473 242.061 30.2112 242.061 30.5368V39.5161C242.061 39.8417 241.695 40.1056 241.243 40.1056Z" fill="#EAEAEA"/>
<path d="M238.607 43.0376C238.155 43.0376 237.789 42.7736 237.789 42.448V27.6033C237.789 27.2776 238.155 27.0137 238.607 27.0137C239.058 27.0137 239.424 27.2776 239.424 27.6033V42.448C239.424 42.7735 239.058 43.0376 238.607 43.0376Z" fill="#EAEAEA"/>
<path d="M243.892 46.7207C243.44 46.7207 243.074 46.4568 243.074 46.1312V35.2107C243.074 34.885 243.44 34.6211 243.892 34.6211C244.343 34.6211 244.709 34.885 244.709 35.2107V46.1311C244.709 46.4567 244.343 46.7207 243.892 46.7207Z" fill="#EAEAEA"/>
<path d="M251.81 46.6081C251.358 46.6081 250.992 46.3442 250.992 46.0186V35.3181C250.992 34.9925 251.358 34.7285 251.81 34.7285C252.261 34.7285 252.627 34.9925 252.627 35.3181V46.0186C252.627 46.3442 252.261 46.6081 251.81 46.6081Z" fill="#EAEAEA"/>
<path d="M270.306 37.2645C269.854 37.2645 269.488 37.0006 269.488 36.675V30.7322C269.488 30.4065 269.854 30.1426 270.306 30.1426C270.757 30.1426 271.124 30.4065 271.124 30.7322V36.675C271.124 37.0005 270.757 37.2645 270.306 37.2645Z" fill="#EAEAEA"/>
<path d="M267.665 35.6771C267.214 35.6771 266.848 35.4131 266.848 35.0875V29.6286C266.848 29.303 267.214 29.0391 267.665 29.0391C268.117 29.0391 268.483 29.303 268.483 29.6286V35.0875C268.483 35.4131 268.117 35.6771 267.665 35.6771Z" fill="#EAEAEA"/>
<path d="M267.665 39.3873C267.214 39.3873 266.848 39.1234 266.848 38.7977V36.6579C266.848 36.3323 267.214 36.0684 267.665 36.0684C268.117 36.0684 268.483 36.3323 268.483 36.6579V38.7977C268.483 39.1234 268.117 39.3873 267.665 39.3873Z" fill="#EAEAEA"/>
<path d="M127.947 43.8244C127.495 43.8244 127.129 43.5604 127.129 43.2348V30.9841C127.129 30.6585 127.495 30.3945 127.947 30.3945C128.398 30.3945 128.764 30.6585 128.764 30.9841V43.2348C128.764 43.5604 128.398 43.8244 127.947 43.8244Z" fill="#EAEAEA"/>
<path d="M130.591 38.7112C130.139 38.7112 129.773 38.4473 129.773 38.1217V31.9294C129.773 31.6038 130.139 31.3398 130.591 31.3398C131.043 31.3398 131.409 31.6038 131.409 31.9294V38.1217C131.409 38.4473 131.043 38.7112 130.591 38.7112Z" fill="#EAEAEA"/>
<path d="M120.135 37.5391H119.915C119.524 37.5391 119.207 37.3106 119.207 37.0289V30.9158C119.207 30.5901 119.573 30.3262 120.025 30.3262C120.476 30.3262 120.842 30.5901 120.842 30.9158V37.0289C120.842 37.3106 120.525 37.5391 120.135 37.5391Z" fill="#EAEAEA"/>
<path d="M154.361 34.8645C153.909 34.8645 153.543 34.6006 153.543 34.275V23.7419C153.543 23.4163 153.909 23.1523 154.361 23.1523C154.812 23.1523 155.178 23.4163 155.178 23.7419V34.275C155.178 34.6006 154.812 34.8645 154.361 34.8645Z" fill="#EAEAEA"/>
<path d="M154.361 22.3937C153.909 22.3937 153.543 22.1297 153.543 21.8041V20.1033C153.543 19.7776 153.909 19.5137 154.361 19.5137C154.812 19.5137 155.178 19.7776 155.178 20.1033V21.8042C155.178 22.1297 154.812 22.3937 154.361 22.3937Z" fill="#EAEAEA"/>
<path d="M154.361 50.1093C153.909 50.1093 153.543 49.8454 153.543 49.5197V35.7947C153.543 35.469 153.909 35.2051 154.361 35.2051C154.812 35.2051 155.178 35.469 155.178 35.7947V49.5198C155.178 49.8454 154.812 50.1093 154.361 50.1093Z" fill="#EAEAEA"/>
<path d="M157.005 43.5285C156.554 43.5285 156.188 43.2646 156.188 42.939V27.1052C156.188 26.7796 156.554 26.5156 157.005 26.5156C157.457 26.5156 157.823 26.7796 157.823 27.1052V42.9391C157.823 43.2646 157.457 43.5285 157.005 43.5285Z" fill="#EAEAEA"/>
<path d="M151.724 29.6348C151.272 29.6348 150.906 29.3709 150.906 29.0452V22.1384C150.906 21.8128 151.272 21.5488 151.724 21.5488C152.175 21.5488 152.541 21.8128 152.541 22.1384V29.0454C152.541 29.3709 152.175 29.6348 151.724 29.6348Z" fill="#EAEAEA"/>
<path d="M151.724 52.4714C151.272 52.4714 150.906 52.2074 150.906 51.8818V30.7263C150.906 30.4007 151.272 30.1367 151.724 30.1367C152.175 30.1367 152.541 30.4007 152.541 30.7263V51.8819C152.541 52.2074 152.175 52.4714 151.724 52.4714Z" fill="#EAEAEA"/>
<path d="M122.775 40.2505H122.555C122.164 40.2505 121.848 40.0221 121.848 39.7403V30.7966C121.848 30.471 122.214 30.207 122.665 30.207C123.117 30.207 123.483 30.471 123.483 30.7966V39.7402C123.483 40.0221 123.166 40.2505 122.775 40.2505Z" fill="#EAEAEA"/>
<path d="M122.779 29.7193H122.559C122.168 29.7193 121.852 29.4908 121.852 29.2091V27.5525C121.852 27.2268 122.218 26.9629 122.669 26.9629C123.121 26.9629 123.487 27.2268 123.487 27.5525V29.2091C123.487 29.4908 123.17 29.7193 122.779 29.7193Z" fill="#EAEAEA"/>
<path d="M146.431 49.4084C146.882 49.4084 147.249 49.1444 147.249 48.8188V15.7478C147.249 15.4221 146.882 15.1582 146.431 15.1582C145.979 15.1582 145.613 15.4221 145.613 15.7478V48.8189C145.613 49.1444 145.979 49.4084 146.431 49.4084Z" fill="#EAEAEA"/>
<path d="M146.431 54.9038C146.882 54.9038 147.249 54.6399 147.249 54.3143V50.6072C147.249 50.2815 146.882 50.0176 146.431 50.0176C145.979 50.0176 145.613 50.2815 145.613 50.6072V54.3143C145.613 54.6399 145.979 54.9038 146.431 54.9038Z" fill="#EAEAEA"/>
<path d="M138.517 52.2145C138.968 52.2145 139.334 51.9505 139.334 51.6249V18.4236C139.334 18.0979 138.968 17.834 138.517 17.834C138.065 17.834 137.699 18.0979 137.699 18.4236V51.625C137.699 51.9505 138.065 52.2145 138.517 52.2145Z" fill="#EAEAEA"/>
<path d="M141.15 39.536C141.601 39.536 141.967 39.2721 141.967 38.9464V22.8005C141.967 22.4749 141.601 22.2109 141.15 22.2109C140.698 22.2109 140.332 22.4749 140.332 22.8005V38.9464C140.332 39.272 140.698 39.536 141.15 39.536Z" fill="#EAEAEA"/>
<path d="M141.15 48.3381C141.601 48.3381 141.967 48.0741 141.967 47.7485V40.4646C141.967 40.1389 141.601 39.875 141.15 39.875C140.698 39.875 140.332 40.1389 140.332 40.4646V47.7485C140.332 48.0741 140.698 48.3381 141.15 48.3381Z" fill="#EAEAEA"/>
<path d="M143.798 51.8426C144.25 51.8426 144.616 51.5786 144.616 51.253V27.9177C144.616 27.5921 144.25 27.3281 143.798 27.3281C143.346 27.3281 142.98 27.5921 142.98 27.9177V51.2531C142.98 51.5786 143.346 51.8426 143.798 51.8426Z" fill="#EAEAEA"/>
<path d="M143.798 26.7431C144.25 26.7431 144.616 26.4792 144.616 26.1535V21.3474C144.616 21.0217 144.25 20.7578 143.798 20.7578C143.346 20.7578 142.98 21.0217 142.98 21.3474V26.1535C142.981 26.4792 143.347 26.7431 143.798 26.7431Z" fill="#EAEAEA"/>
<path d="M143.798 20.1799C144.25 20.1799 144.616 19.9159 144.616 19.5903V17.99C144.616 17.6643 144.25 17.4004 143.798 17.4004C143.346 17.4004 142.98 17.6643 142.98 17.99V19.5903C142.981 19.9159 143.347 20.1799 143.798 20.1799Z" fill="#EAEAEA"/>
<path d="M135.872 45.1461C136.324 45.1461 136.69 44.8822 136.69 44.5565V25.4919C136.69 25.1663 136.324 24.9023 135.872 24.9023C135.421 24.9023 135.055 25.1663 135.055 25.4919V44.5566C135.055 44.8822 135.421 45.1461 135.872 45.1461Z" fill="#EAEAEA"/>
<path d="M149.083 47.0295C149.535 47.0295 149.901 46.7655 149.901 46.4399V23.615C149.901 23.2893 149.535 23.0254 149.083 23.0254C148.632 23.0254 148.266 23.2893 148.266 23.615V46.4399C148.266 46.7655 148.632 47.0295 149.083 47.0295Z" fill="#EAEAEA"/>
<path d="M133.232 41.0532C132.78 41.0532 132.414 40.7893 132.414 40.4637V29.5896C132.414 29.2639 132.78 29 133.232 29C133.683 29 134.049 29.2639 134.049 29.5896V40.4637C134.049 40.7893 133.683 41.0532 133.232 41.0532Z" fill="#EAEAEA"/>
<path d="M117.384 35.606C116.932 35.606 116.566 35.342 116.566 35.0164V32.8513C116.566 32.5257 116.932 32.2617 117.384 32.2617C117.836 32.2617 118.202 32.5257 118.202 32.8513V35.0164C118.202 35.3419 117.835 35.606 117.384 35.606Z" fill="#EAEAEA"/>
<path d="M193.947 35.3696C193.495 35.3696 193.129 35.1057 193.129 34.7801V32.615C193.129 32.2893 193.495 32.0254 193.947 32.0254C194.398 32.0254 194.764 32.2893 194.764 32.615V34.7801C194.764 35.1057 194.398 35.3696 193.947 35.3696Z" fill="#EAEAEA"/>
<path d="M125.42 36.8307H125.2C124.809 36.8307 124.492 36.6023 124.492 36.3205V24.5583C124.492 24.2327 124.858 23.9688 125.31 23.9688C125.761 23.9688 126.127 24.2327 126.127 24.5583V36.3205C126.127 36.6023 125.811 36.8307 125.42 36.8307Z" fill="#EAEAEA"/>
<path d="M125.42 44.7346H125.2C124.809 44.7346 124.492 44.5062 124.492 44.2245V38.1286C124.492 37.803 124.858 37.5391 125.31 37.5391C125.761 37.5391 126.127 37.803 126.127 38.1286V44.2245C126.127 44.5062 125.811 44.7346 125.42 44.7346Z" fill="#EAEAEA"/>
<path d="M180.779 50.7166C180.327 50.7166 179.961 50.4526 179.961 50.127V20.4958C179.961 20.1702 180.327 19.9062 180.779 19.9062C181.23 19.9062 181.596 20.1702 181.596 20.4958V50.1271C181.596 50.4526 181.23 50.7166 180.779 50.7166Z" fill="#EAEAEA"/>
<path d="M167.568 48.684C167.116 48.684 166.75 48.4201 166.75 48.0945V33.2497C166.75 32.9241 167.116 32.6602 167.568 32.6602C168.019 32.6602 168.385 32.9241 168.385 33.2497V48.0945C168.385 48.42 168.019 48.684 167.568 48.684Z" fill="#EAEAEA"/>
<path d="M183.423 39.5543C182.971 39.5543 182.605 39.2904 182.605 38.9648V25.0408C182.605 24.7151 182.971 24.4512 183.423 24.4512C183.875 24.4512 184.241 24.7151 184.241 25.0408V38.9649C184.241 39.2904 183.875 39.5543 183.423 39.5543Z" fill="#EAEAEA"/>
<path d="M183.423 45.6623C182.971 45.6623 182.605 45.3983 182.605 45.0727V40.6931C182.605 40.3675 182.971 40.1035 183.423 40.1035C183.875 40.1035 184.241 40.3675 184.241 40.6931V45.0727C184.241 45.3983 183.875 45.6623 183.423 45.6623Z" fill="#EAEAEA"/>
<path d="M178.13 32.0294C177.679 32.0294 177.312 31.7655 177.312 31.4398V28.9802C177.312 28.6546 177.679 28.3906 178.13 28.3906C178.582 28.3906 178.948 28.6546 178.948 28.9802V31.4398C178.948 31.7655 178.582 32.0294 178.13 32.0294Z" fill="#EAEAEA"/>
<path d="M178.13 54.128C177.679 54.128 177.312 53.8641 177.312 53.5385V33.4997C177.312 33.1741 177.679 32.9102 178.13 32.9102C178.582 32.9102 178.948 33.1741 178.948 33.4997V53.5386C178.948 53.8641 178.582 54.128 178.13 54.128Z" fill="#EAEAEA"/>
<path d="M175.497 48.9163C175.046 48.9163 174.68 48.6524 174.68 48.3267V33.0115C174.68 32.6858 175.046 32.4219 175.497 32.4219C175.949 32.4219 176.315 32.6858 176.315 33.0115V48.3267C176.315 48.6524 175.949 48.9163 175.497 48.9163Z" fill="#EAEAEA"/>
<path d="M186.056 46.4525C185.604 46.4525 185.238 46.1886 185.238 45.863V33.2497C185.238 32.9241 185.604 32.6602 186.056 32.6602C186.507 32.6602 186.874 32.9241 186.874 33.2497V45.863C186.874 46.1885 186.507 46.4525 186.056 46.4525Z" fill="#EAEAEA"/>
<path d="M170.212 41.3312C169.761 41.3312 169.395 41.0673 169.395 40.7417V31.8572C169.395 31.5315 169.761 31.2676 170.212 31.2676C170.664 31.2676 171.03 31.5315 171.03 31.8572V40.7417C171.03 41.0673 170.664 41.3312 170.212 41.3312Z" fill="#EAEAEA"/>
<path d="M170.212 52.273C169.761 52.273 169.395 52.0091 169.395 51.6835V42.3142C169.395 41.9885 169.761 41.7246 170.212 41.7246C170.664 41.7246 171.03 41.9885 171.03 42.3142V51.6835C171.03 52.0091 170.664 52.273 170.212 52.273Z" fill="#EAEAEA"/>
<path d="M162.282 40.1056C161.831 40.1056 161.465 39.8417 161.465 39.5161V30.5368C161.465 30.2112 161.831 29.9473 162.282 29.9473C162.734 29.9473 163.1 30.2112 163.1 30.5368V39.5161C163.1 39.8417 162.734 40.1056 162.282 40.1056Z" fill="#EAEAEA"/>
<path d="M159.646 43.0376C159.194 43.0376 158.828 42.7736 158.828 42.448V27.6033C158.828 27.2776 159.194 27.0137 159.646 27.0137C160.097 27.0137 160.463 27.2776 160.463 27.6033V42.448C160.463 42.7735 160.097 43.0376 159.646 43.0376Z" fill="#EAEAEA"/>
<path d="M164.931 46.7207C164.479 46.7207 164.113 46.4568 164.113 46.1312V35.2107C164.113 34.885 164.479 34.6211 164.931 34.6211C165.382 34.6211 165.749 34.885 165.749 35.2107V46.1311C165.749 46.4567 165.382 46.7207 164.931 46.7207Z" fill="#EAEAEA"/>
<path d="M172.849 46.6081C172.397 46.6081 172.031 46.3442 172.031 46.0186V35.3181C172.031 34.9925 172.397 34.7285 172.849 34.7285C173.3 34.7285 173.666 34.9925 173.666 35.3181V46.0186C173.666 46.3442 173.3 46.6081 172.849 46.6081Z" fill="#EAEAEA"/>
<path d="M191.345 37.2645C190.893 37.2645 190.527 37.0006 190.527 36.675V30.7322C190.527 30.4065 190.893 30.1426 191.345 30.1426C191.797 30.1426 192.163 30.4065 192.163 30.7322V36.675C192.163 37.0005 191.797 37.2645 191.345 37.2645Z" fill="#EAEAEA"/>
<path d="M188.704 35.6771C188.253 35.6771 187.887 35.4131 187.887 35.0875V29.6286C187.887 29.303 188.253 29.0391 188.704 29.0391C189.156 29.0391 189.522 29.303 189.522 29.6286V35.0875C189.522 35.4131 189.156 35.6771 188.704 35.6771Z" fill="#EAEAEA"/>
<path d="M188.704 39.3873C188.253 39.3873 187.887 39.1234 187.887 38.7977V36.6579C187.887 36.3323 188.253 36.0684 188.704 36.0684C189.156 36.0684 189.522 36.3323 189.522 36.6579V38.7977C189.522 39.1234 189.156 39.3873 188.704 39.3873Z" fill="#EAEAEA"/>
<path d="M96.3906 14.9121V55.9177" stroke="white" stroke-width="2" stroke-linecap="round"/>
<defs>
<filter id="filter0_d_3310_4485" x="18.7937" y="6.09062" width="63.5688" height="63.5668" filterUnits="userSpaceOnUse" color-interpolation-filters="sRGB">
<feFlood flood-opacity="0" result="BackgroundImageFix"/>
<feColorMatrix in="SourceAlpha" type="matrix" values="0 0 0 0 0 0 0 0 0 0 0 0 0 0 0 0 0 0 127 0" result="hardAlpha"/>
<feMorphology radius="2" operator="dilate" in="SourceAlpha" result="effect1_dropShadow_3310_4485"/>
<feOffset dy="3"/>
<feGaussianBlur stdDeviation="3.9"/>
<feComposite in2="hardAlpha" operator="out"/>
<feColorMatrix type="matrix" values="0 0 0 0 0 0 0 0 0 0 0 0 0 0 0 0 0 0 0.25 0"/>
<feBlend mode="normal" in2="BackgroundImageFix" result="effect1_dropShadow_3310_4485"/>
<feBlend mode="normal" in="SourceGraphic" in2="effect1_dropShadow_3310_4485" result="shape"/>
</filter>
<filter id="filter1_d_3310_4485" x="41.4023" y="21.9922" width="21.7617" height="25.9453" filterUnits="userSpaceOnUse" color-interpolation-filters="sRGB">
<feFlood flood-opacity="0" result="BackgroundImageFix"/>
<feColorMatrix in="SourceAlpha" type="matrix" values="0 0 0 0 0 0 0 0 0 0 0 0 0 0 0 0 0 0 127 0" result="hardAlpha"/>
<feOffset dx="1"/>
<feComposite in2="hardAlpha" operator="out"/>
<feColorMatrix type="matrix" values="0 0 0 0 0 0 0 0 0 0 0 0 0 0 0 0 0 0 0.5 0"/>
<feBlend mode="normal" in2="BackgroundImageFix" result="effect1_dropShadow_3310_4485"/>
<feBlend mode="normal" in="SourceGraphic" in2="effect1_dropShadow_3310_4485" result="shape"/>
</filter>
</defs>
</svg>
