<svg width="114" height="40" viewBox="0 0 114 40" fill="none" xmlns="http://www.w3.org/2000/svg">
<g filter="url(#filter0_i_306_2534)">
<rect x="0.0722656" y="0.234375" width="113.316" height="39.5141" rx="10" fill="url(#paint0_linear_306_2534)"/>
</g>
<rect x="1.07227" y="1.23438" width="111.316" height="37.5141" rx="9" stroke="white" stroke-width="2"/>
<g style="mix-blend-mode:screen">
<path d="M5.36216 8.92427C5.20802 8.32755 5.38469 7.64125 5.85137 7.17571C6.59084 6.43805 7.75207 5.39008 8.70655 5.02412C9.6201 4.67385 10.8658 4.55066 11.7799 4.50987C12.5151 4.47706 13.0923 4.99829 13.2342 5.75572C13.4709 7.01983 12.4228 8.33402 11.1906 8.51355C10.6422 8.59344 10.0808 8.71402 9.59244 8.89538C9.28573 9.00929 8.97556 9.20311 8.67418 9.44263C7.51081 10.3672 5.71383 10.2857 5.36216 8.92427Z" fill="white" fill-opacity="0.51"/>
</g>
<ellipse cx="15.4368" cy="6.20204" rx="1.44268" ry="1.9579" fill="white" fill-opacity="0.51"/>
<path d="M36.86 26.18C36.3933 26.18 36.0333 26.0533 35.78 25.8C35.54 25.5333 35.42 25.16 35.42 24.68V13.28C35.42 12.7733 35.54 12.3867 35.78 12.12C36.0333 11.8533 36.3667 11.72 36.78 11.72C37.14 11.72 37.4133 11.7933 37.6 11.94C37.8 12.0733 38.0267 12.3 38.28 12.62L45.3 21.56H44.76V13.2C44.76 12.7333 44.88 12.3733 45.12 12.12C45.3733 11.8533 45.7333 11.72 46.2 11.72C46.6667 11.72 47.02 11.8533 47.26 12.12C47.5133 12.3733 47.64 12.7333 47.64 13.2V24.74C47.64 25.18 47.5267 25.5333 47.3 25.8C47.0733 26.0533 46.7667 26.18 46.38 26.18C46.0067 26.18 45.7067 26.1067 45.48 25.96C45.2667 25.8133 45.0333 25.58 44.78 25.26L37.78 16.32H38.3V24.68C38.3 25.16 38.18 25.5333 37.94 25.8C37.7 26.0533 37.34 26.18 36.86 26.18ZM55.3186 26.22C54.1586 26.22 53.1586 26.0133 52.3186 25.6C51.4919 25.1733 50.8519 24.58 50.3986 23.82C49.9586 23.0467 49.7386 22.14 49.7386 21.1C49.7386 20.0867 49.9519 19.2 50.3786 18.44C50.8053 17.6667 51.3986 17.0667 52.1586 16.64C52.9319 16.2 53.8053 15.98 54.7786 15.98C55.4853 15.98 56.1253 16.1 56.6986 16.34C57.2719 16.5667 57.7653 16.9 58.1786 17.34C58.5919 17.7667 58.9053 18.2933 59.1186 18.92C59.3319 19.5333 59.4386 20.22 59.4386 20.98C59.4386 21.2333 59.3586 21.4267 59.1986 21.56C59.0386 21.68 58.8053 21.74 58.4986 21.74H52.2186V20.18H57.2586L56.9386 20.46C56.9386 19.9133 56.8586 19.46 56.6986 19.1C56.5386 18.7267 56.3053 18.4467 55.9986 18.26C55.7053 18.0733 55.3386 17.98 54.8986 17.98C54.4053 17.98 53.9853 18.0933 53.6386 18.32C53.2919 18.5467 53.0253 18.8733 52.8386 19.3C52.6519 19.7267 52.5586 20.24 52.5586 20.84V21C52.5586 22.0133 52.7919 22.76 53.2586 23.24C53.7386 23.72 54.4453 23.96 55.3786 23.96C55.6986 23.96 56.0653 23.92 56.4786 23.84C56.8919 23.76 57.2786 23.6333 57.6386 23.46C57.9453 23.3133 58.2186 23.2667 58.4586 23.32C58.6986 23.36 58.8853 23.4667 59.0186 23.64C59.1519 23.8133 59.2253 24.0133 59.2386 24.24C59.2653 24.4667 59.2186 24.6933 59.0986 24.92C58.9786 25.1333 58.7786 25.3133 58.4986 25.46C58.0453 25.7133 57.5319 25.9 56.9586 26.02C56.3986 26.1533 55.8519 26.22 55.3186 26.22ZM62.1961 26.14C61.8228 26.14 61.5228 26.04 61.2961 25.84C61.0694 25.6267 60.9494 25.36 60.9361 25.04C60.9361 24.72 61.0694 24.3933 61.3361 24.06L64.4361 20.26V21.62L61.5561 18.1C61.2761 17.7533 61.1428 17.42 61.1561 17.1C61.1694 16.78 61.2894 16.52 61.5161 16.32C61.7428 16.12 62.0428 16.02 62.4161 16.02C62.7761 16.02 63.0761 16.08 63.3161 16.2C63.5561 16.32 63.7828 16.52 63.9961 16.8L66.1361 19.54H65.0761L67.2161 16.8C67.4428 16.52 67.6761 16.32 67.9161 16.2C68.1561 16.08 68.4494 16.02 68.7961 16.02C69.1694 16.02 69.4694 16.1267 69.6961 16.34C69.9228 16.54 70.0361 16.8 70.0361 17.12C70.0494 17.44 69.9161 17.7667 69.6361 18.1L66.7561 21.62V20.26L69.8761 24.06C70.1561 24.38 70.2894 24.7 70.2761 25.02C70.2628 25.34 70.1361 25.6067 69.8961 25.82C69.6694 26.0333 69.3694 26.14 68.9961 26.14C68.6361 26.14 68.3361 26.08 68.0961 25.96C67.8694 25.8267 67.6428 25.6267 67.4161 25.36L65.0761 22.38H66.0961L63.7561 25.36C63.5428 25.6133 63.3161 25.8067 63.0761 25.94C62.8494 26.0733 62.5561 26.14 62.1961 26.14ZM77.148 26.22C76.228 26.22 75.4546 26.0667 74.828 25.76C74.2146 25.4533 73.7546 25.0067 73.448 24.42C73.1546 23.8333 73.008 23.0933 73.008 22.2V18.44H72.168C71.7946 18.44 71.5013 18.34 71.288 18.14C71.088 17.94 70.988 17.6667 70.988 17.32C70.988 16.9467 71.088 16.6667 71.288 16.48C71.5013 16.28 71.7946 16.18 72.168 16.18H73.008V14.66C73.008 14.1533 73.1413 13.7733 73.408 13.52C73.6746 13.2533 74.048 13.12 74.528 13.12C75.0213 13.12 75.3946 13.2533 75.648 13.52C75.9013 13.7733 76.028 14.1533 76.028 14.66V16.18H77.928C78.3013 16.18 78.588 16.28 78.788 16.48C78.988 16.6667 79.088 16.9467 79.088 17.32C79.088 17.6667 78.988 17.94 78.788 18.14C78.588 18.34 78.3013 18.44 77.928 18.44H76.028V22.08C76.028 22.64 76.1546 23.06 76.408 23.34C76.6746 23.62 77.0946 23.76 77.668 23.76C77.868 23.76 78.0546 23.74 78.228 23.7C78.4013 23.66 78.5613 23.6333 78.708 23.62C78.8946 23.6067 79.048 23.6667 79.168 23.8C79.288 23.92 79.348 24.1933 79.348 24.62C79.348 24.94 79.2946 25.22 79.188 25.46C79.0813 25.7 78.8946 25.8733 78.628 25.98C78.4546 26.0467 78.2146 26.1 77.908 26.14C77.6146 26.1933 77.3613 26.22 77.148 26.22Z" fill="white"/>
<defs>
<filter id="filter0_i_306_2534" x="-2.92773" y="-2.76562" width="116.316" height="42.5141" filterUnits="userSpaceOnUse" color-interpolation-filters="sRGB">
<feFlood flood-opacity="0" result="BackgroundImageFix"/>
<feBlend mode="normal" in="SourceGraphic" in2="BackgroundImageFix" result="shape"/>
<feColorMatrix in="SourceAlpha" type="matrix" values="0 0 0 0 0 0 0 0 0 0 0 0 0 0 0 0 0 0 127 0" result="hardAlpha"/>
<feOffset dx="-3" dy="-3"/>
<feGaussianBlur stdDeviation="5.85"/>
<feComposite in2="hardAlpha" operator="arithmetic" k2="-1" k3="1"/>
<feColorMatrix type="matrix" values="0 0 0 0 0.191667 0 0 0 0 0.0805 0 0 0 0 0 0 0 0 0.36 0"/>
<feBlend mode="normal" in2="shape" result="effect1_innerShadow_306_2534"/>
</filter>
<linearGradient id="paint0_linear_306_2534" x1="56.7303" y1="0.234375" x2="56.7303" y2="39.7484" gradientUnits="userSpaceOnUse">
<stop stop-color="#FFCAAC"/>
<stop offset="0.324" stop-color="#FF8E4C"/>
<stop offset="1" stop-color="#D54F00"/>
</linearGradient>
</defs>
</svg>
