<svg width="115" height="39" viewBox="0 0 115 39" fill="none" xmlns="http://www.w3.org/2000/svg">
<g filter="url(#filter0_i_315_4998)">
<rect width="114.236" height="38.8221" rx="10" transform="matrix(-1 0 0 1 114.236 0)" fill="url(#paint0_linear_315_4998)"/>
</g>
<rect x="-1" y="1" width="112.236" height="36.8221" rx="9" transform="matrix(-1 0 0 1 112.236 0)" stroke="white" stroke-width="2"/>
<g style="mix-blend-mode:screen">
<path d="M108.597 7.40337C108.757 6.80572 108.581 6.11961 108.11 5.66035C107.366 4.93447 106.2 3.90553 105.24 3.54486C104.316 3.1977 103.054 3.07484 102.132 3.03361C101.399 3.00083 100.818 3.51791 100.672 4.26865C100.43 5.50797 101.451 6.79147 102.665 6.95978C103.237 7.03915 103.828 7.16083 104.338 7.34673C104.668 7.46679 105.002 7.67634 105.324 7.93444C106.465 8.84758 108.239 8.74395 108.597 7.40337Z" fill="white" fill-opacity="0.51"/>
</g>
<g filter="url(#filter1_d_315_4998)">
<mask id="path-4-outside-1_315_4998" maskUnits="userSpaceOnUse" x="18.7388" y="11.541" width="50" height="16" fill="black">
<rect fill="white" x="18.7388" y="11.541" width="50" height="16"/>
<path d="M21.3128 25.703C20.8928 25.703 20.5688 25.589 20.3408 25.361C20.1248 25.121 20.0168 24.785 20.0168 24.353V14.093C20.0168 13.637 20.1248 13.289 20.3408 13.049C20.5688 12.809 20.8688 12.689 21.2408 12.689C21.5648 12.689 21.8108 12.755 21.9788 12.887C22.1588 13.007 22.3628 13.211 22.5908 13.499L28.9088 21.545H28.4228V14.021C28.4228 13.601 28.5308 13.277 28.7468 13.049C28.9748 12.809 29.2988 12.689 29.7188 12.689C30.1388 12.689 30.4568 12.809 30.6728 13.049C30.9008 13.277 31.0148 13.601 31.0148 14.021V24.407C31.0148 24.803 30.9128 25.121 30.7088 25.361C30.5048 25.589 30.2288 25.703 29.8808 25.703C29.5448 25.703 29.2748 25.637 29.0708 25.505C28.8788 25.373 28.6688 25.163 28.4408 24.875L22.1408 16.829H22.6088V24.353C22.6088 24.785 22.5008 25.121 22.2848 25.361C22.0688 25.589 21.7448 25.703 21.3128 25.703ZM35.0275 25.541C34.5595 25.541 34.1995 25.415 33.9475 25.163C33.6955 24.911 33.5695 24.551 33.5695 24.083V14.309C33.5695 13.841 33.6955 13.481 33.9475 13.229C34.1995 12.977 34.5595 12.851 35.0275 12.851H41.3095C41.6695 12.851 41.9395 12.947 42.1195 13.139C42.3115 13.319 42.4075 13.583 42.4075 13.931C42.4075 14.291 42.3115 14.567 42.1195 14.759C41.9395 14.939 41.6695 15.029 41.3095 15.029H36.2335V17.999H40.8955C41.2675 17.999 41.5435 18.095 41.7235 18.287C41.9155 18.467 42.0115 18.737 42.0115 19.097C42.0115 19.457 41.9155 19.733 41.7235 19.925C41.5435 20.105 41.2675 20.195 40.8955 20.195H36.2335V23.363H41.3095C41.6695 23.363 41.9395 23.459 42.1195 23.651C42.3115 23.831 42.4075 24.095 42.4075 24.443C42.4075 24.803 42.3115 25.079 42.1195 25.271C41.9395 25.451 41.6695 25.541 41.3095 25.541H35.0275ZM45.2072 25.703C44.8472 25.703 44.5472 25.607 44.3072 25.415C44.0792 25.211 43.9472 24.965 43.9112 24.677C43.8752 24.377 43.9712 24.071 44.1992 23.759L48.1772 18.485V19.727L44.3612 14.651C44.1332 14.327 44.0312 14.021 44.0552 13.733C44.0912 13.433 44.2232 13.187 44.4512 12.995C44.6912 12.791 44.9852 12.689 45.3332 12.689C45.6332 12.689 45.8912 12.761 46.1072 12.905C46.3352 13.049 46.5632 13.277 46.7912 13.589L49.7612 17.693H48.8612L51.8132 13.589C52.0412 13.265 52.2692 13.037 52.4972 12.905C52.7252 12.761 52.9892 12.689 53.2892 12.689C53.6492 12.689 53.9432 12.785 54.1712 12.977C54.4112 13.169 54.5432 13.415 54.5672 13.715C54.6032 14.003 54.5012 14.315 54.2612 14.651L50.4272 19.727V18.485L54.3872 23.759C54.6272 24.071 54.7292 24.377 54.6932 24.677C54.6692 24.965 54.5372 25.211 54.2972 25.415C54.0692 25.607 53.7692 25.703 53.3972 25.703C53.1092 25.703 52.8512 25.631 52.6232 25.487C52.4072 25.343 52.1792 25.109 51.9392 24.785L48.8432 20.519H49.7612L46.6652 24.785C46.4372 25.109 46.2092 25.343 45.9812 25.487C45.7532 25.631 45.4952 25.703 45.2072 25.703ZM61.1655 25.703C60.7095 25.703 60.3615 25.577 60.1215 25.325C59.8815 25.073 59.7615 24.719 59.7615 24.263V15.155H56.5755C56.2035 15.155 55.9155 15.053 55.7115 14.849C55.5075 14.645 55.4055 14.363 55.4055 14.003C55.4055 13.631 55.5075 13.349 55.7115 13.157C55.9155 12.953 56.2035 12.851 56.5755 12.851H65.7375C66.1095 12.851 66.3975 12.953 66.6015 13.157C66.8055 13.349 66.9075 13.631 66.9075 14.003C66.9075 14.363 66.8055 14.645 66.6015 14.849C66.3975 15.053 66.1095 15.155 65.7375 15.155H62.5515V24.263C62.5515 24.719 62.4315 25.073 62.1915 25.325C61.9635 25.577 61.6215 25.703 61.1655 25.703Z"/>
</mask>
<path d="M21.3128 25.703C20.8928 25.703 20.5688 25.589 20.3408 25.361C20.1248 25.121 20.0168 24.785 20.0168 24.353V14.093C20.0168 13.637 20.1248 13.289 20.3408 13.049C20.5688 12.809 20.8688 12.689 21.2408 12.689C21.5648 12.689 21.8108 12.755 21.9788 12.887C22.1588 13.007 22.3628 13.211 22.5908 13.499L28.9088 21.545H28.4228V14.021C28.4228 13.601 28.5308 13.277 28.7468 13.049C28.9748 12.809 29.2988 12.689 29.7188 12.689C30.1388 12.689 30.4568 12.809 30.6728 13.049C30.9008 13.277 31.0148 13.601 31.0148 14.021V24.407C31.0148 24.803 30.9128 25.121 30.7088 25.361C30.5048 25.589 30.2288 25.703 29.8808 25.703C29.5448 25.703 29.2748 25.637 29.0708 25.505C28.8788 25.373 28.6688 25.163 28.4408 24.875L22.1408 16.829H22.6088V24.353C22.6088 24.785 22.5008 25.121 22.2848 25.361C22.0688 25.589 21.7448 25.703 21.3128 25.703ZM35.0275 25.541C34.5595 25.541 34.1995 25.415 33.9475 25.163C33.6955 24.911 33.5695 24.551 33.5695 24.083V14.309C33.5695 13.841 33.6955 13.481 33.9475 13.229C34.1995 12.977 34.5595 12.851 35.0275 12.851H41.3095C41.6695 12.851 41.9395 12.947 42.1195 13.139C42.3115 13.319 42.4075 13.583 42.4075 13.931C42.4075 14.291 42.3115 14.567 42.1195 14.759C41.9395 14.939 41.6695 15.029 41.3095 15.029H36.2335V17.999H40.8955C41.2675 17.999 41.5435 18.095 41.7235 18.287C41.9155 18.467 42.0115 18.737 42.0115 19.097C42.0115 19.457 41.9155 19.733 41.7235 19.925C41.5435 20.105 41.2675 20.195 40.8955 20.195H36.2335V23.363H41.3095C41.6695 23.363 41.9395 23.459 42.1195 23.651C42.3115 23.831 42.4075 24.095 42.4075 24.443C42.4075 24.803 42.3115 25.079 42.1195 25.271C41.9395 25.451 41.6695 25.541 41.3095 25.541H35.0275ZM45.2072 25.703C44.8472 25.703 44.5472 25.607 44.3072 25.415C44.0792 25.211 43.9472 24.965 43.9112 24.677C43.8752 24.377 43.9712 24.071 44.1992 23.759L48.1772 18.485V19.727L44.3612 14.651C44.1332 14.327 44.0312 14.021 44.0552 13.733C44.0912 13.433 44.2232 13.187 44.4512 12.995C44.6912 12.791 44.9852 12.689 45.3332 12.689C45.6332 12.689 45.8912 12.761 46.1072 12.905C46.3352 13.049 46.5632 13.277 46.7912 13.589L49.7612 17.693H48.8612L51.8132 13.589C52.0412 13.265 52.2692 13.037 52.4972 12.905C52.7252 12.761 52.9892 12.689 53.2892 12.689C53.6492 12.689 53.9432 12.785 54.1712 12.977C54.4112 13.169 54.5432 13.415 54.5672 13.715C54.6032 14.003 54.5012 14.315 54.2612 14.651L50.4272 19.727V18.485L54.3872 23.759C54.6272 24.071 54.7292 24.377 54.6932 24.677C54.6692 24.965 54.5372 25.211 54.2972 25.415C54.0692 25.607 53.7692 25.703 53.3972 25.703C53.1092 25.703 52.8512 25.631 52.6232 25.487C52.4072 25.343 52.1792 25.109 51.9392 24.785L48.8432 20.519H49.7612L46.6652 24.785C46.4372 25.109 46.2092 25.343 45.9812 25.487C45.7532 25.631 45.4952 25.703 45.2072 25.703ZM61.1655 25.703C60.7095 25.703 60.3615 25.577 60.1215 25.325C59.8815 25.073 59.7615 24.719 59.7615 24.263V15.155H56.5755C56.2035 15.155 55.9155 15.053 55.7115 14.849C55.5075 14.645 55.4055 14.363 55.4055 14.003C55.4055 13.631 55.5075 13.349 55.7115 13.157C55.9155 12.953 56.2035 12.851 56.5755 12.851H65.7375C66.1095 12.851 66.3975 12.953 66.6015 13.157C66.8055 13.349 66.9075 13.631 66.9075 14.003C66.9075 14.363 66.8055 14.645 66.6015 14.849C66.3975 15.053 66.1095 15.155 65.7375 15.155H62.5515V24.263C62.5515 24.719 62.4315 25.073 62.1915 25.325C61.9635 25.577 61.6215 25.703 61.1655 25.703Z" fill="white"/>
<path d="M20.3408 25.361L19.5975 26.03L19.6151 26.0495L19.6337 26.0681L20.3408 25.361ZM20.3408 13.049L19.6158 12.3603L19.6065 12.37L19.5975 12.3801L20.3408 13.049ZM21.9788 12.887L21.3609 13.6733L21.3916 13.6974L21.4241 13.7191L21.9788 12.887ZM22.5908 13.499L23.3773 12.8814L23.3748 12.8783L22.5908 13.499ZM28.9088 21.545V22.545H30.9655L29.6953 20.9274L28.9088 21.545ZM28.4228 21.545H27.4228V22.545H28.4228V21.545ZM28.7468 13.049L28.0218 12.3603L28.0208 12.3613L28.7468 13.049ZM30.6728 13.049L29.9295 13.718L29.9471 13.7375L29.9657 13.7561L30.6728 13.049ZM30.7088 25.361L31.454 26.0278L31.4625 26.0183L31.4707 26.0087L30.7088 25.361ZM29.0708 25.505L28.5042 26.3291L28.5158 26.337L28.5275 26.3446L29.0708 25.505ZM28.4408 24.875L27.6534 25.4915L27.6567 25.4957L28.4408 24.875ZM22.1408 16.829V15.829H20.0877L21.3534 17.4455L22.1408 16.829ZM22.6088 16.829H23.6088V15.829H22.6088V16.829ZM22.2848 25.361L23.0107 26.0488L23.0195 26.0395L23.0281 26.03L22.2848 25.361ZM21.3128 24.703C21.1915 24.703 21.1213 24.6864 21.0867 24.6742C21.0564 24.6636 21.0492 24.6553 21.0479 24.6539L19.6337 26.0681C20.101 26.5355 20.7111 26.703 21.3128 26.703V24.703ZM21.0841 24.6921C21.0824 24.6902 21.0168 24.6228 21.0168 24.353H19.0168C19.0168 24.9473 19.1671 25.5518 19.5975 26.03L21.0841 24.6921ZM21.0168 24.353V14.093H19.0168V24.353H21.0168ZM21.0168 14.093C21.0168 13.9414 21.035 13.8438 21.0528 13.7864C21.0615 13.7586 21.0696 13.7413 21.0749 13.7319C21.0799 13.7227 21.0832 13.7189 21.0841 13.718L19.5975 12.3801C19.159 12.8672 19.0168 13.4914 19.0168 14.093H21.0168ZM21.0658 13.7378C21.0807 13.722 21.1055 13.689 21.2408 13.689V11.689C20.632 11.689 20.0568 11.896 19.6158 12.3603L21.0658 13.7378ZM21.2408 13.689C21.3378 13.689 21.3899 13.6992 21.4091 13.7044C21.4263 13.709 21.4015 13.7052 21.3609 13.6733L22.5966 12.1007C22.1819 11.7749 21.6787 11.689 21.2408 11.689V13.689ZM21.4241 13.7191C21.4771 13.7544 21.605 13.865 21.8067 14.1197L23.3748 12.8783C23.1205 12.5571 22.8404 12.2596 22.5335 12.055L21.4241 13.7191ZM21.8043 14.1166L28.1223 22.1626L29.6953 20.9274L23.3773 12.8814L21.8043 14.1166ZM28.9088 20.545H28.4228V22.545H28.9088V20.545ZM29.4228 21.545V14.021H27.4228V21.545H29.4228ZM29.4228 14.021C29.4228 13.8947 29.4392 13.819 29.4525 13.7792C29.4589 13.76 29.4645 13.7492 29.4674 13.7442C29.4702 13.7395 29.4719 13.7376 29.4727 13.7368L28.0208 12.3613C27.5763 12.8305 27.4228 13.4335 27.4228 14.021H29.4228ZM29.4718 13.7378C29.4759 13.7334 29.4829 13.7261 29.5081 13.7168C29.5378 13.7057 29.6025 13.689 29.7188 13.689V11.689C29.1027 11.689 28.4863 11.8713 28.0218 12.3603L29.4718 13.7378ZM29.7188 13.689C29.8356 13.689 29.8961 13.7059 29.9192 13.7146C29.9302 13.7188 29.9337 13.7214 29.9327 13.7207C29.9323 13.7205 29.9317 13.72 29.9308 13.7192C29.9304 13.7189 29.9301 13.7186 29.9298 13.7183C29.9296 13.7181 29.9295 13.718 29.9295 13.718L31.4161 12.3801C30.9574 11.8704 30.3319 11.689 29.7188 11.689V13.689ZM29.9657 13.7561C29.967 13.7575 29.9753 13.7647 29.986 13.7949C29.9981 13.8295 30.0148 13.8997 30.0148 14.021H32.0148C32.0148 13.4194 31.8472 12.8093 31.3799 12.3419L29.9657 13.7561ZM30.0148 14.021V24.407H32.0148V14.021H30.0148ZM30.0148 24.407C30.0148 24.6286 29.9608 24.6969 29.9468 24.7134L31.4707 26.0087C31.8647 25.5451 32.0148 24.9775 32.0148 24.407H30.0148ZM29.9635 24.6942C29.96 24.6982 29.9595 24.698 29.962 24.6962C29.9631 24.6954 29.9643 24.6947 29.9654 24.6941C29.9666 24.6934 29.9672 24.6932 29.967 24.6933C29.967 24.6933 29.9616 24.6955 29.9486 24.6979C29.9352 24.7004 29.9132 24.703 29.8808 24.703V26.703C30.4699 26.703 31.0332 26.4981 31.454 26.0278L29.9635 24.6942ZM29.8808 24.703C29.6664 24.703 29.6053 24.6598 29.614 24.6654L28.5275 26.3446C28.9442 26.6142 29.4232 26.703 29.8808 26.703V24.703ZM29.6373 24.681C29.5608 24.6284 29.4222 24.5036 29.2248 24.2543L27.6567 25.4957C27.9153 25.8224 28.1968 26.1177 28.5042 26.3291L29.6373 24.681ZM29.2281 24.2585L22.9281 16.2125L21.3534 17.4455L27.6534 25.4915L29.2281 24.2585ZM22.1408 17.829H22.6088V15.829H22.1408V17.829ZM21.6088 16.829V24.353H23.6088V16.829H21.6088ZM21.6088 24.353C21.6088 24.6228 21.5431 24.6902 21.5415 24.6921L23.0281 26.03C23.4584 25.5518 23.6088 24.9473 23.6088 24.353H21.6088ZM21.5588 24.6733C21.57 24.6615 21.5744 24.6649 21.5479 24.6742C21.516 24.6854 21.4436 24.703 21.3128 24.703V26.703C21.9131 26.703 22.5435 26.5419 23.0107 26.0488L21.5588 24.6733ZM33.9475 25.163L34.6546 24.4559L33.9475 25.163ZM33.9475 13.229L34.6546 13.9361L34.6546 13.9361L33.9475 13.229ZM42.1195 13.139L41.39 13.823L41.412 13.8465L41.4356 13.8686L42.1195 13.139ZM42.1195 14.759L41.4124 14.0519L41.4124 14.0519L42.1195 14.759ZM36.2335 15.029V14.029H35.2335V15.029H36.2335ZM36.2335 17.999H35.2335V18.999H36.2335V17.999ZM41.7235 18.287L40.994 18.971L41.016 18.9945L41.0396 19.0166L41.7235 18.287ZM41.7235 19.925L42.4306 20.6321L42.4306 20.6321L41.7235 19.925ZM36.2335 20.195V19.195H35.2335V20.195H36.2335ZM36.2335 23.363H35.2335V24.363H36.2335V23.363ZM42.1195 23.651L41.39 24.335L41.412 24.3585L41.4356 24.3806L42.1195 23.651ZM42.1195 25.271L41.4124 24.5639V24.5639L42.1195 25.271ZM35.0275 24.541C34.7384 24.541 34.6658 24.4671 34.6546 24.4559L33.2404 25.8701C33.7332 26.3629 34.3806 26.541 35.0275 26.541V24.541ZM34.6546 24.4559C34.6434 24.4447 34.5695 24.3721 34.5695 24.083H32.5695C32.5695 24.73 32.7476 25.3773 33.2404 25.8701L34.6546 24.4559ZM34.5695 24.083V14.309H32.5695V24.083H34.5695ZM34.5695 14.309C34.5695 14.02 34.6434 13.9473 34.6546 13.9361L33.2404 12.5219C32.7476 13.0147 32.5695 13.6621 32.5695 14.309H34.5695ZM34.6546 13.9361C34.6658 13.9249 34.7384 13.851 35.0275 13.851V11.851C34.3806 11.851 33.7332 12.0291 33.2404 12.5219L34.6546 13.9361ZM35.0275 13.851H41.3095V11.851H35.0275V13.851ZM41.3095 13.851C41.4034 13.851 41.4431 13.8638 41.447 13.8652C41.4481 13.8656 41.4408 13.8631 41.4286 13.8553C41.4161 13.8473 41.4025 13.8363 41.39 13.823L42.849 12.4551C42.4184 11.9958 41.8408 11.851 41.3095 11.851V13.851ZM41.4356 13.8686C41.4243 13.858 41.4143 13.8459 41.4065 13.834C41.3989 13.8222 41.396 13.8145 41.3957 13.8138C41.3957 13.8136 41.4075 13.8468 41.4075 13.931H43.4075C43.4075 13.3999 43.2563 12.834 42.8034 12.4095L41.4356 13.8686ZM41.4075 13.931C41.4075 14.0241 41.3949 14.0684 41.391 14.0795C41.3893 14.0844 41.3896 14.0821 41.3938 14.0752C41.3982 14.068 41.4046 14.0597 41.4124 14.0519L42.8266 15.4661C43.2611 15.0316 43.4075 14.4668 43.4075 13.931H41.4075ZM41.4124 14.0519C41.427 14.0373 41.4414 14.0267 41.4531 14.0196C41.4645 14.0128 41.4698 14.0115 41.4658 14.0128C41.4556 14.0162 41.4092 14.029 41.3095 14.029V16.029C41.8236 16.029 42.3929 15.8998 42.8266 15.4661L41.4124 14.0519ZM41.3095 14.029H36.2335V16.029H41.3095V14.029ZM35.2335 15.029V17.999H37.2335V15.029H35.2335ZM36.2335 18.999H40.8955V16.999H36.2335V18.999ZM40.8955 18.999C40.9987 18.999 41.045 19.0127 41.053 19.0155C41.0559 19.0165 41.0491 19.0145 41.0365 19.0065C41.0235 18.9983 41.0085 18.9864 40.994 18.971L42.453 17.6031C42.0167 17.1377 41.4272 16.999 40.8955 16.999V18.999ZM41.0396 19.0166C41.0262 19.004 41.0152 18.9904 41.0072 18.9779C40.9994 18.9657 40.9969 18.9585 40.9973 18.9595C40.9987 18.9634 41.0115 19.0032 41.0115 19.097H43.0115C43.0115 18.5658 42.8668 17.9881 42.4074 17.5575L41.0396 19.0166ZM41.0115 19.097C41.0115 19.1901 40.9989 19.2344 40.995 19.2455C40.9933 19.2504 40.9936 19.2481 40.9978 19.2412C41.0022 19.234 41.0086 19.2257 41.0164 19.2179L42.4306 20.6321C42.8651 20.1976 43.0115 19.6328 43.0115 19.097H41.0115ZM41.0164 19.2179C41.0525 19.1818 41.0809 19.1737 41.0715 19.1768C41.0572 19.1814 41.0043 19.195 40.8955 19.195V21.195C41.4106 21.195 41.9915 21.0713 42.4306 20.6321L41.0164 19.2179ZM40.8955 19.195H36.2335V21.195H40.8955V19.195ZM35.2335 20.195V23.363H37.2335V20.195H35.2335ZM36.2335 24.363H41.3095V22.363H36.2335V24.363ZM41.3095 24.363C41.4034 24.363 41.4431 24.3758 41.447 24.3772C41.4481 24.3776 41.4408 24.3751 41.4286 24.3673C41.4161 24.3593 41.4025 24.3483 41.39 24.335L42.849 22.9671C42.4184 22.5078 41.8408 22.363 41.3095 22.363V24.363ZM41.4356 24.3806C41.4243 24.37 41.4143 24.3579 41.4065 24.346C41.3989 24.3342 41.396 24.3265 41.3957 24.3258C41.3957 24.3256 41.4075 24.3588 41.4075 24.443H43.4075C43.4075 23.9119 43.2563 23.346 42.8034 22.9215L41.4356 24.3806ZM41.4075 24.443C41.4075 24.5361 41.3949 24.5804 41.391 24.5915C41.3893 24.5964 41.3896 24.5941 41.3938 24.5872C41.3982 24.58 41.4046 24.5717 41.4124 24.5639L42.8266 25.9781C43.2611 25.5436 43.4075 24.9788 43.4075 24.443H41.4075ZM41.4124 24.5639C41.427 24.5493 41.4414 24.5387 41.4531 24.5316C41.4645 24.5248 41.4698 24.5235 41.4658 24.5248C41.4556 24.5282 41.4092 24.541 41.3095 24.541V26.541C41.8237 26.541 42.3929 26.4118 42.8266 25.9781L41.4124 24.5639ZM41.3095 24.541H35.0275V26.541H41.3095V24.541ZM44.3072 25.415L43.6404 26.1603L43.661 26.1787L43.6825 26.1959L44.3072 25.415ZM43.9112 24.677L42.9183 24.7962L42.9189 24.8011L43.9112 24.677ZM44.1992 23.759L43.4008 23.1568L43.3963 23.1629L43.3918 23.169L44.1992 23.759ZM48.1772 18.485H49.1772V15.4986L47.3788 17.8828L48.1772 18.485ZM48.1772 19.727L47.3779 20.3279L49.1772 22.7214V19.727H48.1772ZM44.3612 14.651L43.5434 15.2265L43.5524 15.2394L43.5619 15.2519L44.3612 14.651ZM44.0552 13.733L43.0623 13.6139L43.0602 13.6319L43.0587 13.65L44.0552 13.733ZM44.4512 12.995L45.0953 13.7599L45.0989 13.757L44.4512 12.995ZM46.1072 12.905L45.5525 13.7371L45.5628 13.7439L45.5732 13.7505L46.1072 12.905ZM46.7912 13.589L47.6013 13.0027L47.5986 12.999L46.7912 13.589ZM49.7612 17.693V18.693H51.7193L50.5713 17.1067L49.7612 17.693ZM48.8612 17.693L48.0494 17.1091L46.9101 18.693H48.8612V17.693ZM51.8132 13.589L52.6251 14.173L52.631 14.1645L51.8132 13.589ZM52.4972 12.905L52.9982 13.7704L53.0149 13.7608L53.0312 13.7505L52.4972 12.905ZM54.1712 12.977L53.5271 13.7419L53.5367 13.75L53.5465 13.7579L54.1712 12.977ZM54.5672 13.715L53.5704 13.7948L53.5722 13.817L53.5749 13.839L54.5672 13.715ZM54.2612 14.651L55.0592 15.2537L55.0672 15.2431L55.0749 15.2323L54.2612 14.651ZM50.4272 19.727H49.4272V22.7101L51.2252 20.3297L50.4272 19.727ZM50.4272 18.485L51.2269 17.8846L49.4272 15.4877V18.485H50.4272ZM54.3872 23.759L53.5875 24.3595L53.5946 24.3687L54.3872 23.759ZM54.6932 24.677L53.7003 24.5579L53.6982 24.5759L53.6967 24.594L54.6932 24.677ZM54.2972 25.415L54.9413 26.1799L54.9449 26.177L54.2972 25.415ZM52.6232 25.487L52.0685 26.3191L52.0788 26.3259L52.0892 26.3325L52.6232 25.487ZM51.9392 24.785L51.1298 25.3724L51.1357 25.3802L51.9392 24.785ZM48.8432 20.519V19.519H46.8819L48.0339 21.1064L48.8432 20.519ZM49.7612 20.519L50.5705 21.1064L51.7225 19.519H49.7612V20.519ZM46.6652 24.785L45.8559 24.1977L45.8516 24.2036L45.8474 24.2095L46.6652 24.785ZM45.2072 24.703C45.0336 24.703 44.9653 24.6608 44.9319 24.6341L43.6825 26.1959C44.1291 26.5532 44.6608 26.703 45.2072 26.703V24.703ZM44.974 24.6698C44.9153 24.6173 44.9078 24.5877 44.9035 24.553L42.9189 24.8011C42.9866 25.3424 43.2431 25.8048 43.6404 26.1603L44.974 24.6698ZM44.9041 24.5579C44.904 24.5571 44.9021 24.5481 44.9104 24.5219C44.9197 24.492 44.9443 24.4343 45.0066 24.349L43.3918 23.169C43.0577 23.6263 42.8444 24.1805 42.9183 24.7962L44.9041 24.5579ZM44.9976 24.3612L48.9756 19.0872L47.3788 17.8828L43.4008 23.1568L44.9976 24.3612ZM47.1772 18.485V19.727H49.1772V18.485H47.1772ZM48.9765 19.1261L45.1605 14.0501L43.5619 15.2519L47.3779 20.3279L48.9765 19.1261ZM45.179 14.0755C45.0361 13.8724 45.0534 13.7965 45.0518 13.8161L43.0587 13.65C43.009 14.2455 43.2303 14.7816 43.5434 15.2265L45.179 14.0755ZM45.0481 13.8522C45.0525 13.8157 45.06 13.8007 45.0624 13.7963C45.0646 13.7922 45.0715 13.78 45.0953 13.7599L43.8071 12.2301C43.3823 12.5878 43.1281 13.066 43.0623 13.6139L45.0481 13.8522ZM45.0989 13.757C45.1387 13.7231 45.1959 13.689 45.3332 13.689V11.689C44.7746 11.689 44.2437 11.859 43.8036 12.2331L45.0989 13.757ZM45.3332 13.689C45.4673 13.689 45.5252 13.7189 45.5525 13.7371L46.6619 12.073C46.2572 11.8032 45.7991 11.689 45.3332 11.689V13.689ZM45.5732 13.7505C45.6594 13.8049 45.8005 13.9282 45.9838 14.179L47.5986 12.999C47.3259 12.6258 47.011 12.2931 46.6412 12.0595L45.5732 13.7505ZM45.9811 14.1753L48.9511 18.2793L50.5713 17.1067L47.6013 13.0027L45.9811 14.1753ZM49.7612 16.693H48.8612V18.693H49.7612V16.693ZM49.673 18.2769L52.625 14.1729L51.0014 13.0051L48.0494 17.1091L49.673 18.2769ZM52.631 14.1645C52.8139 13.9047 52.9425 13.8027 52.9982 13.7704L51.9962 12.0396C51.5959 12.2713 51.2685 12.6254 50.9954 13.0135L52.631 14.1645ZM53.0312 13.7505C53.0818 13.7186 53.1563 13.689 53.2892 13.689V11.689C52.8221 11.689 52.3686 11.8035 51.9632 12.0595L53.0312 13.7505ZM53.2892 13.689C53.4645 13.689 53.5149 13.7317 53.5271 13.7419L54.8153 12.2121C54.3715 11.8384 53.8339 11.689 53.2892 11.689V13.689ZM53.5465 13.7579C53.56 13.7686 53.5665 13.7758 53.5688 13.7785C53.5709 13.781 53.5704 13.7808 53.569 13.7783C53.5677 13.7758 53.5672 13.7742 53.5674 13.7749C53.5677 13.7758 53.5694 13.7818 53.5704 13.7948L55.564 13.6353C55.5175 13.0537 55.2462 12.5564 54.7959 12.1961L53.5465 13.7579ZM53.5749 13.839C53.5688 13.7897 53.603 13.852 53.4475 14.0698L55.0749 15.2323C55.3994 14.778 55.6376 14.2163 55.5595 13.591L53.5749 13.839ZM53.4632 14.0483L49.6292 19.1243L51.2252 20.3297L55.0592 15.2537L53.4632 14.0483ZM51.4272 19.727V18.485H49.4272V19.727H51.4272ZM49.6275 19.0855L53.5875 24.3595L55.1869 23.1586L51.2269 17.8846L49.6275 19.0855ZM53.5946 24.3687C53.661 24.4551 53.6861 24.512 53.695 24.5387C53.7025 24.5613 53.6996 24.5642 53.7003 24.5579L55.6861 24.7962C55.7619 24.1648 55.5292 23.6035 55.1798 23.1493L53.5946 24.3687ZM53.6967 24.594C53.6963 24.598 53.6959 24.6007 53.6956 24.6023C53.6953 24.6039 53.6951 24.6046 53.6951 24.6047C53.695 24.6048 53.6951 24.6047 53.6952 24.6045C53.6953 24.6042 53.6953 24.6043 53.695 24.6047C53.6947 24.6053 53.6925 24.6094 53.6862 24.617C53.6798 24.6247 53.6684 24.637 53.6496 24.6531L54.9449 26.177C55.3664 25.8186 55.6417 25.3366 55.6898 24.7601L53.6967 24.594ZM53.6531 24.6501C53.6466 24.6555 53.5938 24.703 53.3972 24.703V26.703C53.9447 26.703 54.4918 26.5585 54.9413 26.1799L53.6531 24.6501ZM53.3972 24.703C53.2848 24.703 53.2144 24.6777 53.1572 24.6415L52.0892 26.3325C52.488 26.5844 52.9336 26.703 53.3972 26.703V24.703ZM53.1779 24.655C53.0958 24.6002 52.9478 24.4666 52.7428 24.1898L51.1357 25.3802C51.4106 25.7514 51.7186 26.0858 52.0685 26.3191L53.1779 24.655ZM52.7485 24.1977L49.6525 19.9317L48.0339 21.1064L51.1299 25.3724L52.7485 24.1977ZM48.8432 21.519H49.7612V19.519H48.8432V21.519ZM48.9519 19.9317L45.8559 24.1977L47.4745 25.3724L50.5705 21.1064L48.9519 19.9317ZM45.8474 24.2095C45.6628 24.4719 45.5243 24.5929 45.4472 24.6415L46.5152 26.3325C46.8941 26.0932 47.2116 25.7462 47.483 25.3605L45.8474 24.2095ZM45.4472 24.6415C45.39 24.6777 45.3196 24.703 45.2072 24.703V26.703C45.6708 26.703 46.1164 26.5844 46.5152 26.3325L45.4472 24.6415ZM60.1215 25.325L59.3973 26.0147V26.0147L60.1215 25.325ZM59.7615 15.155H60.7615V14.155H59.7615V15.155ZM55.7115 14.849L56.4186 14.1419V14.1419L55.7115 14.849ZM55.7115 13.157L56.3968 13.8852L56.4079 13.8748L56.4186 13.8641L55.7115 13.157ZM66.6015 13.157L65.8944 13.8641L65.9051 13.8748L65.9161 13.8852L66.6015 13.157ZM66.6015 14.849L65.8944 14.1419L65.8944 14.1419L66.6015 14.849ZM62.5515 15.155V14.155H61.5515V15.155H62.5515ZM62.1915 25.325L61.4673 24.6354L61.4585 24.6446L61.4499 24.6541L62.1915 25.325ZM61.1655 24.703C61.0276 24.703 60.9458 24.6838 60.9029 24.6683C60.865 24.6545 60.8521 24.6422 60.8456 24.6354L59.3973 26.0147C59.8797 26.5212 60.5248 26.703 61.1655 26.703V24.703ZM60.8456 24.6354C60.8323 24.6214 60.7615 24.5445 60.7615 24.263H58.7615C58.7615 24.8936 58.9307 25.5247 59.3973 26.0147L60.8456 24.6354ZM60.7615 24.263V15.155H58.7615V24.263H60.7615ZM59.7615 14.155H56.5755V16.155H59.7615V14.155ZM56.5755 14.155C56.4793 14.155 56.4307 14.1417 56.4143 14.1359C56.4023 14.1316 56.4091 14.1324 56.4186 14.1419L55.0044 15.5561C55.4459 15.9977 56.0185 16.155 56.5755 16.155V14.155ZM56.4186 14.1419C56.4244 14.1478 56.4255 14.153 56.4223 14.1444C56.4178 14.1318 56.4055 14.0896 56.4055 14.003H54.4055C54.4055 14.5588 54.5688 15.1206 55.0044 15.5561L56.4186 14.1419ZM56.4055 14.003C56.4055 13.9062 56.419 13.8619 56.4223 13.8527C56.4238 13.8487 56.4229 13.8522 56.4177 13.8603C56.4124 13.8685 56.4052 13.8774 56.3968 13.8852L55.0261 12.4288C54.5616 12.866 54.4055 13.4497 54.4055 14.003H56.4055ZM56.4186 13.8641C56.4091 13.8736 56.4023 13.8744 56.4143 13.8701C56.4307 13.8644 56.4793 13.851 56.5755 13.851V11.851C56.0185 11.851 55.4459 12.0084 55.0044 12.4499L56.4186 13.8641ZM56.5755 13.851H65.7375V11.851H56.5755V13.851ZM65.7375 13.851C65.8337 13.851 65.8823 13.8644 65.8986 13.8701C65.9107 13.8744 65.9039 13.8736 65.8944 13.8641L67.3086 12.4499C66.8671 12.0084 66.2945 11.851 65.7375 11.851V13.851ZM65.9161 13.8852C65.9078 13.8774 65.9005 13.8685 65.8952 13.8603C65.89 13.8522 65.8892 13.8487 65.8906 13.8527C65.894 13.8619 65.9075 13.9062 65.9075 14.003H67.9075C67.9075 13.4497 67.7514 12.866 67.2868 12.4288L65.9161 13.8852ZM65.9075 14.003C65.9075 14.0896 65.8951 14.1318 65.8906 14.1444C65.8875 14.153 65.8885 14.1478 65.8944 14.1419L67.3086 15.5561C67.7441 15.1206 67.9075 14.5588 67.9075 14.003H65.9075ZM65.8944 14.1419C65.9039 14.1324 65.9107 14.1316 65.8986 14.1359C65.8823 14.1417 65.8337 14.155 65.7375 14.155V16.155C66.2945 16.155 66.8671 15.9977 67.3086 15.5561L65.8944 14.1419ZM65.7375 14.155H62.5515V16.155H65.7375V14.155ZM61.5515 15.155V24.263H63.5515V15.155H61.5515ZM61.5515 24.263C61.5515 24.5445 61.4807 24.6214 61.4673 24.6354L62.9156 26.0147C63.3823 25.5247 63.5515 24.8936 63.5515 24.263H61.5515ZM61.4499 24.6541C61.4492 24.6549 61.4486 24.6555 61.4464 24.657C61.444 24.6586 61.4357 24.6637 61.4183 24.6702C61.3818 24.6836 61.3039 24.703 61.1655 24.703V26.703C61.8029 26.703 62.4568 26.5223 62.933 25.9959L61.4499 24.6541Z" fill="black" mask="url(#path-4-outside-1_315_4998)"/>
</g>
<path d="M95.6216 3.94583C95.6216 5.00821 97.6476 5.81228 98.4509 5.81228C99.2541 5.81228 99.9053 5.7653 99.9053 4.70292C99.9053 3.64053 99.2541 2.7793 98.4509 2.7793C97.6476 2.7793 95.6216 2.88344 95.6216 3.94583Z" fill="white" fill-opacity="0.51"/>
<g filter="url(#filter2_d_315_4998)">
<path d="M80.5348 16.8088H88.3802L86.2215 14.8594C85.7322 14.4187 85.4618 13.8307 85.4618 13.206C85.4618 12.5813 85.7322 11.9933 86.2215 11.5523C87.2314 10.6401 88.8762 10.6401 89.8867 11.5523L96.4677 17.4937C96.958 17.934 97.228 18.5215 97.228 19.1481V19.2021C97.228 19.827 96.9596 20.4136 96.4718 20.8538L89.8875 26.7974C89.3983 27.2406 88.7471 27.4852 88.0533 27.4852C87.3605 27.4852 86.7089 27.2406 86.2235 26.8013C85.733 26.3593 85.4616 25.7716 85.4616 25.1458C85.4616 24.5211 85.7312 23.9342 86.2213 23.4908L88.3784 21.5426H80.5346C79.1107 21.5426 77.9523 20.4809 77.9523 19.1752C77.9525 17.8706 79.1109 16.8088 80.5348 16.8088Z" fill="white"/>
<path d="M85.8864 11.1812C87.0867 10.0971 89.021 10.0972 90.2217 11.1811L90.2218 11.1811L96.8018 17.1217C96.802 17.1218 96.8021 17.1219 96.8023 17.1221C97.3917 17.6516 97.728 18.3717 97.728 19.1481V19.2021C97.728 19.9764 97.3937 20.6954 96.8069 21.2249C96.8069 21.2249 96.8068 21.2249 96.8068 21.225L90.2232 27.168C90.2231 27.1681 90.223 27.1681 90.2229 27.1682C89.6371 27.6989 88.8645 27.9852 88.0533 27.9852C87.2439 27.9852 86.4711 27.6994 85.8887 27.1728C85.3002 26.6423 84.9616 25.9225 84.9616 25.1458C84.9616 24.3707 85.2979 23.6519 85.8859 23.12L85.8862 23.1198L87.0789 22.0426H80.5346C78.8764 22.0426 77.4523 20.7971 77.4523 19.1752V19.1751C77.4526 17.5543 78.8767 16.3088 80.5348 16.3088H87.0805L85.8869 15.231C85.8868 15.2308 85.8867 15.2307 85.8866 15.2306C85.2987 14.7011 84.9618 13.9808 84.9618 13.206C84.9618 12.4312 85.2987 11.711 85.8864 11.1812L85.8864 11.1812Z" stroke="black"/>
</g>
<defs>
<filter id="filter0_i_315_4998" x="-7" y="-4" width="121.236" height="42.8223" filterUnits="userSpaceOnUse" color-interpolation-filters="sRGB">
<feFlood flood-opacity="0" result="BackgroundImageFix"/>
<feBlend mode="normal" in="SourceGraphic" in2="BackgroundImageFix" result="shape"/>
<feColorMatrix in="SourceAlpha" type="matrix" values="0 0 0 0 0 0 0 0 0 0 0 0 0 0 0 0 0 0 127 0" result="hardAlpha"/>
<feOffset dx="-7" dy="-4"/>
<feGaussianBlur stdDeviation="3.5"/>
<feComposite in2="hardAlpha" operator="arithmetic" k2="-1" k3="1"/>
<feColorMatrix type="matrix" values="0 0 0 0 0 0 0 0 0 0 0 0 0 0 0 0 0 0 0.15 0"/>
<feBlend mode="normal" in2="shape" result="effect1_innerShadow_315_4998"/>
</filter>
<filter id="filter1_d_315_4998" x="20.0166" y="12.189" width="50.3911" height="16.0142" filterUnits="userSpaceOnUse" color-interpolation-filters="sRGB">
<feFlood flood-opacity="0" result="BackgroundImageFix"/>
<feColorMatrix in="SourceAlpha" type="matrix" values="0 0 0 0 0 0 0 0 0 0 0 0 0 0 0 0 0 0 127 0" result="hardAlpha"/>
<feOffset dx="2" dy="1"/>
<feGaussianBlur stdDeviation="0.75"/>
<feComposite in2="hardAlpha" operator="out"/>
<feColorMatrix type="matrix" values="0 0 0 0 0 0 0 0 0 0 0 0 0 0 0 0 0 0 0.12 0"/>
<feBlend mode="normal" in2="BackgroundImageFix" result="effect1_dropShadow_315_4998"/>
<feBlend mode="normal" in="SourceGraphic" in2="effect1_dropShadow_315_4998" result="shape"/>
</filter>
<filter id="filter2_d_315_4998" x="76.9521" y="9.86816" width="22.2759" height="19.6172" filterUnits="userSpaceOnUse" color-interpolation-filters="sRGB">
<feFlood flood-opacity="0" result="BackgroundImageFix"/>
<feColorMatrix in="SourceAlpha" type="matrix" values="0 0 0 0 0 0 0 0 0 0 0 0 0 0 0 0 0 0 127 0" result="hardAlpha"/>
<feOffset dx="1" dy="1"/>
<feComposite in2="hardAlpha" operator="out"/>
<feColorMatrix type="matrix" values="0 0 0 0 0 0 0 0 0 0 0 0 0 0 0 0 0 0 0.2 0"/>
<feBlend mode="normal" in2="BackgroundImageFix" result="effect1_dropShadow_315_4998"/>
<feBlend mode="normal" in="SourceGraphic" in2="effect1_dropShadow_315_4998" result="shape"/>
</filter>
<linearGradient id="paint0_linear_315_4998" x1="57.1182" y1="0" x2="57.1182" y2="38.8221" gradientUnits="userSpaceOnUse">
<stop stop-color="#77F56C"/>
<stop offset="0.315" stop-color="#68F824"/>
<stop offset="1" stop-color="#429601"/>
</linearGradient>
</defs>
</svg>
