<svg width="146" height="143" viewBox="0 0 146 143" fill="none" xmlns="http://www.w3.org/2000/svg">
<mask id="mask0_601_666" style="mask-type:luminance" maskUnits="userSpaceOnUse" x="0" y="0" width="146" height="143">
<path d="M127.346 0L18.5624 0C8.62125 0 0.562378 8.0589 0.562378 18V124.532C0.562378 134.473 8.62124 142.532 18.5624 142.532H127.346C137.288 142.532 145.346 134.473 145.346 124.532V18C145.346 8.05888 137.288 0 127.346 0Z" fill="white"/>
</mask>
<g mask="url(#mask0_601_666)">
<path fill-rule="evenodd" clip-rule="evenodd" d="M-1.85559 55.5373L44.2735 66.654C46.4196 67.1712 48.6629 67.3397 50.761 66.6531C52.9214 65.946 55.6596 64.6622 57.322 62.4262C58.7991 60.4395 60.4393 59.2523 61.7433 58.5554C63.2375 57.7567 64.8048 56.9807 66.0033 55.783L66.8948 54.9932C67.7069 54.2737 68.5878 53.6357 69.5248 53.0886C70.798 52.3451 72.1622 51.7781 73.5801 51.3741C76.6576 50.4972 82.1044 48.8589 83.3417 47.9158C84.2472 47.2257 85.3795 46.2825 86.2608 45.5335C87.2128 44.7244 87.9954 43.7009 89.0465 43.0256C89.5448 42.7056 90.1216 42.5023 90.6724 42.6975C92.4026 43.3107 92.5173 45.5988 92.0412 47.3715C91.7 48.6421 91.1365 50.0682 90.2213 50.9692C88.8334 52.3354 83.9883 55.5956 81.2341 57.4106C80.5598 57.855 80.7941 58.9036 81.5933 59.0188L90.503 59.1853H101.104L109.165 59.4609C109.205 59.4622 109.239 59.4633 109.279 59.4645C110.071 59.4876 119.36 59.7738 120.277 60.5177C120.913 61.0328 121.177 61.7921 121.282 62.2454C121.34 62.4925 121.288 62.747 121.173 62.9732L121.052 63.2123C120.631 64.04 121.262 65.013 122.189 64.9673C122.305 64.9616 122.419 64.9719 122.531 65.0024C123.351 65.2253 126.899 66.2926 126.65 68.012C126.367 69.955 125.014 70.51 124.845 70.5656C123.486 71.0122 123.412 72.7526 123.419 74.1827C123.42 74.3375 123.39 74.4844 123.322 74.6184C122.815 75.6171 120.574 76.3014 120.129 76.4289C120.077 76.4438 120.025 76.4564 119.972 76.4682L114.716 77.6463C114.005 77.8055 113.734 78.6747 114.228 79.2096C114.238 79.2206 114.248 79.2308 114.259 79.2418C114.369 79.3606 115.031 80.1388 114.356 81.0579C113.742 81.8947 101.461 84.9899 97.4852 85.9739C96.6626 86.1775 95.8314 86.3176 94.988 86.3997L40.9915 91.6612L13.6983 92.7159L6.81842 93.0489L-0.00496089 93.3821" fill="#FFBB85"/>
</g>
<mask id="mask1_601_666" style="mask-type:luminance" maskUnits="userSpaceOnUse" x="0" y="0" width="146" height="143">
<path d="M127.346 0L18.5624 0C8.62125 0 0.562378 8.0589 0.562378 18V124.532C0.562378 134.473 8.62124 142.532 18.5624 142.532H127.346C137.288 142.532 145.346 134.473 145.346 124.532V18C145.346 8.05888 137.288 0 127.346 0Z" fill="white"/>
</mask>
<g mask="url(#mask1_601_666)">
<path d="M70.9469 52.0597C70.8152 52.1289 71.543 53.3115 71.6885 53.2803C72.141 53.1834 72.6334 53.0928 73.1691 53.011C77.8778 52.2917 85.6562 50.4308 89.7413 45.905C91.0164 44.4922 89.8424 42.8401 88.3891 44.0688C88.3386 44.1115 88.3584 44.0926 88.3058 44.1327L85.644 46.1618C84.1202 47.3234 82.4207 48.2343 80.6096 48.8601L77.1309 50.062L70.9562 52.0567C70.95 52.0587 70.9526 52.0567 70.9469 52.0597Z" fill="#FFDAB0"/>
</g>
<mask id="mask2_601_666" style="mask-type:luminance" maskUnits="userSpaceOnUse" x="0" y="0" width="146" height="143">
<path d="M127.346 0L18.5624 0C8.62125 0 0.562378 8.0589 0.562378 18V124.532C0.562378 134.473 8.62124 142.532 18.5624 142.532H127.346C137.288 142.532 145.346 134.473 145.346 124.532V18C145.346 8.05888 137.288 0 127.346 0Z" fill="white"/>
</mask>
<g mask="url(#mask2_601_666)">
<path d="M-1.33213 59.4795C-1.33213 59.4795 40.99 69.5625 44.7584 69.9431C47.0565 70.1751 49.4625 69.735 51.757 68.4286C52.8783 67.7902 51.7915 66.6507 50.5757 67.0826C50.3946 67.1469 50.4566 67.0755 50.2663 67.0484L41.1831 65.7578L-3.55457 54.7235" fill="#FFDAB0"/>
</g>
<mask id="mask3_601_666" style="mask-type:luminance" maskUnits="userSpaceOnUse" x="0" y="0" width="146" height="143">
<path d="M127.346 0L18.5624 0C8.62125 0 0.562378 8.0589 0.562378 18V124.532C0.562378 134.473 8.62124 142.532 18.5624 142.532H127.346C137.288 142.532 145.346 134.473 145.346 124.532V18C145.346 8.05888 137.288 0 127.346 0Z" fill="white"/>
</mask>
<g mask="url(#mask3_601_666)">
<path fill-rule="evenodd" clip-rule="evenodd" d="M73.6346 59.3059C73.6995 59.2768 73.884 59.1924 74.1631 59.0624C76.0134 58.2016 82.022 55.3358 84.9023 53.2092C87.3494 51.4025 89.9694 48.2591 91.2202 45.9072C91.8964 44.6356 89.8308 42.0585 91.0348 42.8489C92.0292 43.5017 93.2723 45.4595 92.3607 46.7648C91.4492 48.0701 92.0292 50.1094 87.8029 53.128C85.2633 54.9419 82.6989 56.5825 81.0566 57.6031C79.8836 58.332 78.6084 58.8739 77.2786 59.2463" fill="#FF9759"/>
</g>
<mask id="mask4_601_666" style="mask-type:luminance" maskUnits="userSpaceOnUse" x="0" y="0" width="146" height="143">
<path d="M127.346 0L18.5624 0C8.62125 0 0.562378 8.0589 0.562378 18V124.532C0.562378 134.473 8.62124 142.532 18.5624 142.532H127.346C137.288 142.532 145.346 134.473 145.346 124.532V18C145.346 8.05888 137.288 0 127.346 0Z" fill="white"/>
</mask>
<g mask="url(#mask4_601_666)">
<path fill-rule="evenodd" clip-rule="evenodd" d="M-5.13293 81.9353C-5.13293 81.9353 30.1944 86.3061 35.9857 85.5462C36.7789 85.442 37.5068 85.1704 38.189 84.7693C46.5498 79.8531 49.4117 83.0016 42.3907 89.6933C40.1215 91.8561 39.3022 91.1706 36.1798 91.4494C29.2632 92.0672 15.4424 93.1328 -1.27183 93.5277" fill="#FF9759"/>
</g>
<mask id="mask5_601_666" style="mask-type:luminance" maskUnits="userSpaceOnUse" x="0" y="0" width="146" height="143">
<path d="M127.346 0L18.5624 0C8.62125 0 0.562378 8.0589 0.562378 18V124.532C0.562378 134.473 8.62124 142.532 18.5624 142.532H127.346C137.288 142.532 145.346 134.473 145.346 124.532V18C145.346 8.05888 137.288 0 127.346 0Z" fill="white"/>
</mask>
<g mask="url(#mask5_601_666)">
<path fill-rule="evenodd" clip-rule="evenodd" d="M107.047 64.2715C107.305 64.0489 107.632 63.9312 107.972 63.941C109.96 63.9982 117.003 64.1792 118.705 63.9253C119.155 63.858 119.547 63.7389 119.884 63.5948C120.159 63.4773 120.939 64.0327 120.841 64.3149C120.822 64.3695 120.784 64.416 120.735 64.4464L119.817 65.0157C119.401 65.2732 118.934 65.4353 118.448 65.4903L109.524 66.5022C108.325 66.6382 107.112 66.4312 106.025 65.9053C105.761 65.7826 105.711 65.4274 105.932 65.2365L107.047 64.2715Z" fill="#FF9759"/>
</g>
<mask id="mask6_601_666" style="mask-type:luminance" maskUnits="userSpaceOnUse" x="0" y="0" width="146" height="143">
<path d="M127.346 0L18.5624 0C8.62125 0 0.562378 8.0589 0.562378 18V124.532C0.562378 134.473 8.62124 142.532 18.5624 142.532H127.346C137.288 142.532 145.346 134.473 145.346 124.532V18C145.346 8.05888 137.288 0 127.346 0Z" fill="white"/>
</mask>
<g mask="url(#mask6_601_666)">
<path fill-rule="evenodd" clip-rule="evenodd" d="M107.113 70.8684C107.254 70.7458 107.42 70.67 107.606 70.6559C109.336 70.5248 118.483 69.9949 121.354 69.6146C123.26 69.362 124.541 69.0654 125.279 68.591C125.849 68.2245 126.827 68.1639 126.725 68.8336C126.697 69.0162 126.638 68.969 126.5 69.0919L125.615 69.8806C125.109 70.3319 124.513 70.6708 123.866 70.8748L122.05 71.4476C121.667 71.5682 121.272 71.6455 120.873 71.6779L107.899 72.7308C106.876 72.8138 106.34 71.5432 107.113 70.8684Z" fill="#FF9759"/>
</g>
<mask id="mask7_601_666" style="mask-type:luminance" maskUnits="userSpaceOnUse" x="0" y="0" width="146" height="143">
<path d="M127.346 0L18.5624 0C8.62125 0 0.562378 8.0589 0.562378 18V124.532C0.562378 134.473 8.62124 142.532 18.5624 142.532H127.346C137.288 142.532 145.346 134.473 145.346 124.532V18C145.346 8.05888 137.288 0 127.346 0Z" fill="white"/>
</mask>
<g mask="url(#mask7_601_666)">
<path fill-rule="evenodd" clip-rule="evenodd" d="M104.377 73.3477C103.779 74.6933 104.749 76.2069 106.222 76.2049C109.495 76.2006 114.57 76.14 117.499 75.8365C119.233 75.6569 120.387 75.4688 121.172 75.2464C121.482 75.1586 122.403 75.8376 122.134 76.0144C121.975 76.1188 114.586 77.6928 112.819 78.068C112.566 78.1217 112.314 78.1633 112.058 78.1941L106.182 78.8994C105.516 78.9794 104.998 79.5159 104.941 80.184L104.938 80.2235C104.925 80.3789 104.882 80.5304 104.811 80.6694C104.427 81.4257 104.92 82.3149 105.768 82.335C107.117 82.367 109.061 82.3214 110.93 81.9491C111.787 81.7784 112.242 82.5909 111.421 82.8883C111.389 82.8999 111.403 82.8924 111.37 82.8998L101.109 85.1825C100.881 85.2333 100.647 85.2547 100.413 85.2462C99.6052 85.2167 98.8518 84.8332 98.353 84.1976L97.3998 82.9832C97.1955 82.723 97.0129 82.4466 96.8536 82.1566L96.6837 81.8471C96.1571 80.8881 95.4823 80.0183 94.6842 79.2699L94.6249 79.2143" fill="#FF9759"/>
</g>
<mask id="mask8_601_666" style="mask-type:luminance" maskUnits="userSpaceOnUse" x="0" y="0" width="146" height="143">
<path d="M127.346 0L18.5624 0C8.62125 0 0.562378 8.0589 0.562378 18V124.532C0.562378 134.473 8.62124 142.532 18.5624 142.532H127.346C137.288 142.532 145.346 134.473 145.346 124.532V18C145.346 8.05888 137.288 0 127.346 0Z" fill="white"/>
</mask>
<g mask="url(#mask8_601_666)">
<path opacity="0.28" fill-rule="evenodd" clip-rule="evenodd" d="M66.4619 55.5186C66.4619 55.5186 70.0572 56.8646 69.1694 62.7885C68.9535 64.2293 70.2967 65.5777 71.6748 65.1052L79.1619 62.5383C80.2655 62.1599 80.9686 63.6999 79.9598 64.286L65.065 70.9014C65.0222 70.9204 64.9781 70.9362 64.933 70.9485C64.0994 71.1765 63.4336 70.2423 63.921 69.5287L65.2095 67.6423" fill="#FF9759"/>
</g>
<mask id="mask9_601_666" style="mask-type:luminance" maskUnits="userSpaceOnUse" x="0" y="0" width="146" height="143">
<path d="M127.346 0L18.5624 0C8.62125 0 0.562378 8.0589 0.562378 18V124.532C0.562378 134.473 8.62124 142.532 18.5624 142.532H127.346C137.288 142.532 145.346 134.473 145.346 124.532V18C145.346 8.05888 137.288 0 127.346 0Z" fill="white"/>
</mask>
<g mask="url(#mask9_601_666)">
<path fill-rule="evenodd" clip-rule="evenodd" d="M-2.21862 118.893L30.2763 102.277C30.5088 102.158 30.7403 102.046 30.9748 101.931C32.374 101.246 37.5711 98.5424 39.1792 95.4393L40.589 93.0918C41.5151 91.5497 42.1981 89.8773 42.7127 88.1537C43.9088 84.148 46.5247 76.5144 50.1367 72.3385C53.2653 68.7216 55.1081 66.0072 56.0573 64.4657C56.6405 63.5185 57.2196 62.5662 57.883 61.6734L58.3836 60.9997C59.7096 59.2154 60.5046 57.0886 61.6908 55.2085C62.1785 54.4353 62.775 53.8775 63.4299 54.0907C64.1401 54.322 64.7195 54.6632 65.1553 54.9843C65.8493 55.4958 66.3368 56.2301 66.6388 57.0376C67.1567 58.423 67.7134 60.81 66.5776 62.9885C65.7666 64.5439 64.9897 66.4577 64.3927 68.0532C63.9478 69.2425 65.177 70.3091 66.3119 69.7396C66.3848 69.703 66.4577 69.6736 66.5357 69.6496C67.5706 69.3316 75.3866 66.9009 79.5931 64.7593C83.2092 62.9183 87.2277 60.4334 88.6796 59.5201C89.0562 59.2831 89.4347 59.0587 89.8296 58.8537C91.7834 57.8396 98.0208 54.7384 99.652 55.6004C101.657 56.6602 101.654 58.3924 101.63 58.7538C101.627 58.7993 101.614 58.8419 101.593 58.8828C101.42 59.2327 101.777 59.609 102.136 59.4527L104.674 58.3455C104.894 58.2495 105.136 58.2092 105.372 58.2546C105.939 58.3635 107.039 58.6674 107.706 59.4505C107.903 59.6821 108.07 59.9117 108.211 60.1297C108.768 60.9898 108.55 62.0661 107.948 62.8949C106.872 64.3763 107.267 66.3649 108.265 67.9007C108.609 68.4313 108.799 68.951 108.622 69.3385C108.163 70.3372 101.422 75.5643 98.8805 77.5122C98.6287 77.7052 98.8019 78.1086 99.1154 78.0602C99.1293 78.058 99.1414 78.0554 99.1549 78.0514C99.4822 77.9561 104.026 76.6724 104.722 78.6963C105.189 80.055 104.556 81.0851 104.052 81.6431C103.74 81.9872 103.362 82.255 103.001 82.5463C101.366 83.865 96.4786 87.7842 95.0265 88.6978C93.2737 89.8007 85.2359 94.0906 82.1639 96.6628C79.1631 99.1755 71.6709 106.536 65.9512 108.746C65.6831 108.85 65.4153 108.947 65.1512 109.061C63.7793 109.651 59.1259 111.762 55.5129 114.729C52.4537 117.242 38.3768 133.059 30.5705 141.907C27.2161 145.709 22.4295 147.937 17.3603 148.036L-5.70817 148.488C-8.98992 148.552 -12.2032 147.545 -14.8615 145.619" fill="#FFC192"/>
</g>
<mask id="mask10_601_666" style="mask-type:luminance" maskUnits="userSpaceOnUse" x="0" y="0" width="146" height="143">
<path d="M127.346 0L18.5624 0C8.62125 0 0.562378 8.0589 0.562378 18V124.532C0.562378 134.473 8.62124 142.532 18.5624 142.532H127.346C137.288 142.532 145.346 134.473 145.346 124.532V18C145.346 8.05888 137.288 0 127.346 0Z" fill="white"/>
</mask>
<g mask="url(#mask10_601_666)">
<path d="M60.3743 70.9796C59.1106 71.9389 60.0155 73.8459 61.547 73.4317C65.5994 72.3357 70.7513 70.7893 74.6616 69.0957C82.1979 65.8311 92.5479 59.3023 94.0551 58.3131C95.4041 57.4278 97.4777 55.9084 99.1949 56.0246C99.4472 56.0417 99.6638 55.8068 99.5172 55.6008C99.4797 55.5481 99.428 55.5117 99.365 55.4975C97.3903 55.0509 91.6811 57.8917 89.829 58.8532C89.4338 59.0583 89.0565 59.2821 88.6796 59.5192C87.2275 60.4328 83.2094 62.9176 79.5935 64.7582C75.387 66.8998 67.5711 69.3305 66.5361 69.6485C66.4581 69.6725 66.3853 69.7019 66.3123 69.7385L64.5723 70.6119C64.0865 70.8557 63.3154 71.1158 63.4886 70.6005C63.6849 70.0164 63.2513 68.7956 62.7605 69.1682L60.3743 70.9796Z" fill="#FFDAB0"/>
</g>
<mask id="mask11_601_666" style="mask-type:luminance" maskUnits="userSpaceOnUse" x="0" y="0" width="146" height="143">
<path d="M127.346 0L18.5624 0C8.62125 0 0.562378 8.0589 0.562378 18V124.532C0.562378 134.473 8.62124 142.532 18.5624 142.532H127.346C137.288 142.532 145.346 134.473 145.346 124.532V18C145.346 8.05888 137.288 0 127.346 0Z" fill="white"/>
</mask>
<g mask="url(#mask11_601_666)">
<path d="M59.6303 59.8313C59.7268 59.5973 59.436 59.5832 59.285 59.7864L57.1165 62.7047C56.9638 62.9103 56.8311 63.1281 56.7082 63.3528C56.1575 64.3596 54.2679 67.5618 50.1379 72.3367C46.5261 76.5127 43.9101 84.1465 42.7139 88.1521C42.1993 89.8755 41.5163 91.5479 40.5903 93.0898L39.1804 95.4375C37.5723 98.5406 32.3753 101.244 30.976 101.93C30.7415 102.044 30.51 102.156 30.2775 102.275L0.188749 117.661C-1.3714 118.459 -2.62373 119.751 -3.373 121.335L-4.53556 123.792C-4.90778 124.579 -4.87507 125.498 -4.44782 126.256C-3.97242 127.1 -3.16841 127.354 -2.3489 126.838C4.58989 122.466 36.3015 101.206 38.6664 98.5104C41.3044 95.5036 42.4149 92.3599 44.2197 87.5765C46.0246 82.7929 46.4879 78.048 50.9641 73.1381C56.5455 67.0163 58.1955 63.3173 59.6303 59.8313Z" fill="#FFDAB0"/>
</g>
<mask id="mask12_601_666" style="mask-type:luminance" maskUnits="userSpaceOnUse" x="0" y="0" width="146" height="143">
<path d="M127.346 0L18.5624 0C8.62125 0 0.562378 8.0589 0.562378 18V124.532C0.562378 134.473 8.62124 142.532 18.5624 142.532H127.346C137.288 142.532 145.346 134.473 145.346 124.532V18C145.346 8.05888 137.288 0 127.346 0Z" fill="white"/>
</mask>
<g mask="url(#mask12_601_666)">
<path fill-rule="evenodd" clip-rule="evenodd" d="M103.531 78.688C104.772 79.1683 104.307 81.5425 103.112 82.127C103.003 82.1803 102.9 82.2208 102.809 82.2433C102.128 82.4109 101.02 82.2712 100.737 81.796C100.453 81.3208 100.992 80.2866 101.503 79.6717C101.616 79.5354 101.749 79.4045 101.887 79.2834C102.512 78.7356 102.756 78.388 103.531 78.688Z" fill="#FFDAB0"/>
</g>
<mask id="mask13_601_666" style="mask-type:luminance" maskUnits="userSpaceOnUse" x="0" y="0" width="146" height="143">
<path d="M127.346 0L18.5624 0C8.62125 0 0.562378 8.0589 0.562378 18V124.532C0.562378 134.473 8.62124 142.532 18.5624 142.532H127.346C137.288 142.532 145.346 134.473 145.346 124.532V18C145.346 8.05888 137.288 0 127.346 0Z" fill="white"/>
</mask>
<g mask="url(#mask13_601_666)">
<path fill-rule="evenodd" clip-rule="evenodd" d="M107.947 69.1626C107.947 69.1626 107.272 67.5505 106.251 67.0127C105.898 66.8268 105.216 66.9848 104.907 67.2364C104.691 67.4121 104.686 67.4352 104.485 67.6279C103.934 68.1564 102.865 69.3241 103.121 70.2248C103.461 71.4266 104.568 71.4825 105.307 71.259C106.045 71.0355 107.181 70.1968 107.181 70.1968" fill="#FFDAB0"/>
</g>
<mask id="mask14_601_666" style="mask-type:luminance" maskUnits="userSpaceOnUse" x="0" y="0" width="146" height="143">
<path d="M127.346 0L18.5624 0C8.62125 0 0.562378 8.0589 0.562378 18V124.532C0.562378 134.473 8.62124 142.532 18.5624 142.532H127.346C137.288 142.532 145.346 134.473 145.346 124.532V18C145.346 8.05888 137.288 0 127.346 0Z" fill="white"/>
</mask>
<g mask="url(#mask14_601_666)">
<path fill-rule="evenodd" clip-rule="evenodd" d="M108.388 59.9506C108.388 59.9506 107.198 58.8243 105.825 59.5002C104.452 60.1758 103.354 61.6173 103.583 62.4283C103.711 62.8816 104.268 63.5745 105.142 63.8138C106.907 64.2967 108.891 60.7165 108.891 60.7165" fill="#FFDAB0"/>
</g>
<mask id="mask15_601_666" style="mask-type:luminance" maskUnits="userSpaceOnUse" x="0" y="0" width="146" height="143">
<path d="M127.346 0L18.5624 0C8.62125 0 0.562378 8.0589 0.562378 18V124.532C0.562378 134.473 8.62124 142.532 18.5624 142.532H127.346C137.288 142.532 145.346 134.473 145.346 124.532V18C145.346 8.05888 137.288 0 127.346 0Z" fill="white"/>
</mask>
<g mask="url(#mask15_601_666)">
<path d="M100.699 56.7077C100.699 56.7077 99.7384 56.1222 98.6403 56.6627C97.542 57.2031 96.1692 58.4646 96.3982 59.726C96.5833 60.7463 97.517 61.3245 98.8843 61.079C99.5941 60.9516 100.221 60.5483 100.752 60.0603C100.932 59.8944 101.083 59.7446 101.209 59.6103C101.717 59.0683 101.734 58.3211 101.523 57.6088" fill="#FFDAB0"/>
</g>
<mask id="mask16_601_666" style="mask-type:luminance" maskUnits="userSpaceOnUse" x="0" y="0" width="146" height="143">
<path d="M127.346 0L18.5624 0C8.62125 0 0.562378 8.0589 0.562378 18V124.532C0.562378 134.473 8.62124 142.532 18.5624 142.532H127.346C137.288 142.532 145.346 134.473 145.346 124.532V18C145.346 8.05888 137.288 0 127.346 0Z" fill="white"/>
</mask>
<g mask="url(#mask16_601_666)">
<path d="M63.7994 56.096C62.782 54.9257 61.1395 56.1566 60.6894 57.6407C60.6833 57.661 60.677 57.6809 60.6707 57.7011C60.6092 57.8967 60.2733 58.9944 60.3542 59.3923C60.4431 59.8299 60.7986 60.5591 61.6581 60.5884C62.5175 60.6175 63.1398 60.1509 63.4954 59.7714C63.6717 59.5835 63.8626 59.1659 64.0103 58.7927C64.1947 58.3264 64.2543 57.823 64.2317 57.3221L64.2293 57.2695C64.2142 56.9356 64.1623 56.5979 63.9739 56.3219C63.9251 56.2505 63.8673 56.1742 63.7994 56.096Z" fill="#FFDAB0"/>
</g>
<mask id="mask17_601_666" style="mask-type:luminance" maskUnits="userSpaceOnUse" x="0" y="0" width="146" height="143">
<path d="M127.346 0L18.5624 0C8.62125 0 0.562378 8.0589 0.562378 18V124.532C0.562378 134.473 8.62124 142.532 18.5624 142.532H127.346C137.288 142.532 145.346 134.473 145.346 124.532V18C145.346 8.05888 137.288 0 127.346 0Z" fill="white"/>
</mask>
<g mask="url(#mask17_601_666)">
<path fill-rule="evenodd" clip-rule="evenodd" d="M56.0956 74.5609C56.3044 74.424 58.9623 71.4271 60.7573 68.9442C62.5524 66.4613 65.4191 60.7247 66.0451 58.8755C66.6715 57.026 65.1313 54.9208 63.4312 54.0898C63.5133 54.1199 63.5939 54.1513 63.6731 54.1838C66.3535 55.2842 67.2621 58.4859 66.9173 61.3628C66.8444 61.9707 66.7365 62.5391 66.5791 62.9873C66.2245 63.9967 65.6316 65.8438 65.1501 67.3653C64.6379 68.9834 63.7283 70.448 62.4965 71.6156" fill="#FF9759"/>
</g>
<mask id="mask18_601_666" style="mask-type:luminance" maskUnits="userSpaceOnUse" x="0" y="0" width="146" height="143">
<path d="M127.346 0L18.5624 0C8.62125 0 0.562378 8.0589 0.562378 18V124.532C0.562378 134.473 8.62124 142.532 18.5624 142.532H127.346C137.288 142.532 145.346 134.473 145.346 124.532V18C145.346 8.05888 137.288 0 127.346 0Z" fill="white"/>
</mask>
<g mask="url(#mask18_601_666)">
<path fill-rule="evenodd" clip-rule="evenodd" d="M81.9784 89.5985C81.9784 89.5985 85.0023 88.7479 87.6904 86.9996C90.3785 85.2513 95.1306 82.0851 96.7145 81.0928C97.7181 80.4641 99.4924 79.1145 101.183 78.4022C101.442 78.2929 101.46 77.3985 101.179 77.4069C101.158 77.4075 101.168 77.4101 101.148 77.4165L99.1385 78.0557L98.1463 78.4588C96.6229 79.0777 95.1915 79.9024 93.892 80.9099L90.4263 83.5971" fill="#FF9759"/>
</g>
<mask id="mask19_601_666" style="mask-type:luminance" maskUnits="userSpaceOnUse" x="0" y="0" width="146" height="143">
<path d="M127.346 0L18.5624 0C8.62125 0 0.562378 8.0589 0.562378 18V124.532C0.562378 134.473 8.62124 142.532 18.5624 142.532H127.346C137.288 142.532 145.346 134.473 145.346 124.532V18C145.346 8.05888 137.288 0 127.346 0Z" fill="white"/>
</mask>
<g mask="url(#mask19_601_666)">
<path fill-rule="evenodd" clip-rule="evenodd" d="M85.5613 69.7832C84.3551 70.4886 85.0977 71.9992 86.3615 71.4031C91.4049 69.0242 97.919 64.2662 99.8102 62.9216C101.379 61.8063 103.654 59.8465 105.38 59.0588C105.6 58.9586 105.596 58.523 105.364 58.4576C105.333 58.4489 105.3 58.4469 105.269 58.4519L104.149 58.6277C103.182 58.7795 102.274 59.1906 101.521 59.8172L101.175 60.1057L90.3601 66.9769L85.5613 69.7832Z" fill="#FF9759"/>
</g>
<mask id="mask20_601_666" style="mask-type:luminance" maskUnits="userSpaceOnUse" x="0" y="0" width="146" height="143">
<path d="M127.346 0L18.5624 0C8.62125 0 0.562378 8.0589 0.562378 18V124.532C0.562378 134.473 8.62124 142.532 18.5624 142.532H127.346C137.288 142.532 145.346 134.473 145.346 124.532V18C145.346 8.05888 137.288 0 127.346 0Z" fill="white"/>
</mask>
<g mask="url(#mask20_601_666)">
<path fill-rule="evenodd" clip-rule="evenodd" d="M89.667 76.9789C88.4476 77.8206 89.3405 79.3634 90.6335 78.6398C95.1401 76.1178 100.468 71.3367 101.957 70.042C103.141 69.0112 104.748 67.2644 106.107 66.5041C106.301 66.3955 106.282 65.9713 106.066 65.917C106.038 65.9099 106.009 65.9089 105.98 65.9139L105.024 66.0829C104.211 66.2264 103.464 66.6227 102.89 67.2154C102.749 67.3609 102.598 67.4952 102.436 67.6171L93.9132 74.0477L89.667 76.9789Z" fill="#FF9759"/>
</g>
<mask id="mask21_601_666" style="mask-type:luminance" maskUnits="userSpaceOnUse" x="0" y="0" width="146" height="143">
<path d="M127.346 0L18.5624 0C8.62125 0 0.562378 8.0589 0.562378 18V124.532C0.562378 134.473 8.62124 142.532 18.5624 142.532H127.346C137.288 142.532 145.346 134.473 145.346 124.532V18C145.346 8.05888 137.288 0 127.346 0Z" fill="white"/>
</mask>
<g mask="url(#mask21_601_666)">
<path fill-rule="evenodd" clip-rule="evenodd" d="M81.3288 95.8433C78.732 97.2812 70.2928 103.512 65.9107 105.749C61.5287 107.986 58.1205 109.903 52.2779 114.058C48.2587 116.915 31.1831 130.811 20.7051 139.311C18.0783 141.441 19.5698 147.277 22.9012 147.862C23.1233 147.901 23.3486 147.918 23.5739 147.914L23.6095 147.913C24.6978 147.892 25.7262 147.413 26.444 146.595C31.4686 140.867 51.7627 117.807 55.5118 114.729C59.1247 111.762 63.7777 109.65 65.1499 109.06C65.4141 108.947 65.6821 108.849 65.9504 108.745C71.6698 106.535 79.1618 99.1747 82.1628 96.662C83.1794 95.811 84.7408 94.7714 86.4374 93.7217C86.4423 93.7186 86.4466 93.7146 86.45 93.7098C86.4737 93.6761 86.4419 93.632 86.4027 93.6447C85.8638 93.8194 83.5962 94.5877 81.3288 95.8433Z" fill="#FF9759"/>
</g>
<mask id="mask22_601_666" style="mask-type:luminance" maskUnits="userSpaceOnUse" x="0" y="0" width="146" height="143">
<path d="M127.346 0L18.5624 0C8.62125 0 0.562378 8.0589 0.562378 18V124.532C0.562378 134.473 8.62124 142.532 18.5624 142.532H127.346C137.288 142.532 145.346 134.473 145.346 124.532V18C145.346 8.05888 137.288 0 127.346 0Z" fill="white"/>
</mask>
<g mask="url(#mask22_601_666)">
<path d="M63.5182 71.795C63.1768 71.9289 62.8617 71.209 63.1962 71.0587C66.4961 69.5761 70.6149 68.0487 73.0783 66.9487C77.5828 64.937 86.6851 60.1679 91.575 57.6054C93.1207 56.7955 94.2373 56.2103 94.61 56.027C95.7008 55.4894 97.7996 54.6775 99.603 55.2787C100.517 55.5832 101.214 56.2083 101.674 57.1371C103.084 59.9831 100.463 61.4375 98.1508 62.7206C97.9855 62.8121 97.8201 62.9042 97.6551 62.9968C96.5901 63.5949 92.8998 65.6525 88.8847 68.4147C86.6806 69.9311 86.1507 69.1118 88.4187 67.693C92.5627 65.1006 96.1415 62.8617 97.2245 62.2537C97.391 62.1604 97.5578 62.0675 97.7243 61.9754C100.341 60.5236 101.893 59.5313 100.893 57.5119C100.534 56.7859 100.021 56.3203 99.3244 56.0886C97.7637 55.5681 95.7793 56.4067 94.9986 56.7913C94.6358 56.97 93.5232 57.5532 91.983 58.36C87.0844 60.927 77.9665 65.7044 73.4373 67.7269C70.8676 68.8747 67.03 70.4185 63.5182 71.795Z" fill="black"/>
<path d="M81.4374 83.4413C81.0782 83.6061 80.7878 82.997 81.1065 82.7634C82.6994 81.5964 84.8804 79.998 87.0148 78.6656C90.3116 76.6069 98.2677 70.3147 101.055 68.0641C101.778 67.4803 102.719 66.8215 103.714 66.1231C105.452 64.905 107.422 63.5245 108.133 62.5621C108.535 62.019 108.636 61.3494 108.417 60.6775C108.128 59.791 107.359 59.0661 106.361 58.7388C104.99 58.2898 102.83 59.4245 101.767 60.1207C101.57 60.2494 101.305 60.21 101.163 60.0226C101.019 59.8311 101.058 59.5598 101.259 59.428C102.197 58.8118 104.757 57.3123 106.635 57.9275C107.896 58.3406 108.871 59.2707 109.244 60.4167C109.55 61.3557 109.405 62.2964 108.836 63.0658C108.04 64.141 106.097 65.5031 104.218 66.8204C103.235 67.5097 102.306 68.161 101.606 68.726C98.8072 70.9857 90.8134 77.3067 87.4802 79.3883C85.373 80.7041 83.9344 81.7589 82.3528 82.9179C82.0802 83.1175 81.7638 83.2915 81.4374 83.4413Z" fill="black"/>
<path d="M85.029 88.0528C84.406 88.4928 83.9445 87.7771 84.5624 87.33C84.8514 87.1207 85.3917 86.7416 86.0664 86.2678C88.0129 84.9021 91.2705 82.6159 92.5817 81.5272C94.3952 80.0209 101.182 74.8385 103.989 72.9565C106.87 71.0255 108.389 69.5628 107.626 67.8017C107.109 66.6092 105.942 66.3417 105.311 66.2866C105.077 66.2661 104.872 66.0883 104.852 65.8539C104.832 65.6169 105.008 65.4078 105.246 65.4198C106.236 65.4697 107.759 65.9279 108.425 67.4662C109.525 70.0061 107.079 71.9203 104.479 73.6632C101.689 75.5329 94.9448 80.6837 93.1417 82.1806C91.8036 83.292 88.6545 85.5016 86.5708 86.964C85.9005 87.4343 85.3639 87.8109 85.0766 88.0187C85.061 88.0301 85.0451 88.0414 85.029 88.0528Z" fill="black"/>
<path d="M6.26499 167.399C6.09179 167.559 5.8264 167.545 5.66511 167.374C5.50019 167.199 5.50709 166.926 5.68416 166.763C14.5936 158.572 27.3786 144.416 37.6754 133.014C44.6326 125.311 50.6411 118.657 53.732 115.747C59.1472 110.648 62.6159 109.193 65.6766 107.91C67.0292 107.343 68.3068 106.807 69.6733 106.001C74.1969 103.333 81.8221 97.1856 83.3626 95.5274C84.5067 94.2957 89.9844 90.8518 94.3856 88.0852C96.1126 86.9997 97.6041 86.0622 98.5044 85.4635C99.2144 84.9917 99.8859 84.5724 100.535 84.167C102.622 82.8646 104.27 81.8361 104.6 80.5824C104.793 79.8518 104.651 79.2112 104.179 78.6776C103.583 78.0088 102.487 77.5986 101.566 77.7047C100.351 77.8441 96.9176 79.7016 95.2963 80.6333C95.0926 80.7504 94.8336 80.6838 94.7118 80.4829C94.5878 80.2782 94.6528 80.0132 94.8604 79.8941C96.089 79.1892 99.9541 77.0287 101.465 76.8552C102.669 76.7169 104.056 77.2366 104.834 78.1157C105.295 78.6377 105.776 79.5262 105.441 80.797C105.025 82.3774 103.249 83.486 101 84.8891C100.356 85.2913 99.6899 85.7072 98.9906 86.1722C98.0808 86.7768 96.5849 87.7172 94.853 88.8062C90.7246 91.4014 85.0705 94.9559 84.0034 96.1044C82.4363 97.7917 74.6993 104.034 70.1195 106.735C68.702 107.571 67.3981 108.118 66.0172 108.697C62.8785 110.013 59.6331 111.374 54.3328 116.365C51.2672 119.252 45.2696 125.893 38.3246 133.582C28.0113 145.002 15.2049 159.183 6.26499 167.399Z" fill="black"/>
<path d="M-41.1309 145.964C-41.3125 146.113 -41.5796 146.089 -41.7321 145.911C-41.8881 145.728 -41.8648 145.453 -41.6792 145.301C-21.5679 128.76 3.73619 115.393 20.5121 106.531C29.8513 101.598 36.5988 98.0338 37.9378 96.2941C40.5172 92.942 41.9361 88.6378 43.3081 84.4753C43.9619 82.4921 44.5793 80.619 45.2983 78.9319C47.4208 73.9525 49.42 71.7064 52.7321 67.9852L53.2852 67.3632C56.546 63.6927 58.4346 61.0881 59.6001 58.6536C59.8164 58.2012 59.9872 57.6397 60.1679 57.045C60.571 55.7183 60.9883 54.3463 62.0417 53.813C62.5791 53.541 63.2205 53.5279 63.9482 53.7733C66.951 54.7879 68.2237 57.915 67.2687 61.9359C66.0973 66.868 63.4921 70.9407 62.9515 71.7524C62.8909 71.8435 62.7977 71.9037 62.6905 71.9255C62.3189 72.0013 62.031 71.5797 62.2304 71.2571C63.2734 69.5692 65.4857 65.6867 66.4229 61.7409C67.2673 58.1847 66.2115 55.4424 63.6662 54.5824C63.1638 54.4125 62.7621 54.4096 62.4387 54.5735C61.7142 54.9401 61.3511 56.1345 60.9998 57.2899C60.818 57.8885 60.6298 58.5074 60.3854 59.018C59.184 61.5279 57.2557 64.1921 53.939 67.9256L53.3851 68.5482C50.0203 72.3287 48.1668 74.4111 46.0987 79.2626C45.3936 80.9166 44.7817 82.7732 44.1339 84.739C42.7397 88.9691 41.2979 93.3431 38.6296 96.81C37.1762 98.6986 30.7099 102.114 20.9222 107.284C4.17591 116.131 -21.0861 129.475 -41.1309 145.964Z" fill="black"/>
<path d="M65.998 55.7838C65.8671 55.655 65.8301 55.4532 65.9213 55.2836C65.9792 55.1755 67.401 52.6202 72.7875 50.9571C73.9606 50.5948 75.0401 50.2921 75.993 50.0247C79.3413 49.0851 81.7601 48.4061 84.5443 46.2276C85.4877 45.4893 86.2658 44.8362 86.8909 44.3112C88.7731 42.7311 89.718 41.938 91.0399 42.357C92.0476 42.6769 92.7205 43.4856 92.9351 44.6336C93.3385 46.7924 92.1 50.2681 88.4242 53.1675C88.2984 53.2668 88.1726 53.3649 88.0469 53.4618C86.0887 54.972 87.02 58.6393 89.4918 58.7126C89.7316 58.7194 89.9201 58.9164 89.9129 59.1527C89.9056 59.389 89.7055 59.5746 89.4658 59.5672L78.3663 59.2382C78.36 59.2381 78.3523 59.2378 78.3434 59.2374C77.8943 59.2167 77.7924 58.5977 78.2051 58.4193C78.2528 58.3984 83.0556 56.3061 87.8807 52.5002C91.2585 49.8357 92.4255 46.6347 92.0803 44.7884C91.9714 44.2051 91.6564 43.4511 90.7732 43.1712C89.952 42.9106 89.3219 43.3944 87.4541 44.9622C86.8238 45.4913 86.039 46.1498 85.0843 46.897C82.1643 49.182 79.6752 49.8805 76.2305 50.8474C75.2367 51.1262 74.209 51.4147 73.0473 51.7733C68.0424 53.3183 66.7011 55.6615 66.6881 55.6852C66.574 55.8919 66.3113 55.9703 66.1008 55.8594C66.062 55.8386 66.0276 55.8129 65.998 55.7838Z" fill="black"/>
<path d="M107.024 66.8832C106.948 66.8085 106.9 66.7068 106.896 66.5933C106.889 66.3573 107.078 66.1603 107.318 66.1535C110.418 66.0654 118.802 65.5406 120.36 64.1865C120.943 63.6791 121.164 62.926 120.949 62.1726C120.676 61.2167 119.791 60.52 118.582 60.3088C115.833 59.8288 108.832 60.0545 108.762 60.0568C108.523 60.0648 108.321 59.8798 108.314 59.6438C108.305 59.4077 108.493 59.2102 108.733 59.2019C109.024 59.1922 115.896 58.9707 118.734 59.4664C120.28 59.7367 121.42 60.6617 121.785 61.9411C122.088 63.0021 121.762 64.1081 120.935 64.8274C118.86 66.6315 108.516 66.975 107.344 67.0081C107.219 67.0118 107.105 66.9633 107.024 66.8832Z" fill="black"/>
<path d="M103.928 73.6101C103.857 73.54 103.81 73.4456 103.802 73.3387C103.785 73.1032 103.964 72.8983 104.204 72.8812C104.351 72.8706 119.017 71.8122 123.056 70.6577C124.901 70.13 126.011 69.3424 126.181 68.4402C126.305 67.7817 125.896 67.0462 125.058 66.4216C123.185 65.0245 118.485 65.8361 118.438 65.8447C118.202 65.8863 117.976 65.7315 117.934 65.4995C117.891 65.2671 118.048 65.0451 118.284 65.0029C118.492 64.9661 123.409 64.1189 125.583 65.7398C126.693 66.5673 127.221 67.6084 127.035 68.5958C126.871 69.471 126.089 70.6811 123.298 71.4792C119.172 72.6588 104.873 73.691 104.267 73.7344C104.135 73.7438 104.014 73.6948 103.928 73.6101Z" fill="black"/>
<path d="M104.762 79.2509C104.697 79.187 104.652 79.1029 104.639 79.0066C104.606 78.7725 104.773 78.5573 105.01 78.5251C105.123 78.51 116.344 76.998 119.012 76.555C121.924 76.0716 122.566 75.2409 122.658 74.0576C122.765 72.691 121.011 71.9039 120.994 71.8965C120.774 71.8005 120.676 71.5476 120.774 71.3315C120.872 71.1157 121.129 71.0191 121.348 71.1154C121.443 71.1579 123.678 72.1631 123.525 74.1229C123.348 76.3934 121.321 77.0391 119.157 77.3983C116.475 77.8432 105.241 79.3569 105.128 79.3723C104.988 79.3911 104.854 79.3424 104.762 79.2509Z" fill="black"/>
<path d="M98.4396 86.1204C98.3843 86.066 98.3432 85.9962 98.3238 85.9155C98.2694 85.6857 98.4147 85.4557 98.6481 85.4018C98.737 85.3816 107.587 83.3465 110.351 82.6321C113.708 81.7647 114.146 80.7752 114.183 80.1059C114.242 79.0472 113.016 78.6019 111.976 78.4149C111.741 78.3727 111.583 78.1498 111.627 77.9172C111.67 77.6848 111.896 77.5312 112.132 77.5734C114.77 78.0477 115.093 79.3929 115.05 80.1523C114.966 81.6606 113.584 82.6803 110.571 83.4588C107.796 84.176 98.9345 86.2139 98.8453 86.2345C98.6942 86.2698 98.5421 86.2216 98.4396 86.1204Z" fill="black"/>
<path d="M-35.1266 50.2095C-35.2135 50.124 -35.2633 50.0026 -35.2526 49.8726C-35.2332 49.6371 -35.0235 49.4618 -34.7846 49.4809C-16.8873 50.9065 11.5752 57.949 30.4093 62.609C39.3789 64.8282 46.4638 66.5813 48.1589 66.6386C53.1253 66.8071 57.2774 62.4707 57.3188 62.4268C57.4822 62.2541 57.757 62.2438 57.9324 62.4046C58.1131 62.5594 58.1189 62.8353 57.9559 63.0086C57.7764 63.1993 53.498 67.6757 48.1291 67.4935C46.3419 67.4328 39.5701 65.7575 30.1976 63.4385C11.3913 58.7854 -17.0289 51.7532 -34.8544 50.3333C-34.9616 50.3247 -35.0563 50.2785 -35.1266 50.2095Z" fill="black"/>
<path d="M-41.4271 90.2136C-41.5227 90.1195 -41.5725 89.9835 -41.5491 89.8424C-41.5105 89.6095 -41.2876 89.4513 -41.0507 89.4889C-4.50838 95.3347 40.5056 91.0337 40.9558 90.9895C41.1947 90.9661 41.4076 91.1375 41.431 91.3726C41.455 91.6075 41.2807 91.8171 41.0421 91.8404C40.5904 91.8846 -4.53705 96.1965 -41.1897 90.3327C-41.2832 90.3182 -41.3649 90.2749 -41.4271 90.2136Z" fill="black"/>
<path d="M97.0287 60.7973C96.8199 60.5918 96.6282 60.3239 96.4467 59.9912C96.1875 59.5171 96.151 59.0217 96.3378 58.5188C96.6439 57.6964 97.5769 56.8977 98.7728 56.4339C100.207 55.878 100.921 56.9062 101.127 57.2818C101.165 57.3524 101.13 57.4352 101.055 57.4647C100.981 57.494 100.897 57.4591 100.859 57.3893C100.675 57.0568 100.082 56.2332 98.8791 56.6993C97.7576 57.134 96.888 57.8689 96.6097 58.6169C96.4525 59.0402 96.4835 59.457 96.7012 59.8563C97.3855 61.1066 98.1543 61.3207 99.6415 60.6745C100.766 60.1851 101.178 59.2519 101.297 58.9C101.322 58.8242 101.402 58.7745 101.48 58.7909C101.558 58.8072 101.607 58.8828 101.583 58.9588C101.464 59.3362 101.03 60.382 99.7582 60.935C98.5229 61.4721 97.6901 61.4484 97.0287 60.7973Z" fill="black"/>
<path d="M104.304 63.5638C104.095 63.3585 103.904 63.0906 103.722 62.7576C103.463 62.2835 103.426 61.7878 103.614 61.285C103.92 60.4628 104.853 59.6638 106.048 59.2003C107.532 58.6251 108.494 60.258 108.741 60.741C108.778 60.8125 108.743 60.8963 108.669 60.9272C108.596 60.9578 108.512 60.9247 108.476 60.8538C108.251 60.403 107.419 58.9752 106.155 59.4657C105.034 59.9004 104.164 60.635 103.885 61.3833C103.728 61.8066 103.759 62.2237 103.977 62.6228C104.661 63.8733 105.43 64.0874 106.917 63.4403C108.047 62.9488 108.456 62.0151 108.573 61.6648C108.599 61.5894 108.676 61.5406 108.754 61.5568C108.833 61.5732 108.882 61.6496 108.858 61.7263C108.739 62.1049 108.304 63.1488 107.034 63.7009C105.798 64.2385 104.965 64.2143 104.304 63.5638Z" fill="black"/>
<path d="M103.396 71.05C103.045 70.7045 102.901 70.1951 102.987 69.5871C103.146 68.4825 104.327 67.4799 105.017 66.9807C105.4 66.7039 105.917 66.6726 106.334 66.9004C107.795 67.6983 108.078 69.2439 108.089 69.3094C108.097 69.352 108.084 69.396 108.055 69.428C108.011 69.4765 106.972 70.6213 105.862 71.2268C105.141 71.6202 104.189 71.6159 103.599 71.2162C103.525 71.1663 103.457 71.1105 103.396 71.05ZM106.865 67.6487C106.679 67.4651 106.457 67.2935 106.194 67.1495C105.875 66.9756 105.48 66.9993 105.189 67.2102C104.535 67.6831 103.417 68.6256 103.274 69.627C103.187 70.2376 103.356 70.7048 103.763 70.9813C104.268 71.3228 105.091 71.3214 105.721 70.9773C105.941 70.8574 106.16 70.7136 106.368 70.5607C107.329 69.8565 107.714 68.4845 106.865 67.6487Z" fill="black"/>
<path d="M100.873 82.053C100.82 82.0014 100.774 81.9453 100.733 81.8851C100.554 81.6206 100.416 81.1551 100.774 80.4421C101.578 78.8375 102.778 78.4193 102.828 78.4022L102.858 78.3957C102.899 78.3908 103.867 78.2899 104.465 79.2791C105.236 80.5508 104.587 81.2577 104.559 81.2874C104.527 81.3261 103.615 82.404 102.345 82.4798C101.711 82.5177 101.188 82.3638 100.873 82.053ZM104.217 79.4253C103.672 78.5284 102.342 78.8313 101.657 79.6259C101.441 79.8763 101.225 80.1866 101.034 80.5684C100.799 81.0365 100.778 81.4373 100.974 81.7275C101.2 82.0585 101.703 82.2329 102.328 82.1956C103.473 82.1272 104.333 81.1101 104.342 81.0995C104.369 81.0699 104.87 80.5034 104.217 79.4253Z" fill="black"/>
<path d="M60.6269 60.271C60.4952 60.1413 60.3953 59.9831 60.3284 59.7975C60.2514 59.5844 60.227 59.3579 60.2307 59.1462C60.2408 58.5717 60.4404 58.0165 60.5503 57.4526C60.6985 56.6917 60.8935 55.928 61.335 55.2909C61.3691 55.2418 61.4052 55.1904 61.4435 55.1367C61.4654 55.106 61.4985 55.085 61.5356 55.0783L61.5362 55.0782C62.9021 54.8362 64.1508 56.3912 64.3126 56.6022C64.3238 56.6169 64.3325 56.6317 64.3404 56.6484C64.3481 56.6647 64.3542 56.6816 64.3583 56.6991C64.4064 56.9066 64.6719 58.2181 64.0007 59.2923C63.1827 60.6019 62.2613 61.007 61.1015 60.5677C60.9142 60.4967 60.7555 60.3972 60.6269 60.271ZM60.9211 57.05C60.7435 57.9516 60.2646 58.911 60.6229 59.7573C60.7312 60.013 60.9272 60.1963 61.2061 60.302C62.2265 60.6886 63.0127 60.3314 63.7546 59.1435C64.0319 58.6998 64.1311 58.2006 64.1533 57.7729C64.1878 57.1097 63.8832 56.4762 63.378 56.0452C63.1946 55.8886 62.9843 55.7333 62.7573 55.6084C62.1091 55.2515 61.198 55.6207 61.0596 56.3476L60.9211 57.05Z" fill="black"/>
<path d="M78.0723 59.4596C77.115 59.4958 77.0843 58.7172 78.0417 58.6811C78.9986 58.6442 79.0293 59.4227 78.0723 59.4596Z" fill="black"/>
<path d="M90.1254 74.5337C90.1462 74.5504 90.1268 74.5831 90.102 74.5733C90.0096 74.5374 89.8801 74.4746 89.7267 74.3843C89.42 74.2055 89.0248 73.8894 88.7123 73.439C88.4016 72.9875 88.2481 72.5094 88.192 72.1631C88.163 71.9895 88.1511 71.8481 88.1511 71.75C88.151 71.723 88.1886 71.7166 88.1969 71.7423C88.2241 71.8347 88.2719 71.9661 88.335 72.1237C88.4604 72.4404 88.6695 72.8552 88.9576 73.2742C89.2477 73.6921 89.5628 74.0359 89.8159 74.2671C89.9418 74.3829 90.0484 74.4746 90.1254 74.5337Z" fill="black"/>
<path d="M89.6461 73.2501C89.6735 73.3263 89.6056 73.3889 89.5346 73.3499C89.4417 73.2992 89.3241 73.2122 89.2361 73.0848C89.1483 72.9574 89.1095 72.818 89.0959 72.7139C89.0853 72.6345 89.1673 72.5941 89.2282 72.6462C89.3058 72.7126 89.4026 72.8071 89.4816 72.9206C89.5587 73.0333 89.6119 73.1551 89.6461 73.2501Z" fill="black"/>
<path d="M90.7881 74.1848C90.7909 74.2926 90.6692 74.3013 90.6411 74.1971C90.5609 73.8967 90.4239 73.4967 90.2308 73.0754C90.0365 72.6547 89.8216 72.2895 89.6453 72.0318C89.5852 71.9436 89.6707 71.8577 89.7497 71.9294C89.7525 71.932 89.7554 71.9346 89.7582 71.9372C89.9971 72.1538 90.2928 72.5033 90.5012 72.9551C90.7083 73.4072 90.7804 73.8568 90.7879 74.1763C90.788 74.1792 90.7881 74.182 90.7881 74.1848Z" fill="black"/>
<path d="M91.4175 73.5647C91.4146 73.6471 91.3232 73.6697 91.2751 73.6027C91.2088 73.5101 91.126 73.3866 91.0588 73.2427C90.9913 73.0987 90.9499 72.9565 90.9213 72.8467C90.9007 72.7677 90.9762 72.7129 91.0405 72.7633C91.0422 72.7645 91.0438 72.7659 91.0455 72.7672C91.1387 72.8407 91.2531 72.9605 91.3284 73.1204C91.4031 73.2803 91.4214 73.4439 91.4176 73.5614C91.4176 73.5625 91.4175 73.5636 91.4175 73.5647Z" fill="black"/>
<path d="M84.2553 67.7642C84.3062 67.8541 84.219 67.9298 84.1439 67.8589C84.1419 67.857 84.1398 67.8551 84.1378 67.8532C83.958 67.6833 83.7338 67.4162 83.5685 67.0749C83.404 66.7331 83.3351 66.3936 83.3148 66.149C83.3147 66.1471 83.3145 66.1451 83.3143 66.1432C83.3058 66.0399 83.4199 66.0189 83.459 66.1148C83.5502 66.336 83.6829 66.6305 83.8363 66.9492C83.9907 67.2676 84.1387 67.555 84.2553 67.7642Z" fill="black"/>
<path d="M84.8483 66.4269C85.0007 66.7104 84.7383 66.847 84.5859 66.5634C84.4335 66.2799 84.6959 66.1434 84.8483 66.4269Z" fill="black"/>
<path d="M92.0168 79.9171C92.0388 79.9252 92.0369 79.9568 92.014 79.9622C92.0137 79.9623 92.0134 79.9624 92.013 79.9625C91.9623 79.9747 91.8868 79.9804 91.7921 79.9724C91.6038 79.9587 91.3363 79.8521 91.1472 79.6224C90.9584 79.3923 90.9083 79.1127 90.9338 78.9285C90.9454 78.8356 90.9668 78.7641 90.9897 78.7179C90.9898 78.7176 90.9899 78.7173 90.9901 78.717C91.0005 78.6956 91.0321 78.7004 91.0357 78.7239C91.0406 78.7715 91.0574 78.8396 91.0818 78.9166C91.1301 79.0725 91.2323 79.2601 91.378 79.4388C91.5251 79.6161 91.6901 79.7535 91.8349 79.8328C91.9062 79.8724 91.9704 79.9026 92.0168 79.9171Z" fill="black"/>
<path d="M92.6921 79.8646C92.7051 79.9694 92.5871 79.9898 92.5474 79.892C92.4417 79.6295 92.2708 79.286 92.0441 78.9328C91.8159 78.5801 91.573 78.282 91.3766 78.0759C91.3047 77.9999 91.3721 77.9019 91.461 77.957C91.4645 77.9591 91.4681 77.9613 91.4716 77.9635C91.7233 78.1195 92.0461 78.3923 92.2946 78.7763C92.5419 79.1611 92.6551 79.565 92.691 79.8555C92.6914 79.8586 92.6918 79.8616 92.6921 79.8646Z" fill="black"/>
<path d="M61.9485 69.6715C61.8749 69.7667 61.7626 69.6918 61.8257 69.5894C62.1821 69.0078 62.6625 68.2011 63.1785 67.3029C63.6937 66.4043 64.148 65.5828 64.47 64.9822C64.5271 64.8752 64.6501 64.9313 64.6047 65.0437C64.349 65.6771 63.9569 66.5395 63.4368 67.4468C62.9156 68.3536 62.3675 69.129 61.9485 69.6715Z" fill="black"/>
<path d="M62.7949 66.6271C62.605 66.9428 62.3605 66.7777 62.5495 66.4615C62.7402 66.1442 62.9958 66.2927 62.8051 66.61C62.8017 66.6157 62.7983 66.6214 62.7949 66.6271Z" fill="black"/>
<path d="M61.6601 66.9315C61.6028 67.0142 61.4979 66.9676 61.5255 66.8709C61.5877 66.6514 61.696 66.3538 61.8689 66.0525C62.0421 65.7512 62.245 65.5063 62.404 65.3407C62.4738 65.2677 62.5673 65.3349 62.5246 65.4264C62.4292 65.6306 62.2928 65.9063 62.1272 66.1961C61.9595 66.4869 61.7889 66.7454 61.6601 66.9315Z" fill="black"/>
<path d="M65.235 63.075C65.2935 63.036 65.3674 63.0671 65.3668 63.1374C65.3668 63.1389 65.3667 63.1405 65.3667 63.142C65.3659 63.2244 65.3398 63.3378 65.2625 63.4311C65.1849 63.5243 65.0772 63.5716 64.9952 63.589C64.9927 63.5895 64.9903 63.59 64.9878 63.5905C64.9198 63.6043 64.8756 63.5386 64.9025 63.4747C64.9329 63.4043 64.9715 63.3193 65.0328 63.246C65.0939 63.1725 65.171 63.1183 65.235 63.075Z" fill="black"/>
<path d="M65.5337 61.7796C65.5611 61.7322 65.6637 61.7185 65.6888 61.7671C65.7285 61.8412 65.7522 61.9646 65.7047 62.0844C65.6569 62.2038 65.5542 62.2785 65.4739 62.3062C65.423 62.3245 65.3569 62.2443 65.3694 62.1917C65.3852 62.1254 65.4055 62.0456 65.4285 61.9778C65.4586 61.9118 65.4992 61.839 65.5337 61.7796Z" fill="black"/>
<path d="M63.1952 107.942C63.1674 107.952 63.1505 107.911 63.1775 107.899C63.547 107.739 64.0769 107.495 64.7261 107.185C66.0257 106.567 67.7901 105.655 69.6691 104.531C71.5466 103.404 73.181 102.282 74.336 101.43C74.914 101.004 75.3773 100.653 75.6924 100.404C75.7156 100.386 75.744 100.419 75.7222 100.439C75.4251 100.709 74.9844 101.089 74.4278 101.544C73.3159 102.456 71.7137 103.647 69.8234 104.781C67.9317 105.912 66.1213 106.765 64.7875 107.318C64.1207 107.596 63.5754 107.806 63.1952 107.942Z" fill="black"/>
<path d="M66.9297 104.667C66.8173 104.707 66.7643 104.585 66.8715 104.533C67.442 104.252 68.2212 103.854 69.0717 103.399C69.9218 102.944 70.6846 102.516 71.2333 102.197C71.3369 102.136 71.4119 102.246 71.3158 102.318C70.8059 102.7 70.0736 103.195 69.2133 103.656C68.3527 104.117 67.5323 104.452 66.9297 104.667Z" fill="black"/>
<path d="M68.7252 102.865C68.4309 103.022 68.3089 102.757 68.6021 102.598C68.8977 102.44 69.0522 102.688 68.7573 102.848C68.7532 102.85 68.749 102.852 68.7449 102.855C68.7383 102.858 68.7318 102.862 68.7252 102.865Z" fill="black"/>
<path d="M77.3787 98.7774C77.5669 98.5922 77.7768 98.7989 77.5887 98.9841C77.4005 99.1693 77.1906 98.9627 77.3787 98.7774Z" fill="black"/>
<path d="M79.2892 97.4595C79.4865 97.3327 79.6489 97.5773 79.4517 97.7041C79.2546 97.8309 79.0921 97.5863 79.2892 97.4595Z" fill="black"/>
<path d="M80.3456 56.7497C79.9939 56.922 79.8619 56.6604 80.2135 56.4881C80.5667 56.3158 80.6988 56.5775 80.3456 56.7497Z" fill="black"/>
<path d="M80.1956 56.1688C79.8719 56.3391 79.732 56.0814 80.0558 55.9111C80.3795 55.7409 80.5194 55.9986 80.1956 56.1688Z" fill="black"/>
<path d="M79.5016 55.7393C79.2174 55.8653 79.0954 55.5989 79.3796 55.473C79.6638 55.347 79.7858 55.6134 79.5016 55.7393Z" fill="black"/>
<path d="M110.418 65.3178C110.03 65.3445 110.01 65.053 110.397 65.0262C110.785 64.9999 110.805 65.2914 110.418 65.3178Z" fill="black"/>
<path d="M110.405 64.5781C110.075 64.5889 110.046 64.2999 110.375 64.2869C110.382 64.2866 110.388 64.2864 110.395 64.2862C110.401 64.2859 110.408 64.2857 110.415 64.2855C110.744 64.2759 110.734 64.5661 110.405 64.5781Z" fill="black"/>
<path d="M114.138 64.5986C114.346 64.5695 114.388 64.8589 114.18 64.888C113.972 64.9171 113.93 64.6278 114.138 64.5986Z" fill="black"/>
<path d="M115.737 64.251C115.929 64.2197 115.978 64.5079 115.786 64.5392C115.594 64.5709 115.545 64.2823 115.737 64.251Z" fill="black"/>
<path d="M110.884 71.3494C110.774 71.3401 110.779 71.2109 110.889 71.2061C111.464 71.1812 112.258 71.1468 113.132 71.1088C114.007 71.0786 114.8 71.0512 115.376 71.0313C115.486 71.0275 115.501 71.1557 115.392 71.1735C114.821 71.2667 114.026 71.3662 113.144 71.401C112.261 71.4352 111.461 71.3978 110.884 71.3494Z" fill="black"/>
<path d="M117.595 70.7559C117.659 70.7774 117.682 70.8506 117.631 70.8952C117.63 70.8963 117.629 70.8974 117.628 70.8985C117.57 70.9492 117.475 71.0011 117.364 71.0031C117.253 71.0048 117.157 70.9561 117.097 70.9073C117.096 70.9063 117.095 70.9053 117.094 70.9043C117.042 70.8614 117.062 70.7873 117.125 70.7639C117.192 70.7394 117.273 70.7123 117.359 70.7109C117.445 70.7092 117.527 70.734 117.595 70.7559Z" fill="black"/>
<path d="M118.985 70.3584C119.231 70.3141 119.285 70.6014 119.039 70.6457C118.792 70.6903 118.739 70.4027 118.985 70.3584Z" fill="black"/>
<path d="M108.231 77.2637C107.851 77.282 107.837 76.9901 108.217 76.9718C108.597 76.9536 108.611 77.2454 108.231 77.2637Z" fill="black"/>
<path d="M111.725 76.4795C111.974 76.4685 112.009 76.7517 111.761 76.7701C111.754 76.7707 111.746 76.7711 111.739 76.7714C111.732 76.7718 111.724 76.772 111.717 76.7722C111.468 76.777 111.476 76.4918 111.725 76.4795Z" fill="black"/>
<path d="M32.2413 66.3168C31.6993 66.1746 31.8012 65.798 32.3432 65.9402C32.8852 66.0824 32.7832 66.459 32.2413 66.3168Z" fill="black"/>
<path d="M29.3388 67.0161C29.1937 66.9764 29.2333 66.8005 29.3817 66.8256C30.4024 66.9984 31.8074 67.2718 33.3375 67.6606C34.8676 68.05 36.2311 68.4807 37.2093 68.8162C37.3519 68.8651 37.3001 69.0377 37.1534 69.0032C36.1486 68.7615 34.7633 68.426 33.2387 68.038C31.7139 67.6506 30.3367 67.2837 29.3388 67.0161Z" fill="black"/>
<path d="M33.1339 69.7051C32.6817 69.578 32.7903 69.2033 33.2425 69.3305C33.6947 69.4578 33.5861 69.8324 33.1339 69.7051Z" fill="black"/>
<path d="M33.476 71.1175C33.1346 71.026 33.2386 70.65 33.5799 70.7418C33.9213 70.8334 33.8173 71.2093 33.476 71.1175Z" fill="black"/>
<path d="M33.8645 90.5161C33.3265 90.5035 33.3361 90.1141 33.874 90.1267C34.4116 90.1398 34.402 90.5293 33.8645 90.5161Z" fill="black"/>
<path d="M35.7068 89.3998C35.2376 89.3838 35.2512 88.9944 35.7204 89.0104C36.1899 89.0263 36.1763 89.4158 35.7068 89.3998Z" fill="black"/>
<path d="M45.8527 87.2141C45.8097 87.3627 45.6339 87.325 45.6598 87.1725C45.808 86.2957 46.0556 85.0896 46.4323 83.7837C46.8102 82.4781 47.2446 81.3244 47.5874 80.502C47.647 80.3589 47.8158 80.4208 47.7728 80.5697C47.5266 81.4212 47.1873 82.5951 46.8128 83.8903C46.4382 85.1872 46.0987 86.3624 45.8527 87.2141Z" fill="black"/>
<path d="M47.9075 86.8064C47.8709 86.9498 47.6992 86.9222 47.712 86.7748C47.7662 86.1474 47.8805 85.2819 48.1053 84.3461C48.3305 83.4105 48.6224 82.5864 48.8599 82.0014C48.9153 81.8647 49.0815 81.9154 49.049 82.0593C48.9056 82.6688 48.7084 83.5085 48.4904 84.4356C48.2628 85.3606 48.0569 86.1981 47.9075 86.8064Z" fill="black"/>
<path d="M50.1754 84.8619C50.1243 85.263 49.7316 85.2148 49.7825 84.8137C49.8333 84.4124 50.2263 84.4606 50.1754 84.8619Z" fill="black"/>
<path d="M71.6851 75.5779C71.7014 75.7034 71.5632 75.7417 71.4972 75.6337C71.3753 75.433 71.205 75.1713 71.0206 74.8854C70.8356 74.6 70.6664 74.3375 70.5335 74.1437C70.4628 74.0403 70.5542 73.9312 70.6606 73.9972C70.6641 73.9995 70.6677 74.0017 70.6714 74.004C70.8804 74.1342 71.1489 74.3592 71.3545 74.6762C71.5592 74.9937 71.6527 75.3281 71.684 75.5698C71.6844 75.5725 71.6847 75.5752 71.6851 75.5779Z" fill="black"/>
<path d="M76.9161 82.8103C76.9511 82.945 76.8039 82.9991 76.7319 82.8801C76.5561 82.5902 76.308 82.2039 76.0291 81.7846C75.7491 81.3658 75.4876 80.9881 75.2872 80.7142C75.2057 80.6031 75.3118 80.4889 75.4214 80.5724C75.4242 80.5746 75.4271 80.5768 75.43 80.579C75.7071 80.7906 76.0633 81.1269 76.3601 81.5705C76.6557 82.0146 76.8274 82.4701 76.9146 82.8045C76.9151 82.8065 76.9156 82.8084 76.9161 82.8103Z" fill="black"/>
<path d="M79.932 88.1313C79.9526 88.2509 79.821 88.297 79.7482 88.1999C79.6225 88.0277 79.4525 87.8019 79.2785 87.5491C79.1036 87.2968 78.9521 87.0585 78.8357 86.8803C78.7714 86.7792 78.8607 86.6736 78.9639 86.7346C78.9671 86.7365 78.9703 86.7384 78.9736 86.7404C79.1653 86.8544 79.412 87.0502 79.6057 87.3299C79.7988 87.6095 79.8935 87.9074 79.9309 88.1249C79.9313 88.127 79.9316 88.1292 79.932 88.1313Z" fill="black"/>
<path d="M82.8828 93.387C82.8676 93.4111 82.8329 93.4058 82.8221 93.3793C82.8069 93.342 82.7843 93.2911 82.7543 93.2356C82.6943 93.1216 82.6002 92.9987 82.4997 92.8707C82.3978 92.7439 82.2996 92.6241 82.2018 92.5392C82.1544 92.4971 82.1097 92.4631 82.0766 92.4395C82.0535 92.423 82.0568 92.3881 82.0839 92.3795C82.1256 92.365 82.1882 92.3542 82.2678 92.3556C82.4256 92.3556 82.657 92.4363 82.8113 92.631C82.9656 92.8257 82.9891 93.0663 82.9509 93.2171C82.9329 93.2935 82.9072 93.3508 82.8828 93.387Z" fill="black"/>
<path d="M94.3208 85.8625C94.3614 85.9668 94.2662 86.0518 94.1736 85.9889C94.1709 85.9871 94.1683 85.9853 94.1655 85.9834C94.0234 85.8865 93.8453 85.7234 93.7193 85.4982C93.5937 85.2727 93.5493 85.0373 93.5424 84.8674C93.5423 84.8657 93.5423 84.864 93.5422 84.8624C93.5376 84.7492 93.6612 84.7129 93.7292 84.8035C93.8276 84.9349 93.9539 85.1091 94.0662 85.3107C94.1789 85.5122 94.2605 85.7103 94.3208 85.8625Z" fill="black"/>
<path d="M95.1289 85.523C95.1511 85.6165 95.0686 85.6892 94.9812 85.6491C94.9795 85.6483 94.9777 85.6475 94.976 85.6467C94.8711 85.5982 94.7408 85.5119 94.6485 85.3784C94.5564 85.2448 94.5228 85.0937 94.5155 84.9799C94.5091 84.8827 94.6083 84.8303 94.6887 84.8853C94.7808 84.9486 94.892 85.0378 94.9757 85.1592C95.0596 85.2807 95.1028 85.4155 95.1289 85.523Z" fill="black"/>
<path d="M94.2276 81.4248C93.7769 81.6734 93.5838 81.3333 94.0345 81.0847C94.4871 80.8357 94.6803 81.1758 94.2276 81.4248Z" fill="black"/>
<path d="M97.5863 60.5155C97.5918 60.6165 97.4799 60.6353 97.4411 60.5419C97.358 60.3438 97.2376 60.0812 97.1003 59.7965C96.9625 59.5123 96.8316 59.2543 96.7279 59.0658C96.6796 58.9785 96.7633 58.9033 96.8379 58.9697C96.8402 58.9718 96.8426 58.9739 96.8449 58.9761C97.0114 59.1249 97.219 59.3629 97.3685 59.671C97.5173 59.9798 97.5738 60.2885 97.5859 60.5094C97.586 60.5115 97.5862 60.5135 97.5863 60.5155Z" fill="black"/>
<path d="M105.256 63.7087C105.294 63.8058 105.188 63.8606 105.126 63.7767C104.958 63.5495 104.73 63.2366 104.487 62.8923C104.247 62.5482 104.032 62.2283 103.876 61.9932C103.819 61.9062 103.907 61.8248 103.985 61.894C104.201 62.0838 104.48 62.3686 104.731 62.7264C104.982 63.0844 105.153 63.443 105.256 63.7087Z" fill="black"/>
<path d="M104.298 71.4084C104.291 71.429 104.259 71.4278 104.253 71.4068C104.239 71.3595 104.218 71.293 104.187 71.216C104.126 71.06 104.017 70.8696 103.871 70.6826C103.724 70.4965 103.564 70.3451 103.426 70.2473C103.358 70.1987 103.298 70.1615 103.255 70.1364C103.236 70.1253 103.243 70.0942 103.265 70.0928C103.317 70.0894 103.393 70.0942 103.485 70.1136C103.67 70.1498 103.923 70.2721 104.106 70.5039C104.288 70.7362 104.344 71.0084 104.333 71.1932C104.329 71.2861 104.315 71.3593 104.298 71.4084Z" fill="black"/>
<path d="M101.741 82.1425C101.742 82.2326 101.642 82.2468 101.597 82.1684C101.525 82.0387 101.417 81.879 101.291 81.7128C101.164 81.5475 101.039 81.4007 100.932 81.2961C100.869 81.2332 100.91 81.141 100.996 81.1667C101 81.1681 101.005 81.1695 101.009 81.1709C101.165 81.2188 101.374 81.3357 101.528 81.5375C101.682 81.7399 101.737 81.9703 101.741 82.1307C101.741 82.1347 101.741 82.1386 101.741 82.1425Z" fill="black"/>
<path d="M61.8897 60.373C61.9471 60.4488 61.8701 60.5264 61.7879 60.4786C61.6255 60.3814 61.4077 60.2511 61.1677 60.1074C60.9314 59.958 60.7171 59.8226 60.557 59.7214C60.4781 59.6703 60.5126 59.5675 60.6051 59.5845C60.6074 59.5849 60.6097 59.5853 60.612 59.5857C60.8051 59.6214 61.0692 59.7026 61.3249 59.8594C61.5803 60.0168 61.7703 60.2149 61.8875 60.3702C61.8883 60.3712 61.889 60.3721 61.8897 60.373Z" fill="black"/>
</g>
<mask id="mask23_601_666" style="mask-type:luminance" maskUnits="userSpaceOnUse" x="0" y="0" width="146" height="143">
<path d="M127.346 0L18.5624 0C8.62125 0 0.562378 8.0589 0.562378 18V124.532C0.562378 134.473 8.62124 142.532 18.5624 142.532H127.346C137.288 142.532 145.346 134.473 145.346 124.532V18C145.346 8.05888 137.288 0 127.346 0Z" fill="white"/>
</mask>
<g mask="url(#mask23_601_666)">
<path d="M93.1973 52.384L123.586 33.8631L118.147 27.5518L93.1973 52.384Z" fill="#C0EDFF"/>
<path d="M96.0762 53.1372L122.47 49.376L120.59 42.835L96.0762 53.1372Z" fill="#C0EDFF"/>
<path d="M93.5391 49.849L104.777 34.5034L100.577 32.4268L93.5391 49.849Z" fill="#C0EDFF"/>
</g>
</svg>
