<svg width="153" height="153" viewBox="0 0 153 153" fill="none" xmlns="http://www.w3.org/2000/svg">
<rect x="2.37891" y="2.55469" width="148.301" height="148.301" rx="14" fill="url(#paint0_linear_2481_6256)" stroke="white" stroke-width="4"/>
<g style="mix-blend-mode:screen">
<path d="M14.5172 27.1442C11.0049 27.5256 7.62801 25.1066 7.88311 21.8016C8.13975 18.4766 9.17075 14.4865 12.2587 11.7781C15.904 8.58068 21.2848 8.56625 30.3135 8.56663C37.1527 8.56692 43.619 8.86318 46.3531 9.00686C47.2024 9.05149 47.9871 9.52013 48.4194 10.2306C49.2214 11.5486 48.5122 13.1293 46.9916 13.4126L44.6591 13.8471C44.3978 13.8958 44.1342 13.9203 43.8647 13.9271C42.1643 13.9699 35.3438 14.2816 28.8064 16.5502C24.3246 18.1054 21.3198 21.4995 19.6403 23.9493C18.4888 25.6289 16.6885 26.9084 14.5172 27.1442Z" fill="white" fill-opacity="0.51"/>
</g>
<path d="M75.4514 11.2434C75.5248 13.9378 66.9799 12.8133 63.1461 12.8483C59.3124 12.8834 51.7284 14.754 51.6549 12.0596C51.5815 9.36517 53.9405 9.26 57.7742 9.22496C61.608 9.18993 75.3779 8.549 75.4514 11.2434Z" fill="white" fill-opacity="0.51"/>
<defs>
<linearGradient id="paint0_linear_2481_6256" x1="76.5292" y1="0.554687" x2="76.5292" y2="152.855" gradientUnits="userSpaceOnUse">
<stop stop-color="#F89256"/>
<stop offset="0.5" stop-color="#F17A34"/>
<stop offset="1" stop-color="#EA6F26"/>
</linearGradient>
</defs>
</svg>
