<svg width="267" height="69" viewBox="0 0 267 69" fill="none" xmlns="http://www.w3.org/2000/svg">
<g filter="url(#filter0_i_305_2031)">
<rect width="266.486" height="68.4722" rx="16" fill="url(#paint0_linear_305_2031)"/>
</g>
<rect x="2" y="2" width="262.486" height="64.4722" rx="14" stroke="white" stroke-width="4"/>
<path d="M91.364 45.324C90.452 45.324 89.756 45.072 89.276 44.568C88.796 44.064 88.556 43.356 88.556 42.444V22.464C88.556 21.528 88.796 20.82 89.276 20.34C89.78 19.86 90.488 19.62 91.4 19.62H100.148C102.98 19.62 105.164 20.34 106.7 21.78C108.236 23.196 109.004 25.176 109.004 27.72C109.004 30.264 108.236 32.256 106.7 33.696C105.164 35.136 102.98 35.856 100.148 35.856H94.136V42.444C94.136 43.356 93.896 44.064 93.416 44.568C92.96 45.072 92.276 45.324 91.364 45.324ZM94.136 31.536H99.212C100.652 31.536 101.744 31.212 102.488 30.564C103.256 29.916 103.64 28.968 103.64 27.72C103.64 26.472 103.256 25.536 102.488 24.912C101.744 24.288 100.652 23.976 99.212 23.976H94.136V31.536ZM115.306 45C114.394 45 113.686 44.748 113.182 44.244C112.702 43.74 112.462 43.044 112.462 42.156V22.392C112.462 21.456 112.702 20.748 113.182 20.268C113.662 19.788 114.358 19.548 115.27 19.548C116.158 19.548 116.842 19.788 117.322 20.268C117.802 20.748 118.042 21.456 118.042 22.392V40.284H127.69C128.458 40.284 129.046 40.488 129.454 40.896C129.886 41.304 130.102 41.88 130.102 42.624C130.102 43.392 129.886 43.98 129.454 44.388C129.046 44.796 128.458 45 127.69 45H115.306ZM133.362 45.324C132.69 45.324 132.138 45.168 131.706 44.856C131.298 44.544 131.034 44.124 130.914 43.596C130.818 43.068 130.926 42.48 131.238 41.832L140.454 21.636C140.838 20.82 141.294 20.232 141.822 19.872C142.35 19.488 142.962 19.296 143.658 19.296C144.354 19.296 144.966 19.488 145.494 19.872C146.022 20.232 146.466 20.82 146.826 21.636L156.114 41.832C156.426 42.48 156.534 43.08 156.438 43.632C156.366 44.16 156.126 44.58 155.718 44.892C155.31 45.18 154.782 45.324 154.134 45.324C153.318 45.324 152.682 45.132 152.226 44.748C151.794 44.364 151.41 43.764 151.074 42.948L148.914 37.944L151.146 39.492H136.134L138.366 37.944L136.242 42.948C135.882 43.788 135.498 44.4 135.09 44.784C134.706 45.144 134.13 45.324 133.362 45.324ZM143.586 25.56L138.978 36.54L138.006 35.136H149.274L148.302 36.54L143.658 25.56H143.586ZM166.212 45.324C165.3 45.324 164.604 45.072 164.124 44.568C163.644 44.064 163.404 43.344 163.404 42.408V31.968L164.556 35.172L156.06 23.112C155.724 22.608 155.58 22.068 155.628 21.492C155.676 20.892 155.916 20.376 156.348 19.944C156.78 19.512 157.392 19.296 158.184 19.296C158.76 19.296 159.276 19.44 159.732 19.728C160.212 20.016 160.668 20.472 161.1 21.096L166.86 29.412H165.708L171.468 21.096C171.924 20.448 172.368 19.992 172.8 19.728C173.256 19.44 173.784 19.296 174.384 19.296C175.152 19.296 175.752 19.5 176.184 19.908C176.616 20.292 176.844 20.784 176.868 21.384C176.892 21.96 176.688 22.56 176.256 23.184L167.868 35.172L168.984 31.968V42.408C168.984 44.352 168.06 45.324 166.212 45.324Z" fill="white"/>
<g style="mix-blend-mode:screen">
<path d="M7.30246 14.7301C6.8527 13.4471 7.24401 12.0189 8.34045 11.215C10.0813 9.93875 12.7842 8.14884 15.0092 7.52022C17.2743 6.88029 20.4078 6.67775 22.5799 6.6188C24.0713 6.57833 25.3559 7.60407 25.7235 9.05009C26.2669 11.1883 24.6178 13.2748 22.4171 13.4291C20.68 13.5509 18.7149 13.7846 17.0926 14.2286C15.8383 14.5718 14.5596 15.3337 13.4075 16.2026C11.3754 17.7351 8.14447 17.1319 7.30246 14.7301Z" fill="white" fill-opacity="0.51"/>
</g>
<circle cx="30.8381" cy="9.56184" r="3.39277" fill="white" fill-opacity="0.51"/>
<defs>
<filter id="filter0_i_305_2031" x="-8" y="-7" width="274.486" height="75.4722" filterUnits="userSpaceOnUse" color-interpolation-filters="sRGB">
<feFlood flood-opacity="0" result="BackgroundImageFix"/>
<feBlend mode="normal" in="SourceGraphic" in2="BackgroundImageFix" result="shape"/>
<feColorMatrix in="SourceAlpha" type="matrix" values="0 0 0 0 0 0 0 0 0 0 0 0 0 0 0 0 0 0 127 0" result="hardAlpha"/>
<feOffset dx="-8" dy="-7"/>
<feGaussianBlur stdDeviation="4.8"/>
<feComposite in2="hardAlpha" operator="arithmetic" k2="-1" k3="1"/>
<feColorMatrix type="matrix" values="0 0 0 0 0 0 0 0 0 0 0 0 0 0 0 0 0 0 0.36 0"/>
<feBlend mode="normal" in2="shape" result="effect1_innerShadow_305_2031"/>
</filter>
<linearGradient id="paint0_linear_305_2031" x1="133.243" y1="0" x2="133.243" y2="68.4722" gradientUnits="userSpaceOnUse">
<stop stop-color="#79FD6E"/>
<stop offset="0.324" stop-color="#68F824"/>
<stop offset="1" stop-color="#429601"/>
</linearGradient>
</defs>
</svg>
