<svg width="291" height="191" viewBox="0 0 291 191" fill="none" xmlns="http://www.w3.org/2000/svg">
<rect x="3" y="3" width="285" height="185" rx="9" fill="#E8F0FA" stroke="#9DD4D8" stroke-width="6"/>
<g opacity="0.64">
<mask id="mask0_2481_7247" style="mask-type:alpha" maskUnits="userSpaceOnUse" x="4" y="4" width="283" height="183">
<rect x="7.97656" y="7.53125" width="275.066" height="175.973" rx="3" fill="#E8F0FA" stroke="#9DD4D8" stroke-width="6"/>
</mask>
<g mask="url(#mask0_2481_7247)">
<path d="M2.37109 26.7946C-1.8278 28.6581 -4.20984 30.7626 -8.87128 30.5092C-20.6218 29.8704 -8.87128 3.02148 -8.87128 3.02148H295.162V43.1387C295.162 43.1387 291.835 51.0747 287.504 50.5678C284.422 50.2071 283.56 47.8911 281.638 45.6646C275.71 38.7978 287.553 24.6803 278.054 23.5258C270.204 22.572 270.316 32.6112 263.716 36.6011C250.566 44.5498 239.733 43.3993 223.96 43.1387C209.624 42.9019 207.543 31.0361 193.98 26.7946C181.813 22.9895 171.005 25.3455 158.298 23.5258C151.509 22.5537 147.491 24.4891 140.701 23.5258C129.911 21.9952 125.763 15.0087 114.958 13.5708C103.204 12.0067 96.3242 14.6052 84.8152 17.2854C73.6741 19.8799 68.764 26.2755 57.2795 26.7946C49.0883 27.1649 44.5204 25.4218 36.587 23.5258C28.8196 21.6696 25.1129 16.0519 17.198 17.2854C10.2203 18.3728 8.73626 23.9699 2.37109 26.7946Z" fill="#D3E7FF"/>
<path d="M287.116 158.984C291.691 156.882 294.268 154.542 299.386 154.754C312.289 155.288 299.386 187.635 299.386 187.635L-33.6936 189.167L-34.375 145.2C-34.375 145.2 -30.8599 136.455 -26.1 136.95C-22.7125 137.301 -21.7283 139.828 -19.5817 142.241C-12.9614 149.683 -25.7146 165.322 -15.2732 166.454C-6.64568 167.388 -6.9385 156.387 0.234714 151.921C14.5255 143.024 26.4296 144.132 43.7386 144.196C59.47 144.253 61.9548 157.228 76.9062 161.686C90.3195 165.684 102.136 162.95 116.108 164.765C123.572 165.735 127.947 163.557 135.413 164.517C147.276 166.042 151.945 173.641 163.824 175.064C176.746 176.613 184.249 173.668 196.83 170.568C209.009 167.568 214.287 160.489 226.877 159.758C235.857 159.237 240.898 161.083 249.634 163.049C258.187 164.974 262.349 171.078 271.011 169.615C278.648 168.324 280.181 162.169 287.116 158.984Z" fill="#D3E7FF"/>
<ellipse cx="18.6567" cy="50.2123" rx="3.73096" ry="3.39783" fill="#D3E7FF"/>
<ellipse cx="75.8657" cy="152.148" rx="5.38917" ry="4.90798" fill="#D3E7FF"/>
<ellipse cx="256.612" cy="64.5603" rx="5.38917" ry="4.90798" fill="#D3E7FF"/>
<ellipse cx="110.686" cy="18.501" rx="2.07276" ry="1.88768" fill="#D3E7FF"/>
<ellipse cx="194.425" cy="35.8674" rx="2.90186" ry="2.64276" fill="#D3E7FF"/>
<ellipse cx="50.9917" cy="90.9873" rx="6.21827" ry="5.66305" fill="#D3E7FF"/>
<ellipse cx="258.269" cy="143.087" rx="6.21827" ry="5.66305" fill="#D3E7FF"/>
</g>
</g>
</svg>
