<svg width="125" height="125" viewBox="0 0 125 125" fill="none" xmlns="http://www.w3.org/2000/svg">
<rect x="2.92969" y="3.08594" width="119.142" height="119.142" rx="14" fill="url(#paint0_linear_2679_5243)" stroke="white" stroke-width="4"/>
<g style="mix-blend-mode:screen">
<path d="M12.3609 22.5848C9.52106 22.8932 6.79069 20.9373 6.99694 18.2651C7.20445 15.5767 8.03806 12.3505 10.5348 10.1606C13.4822 7.57534 17.8328 7.56367 25.1329 7.56398C30.6627 7.56421 35.891 7.80375 38.1017 7.91992C38.7884 7.95601 39.4228 8.33493 39.7723 8.90934C40.4208 9.97506 39.8473 11.2531 38.6179 11.4821L36.732 11.8335C36.5207 11.8728 36.3075 11.8926 36.0897 11.8981C34.7148 11.9327 29.2001 12.1848 23.9143 14.019C20.2907 15.2765 17.8611 18.0208 16.5032 20.0015C15.5721 21.3596 14.1165 22.3941 12.3609 22.5848Z" fill="white" fill-opacity="0.51"/>
</g>
<path d="M61.6307 9.72746C61.6901 11.906 54.7811 10.9968 51.6814 11.0251C48.5816 11.0534 42.4496 12.5659 42.3902 10.3874C42.3308 8.20881 44.2382 8.12377 47.338 8.09545C50.4377 8.06712 61.5713 7.5489 61.6307 9.72746Z" fill="white" fill-opacity="0.51"/>
<defs>
<linearGradient id="paint0_linear_2679_5243" x1="62.5006" y1="1.08594" x2="62.5006" y2="124.228" gradientUnits="userSpaceOnUse">
<stop stop-color="#F64B4B"/>
<stop offset="0.5" stop-color="#EC2A2A"/>
<stop offset="1" stop-color="#EC2929"/>
</linearGradient>
</defs>
</svg>
