<svg width="38" height="38" viewBox="0 0 38 38" fill="none" xmlns="http://www.w3.org/2000/svg">
<g filter="url(#filter0_i_601_1922)">
<rect width="37.5" height="37.5" rx="18.75" fill="url(#paint0_linear_601_1922)"/>
</g>
<rect x="1.5" y="1.5" width="34.5" height="34.5" rx="17.25" stroke="white" stroke-width="3"/>
<g style="mix-blend-mode:screen">
<path d="M8.08822 8.96184C7.90535 8.44917 7.99098 7.82295 8.34366 7.3466C8.90924 6.58268 9.81676 5.47627 10.6136 5.04069C11.3622 4.63149 12.4156 4.40149 13.2027 4.27797C13.8593 4.17492 14.4162 4.59363 14.6114 5.27275C14.9496 6.44915 14.0766 7.82524 12.9469 8.15382C12.54 8.27215 12.1354 8.42137 11.7834 8.60869C11.5884 8.71248 11.3964 8.86064 11.2107 9.03815C10.1997 10.0046 8.5298 10.1998 8.08822 8.96184Z" fill="white" fill-opacity="0.51"/>
</g>
<path d="M18.9486 4.56359C19.0583 5.58315 17.3946 6.53599 16.7021 6.60782C16.0096 6.67965 15.4434 6.6928 15.3338 5.67324C15.2241 4.65367 15.6966 3.76892 16.3891 3.69709C17.0816 3.62525 18.839 3.54402 18.9486 4.56359Z" fill="white" fill-opacity="0.51"/>
<path d="M28.6549 19.3536C28.648 18.2186 27.7186 17.2996 26.5743 17.2996C25.424 17.2996 24.4913 18.2252 24.4913 19.3681C24.4913 19.4435 24.4962 19.52 24.505 19.5944V19.6932C24.505 22.7938 21.9671 25.3163 18.8472 25.3163C15.7275 25.3163 13.1892 22.7938 13.1892 19.6932C13.1892 16.5943 15.7275 14.0706 18.8472 14.0706C19.082 14.0706 19.317 14.0852 19.5515 14.1145V14.9622H19.5529C19.5529 14.9659 19.5515 14.9704 19.5515 14.9758C19.5515 15.81 20.2327 16.4872 21.0731 16.4872C21.5611 16.4872 21.9907 16.2558 22.2687 15.9011H22.2694L24.9093 13.2704C25.2199 12.9927 25.4183 12.5958 25.4183 12.1493C25.4183 11.6357 25.1602 11.1848 24.7674 10.912L22.2028 8.35979C22.1662 8.31683 22.1274 8.27857 22.0871 8.24312L22.0427 8.19923C22.0377 8.19923 22.0349 8.19641 22.0297 8.19641C21.7682 7.98351 21.4382 7.85253 21.0728 7.85253C20.2738 7.85253 19.6264 8.46612 19.5638 9.24403C19.5588 9.24825 19.556 9.25483 19.551 9.25858V9.96513C19.3149 9.94823 19.0801 9.94002 18.8467 9.94002C13.4343 9.94002 9.03052 14.3155 9.03052 19.6935C9.03052 25.0719 13.4343 29.4471 18.8467 29.4471C24.2591 29.4469 28.662 25.0717 28.662 19.6932V19.359C28.6589 19.3578 28.6577 19.355 28.6549 19.3536Z" fill="white"/>
<defs>
<filter id="filter0_i_601_1922" x="-7" y="-8" width="44.5" height="45.5" filterUnits="userSpaceOnUse" color-interpolation-filters="sRGB">
<feFlood flood-opacity="0" result="BackgroundImageFix"/>
<feBlend mode="normal" in="SourceGraphic" in2="BackgroundImageFix" result="shape"/>
<feColorMatrix in="SourceAlpha" type="matrix" values="0 0 0 0 0 0 0 0 0 0 0 0 0 0 0 0 0 0 127 0" result="hardAlpha"/>
<feOffset dx="-7" dy="-8"/>
<feGaussianBlur stdDeviation="4.7"/>
<feComposite in2="hardAlpha" operator="arithmetic" k2="-1" k3="1"/>
<feColorMatrix type="matrix" values="0 0 0 0 0 0 0 0 0 0 0 0 0 0 0 0 0 0 0.25 0"/>
<feBlend mode="normal" in2="shape" result="effect1_innerShadow_601_1922"/>
</filter>
<linearGradient id="paint0_linear_601_1922" x1="18.75" y1="0" x2="18.75" y2="37.5" gradientUnits="userSpaceOnUse">
<stop stop-color="#FA9960"/>
<stop offset="0.5" stop-color="#F27C36"/>
<stop offset="1" stop-color="#E86C23"/>
</linearGradient>
</defs>
</svg>
