<svg width="51" height="50" viewBox="0 0 51 50" fill="none" xmlns="http://www.w3.org/2000/svg">
<g filter="url(#filter0_i_601_1771)">
<rect width="50" height="50" rx="25" transform="matrix(-1 0 0 1 50.4531 0)" fill="url(#paint0_linear_601_1771)"/>
</g>
<rect x="-1.5" y="1.5" width="47" height="47" rx="23.5" transform="matrix(-1 0 0 1 47.4531 0)" stroke="white" stroke-width="3"/>
<g style="mix-blend-mode:screen">
<path d="M23.3639 5.62302C23.0238 4.99093 22.343 4.53762 21.5779 4.48927C20.3507 4.4117 18.497 4.39056 17.3896 4.83623C16.3497 5.25479 15.2219 6.14303 14.426 6.84875C13.7616 7.4378 13.6894 8.37511 14.1806 9.16441C15.032 10.5325 17.1196 10.8216 18.4108 9.93899C18.874 9.62234 19.3651 9.33478 19.848 9.13402C20.1149 9.02307 20.4217 8.95329 20.7516 8.91514C22.559 8.70603 24.1861 7.1508 23.3639 5.62302Z" fill="white" fill-opacity="0.51"/>
</g>
<path d="M9.76755 13.0317C10.663 14.0278 13.0167 13.1351 13.6812 12.4823C14.3457 11.8294 14.8448 11.2562 13.9494 10.26C13.054 9.26384 11.7894 8.98553 11.1249 9.63837C10.4604 10.2912 8.87214 12.0355 9.76755 13.0317Z" fill="white" fill-opacity="0.51"/>
<g filter="url(#filter1_d_601_1771)">
<mask id="path-5-outside-1_601_1771" maskUnits="userSpaceOnUse" x="11.8164" y="12.3644" width="26" height="26" fill="black">
<rect fill="white" x="11.8164" y="12.3644" width="26" height="26"/>
<path d="M16.8501 21.6449H26.2338L23.6518 18.9278C23.0665 18.3135 22.7431 17.4939 22.7431 16.6231C22.7431 15.7524 23.0665 14.9327 23.6518 14.318C24.8597 13.0465 26.827 13.0465 28.0356 14.318L35.907 22.5996C36.4935 23.2134 36.8164 24.0323 36.8164 24.9058V24.9811C36.8164 25.8521 36.4954 26.6697 35.912 27.2832L28.0366 35.5681C27.4515 36.1858 26.6726 36.5268 25.8428 36.5268C25.0141 36.5268 24.2348 36.1858 23.6542 35.5736C23.0675 34.9573 22.7429 34.1382 22.7429 33.266C22.7429 32.3952 23.0654 31.577 23.6516 30.9591L26.2317 28.2434H16.8499C15.1468 28.2434 13.7612 26.7636 13.7612 24.9435C13.7615 23.125 15.147 21.6449 16.8501 21.6449Z"/>
</mask>
<path d="M16.8501 21.6449H26.2338L23.6518 18.9278C23.0665 18.3135 22.7431 17.4939 22.7431 16.6231C22.7431 15.7524 23.0665 14.9327 23.6518 14.318C24.8597 13.0465 26.827 13.0465 28.0356 14.318L35.907 22.5996C36.4935 23.2134 36.8164 24.0323 36.8164 24.9058V24.9811C36.8164 25.8521 36.4954 26.6697 35.912 27.2832L28.0366 35.5681C27.4515 36.1858 26.6726 36.5268 25.8428 36.5268C25.0141 36.5268 24.2348 36.1858 23.6542 35.5736C23.0675 34.9573 22.7429 34.1382 22.7429 33.266C22.7429 32.3952 23.0654 31.577 23.6516 30.9591L26.2317 28.2434H16.8499C15.1468 28.2434 13.7612 26.7636 13.7612 24.9435C13.7615 23.125 15.147 21.6449 16.8501 21.6449Z" fill="white"/>
<path d="M16.8501 21.6449H26.2338L23.6518 18.9278C23.0665 18.3135 22.7431 17.4939 22.7431 16.6231C22.7431 15.7524 23.0665 14.9327 23.6518 14.318C24.8597 13.0465 26.827 13.0465 28.0356 14.318L35.907 22.5996C36.4935 23.2134 36.8164 24.0323 36.8164 24.9058V24.9811C36.8164 25.8521 36.4954 26.6697 35.912 27.2832L28.0366 35.5681C27.4515 36.1858 26.6726 36.5268 25.8428 36.5268C25.0141 36.5268 24.2348 36.1858 23.6542 35.5736C23.0675 34.9573 22.7429 34.1382 22.7429 33.266C22.7429 32.3952 23.0654 31.577 23.6516 30.9591L26.2317 28.2434H16.8499C15.1468 28.2434 13.7612 26.7636 13.7612 24.9435C13.7615 23.125 15.147 21.6449 16.8501 21.6449Z" stroke="black" stroke-width="2" mask="url(#path-5-outside-1_601_1771)"/>
</g>
<defs>
<filter id="filter0_i_601_1771" x="-6.54688" y="-4" width="57" height="54" filterUnits="userSpaceOnUse" color-interpolation-filters="sRGB">
<feFlood flood-opacity="0" result="BackgroundImageFix"/>
<feBlend mode="normal" in="SourceGraphic" in2="BackgroundImageFix" result="shape"/>
<feColorMatrix in="SourceAlpha" type="matrix" values="0 0 0 0 0 0 0 0 0 0 0 0 0 0 0 0 0 0 127 0" result="hardAlpha"/>
<feOffset dx="-7" dy="-4"/>
<feGaussianBlur stdDeviation="3.5"/>
<feComposite in2="hardAlpha" operator="arithmetic" k2="-1" k3="1"/>
<feColorMatrix type="matrix" values="0 0 0 0 0 0 0 0 0 0 0 0 0 0 0 0 0 0 0.15 0"/>
<feBlend mode="normal" in2="shape" result="effect1_innerShadow_601_1771"/>
</filter>
<filter id="filter1_d_601_1771" x="12.7612" y="12.3644" width="26.0552" height="26.1624" filterUnits="userSpaceOnUse" color-interpolation-filters="sRGB">
<feFlood flood-opacity="0" result="BackgroundImageFix"/>
<feColorMatrix in="SourceAlpha" type="matrix" values="0 0 0 0 0 0 0 0 0 0 0 0 0 0 0 0 0 0 127 0" result="hardAlpha"/>
<feOffset dx="1" dy="1"/>
<feComposite in2="hardAlpha" operator="out"/>
<feColorMatrix type="matrix" values="0 0 0 0 0 0 0 0 0 0 0 0 0 0 0 0 0 0 0.2 0"/>
<feBlend mode="normal" in2="BackgroundImageFix" result="effect1_dropShadow_601_1771"/>
<feBlend mode="normal" in="SourceGraphic" in2="effect1_dropShadow_601_1771" result="shape"/>
</filter>
<linearGradient id="paint0_linear_601_1771" x1="25" y1="0" x2="25" y2="50" gradientUnits="userSpaceOnUse">
<stop stop-color="#77F56C"/>
<stop offset="0.315" stop-color="#68F824"/>
<stop offset="1" stop-color="#429601"/>
</linearGradient>
</defs>
</svg>
