<svg width="168" height="54" viewBox="0 0 168 54" fill="none" xmlns="http://www.w3.org/2000/svg">
<path opacity="0.5" d="M124.5 21.5C124.5 24.1558 121.709 26.5 118 26.5C114.291 26.5 111.5 24.1558 111.5 21.5C111.5 18.8442 114.291 16.5 118 16.5C121.709 16.5 124.5 18.8442 124.5 21.5Z" fill="white" stroke="white"/>
<rect x="1.5" y="1.5" width="165" height="51" rx="22.5" fill="url(#paint0_linear_2989_4821)" stroke="white" stroke-width="3"/>
<path d="M58.4451 35.253C57.8011 35.253 57.1418 35.1993 56.4671 35.092C55.8078 35 55.1714 34.862 54.5581 34.678C53.9601 34.494 53.4234 34.264 52.9481 33.988C52.6108 33.804 52.3731 33.5663 52.2351 33.275C52.0971 32.9683 52.0434 32.6617 52.0741 32.355C52.1201 32.0483 52.2351 31.78 52.4191 31.55C52.6184 31.3047 52.8638 31.1513 53.1551 31.09C53.4618 31.0133 53.7991 31.067 54.1671 31.251C54.7958 31.6037 55.4781 31.8643 56.2141 32.033C56.9654 32.2017 57.7091 32.286 58.4451 32.286C59.5644 32.286 60.3618 32.1173 60.8371 31.78C61.3124 31.4273 61.5501 30.9903 61.5501 30.469C61.5501 30.0243 61.3814 29.6717 61.0441 29.411C60.7068 29.1503 60.1164 28.928 59.2731 28.744L56.6741 28.192C55.2021 27.8853 54.1058 27.364 53.3851 26.628C52.6798 25.8767 52.3271 24.8953 52.3271 23.684C52.3271 22.9173 52.4881 22.2197 52.8101 21.591C53.1321 20.9623 53.5844 20.418 54.1671 19.958C54.7498 19.498 55.4398 19.1453 56.2371 18.9C57.0498 18.6547 57.9391 18.532 58.9051 18.532C59.7638 18.532 60.6071 18.6393 61.4351 18.854C62.2631 19.0533 62.9914 19.3523 63.6201 19.751C63.9268 19.935 64.1338 20.1727 64.2411 20.464C64.3638 20.74 64.4021 21.0237 64.3561 21.315C64.3254 21.591 64.2104 21.8363 64.0111 22.051C63.8271 22.2657 63.5894 22.4037 63.2981 22.465C63.0068 22.5263 62.6541 22.4573 62.2401 22.258C61.7341 21.9973 61.1974 21.8057 60.6301 21.683C60.0628 21.5603 59.4801 21.499 58.8821 21.499C58.2381 21.499 57.6861 21.5833 57.2261 21.752C56.7814 21.9207 56.4364 22.1583 56.1911 22.465C55.9611 22.7717 55.8461 23.1243 55.8461 23.523C55.8461 23.9677 56.0071 24.328 56.3291 24.604C56.6511 24.88 57.2108 25.1023 58.0081 25.271L60.6071 25.823C62.1098 26.145 63.2291 26.6663 63.9651 27.387C64.7011 28.0923 65.0691 29.0277 65.0691 30.193C65.0691 30.9597 64.9158 31.6573 64.6091 32.286C64.3024 32.8993 63.8578 33.4283 63.2751 33.873C62.6924 34.3177 61.9948 34.6627 61.1821 34.908C60.3694 35.138 59.4571 35.253 58.4451 35.253ZM67.6863 35.207C67.2569 35.207 66.9043 35.1073 66.6283 34.908C66.3676 34.7087 66.1989 34.4403 66.1223 34.103C66.0609 33.7657 66.1299 33.39 66.3293 32.976L72.2173 20.073C72.4626 19.5517 72.7539 19.176 73.0913 18.946C73.4286 18.7007 73.8196 18.578 74.2643 18.578C74.7089 18.578 75.0999 18.7007 75.4373 18.946C75.7746 19.176 76.0583 19.5517 76.2883 20.073L82.2223 32.976C82.4216 33.39 82.4906 33.7733 82.4293 34.126C82.3833 34.4633 82.2299 34.7317 81.9693 34.931C81.7086 35.115 81.3713 35.207 80.9573 35.207C80.4359 35.207 80.0296 35.0843 79.7383 34.839C79.4623 34.5937 79.2169 34.2103 79.0023 33.689L77.6223 30.492L79.0483 31.481H69.4573L70.8833 30.492L69.5263 33.689C69.2963 34.2257 69.0509 34.6167 68.7903 34.862C68.5449 35.092 68.1769 35.207 67.6863 35.207ZM74.2183 22.58L71.2743 29.595L70.6533 28.698H77.8523L77.2313 29.595L74.2643 22.58H74.2183ZM86.1996 35.207C85.6783 35.207 85.2796 35.0613 85.0036 34.77C84.7276 34.4787 84.5896 34.0723 84.5896 33.551V20.234C84.5896 19.7127 84.7353 19.3063 85.0266 19.015C85.3333 18.7237 85.7473 18.578 86.2686 18.578C86.7286 18.578 87.089 18.67 87.3496 18.854C87.6256 19.0227 87.8786 19.3217 88.1086 19.751L93.4216 29.457H92.6396L97.9526 19.751C98.1826 19.3217 98.428 19.0227 98.6886 18.854C98.9646 18.67 99.325 18.578 99.7696 18.578C100.291 18.578 100.69 18.7237 100.966 19.015C101.257 19.3063 101.403 19.7127 101.403 20.234V33.551C101.403 34.0723 101.265 34.4787 100.989 34.77C100.713 35.0613 100.314 35.207 99.7926 35.207C99.2713 35.207 98.865 35.0613 98.5736 34.77C98.2976 34.4787 98.1596 34.0723 98.1596 33.551V24.236H98.6656L94.3876 31.895C94.2036 32.1863 94.0043 32.4087 93.7896 32.562C93.5903 32.7 93.322 32.769 92.9846 32.769C92.6473 32.769 92.3713 32.6923 92.1566 32.539C91.942 32.3857 91.7503 32.171 91.5816 31.895L87.2576 24.213H87.8096V33.551C87.8096 34.0723 87.6716 34.4787 87.3956 34.77C87.135 35.0613 86.7363 35.207 86.1996 35.207ZM106.554 35C105.956 35 105.496 34.839 105.174 34.517C104.852 34.195 104.691 33.735 104.691 33.137V20.648C104.691 20.05 104.852 19.59 105.174 19.268C105.496 18.946 105.956 18.785 106.554 18.785H114.581C115.041 18.785 115.386 18.9077 115.616 19.153C115.861 19.383 115.984 19.7203 115.984 20.165C115.984 20.625 115.861 20.9777 115.616 21.223C115.386 21.453 115.041 21.568 114.581 21.568H108.095V25.363H114.052C114.527 25.363 114.88 25.4857 115.11 25.731C115.355 25.961 115.478 26.306 115.478 26.766C115.478 27.226 115.355 27.5787 115.11 27.824C114.88 28.054 114.527 28.169 114.052 28.169H108.095V32.217H114.581C115.041 32.217 115.386 32.3397 115.616 32.585C115.861 32.815 115.984 33.1523 115.984 33.597C115.984 34.057 115.861 34.4097 115.616 34.655C115.386 34.885 115.041 35 114.581 35H106.554Z" fill="white"/>
<g style="mix-blend-mode:screen">
<path d="M29.6292 6.65136C29.1976 5.82908 28.3218 5.17611 27.3022 4.9904C25.6341 4.68656 23.0802 4.34753 21.5637 4.75981C20.1691 5.13896 18.6612 6.10989 17.5865 6.90692C16.6569 7.59631 16.537 8.7925 17.1853 9.87209C18.3586 11.8259 21.3971 12.4597 23.3348 11.4762C23.8578 11.2108 24.4004 10.9826 24.9359 10.8301C25.1646 10.7649 25.4151 10.7241 25.6816 10.7036C28.223 10.5086 30.7413 8.76971 29.6292 6.65136Z" fill="white" fill-opacity="0.51"/>
</g>
<path d="M11.3587 14.4417C12.5955 15.9165 15.8074 15.1241 16.7096 14.3675C17.6119 13.6108 18.2887 12.9322 17.0519 11.4574C15.8151 9.98265 14.0811 9.4005 13.1788 10.1572C12.2765 10.9138 10.122 12.9669 11.3587 14.4417Z" fill="white" fill-opacity="0.51"/>
<defs>
<linearGradient id="paint0_linear_2989_4821" x1="84" y1="0" x2="84" y2="54" gradientUnits="userSpaceOnUse">
<stop stop-color="#CEF16C"/>
<stop offset="0.213542" stop-color="#A5DB4B"/>
<stop offset="0.5" stop-color="#83C830"/>
<stop offset="0.921875" stop-color="#6EBD1F"/>
</linearGradient>
</defs>
</svg>
