<svg width="266" height="69" viewBox="0 0 266 69" fill="none" xmlns="http://www.w3.org/2000/svg">
<g filter="url(#filter0_i_305_2025)">
<rect width="266" height="68.3472" rx="18" fill="url(#paint0_linear_305_2025)"/>
</g>
<rect x="2" y="2" width="262" height="64.3472" rx="16" stroke="white" stroke-width="4"/>
<g style="mix-blend-mode:screen">
<path d="M10.3154 19.1158C9.86649 17.8351 10.2571 16.4095 11.3515 15.6072C13.0892 14.3332 15.7871 12.5466 18.0081 11.9191C20.2691 11.2803 23.3968 11.0782 25.565 11.0193C27.0537 10.9789 28.336 12.0028 28.7028 13.4462C29.2453 15.5805 27.5992 17.6632 25.4025 17.8172C23.6686 17.9387 21.7071 18.1721 20.0877 18.6152C18.8357 18.9578 17.5593 19.7183 16.4093 20.5856C14.3809 22.1153 11.1559 21.5133 10.3154 19.1158Z" fill="white" fill-opacity="0.51"/>
</g>
<circle cx="33.8045" cy="13.9569" r="3.38657" fill="white" fill-opacity="0.51"/>
<path d="M54.628 46.396C53.62 46.396 52.588 46.312 51.532 46.144C50.5 46 49.504 45.784 48.544 45.496C47.608 45.208 46.768 44.848 46.024 44.416C45.496 44.128 45.124 43.756 44.908 43.3C44.692 42.82 44.608 42.34 44.656 41.86C44.728 41.38 44.908 40.96 45.196 40.6C45.508 40.216 45.892 39.976 46.348 39.88C46.828 39.76 47.356 39.844 47.932 40.132C48.916 40.684 49.984 41.092 51.136 41.356C52.312 41.62 53.476 41.752 54.628 41.752C56.38 41.752 57.628 41.488 58.372 40.96C59.116 40.408 59.488 39.724 59.488 38.908C59.488 38.212 59.224 37.66 58.696 37.252C58.168 36.844 57.244 36.496 55.924 36.208L51.856 35.344C49.552 34.864 47.836 34.048 46.708 32.896C45.604 31.72 45.052 30.184 45.052 28.288C45.052 27.088 45.304 25.996 45.808 25.012C46.312 24.028 47.02 23.176 47.932 22.456C48.844 21.736 49.924 21.184 51.172 20.8C52.444 20.416 53.836 20.224 55.348 20.224C56.692 20.224 58.012 20.392 59.308 20.728C60.604 21.04 61.744 21.508 62.728 22.132C63.208 22.42 63.532 22.792 63.7 23.248C63.892 23.68 63.952 24.124 63.88 24.58C63.832 25.012 63.652 25.396 63.34 25.732C63.052 26.068 62.68 26.284 62.224 26.38C61.768 26.476 61.216 26.368 60.568 26.056C59.776 25.648 58.936 25.348 58.048 25.156C57.16 24.964 56.248 24.868 55.312 24.868C54.304 24.868 53.44 25 52.72 25.264C52.024 25.528 51.484 25.9 51.1 26.38C50.74 26.86 50.56 27.412 50.56 28.036C50.56 28.732 50.812 29.296 51.316 29.728C51.82 30.16 52.696 30.508 53.944 30.772L58.012 31.636C60.364 32.14 62.116 32.956 63.268 34.084C64.42 35.188 64.996 36.652 64.996 38.476C64.996 39.676 64.756 40.768 64.276 41.752C63.796 42.712 63.1 43.54 62.188 44.236C61.276 44.932 60.184 45.472 58.912 45.856C57.64 46.216 56.212 46.396 54.628 46.396ZM71.5345 46C70.5985 46 69.8785 45.748 69.3745 45.244C68.8705 44.74 68.6185 44.02 68.6185 43.084V23.536C68.6185 22.6 68.8705 21.88 69.3745 21.376C69.8785 20.872 70.5985 20.62 71.5345 20.62L84.0985 20.62C84.8185 20.62 85.3585 20.812 85.7185 21.196C86.1025 21.556 86.2945 22.084 86.2945 22.78C86.2945 23.5 86.1025 24.052 85.7185 24.436C85.3585 24.796 84.8185 24.976 84.0985 24.976L73.9465 24.976V30.916H83.2705C84.0145 30.916 84.5665 31.108 84.9265 31.492C85.3105 31.852 85.5025 32.392 85.5025 33.112C85.5025 33.832 85.3105 34.384 84.9265 34.768C84.5665 35.128 84.0145 35.308 83.2705 35.308H73.9465V41.644H84.0985C84.8185 41.644 85.3585 41.836 85.7185 42.22C86.1025 42.58 86.2945 43.108 86.2945 43.804C86.2945 44.524 86.1025 45.076 85.7185 45.46C85.3585 45.82 84.8185 46 84.0985 46H71.5345ZM99.2714 46.324C98.3594 46.324 97.6634 46.072 97.1834 45.568C96.7034 45.064 96.4634 44.356 96.4634 43.444V25.228H90.0914C89.3474 25.228 88.7714 25.024 88.3634 24.616C87.9554 24.208 87.7514 23.644 87.7514 22.924C87.7514 22.18 87.9554 21.616 88.3634 21.232C88.7714 20.824 89.3474 20.62 90.0914 20.62H108.415C109.159 20.62 109.735 20.824 110.143 21.232C110.551 21.616 110.755 22.18 110.755 22.924C110.755 23.644 110.551 24.208 110.143 24.616C109.735 25.024 109.159 25.228 108.415 25.228H102.043V43.444C102.043 44.356 101.803 45.064 101.323 45.568C100.867 46.072 100.183 46.324 99.2714 46.324ZM122.51 46.324C121.598 46.324 120.902 46.072 120.422 45.568C119.942 45.064 119.702 44.356 119.702 43.444V25.228H113.33C112.586 25.228 112.01 25.024 111.602 24.616C111.194 24.208 110.99 23.644 110.99 22.924C110.99 22.18 111.194 21.616 111.602 21.232C112.01 20.824 112.586 20.62 113.33 20.62L131.654 20.62C132.398 20.62 132.974 20.824 133.382 21.232C133.79 21.616 133.994 22.18 133.994 22.924C133.994 23.644 133.79 24.208 133.382 24.616C132.974 25.024 132.398 25.228 131.654 25.228H125.282V43.444C125.282 44.356 125.042 45.064 124.562 45.568C124.106 46.072 123.422 46.324 122.51 46.324ZM139.208 46.324C138.296 46.324 137.6 46.072 137.12 45.568C136.64 45.064 136.4 44.356 136.4 43.444V23.176C136.4 22.264 136.64 21.556 137.12 21.052C137.6 20.548 138.296 20.296 139.208 20.296C140.096 20.296 140.78 20.548 141.26 21.052C141.74 21.556 141.98 22.264 141.98 23.176V43.444C141.98 44.356 141.74 45.064 141.26 45.568C140.804 46.072 140.12 46.324 139.208 46.324ZM149.679 46.324C148.839 46.324 148.191 46.096 147.735 45.64C147.303 45.16 147.087 44.488 147.087 43.624V23.104C147.087 22.192 147.303 21.496 147.735 21.016C148.191 20.536 148.791 20.296 149.535 20.296C150.183 20.296 150.675 20.428 151.011 20.692C151.371 20.932 151.779 21.34 152.235 21.916L164.871 38.008H163.899V22.96C163.899 22.12 164.115 21.472 164.547 21.016C165.003 20.536 165.651 20.296 166.491 20.296C167.331 20.296 167.967 20.536 168.399 21.016C168.855 21.472 169.083 22.12 169.083 22.96V43.732C169.083 44.524 168.879 45.16 168.471 45.64C168.063 46.096 167.511 46.324 166.815 46.324C166.143 46.324 165.603 46.192 165.195 45.928C164.811 45.664 164.391 45.244 163.935 44.668L151.335 28.576H152.271V43.624C152.271 44.488 152.055 45.16 151.623 45.64C151.191 46.096 150.543 46.324 149.679 46.324ZM186.757 46.396C183.901 46.396 181.477 45.856 179.485 44.776C177.517 43.696 176.017 42.184 174.985 40.24C173.953 38.296 173.437 36.016 173.437 33.4C173.437 31.384 173.737 29.572 174.337 27.964C174.961 26.332 175.849 24.952 177.001 23.824C178.177 22.672 179.593 21.784 181.249 21.16C182.929 20.536 184.825 20.224 186.937 20.224C188.233 20.224 189.529 20.368 190.825 20.656C192.121 20.944 193.369 21.424 194.569 22.096C195.073 22.384 195.409 22.756 195.577 23.212C195.769 23.644 195.817 24.112 195.721 24.616C195.649 25.096 195.457 25.528 195.145 25.912C194.857 26.272 194.473 26.512 193.993 26.632C193.537 26.728 193.009 26.632 192.409 26.344C191.617 25.912 190.777 25.6 189.889 25.408C189.001 25.192 188.029 25.084 186.973 25.084C185.269 25.084 183.841 25.408 182.689 26.056C181.537 26.68 180.673 27.616 180.097 28.864C179.545 30.088 179.269 31.6 179.269 33.4C179.269 36.112 179.917 38.164 181.213 39.556C182.533 40.948 184.477 41.644 187.045 41.644C187.909 41.644 188.797 41.56 189.709 41.392C190.621 41.224 191.521 40.984 192.409 40.672L191.365 42.94V36.028H188.125C187.405 36.028 186.853 35.848 186.469 35.488C186.085 35.128 185.893 34.636 185.893 34.012C185.893 33.364 186.085 32.872 186.469 32.536C186.853 32.176 187.405 31.996 188.125 31.996H193.777C194.497 31.996 195.037 32.188 195.397 32.572C195.781 32.956 195.973 33.508 195.973 34.228V42.58C195.973 43.204 195.853 43.732 195.613 44.164C195.373 44.596 194.965 44.908 194.389 45.1C193.309 45.484 192.097 45.796 190.753 46.036C189.409 46.276 188.077 46.396 186.757 46.396ZM209.983 46.396C208.975 46.396 207.943 46.312 206.887 46.144C205.855 46 204.859 45.784 203.899 45.496C202.963 45.208 202.123 44.848 201.379 44.416C200.851 44.128 200.479 43.756 200.263 43.3C200.047 42.82 199.963 42.34 200.011 41.86C200.083 41.38 200.263 40.96 200.551 40.6C200.863 40.216 201.247 39.976 201.703 39.88C202.183 39.76 202.711 39.844 203.287 40.132C204.271 40.684 205.339 41.092 206.491 41.356C207.667 41.62 208.831 41.752 209.983 41.752C211.735 41.752 212.983 41.488 213.727 40.96C214.471 40.408 214.843 39.724 214.843 38.908C214.843 38.212 214.579 37.66 214.051 37.252C213.523 36.844 212.599 36.496 211.279 36.208L207.211 35.344C204.907 34.864 203.191 34.048 202.063 32.896C200.959 31.72 200.407 30.184 200.407 28.288C200.407 27.088 200.659 25.996 201.163 25.012C201.667 24.028 202.375 23.176 203.287 22.456C204.199 21.736 205.279 21.184 206.527 20.8C207.799 20.416 209.191 20.224 210.703 20.224C212.047 20.224 213.367 20.392 214.663 20.728C215.959 21.04 217.099 21.508 218.083 22.132C218.563 22.42 218.887 22.792 219.055 23.248C219.247 23.68 219.307 24.124 219.235 24.58C219.187 25.012 219.007 25.396 218.695 25.732C218.407 26.068 218.035 26.284 217.579 26.38C217.123 26.476 216.571 26.368 215.923 26.056C215.131 25.648 214.291 25.348 213.403 25.156C212.515 24.964 211.603 24.868 210.667 24.868C209.659 24.868 208.795 25 208.075 25.264C207.379 25.528 206.839 25.9 206.455 26.38C206.095 26.86 205.915 27.412 205.915 28.036C205.915 28.732 206.167 29.296 206.671 29.728C207.175 30.16 208.051 30.508 209.299 30.772L213.367 31.636C215.719 32.14 217.471 32.956 218.623 34.084C219.775 35.188 220.351 36.652 220.351 38.476C220.351 39.676 220.111 40.768 219.631 41.752C219.151 42.712 218.455 43.54 217.543 44.236C216.631 44.932 215.539 45.472 214.267 45.856C212.995 46.216 211.567 46.396 209.983 46.396Z" fill="white"/>
<defs>
<filter id="filter0_i_305_2025" x="-8" y="-7" width="274" height="75.3472" filterUnits="userSpaceOnUse" color-interpolation-filters="sRGB">
<feFlood flood-opacity="0" result="BackgroundImageFix"/>
<feBlend mode="normal" in="SourceGraphic" in2="BackgroundImageFix" result="shape"/>
<feColorMatrix in="SourceAlpha" type="matrix" values="0 0 0 0 0 0 0 0 0 0 0 0 0 0 0 0 0 0 127 0" result="hardAlpha"/>
<feOffset dx="-8" dy="-7"/>
<feGaussianBlur stdDeviation="4.8"/>
<feComposite in2="hardAlpha" operator="arithmetic" k2="-1" k3="1"/>
<feColorMatrix type="matrix" values="0 0 0 0 0 0 0 0 0 0 0 0 0 0 0 0 0 0 0.36 0"/>
<feBlend mode="normal" in2="shape" result="effect1_innerShadow_305_2025"/>
</filter>
<linearGradient id="paint0_linear_305_2025" x1="133" y1="0" x2="133" y2="68.3472" gradientUnits="userSpaceOnUse">
<stop stop-color="#FFCAAC"/>
<stop offset="0.324" stop-color="#FF8E4C"/>
<stop offset="1" stop-color="#D54F00"/>
</linearGradient>
</defs>
</svg>
