<svg width="32" height="24" viewBox="0 0 32 24" fill="none" xmlns="http://www.w3.org/2000/svg">
<g style="mix-blend-mode:screen">
<path d="M2.50237 15.0863C2.02119 13.7373 2.24652 12.0896 3.17451 10.8361C4.66272 8.82605 7.05065 5.91476 9.14743 4.76864C11.1173 3.6919 13.8889 3.08671 15.96 2.76168C17.6878 2.49054 19.153 3.59228 19.6668 5.37924C20.5567 8.47469 18.2596 12.0956 15.2869 12.9602C14.2164 13.2715 13.1518 13.6642 12.2255 14.1571C11.7123 14.4302 11.2071 14.82 10.7185 15.2871C8.05819 17.8301 3.66431 18.3438 2.50237 15.0863Z" fill="white" fill-opacity="0.51"/>
</g>
<path d="M31.0815 3.51249C31.37 6.19527 26.9924 8.70245 25.1702 8.89146C23.3481 9.08047 21.8582 9.11507 21.5697 6.4323C21.2812 3.74952 22.5245 1.42148 24.3466 1.23248C26.1687 1.04347 30.793 0.829719 31.0815 3.51249Z" fill="white" fill-opacity="0.51"/>
</svg>
