<svg width="266" height="69" viewBox="0 0 266 69" fill="none" xmlns="http://www.w3.org/2000/svg">
<g filter="url(#filter0_i_305_2088)">
<rect width="266" height="68.3472" rx="18" fill="url(#paint0_linear_305_2088)"/>
</g>
<rect x="2" y="2" width="262" height="64.3472" rx="16" stroke="white" stroke-width="4"/>
<path d="M76.628 46.396C75.62 46.396 74.588 46.312 73.532 46.144C72.5 46 71.504 45.784 70.544 45.496C69.608 45.208 68.768 44.848 68.024 44.416C67.496 44.128 67.124 43.756 66.908 43.3C66.692 42.82 66.608 42.34 66.656 41.86C66.728 41.38 66.908 40.96 67.196 40.6C67.508 40.216 67.892 39.976 68.348 39.88C68.828 39.76 69.356 39.844 69.932 40.132C70.916 40.684 71.984 41.092 73.136 41.356C74.312 41.62 75.476 41.752 76.628 41.752C78.38 41.752 79.628 41.488 80.372 40.96C81.116 40.408 81.488 39.724 81.488 38.908C81.488 38.212 81.224 37.66 80.696 37.252C80.168 36.844 79.244 36.496 77.924 36.208L73.856 35.344C71.552 34.864 69.836 34.048 68.708 32.896C67.604 31.72 67.052 30.184 67.052 28.288C67.052 27.088 67.304 25.996 67.808 25.012C68.312 24.028 69.02 23.176 69.932 22.456C70.844 21.736 71.924 21.184 73.172 20.8C74.444 20.416 75.836 20.224 77.348 20.224C78.692 20.224 80.012 20.392 81.308 20.728C82.604 21.04 83.744 21.508 84.728 22.132C85.208 22.42 85.532 22.792 85.7 23.248C85.892 23.68 85.952 24.124 85.88 24.58C85.832 25.012 85.652 25.396 85.34 25.732C85.052 26.068 84.68 26.284 84.224 26.38C83.768 26.476 83.216 26.368 82.568 26.056C81.776 25.648 80.936 25.348 80.048 25.156C79.16 24.964 78.248 24.868 77.312 24.868C76.304 24.868 75.44 25 74.72 25.264C74.024 25.528 73.484 25.9 73.1 26.38C72.74 26.86 72.56 27.412 72.56 28.036C72.56 28.732 72.812 29.296 73.316 29.728C73.82 30.16 74.696 30.508 75.944 30.772L80.012 31.636C82.364 32.14 84.116 32.956 85.268 34.084C86.42 35.188 86.996 36.652 86.996 38.476C86.996 39.676 86.756 40.768 86.276 41.752C85.796 42.712 85.1 43.54 84.188 44.236C83.276 44.932 82.184 45.472 80.912 45.856C79.64 46.216 78.212 46.396 76.628 46.396ZM92.8865 46.288C91.9985 46.288 91.3145 46.036 90.8345 45.532C90.3785 45.004 90.1505 44.272 90.1505 43.336V31.024C90.1505 30.064 90.3785 29.332 90.8345 28.828C91.3145 28.3 91.9985 28.036 92.8865 28.036C93.7505 28.036 94.4105 28.3 94.8665 28.828C95.3465 29.332 95.5865 30.064 95.5865 31.024V43.336C95.5865 44.272 95.3585 45.004 94.9025 45.532C94.4465 46.036 93.7745 46.288 92.8865 46.288ZM92.8865 25.084C91.8785 25.084 91.0985 24.856 90.5465 24.4C90.0185 23.92 89.7545 23.248 89.7545 22.384C89.7545 21.496 90.0185 20.824 90.5465 20.368C91.0985 19.888 91.8785 19.648 92.8865 19.648C93.8945 19.648 94.6625 19.888 95.1905 20.368C95.7185 20.824 95.9825 21.496 95.9825 22.384C95.9825 23.248 95.7185 23.92 95.1905 24.4C94.6625 24.856 93.8945 25.084 92.8865 25.084ZM108.279 52.876C106.983 52.876 105.735 52.768 104.535 52.552C103.359 52.336 102.315 52.012 101.403 51.58C100.851 51.34 100.455 51.028 100.215 50.644C99.9993 50.26 99.9033 49.852 99.9273 49.42C99.9753 48.988 100.119 48.604 100.359 48.268C100.623 47.932 100.947 47.692 101.331 47.548C101.715 47.428 102.123 47.464 102.555 47.656C103.611 48.136 104.583 48.448 105.471 48.592C106.383 48.736 107.163 48.808 107.811 48.808C109.347 48.808 110.499 48.46 111.267 47.764C112.035 47.068 112.419 46 112.419 44.56V41.824H112.743C112.383 42.928 111.639 43.828 110.511 44.524C109.383 45.22 108.135 45.568 106.767 45.568C105.183 45.568 103.803 45.208 102.627 44.488C101.451 43.744 100.539 42.712 99.8913 41.392C99.2433 40.048 98.9193 38.5 98.9193 36.748C98.9193 35.428 99.0993 34.228 99.4593 33.148C99.8433 32.068 100.371 31.144 101.043 30.376C101.739 29.608 102.567 29.02 103.527 28.612C104.511 28.18 105.591 27.964 106.767 27.964C108.183 27.964 109.431 28.312 110.511 29.008C111.615 29.68 112.347 30.568 112.707 31.672L112.347 32.824V30.772C112.347 29.884 112.575 29.212 113.031 28.756C113.511 28.276 114.183 28.036 115.047 28.036C115.911 28.036 116.571 28.276 117.027 28.756C117.483 29.212 117.711 29.884 117.711 30.772V43.948C117.711 46.9 116.895 49.12 115.263 50.608C113.655 52.12 111.327 52.876 108.279 52.876ZM108.387 41.5C109.203 41.5 109.899 41.308 110.475 40.924C111.075 40.54 111.543 40 111.879 39.304C112.215 38.584 112.383 37.732 112.383 36.748C112.383 35.26 112.011 34.108 111.267 33.292C110.547 32.452 109.587 32.032 108.387 32.032C107.571 32.032 106.863 32.224 106.263 32.608C105.663 32.968 105.195 33.508 104.859 34.228C104.547 34.924 104.391 35.764 104.391 36.748C104.391 38.236 104.751 39.4 105.471 40.24C106.191 41.08 107.163 41.5 108.387 41.5ZM124.668 46.324C123.78 46.324 123.096 46.084 122.616 45.604C122.16 45.124 121.932 44.44 121.932 43.552V30.772C121.932 29.884 122.16 29.212 122.616 28.756C123.096 28.276 123.756 28.036 124.596 28.036C125.46 28.036 126.12 28.276 126.576 28.756C127.032 29.212 127.26 29.884 127.26 30.772V32.824L126.864 31.636C127.416 30.46 128.232 29.56 129.312 28.936C130.416 28.288 131.664 27.964 133.056 27.964C134.472 27.964 135.636 28.24 136.548 28.792C137.46 29.32 138.144 30.136 138.6 31.24C139.056 32.32 139.284 33.7 139.284 35.38V43.552C139.284 44.44 139.044 45.124 138.564 45.604C138.108 46.084 137.436 46.324 136.548 46.324C135.684 46.324 135.012 46.084 134.532 45.604C134.076 45.124 133.848 44.44 133.848 43.552V35.632C133.848 34.408 133.62 33.532 133.164 33.004C132.732 32.452 132.06 32.176 131.148 32.176C129.996 32.176 129.072 32.536 128.376 33.256C127.704 33.976 127.368 34.936 127.368 36.136V43.552C127.368 45.4 126.468 46.324 124.668 46.324ZM164.737 46.396C162.937 46.396 161.341 46.168 159.949 45.712C158.581 45.232 157.429 44.536 156.493 43.624C155.557 42.712 154.849 41.572 154.369 40.204C153.913 38.812 153.685 37.204 153.685 35.38V23.14C153.685 22.204 153.925 21.496 154.405 21.016C154.885 20.536 155.581 20.296 156.493 20.296C157.381 20.296 158.065 20.536 158.545 21.016C159.025 21.496 159.265 22.204 159.265 23.14V35.416C159.265 37.48 159.733 39.04 160.669 40.096C161.605 41.128 162.961 41.644 164.737 41.644C166.513 41.644 167.857 41.128 168.769 40.096C169.705 39.04 170.173 37.48 170.173 35.416V23.14C170.173 22.204 170.413 21.496 170.893 21.016C171.373 20.536 172.057 20.296 172.945 20.296C173.833 20.296 174.505 20.536 174.961 21.016C175.441 21.496 175.681 22.204 175.681 23.14V35.38C175.681 37.804 175.261 39.844 174.421 41.5C173.605 43.132 172.381 44.356 170.749 45.172C169.141 45.988 167.137 46.396 164.737 46.396ZM182.887 52.804C181.999 52.804 181.315 52.564 180.835 52.084C180.379 51.628 180.151 50.944 180.151 50.032V30.772C180.151 29.884 180.379 29.212 180.835 28.756C181.315 28.276 181.975 28.036 182.814 28.036C183.703 28.036 184.375 28.276 184.831 28.756C185.287 29.212 185.515 29.884 185.515 30.772V33.22L185.119 31.816C185.479 30.664 186.199 29.74 187.279 29.044C188.383 28.324 189.643 27.964 191.059 27.964C192.595 27.964 193.939 28.336 195.091 29.08C196.267 29.824 197.179 30.88 197.827 32.248C198.475 33.616 198.799 35.248 198.799 37.144C198.799 39.04 198.475 40.684 197.827 42.076C197.179 43.468 196.279 44.536 195.127 45.28C193.975 46.024 192.619 46.396 191.059 46.396C189.667 46.396 188.431 46.06 187.351 45.388C186.271 44.692 185.539 43.792 185.155 42.688H185.587V50.032C185.587 50.944 185.347 51.628 184.867 52.084C184.411 52.564 183.751 52.804 182.887 52.804ZM189.439 42.328C190.207 42.328 190.879 42.136 191.455 41.752C192.055 41.368 192.511 40.804 192.823 40.06C193.159 39.292 193.327 38.32 193.327 37.144C193.327 35.392 192.967 34.108 192.247 33.292C191.527 32.452 190.591 32.032 189.439 32.032C188.671 32.032 187.987 32.212 187.387 32.572C186.811 32.932 186.355 33.496 186.019 34.264C185.683 35.008 185.515 35.968 185.515 37.144C185.515 38.896 185.875 40.204 186.595 41.068C187.315 41.908 188.263 42.328 189.439 42.328Z" fill="white"/>
<g style="mix-blend-mode:screen">
<path d="M10.3154 19.1158C9.86649 17.8351 10.2571 16.4095 11.3515 15.6072C13.0892 14.3332 15.7871 12.5466 18.0081 11.9191C20.2691 11.2803 23.3968 11.0782 25.565 11.0193C27.0537 10.9789 28.336 12.0028 28.7028 13.4462C29.2453 15.5805 27.5992 17.6632 25.4025 17.8172C23.6686 17.9387 21.7071 18.1721 20.0877 18.6152C18.8357 18.9578 17.5593 19.7183 16.4093 20.5856C14.3809 22.1153 11.1559 21.5133 10.3154 19.1158Z" fill="white" fill-opacity="0.51"/>
</g>
<circle cx="33.8045" cy="13.9569" r="3.38657" fill="white" fill-opacity="0.51"/>
<defs>
<filter id="filter0_i_305_2088" x="-8" y="-7" width="274" height="75.3472" filterUnits="userSpaceOnUse" color-interpolation-filters="sRGB">
<feFlood flood-opacity="0" result="BackgroundImageFix"/>
<feBlend mode="normal" in="SourceGraphic" in2="BackgroundImageFix" result="shape"/>
<feColorMatrix in="SourceAlpha" type="matrix" values="0 0 0 0 0 0 0 0 0 0 0 0 0 0 0 0 0 0 127 0" result="hardAlpha"/>
<feOffset dx="-8" dy="-7"/>
<feGaussianBlur stdDeviation="4.8"/>
<feComposite in2="hardAlpha" operator="arithmetic" k2="-1" k3="1"/>
<feColorMatrix type="matrix" values="0 0 0 0 0 0 0 0 0 0 0 0 0 0 0 0 0 0 0.36 0"/>
<feBlend mode="normal" in2="shape" result="effect1_innerShadow_305_2088"/>
</filter>
<linearGradient id="paint0_linear_305_2088" x1="133" y1="0" x2="133" y2="68.3472" gradientUnits="userSpaceOnUse">
<stop stop-color="#FFCAAC"/>
<stop offset="0.324" stop-color="#FF8E4C"/>
<stop offset="1" stop-color="#D54F00"/>
</linearGradient>
</defs>
</svg>
