<svg width="26" height="28" viewBox="0 0 26 28" fill="none" xmlns="http://www.w3.org/2000/svg">
<path d="M18.326 2.55696L14.5734 1.80518L14.3564 2.87729C10.8583 4.12689 7.85614 7.84972 6.8858 12.6677C5.91545 17.4858 7.24877 22.0715 9.98917 24.5765L9.7737 25.65L13.5336 26.4018C18.5256 27.4032 23.6478 22.8752 24.9739 16.291C26.2999 9.7068 23.3181 3.55692 18.326 2.55696Z" fill="#E86124"/>
<path d="M14.2622 22.9007L10.4962 22.1452L10.7124 21.078C8.30335 18.8933 6.9798 15.1213 7.34116 10.9961C7.15673 11.565 7.00507 12.1439 6.88692 12.7298C5.91312 17.5273 7.25119 22.0906 10.0013 24.5842L9.78509 25.6528L13.5584 26.4012C18.5681 27.398 23.7085 22.8907 25.0393 16.3365C25.1548 15.7525 25.2382 15.1627 25.2889 14.5698C23.4792 20.1573 18.8178 23.7999 14.2622 22.9007Z" fill="#DC4A26"/>
<path d="M21.21 15.5883C22.5364 8.98611 19.5627 2.82049 14.5679 1.817C9.5732 0.813517 4.44887 5.35217 3.12244 11.9544C1.796 18.5566 4.76973 24.7222 9.76446 25.7257C14.7592 26.7291 19.8835 22.1905 21.21 15.5883Z" fill="#F0E92D"/>
<path d="M18.7099 15.0865C19.6698 10.3088 17.5179 5.84697 13.9034 5.1208C10.289 4.39463 6.58074 7.67907 5.62085 12.4568C4.66096 17.2345 6.8129 21.6963 10.4273 22.4225C14.0418 23.1487 17.75 19.8643 18.7099 15.0865Z" fill="#EF8521"/>
<path d="M12.0737 20.1019C8.43031 19.3651 5.90742 15.9722 5.71224 11.9996C5.6814 12.1307 5.65248 12.2632 5.62549 12.3972C4.66694 17.2026 6.81826 21.6965 10.4298 22.4275C12.7546 22.8979 15.117 21.6994 16.7623 19.4962C15.3058 20.2039 13.6605 20.4165 12.0737 20.1019Z" fill="#E86124"/>
</svg>
