<svg width="162" height="42" viewBox="0 0 162 42" fill="none" xmlns="http://www.w3.org/2000/svg">
<path d="M93.0017 29.9277C92.5412 29.9277 92.168 29.6585 92.168 29.3265V16.8337C92.168 16.5016 92.5412 16.2324 93.0017 16.2324C93.4623 16.2324 93.8355 16.5016 93.8355 16.8337V29.3265C93.8355 29.6585 93.4621 29.9277 93.0017 29.9277Z" fill="#EAEAEA"/>
<path d="M95.6971 24.7163C95.2365 24.7163 94.8633 24.4472 94.8633 24.1151V17.8005C94.8633 17.4684 95.2365 17.1992 95.6971 17.1992C96.1576 17.1992 96.5308 17.4684 96.5308 17.8005V24.1151C96.5308 24.4472 96.1574 24.7163 95.6971 24.7163Z" fill="#EAEAEA"/>
<path d="M85.0397 23.5176H84.8152C84.4168 23.5176 84.0938 23.2846 84.0938 22.9973V16.7633C84.0938 16.4313 84.467 16.1621 84.9275 16.1621C85.388 16.1621 85.7613 16.4313 85.7613 16.7633V22.9973C85.7613 23.2846 85.4383 23.5176 85.0397 23.5176Z" fill="#EAEAEA"/>
<path d="M119.943 20.7894C119.483 20.7894 119.109 20.5202 119.109 20.1882V9.44694C119.109 9.11486 119.483 8.8457 119.943 8.8457C120.404 8.8457 120.777 9.11486 120.777 9.44694V20.1882C120.777 20.5202 120.404 20.7894 119.943 20.7894Z" fill="#EAEAEA"/>
<path d="M119.943 8.07364C119.483 8.07364 119.109 7.80448 119.109 7.4724V5.73795C119.109 5.40587 119.483 5.13672 119.943 5.13672C120.404 5.13672 120.777 5.40587 120.777 5.73795V7.4725C120.777 7.80448 120.404 8.07364 119.943 8.07364Z" fill="#EAEAEA"/>
<path d="M119.943 36.3375C119.483 36.3375 119.109 36.0683 119.109 35.7363V21.7399C119.109 21.4078 119.483 21.1387 119.943 21.1387C120.404 21.1387 120.777 21.4078 120.777 21.7399V35.7364C120.777 36.0683 120.404 36.3375 119.943 36.3375Z" fill="#EAEAEA"/>
<path d="M122.631 29.6265C122.17 29.6265 121.797 29.3574 121.797 29.0253V12.8786C121.797 12.5465 122.17 12.2773 122.631 12.2773C123.091 12.2773 123.464 12.5465 123.464 12.8786V29.0254C123.464 29.3574 123.091 29.6265 122.631 29.6265Z" fill="#EAEAEA"/>
<path d="M117.252 15.4568C116.791 15.4568 116.418 15.1876 116.418 14.8555V7.81217C116.418 7.48009 116.791 7.21094 117.252 7.21094C117.712 7.21094 118.086 7.48009 118.086 7.81217V14.8556C118.086 15.1876 117.712 15.4568 117.252 15.4568Z" fill="#EAEAEA"/>
<path d="M117.252 38.7448C116.791 38.7448 116.418 38.4757 116.418 38.1436V16.57C116.418 16.2379 116.791 15.9688 117.252 15.9688C117.712 15.9688 118.086 16.2379 118.086 16.57V38.1437C118.086 38.4757 117.712 38.7448 117.252 38.7448Z" fill="#EAEAEA"/>
<path d="M87.7311 26.283H87.5066C87.1082 26.283 86.7852 26.05 86.7852 25.7627V16.6422C86.7852 16.3102 87.1584 16.041 87.6189 16.041C88.0794 16.041 88.4527 16.3102 88.4527 16.6422V25.7626C88.4527 26.05 88.1297 26.283 87.7311 26.283Z" fill="#EAEAEA"/>
<path d="M87.7311 15.5452H87.5066C87.1082 15.5452 86.7852 15.3123 86.7852 15.025V13.3356C86.7852 13.0035 87.1584 12.7344 87.6189 12.7344C88.0794 12.7344 88.4527 13.0035 88.4527 13.3356V15.025C88.4527 15.3123 88.1297 15.5452 87.7311 15.5452Z" fill="#EAEAEA"/>
<path d="M111.853 35.6224C112.314 35.6224 112.687 35.3533 112.687 35.0212V1.29655C112.687 0.964465 112.314 0.695312 111.853 0.695312C111.393 0.695312 111.02 0.964465 111.02 1.29655V35.0213C111.02 35.3533 111.393 35.6224 111.853 35.6224Z" fill="#EAEAEA"/>
<path d="M111.853 41.227C112.314 41.227 112.687 40.9578 112.687 40.6258V36.8454C112.687 36.5133 112.314 36.2441 111.853 36.2441C111.393 36.2441 111.02 36.5133 111.02 36.8454V40.6258C111.02 40.9578 111.393 41.227 111.853 41.227Z" fill="#EAEAEA"/>
<path d="M103.779 38.4819C104.24 38.4819 104.613 38.2127 104.613 37.8807V4.02311C104.613 3.69103 104.24 3.42188 103.779 3.42188C103.319 3.42188 102.945 3.69103 102.945 4.02311V37.8808C102.945 38.2127 103.319 38.4819 103.779 38.4819Z" fill="#EAEAEA"/>
<path d="M106.467 25.5542C106.927 25.5542 107.3 25.2851 107.3 24.953V8.48795C107.3 8.15587 106.927 7.88672 106.467 7.88672C106.006 7.88672 105.633 8.15587 105.633 8.48795V24.953C105.633 25.285 106.006 25.5542 106.467 25.5542Z" fill="#EAEAEA"/>
<path d="M106.467 34.5307C106.927 34.5307 107.3 34.2616 107.3 33.9295V26.5016C107.3 26.1695 106.927 25.9004 106.467 25.9004C106.006 25.9004 105.633 26.1695 105.633 26.5016V33.9295C105.633 34.2616 106.006 34.5307 106.467 34.5307Z" fill="#EAEAEA"/>
<path d="M109.17 38.1044C109.63 38.1044 110.003 37.8353 110.003 37.5032V13.7067C110.003 13.3746 109.63 13.1055 109.17 13.1055C108.709 13.1055 108.336 13.3746 108.336 13.7067V37.5033C108.336 37.8353 108.709 38.1044 109.17 38.1044Z" fill="#EAEAEA"/>
<path d="M109.17 12.5099C109.63 12.5099 110.003 12.2407 110.003 11.9086V7.00748C110.003 6.6754 109.63 6.40625 109.17 6.40625C108.709 6.40625 108.336 6.6754 108.336 7.00748V11.9086C108.336 12.2407 108.709 12.5099 109.17 12.5099Z" fill="#EAEAEA"/>
<path d="M109.17 5.81684C109.63 5.81684 110.003 5.54768 110.003 5.2156V3.58366C110.003 3.25157 109.63 2.98242 109.17 2.98242C108.709 2.98242 108.336 3.25157 108.336 3.58366V5.2156C108.336 5.54768 108.709 5.81684 109.17 5.81684Z" fill="#EAEAEA"/>
<path d="M101.084 31.2747C101.544 31.2747 101.918 31.0056 101.918 30.6735V11.2321C101.918 10.9 101.544 10.6309 101.084 10.6309C100.623 10.6309 100.25 10.9 100.25 11.2321V30.6736C100.25 31.0056 100.623 31.2747 101.084 31.2747Z" fill="#EAEAEA"/>
<path d="M114.553 33.1973C115.013 33.1973 115.386 32.9281 115.386 32.596V9.31998C115.386 8.9879 115.013 8.71875 114.553 8.71875C114.092 8.71875 113.719 8.9879 113.719 9.31998V32.596C113.719 32.9281 114.092 33.1973 114.553 33.1973Z" fill="#EAEAEA"/>
<path d="M98.3963 27.102C97.9358 27.102 97.5625 26.8329 97.5625 26.5008V15.4118C97.5625 15.0797 97.9358 14.8105 98.3963 14.8105C98.8568 14.8105 99.23 15.0797 99.23 15.4118V26.5008C99.23 26.8329 98.8567 27.102 98.3963 27.102Z" fill="#EAEAEA"/>
<path d="M82.2322 21.5471C81.7717 21.5471 81.3984 21.2779 81.3984 20.9458V18.738C81.3984 18.4059 81.7717 18.1367 82.2322 18.1367C82.6927 18.1367 83.066 18.4059 83.066 18.738V20.9458C83.066 21.2778 82.6926 21.5471 82.2322 21.5471Z" fill="#EAEAEA"/>
<path d="M160.306 21.3049C159.846 21.3049 159.473 21.0357 159.473 20.7037V18.4958C159.473 18.1637 159.846 17.8945 160.306 17.8945C160.767 17.8945 161.14 18.1637 161.14 18.4958V20.7037C161.14 21.0357 160.767 21.3049 160.306 21.3049Z" fill="#EAEAEA"/>
<path d="M90.4264 22.7959H90.2019C89.8035 22.7959 89.4805 22.5629 89.4805 22.2756V10.2809C89.4805 9.94884 89.8537 9.67969 90.3142 9.67969C90.7748 9.67969 91.148 9.94884 91.148 10.2809V22.2756C91.148 22.5629 90.825 22.7959 90.4264 22.7959Z" fill="#EAEAEA"/>
<path d="M90.4264 30.8554H90.2019C89.8035 30.8554 89.4805 30.6224 89.4805 30.3351V24.1188C89.4805 23.7867 89.8537 23.5176 90.3142 23.5176C90.7748 23.5176 91.148 23.7867 91.148 24.1188V30.3351C91.148 30.6224 90.825 30.8554 90.4264 30.8554Z" fill="#EAEAEA"/>
<path d="M146.877 36.9544C146.416 36.9544 146.043 36.6853 146.043 36.3532V6.13639C146.043 5.80431 146.416 5.53516 146.877 5.53516C147.337 5.53516 147.711 5.80431 147.711 6.13639V36.3533C147.711 36.6853 147.337 36.9544 146.877 36.9544Z" fill="#EAEAEA"/>
<path d="M133.408 34.8816C132.947 34.8816 132.574 34.6125 132.574 34.2804V19.1422C132.574 18.8102 132.947 18.541 133.408 18.541C133.869 18.541 134.242 18.8102 134.242 19.1422V34.2804C134.242 34.6124 133.869 34.8816 133.408 34.8816Z" fill="#EAEAEA"/>
<path d="M149.576 25.5735C149.115 25.5735 148.742 25.3044 148.742 24.9723V10.7731C148.742 10.441 149.115 10.1719 149.576 10.1719C150.036 10.1719 150.41 10.441 150.41 10.7731V24.9724C150.41 25.3044 150.036 25.5735 149.576 25.5735Z" fill="#EAEAEA"/>
<path d="M149.576 31.8034C149.115 31.8034 148.742 31.5342 148.742 31.2022V26.736C148.742 26.4039 149.115 26.1348 149.576 26.1348C150.036 26.1348 150.41 26.4039 150.41 26.736V31.2022C150.41 31.5342 150.036 31.8034 149.576 31.8034Z" fill="#EAEAEA"/>
<path d="M144.181 17.8982C143.721 17.8982 143.348 17.6291 143.348 17.297V14.7887C143.348 14.4567 143.721 14.1875 144.181 14.1875C144.642 14.1875 145.015 14.4567 145.015 14.7887V17.297C145.015 17.6291 144.642 17.8982 144.181 17.8982Z" fill="#EAEAEA"/>
<path d="M144.181 40.4361C143.721 40.4361 143.348 40.1669 143.348 39.8349V19.4001C143.348 19.068 143.721 18.7988 144.181 18.7988C144.642 18.7988 145.015 19.068 145.015 19.4001V39.835C145.015 40.1669 144.642 40.4361 144.181 40.4361Z" fill="#EAEAEA"/>
<path d="M141.498 35.1212C141.037 35.1212 140.664 34.8521 140.664 34.52V18.902C140.664 18.5699 141.037 18.3008 141.498 18.3008C141.958 18.3008 142.332 18.5699 142.332 18.902V34.52C142.332 34.8521 141.958 35.1212 141.498 35.1212Z" fill="#EAEAEA"/>
<path d="M152.263 32.606C151.803 32.606 151.43 32.3369 151.43 32.0048V19.1422C151.43 18.8102 151.803 18.541 152.263 18.541C152.724 18.541 153.097 18.8102 153.097 19.1422V32.0048C153.097 32.3367 152.724 32.606 152.263 32.606Z" fill="#EAEAEA"/>
<path d="M136.107 27.3856C135.647 27.3856 135.273 27.1165 135.273 26.7844V17.7243C135.273 17.3922 135.647 17.123 136.107 17.123C136.568 17.123 136.941 17.3922 136.941 17.7243V26.7844C136.941 27.1165 136.568 27.3856 136.107 27.3856Z" fill="#EAEAEA"/>
<path d="M136.107 38.544C135.647 38.544 135.273 38.2749 135.273 37.9428V28.3883C135.273 28.0563 135.647 27.7871 136.107 27.7871C136.568 27.7871 136.941 28.0563 136.941 28.3883V37.9428C136.941 38.2749 136.568 38.544 136.107 38.544Z" fill="#EAEAEA"/>
<path d="M128.021 26.1346C127.561 26.1346 127.188 25.8654 127.188 25.5333V16.3766C127.188 16.0445 127.561 15.7754 128.021 15.7754C128.482 15.7754 128.855 16.0445 128.855 16.3766V25.5333C128.855 25.8654 128.482 26.1346 128.021 26.1346Z" fill="#EAEAEA"/>
<path d="M125.33 29.1258C124.869 29.1258 124.496 28.8566 124.496 28.5245V13.3864C124.496 13.0543 124.869 12.7852 125.33 12.7852C125.79 12.7852 126.164 13.0543 126.164 13.3864V28.5245C126.164 28.8565 125.79 29.1258 125.33 29.1258Z" fill="#EAEAEA"/>
<path d="M130.717 32.8798C130.256 32.8798 129.883 32.6107 129.883 32.2786V21.1422C129.883 20.8102 130.256 20.541 130.717 20.541C131.177 20.541 131.55 20.8102 131.55 21.1422V32.2785C131.55 32.6106 131.177 32.8798 130.717 32.8798Z" fill="#EAEAEA"/>
<path d="M138.791 32.7668C138.33 32.7668 137.957 32.4976 137.957 32.1655V21.2536C137.957 20.9215 138.33 20.6523 138.791 20.6523C139.251 20.6523 139.625 20.9215 139.625 21.2536V32.1655C139.625 32.4976 139.251 32.7668 138.791 32.7668Z" fill="#EAEAEA"/>
<path d="M157.654 23.2373C157.194 23.2373 156.82 22.9682 156.82 22.6361V16.5758C156.82 16.2438 157.194 15.9746 157.654 15.9746C158.115 15.9746 158.488 16.2438 158.488 16.5758V22.6361C158.488 22.9681 158.115 23.2373 157.654 23.2373Z" fill="#EAEAEA"/>
<path d="M154.959 21.6208C154.498 21.6208 154.125 21.3516 154.125 21.0195V15.4528C154.125 15.1207 154.498 14.8516 154.959 14.8516C155.419 14.8516 155.793 15.1207 155.793 15.4528V21.0195C155.793 21.3516 155.419 21.6208 154.959 21.6208Z" fill="#EAEAEA"/>
<path d="M154.959 25.4021C154.498 25.4021 154.125 25.133 154.125 24.8009V22.6188C154.125 22.2867 154.498 22.0176 154.959 22.0176C155.419 22.0176 155.793 22.2867 155.793 22.6188V24.8009C155.793 25.133 155.419 25.4021 154.959 25.4021Z" fill="#EAEAEA"/>
<path d="M12.4783 29.9277C12.0178 29.9277 11.6445 29.6585 11.6445 29.3265V16.8337C11.6445 16.5016 12.0178 16.2324 12.4783 16.2324C12.9388 16.2324 13.3121 16.5016 13.3121 16.8337V29.3265C13.3121 29.6585 12.9387 29.9277 12.4783 29.9277Z" fill="#EAEAEA"/>
<path d="M15.1736 24.7163C14.7131 24.7163 14.3398 24.4472 14.3398 24.1151V17.8005C14.3398 17.4684 14.7131 17.1992 15.1736 17.1992C15.6341 17.1992 16.0074 17.4684 16.0074 17.8005V24.1151C16.0074 24.4472 15.634 24.7163 15.1736 24.7163Z" fill="#EAEAEA"/>
<path d="M4.51624 23.5176H4.29178C3.89335 23.5176 3.57031 23.2846 3.57031 22.9973V16.7633C3.57031 16.4313 3.94356 16.1621 4.40408 16.1621C4.8646 16.1621 5.23786 16.4313 5.23786 16.7633V22.9973C5.23786 23.2846 4.91481 23.5176 4.51624 23.5176Z" fill="#EAEAEA"/>
<path d="M39.4197 20.7894C38.9592 20.7894 38.5859 20.5202 38.5859 20.1882V9.44694C38.5859 9.11486 38.9592 8.8457 39.4197 8.8457C39.8802 8.8457 40.2535 9.11486 40.2535 9.44694V20.1882C40.2535 20.5202 39.8802 20.7894 39.4197 20.7894Z" fill="#EAEAEA"/>
<path d="M39.4197 8.07364C38.9592 8.07364 38.5859 7.80448 38.5859 7.4724V5.73795C38.5859 5.40587 38.9592 5.13672 39.4197 5.13672C39.8802 5.13672 40.2535 5.40587 40.2535 5.73795V7.4725C40.2535 7.80448 39.8802 8.07364 39.4197 8.07364Z" fill="#EAEAEA"/>
<path d="M39.4197 36.3375C38.9592 36.3375 38.5859 36.0683 38.5859 35.7363V21.7399C38.5859 21.4078 38.9592 21.1387 39.4197 21.1387C39.8802 21.1387 40.2535 21.4078 40.2535 21.7399V35.7364C40.2535 36.0683 39.8802 36.3375 39.4197 36.3375Z" fill="#EAEAEA"/>
<path d="M42.1072 29.6265C41.6467 29.6265 41.2734 29.3574 41.2734 29.0253V12.8786C41.2734 12.5465 41.6467 12.2773 42.1072 12.2773C42.5677 12.2773 42.941 12.5465 42.941 12.8786V29.0254C42.941 29.3574 42.5677 29.6265 42.1072 29.6265Z" fill="#EAEAEA"/>
<path d="M36.7283 15.4568C36.2678 15.4568 35.8945 15.1876 35.8945 14.8555V7.81217C35.8945 7.48009 36.2678 7.21094 36.7283 7.21094C37.1888 7.21094 37.5621 7.48009 37.5621 7.81217V14.8556C37.5621 15.1876 37.1888 15.4568 36.7283 15.4568Z" fill="#EAEAEA"/>
<path d="M36.7283 38.7448C36.2678 38.7448 35.8945 38.4757 35.8945 38.1436V16.57C35.8945 16.2379 36.2678 15.9688 36.7283 15.9688C37.1888 15.9688 37.5621 16.2379 37.5621 16.57V38.1437C37.5621 38.4757 37.1888 38.7448 36.7283 38.7448Z" fill="#EAEAEA"/>
<path d="M7.20765 26.283H6.98319C6.58476 26.283 6.26172 26.05 6.26172 25.7627V16.6422C6.26172 16.3102 6.63497 16.041 7.09549 16.041C7.55601 16.041 7.92926 16.3102 7.92926 16.6422V25.7626C7.92926 26.05 7.60622 26.283 7.20765 26.283Z" fill="#EAEAEA"/>
<path d="M7.20765 15.5452H6.98319C6.58476 15.5452 6.26172 15.3123 6.26172 15.025V13.3356C6.26172 13.0035 6.63497 12.7344 7.09549 12.7344C7.55601 12.7344 7.92926 13.0035 7.92926 13.3356V15.025C7.92926 15.3123 7.60622 15.5452 7.20765 15.5452Z" fill="#EAEAEA"/>
<path d="M31.3299 35.6224C31.7904 35.6224 32.1636 35.3533 32.1636 35.0212V1.29655C32.1636 0.964465 31.7904 0.695312 31.3299 0.695312C30.8693 0.695312 30.4961 0.964465 30.4961 1.29655V35.0213C30.4961 35.3533 30.8693 35.6224 31.3299 35.6224Z" fill="#EAEAEA"/>
<path d="M31.3299 41.227C31.7904 41.227 32.1636 40.9578 32.1636 40.6258V36.8454C32.1636 36.5133 31.7904 36.2441 31.3299 36.2441C30.8693 36.2441 30.4961 36.5133 30.4961 36.8454V40.6258C30.4961 40.9578 30.8693 41.227 31.3299 41.227Z" fill="#EAEAEA"/>
<path d="M23.2557 38.4819C23.7162 38.4819 24.0894 38.2127 24.0894 37.8807V4.02311C24.0894 3.69103 23.7162 3.42188 23.2557 3.42188C22.7951 3.42188 22.4219 3.69103 22.4219 4.02311V37.8808C22.4219 38.2127 22.7951 38.4819 23.2557 38.4819Z" fill="#EAEAEA"/>
<path d="M25.9431 25.5542C26.4037 25.5542 26.7769 25.2851 26.7769 24.953V8.48795C26.7769 8.15587 26.4037 7.88672 25.9431 7.88672C25.4826 7.88672 25.1094 8.15587 25.1094 8.48795V24.953C25.1094 25.285 25.4826 25.5542 25.9431 25.5542Z" fill="#EAEAEA"/>
<path d="M25.9431 34.5307C26.4037 34.5307 26.7769 34.2616 26.7769 33.9295V26.5016C26.7769 26.1695 26.4037 25.9004 25.9431 25.9004C25.4826 25.9004 25.1094 26.1695 25.1094 26.5016V33.9295C25.1094 34.2616 25.4826 34.5307 25.9431 34.5307Z" fill="#EAEAEA"/>
<path d="M28.6463 38.1044C29.1068 38.1044 29.48 37.8353 29.48 37.5032V13.7067C29.48 13.3746 29.1068 13.1055 28.6463 13.1055C28.1858 13.1055 27.8125 13.3746 27.8125 13.7067V37.5033C27.8125 37.8353 28.1858 38.1044 28.6463 38.1044Z" fill="#EAEAEA"/>
<path d="M28.6463 12.5099C29.1068 12.5099 29.48 12.2407 29.48 11.9086V7.00748C29.48 6.6754 29.1068 6.40625 28.6463 6.40625C28.1858 6.40625 27.8125 6.6754 27.8125 7.00748V11.9086C27.8126 12.2407 28.1859 12.5099 28.6463 12.5099Z" fill="#EAEAEA"/>
<path d="M28.6463 5.81684C29.1068 5.81684 29.48 5.54768 29.48 5.2156V3.58366C29.48 3.25157 29.1068 2.98242 28.6463 2.98242C28.1858 2.98242 27.8125 3.25157 27.8125 3.58366V5.2156C27.8126 5.54768 28.1859 5.81684 28.6463 5.81684Z" fill="#EAEAEA"/>
<path d="M20.5603 31.2747C21.0209 31.2747 21.3941 31.0056 21.3941 30.6735V11.2321C21.3941 10.9 21.0209 10.6309 20.5603 10.6309C20.0998 10.6309 19.7266 10.9 19.7266 11.2321V30.6736C19.7266 31.0056 20.0998 31.2747 20.5603 31.2747Z" fill="#EAEAEA"/>
<path d="M34.0369 33.1973C34.4974 33.1973 34.8707 32.9281 34.8707 32.596V9.31998C34.8707 8.9879 34.4974 8.71875 34.0369 8.71875C33.5764 8.71875 33.2031 8.9879 33.2031 9.31998V32.596C33.2031 32.9281 33.5764 33.1973 34.0369 33.1973Z" fill="#EAEAEA"/>
<path d="M17.8728 27.102C17.4123 27.102 17.0391 26.8329 17.0391 26.5008V15.4118C17.0391 15.0797 17.4123 14.8105 17.8728 14.8105C18.3334 14.8105 18.7066 15.0797 18.7066 15.4118V26.5008C18.7066 26.8329 18.3332 27.102 17.8728 27.102Z" fill="#EAEAEA"/>
<path d="M1.70877 21.5471C1.24825 21.5471 0.875 21.2779 0.875 20.9458V18.738C0.875 18.4059 1.24825 18.1367 1.70877 18.1367C2.16929 18.1367 2.54255 18.4059 2.54255 18.738V20.9458C2.54255 21.2778 2.16915 21.5471 1.70877 21.5471Z" fill="#EAEAEA"/>
<path d="M79.783 21.3049C79.3225 21.3049 78.9492 21.0357 78.9492 20.7037V18.4958C78.9492 18.1637 79.3225 17.8945 79.783 17.8945C80.2435 17.8945 80.6168 18.1637 80.6168 18.4958V20.7037C80.6168 21.0357 80.2434 21.3049 79.783 21.3049Z" fill="#EAEAEA"/>
<path d="M9.90297 22.7959H9.67851C9.28008 22.7959 8.95703 22.5629 8.95703 22.2756V10.2809C8.95703 9.94884 9.33029 9.67969 9.79081 9.67969C10.2513 9.67969 10.6246 9.94884 10.6246 10.2809V22.2756C10.6246 22.5629 10.3015 22.7959 9.90297 22.7959Z" fill="#EAEAEA"/>
<path d="M9.90297 30.8554H9.67851C9.28008 30.8554 8.95703 30.6224 8.95703 30.3351V24.1188C8.95703 23.7867 9.33029 23.5176 9.79081 23.5176C10.2513 23.5176 10.6246 23.7867 10.6246 24.1188V30.3351C10.6246 30.6224 10.3015 30.8554 9.90297 30.8554Z" fill="#EAEAEA"/>
<path d="M66.3533 36.9544C65.8928 36.9544 65.5195 36.6853 65.5195 36.3532V6.13639C65.5195 5.80431 65.8928 5.53516 66.3533 5.53516C66.8138 5.53516 67.1871 5.80431 67.1871 6.13639V36.3533C67.1871 36.6853 66.8138 36.9544 66.3533 36.9544Z" fill="#EAEAEA"/>
<path d="M52.8846 34.8816C52.424 34.8816 52.0508 34.6125 52.0508 34.2804V19.1422C52.0508 18.8102 52.424 18.541 52.8846 18.541C53.3451 18.541 53.7183 18.8102 53.7183 19.1422V34.2804C53.7183 34.6124 53.3451 34.8816 52.8846 34.8816Z" fill="#EAEAEA"/>
<path d="M69.0525 25.5735C68.592 25.5735 68.2188 25.3044 68.2188 24.9723V10.7731C68.2188 10.441 68.592 10.1719 69.0525 10.1719C69.513 10.1719 69.8863 10.441 69.8863 10.7731V24.9724C69.8863 25.3044 69.513 25.5735 69.0525 25.5735Z" fill="#EAEAEA"/>
<path d="M69.0525 31.8034C68.592 31.8034 68.2188 31.5342 68.2188 31.2022V26.736C68.2188 26.4039 68.592 26.1348 69.0525 26.1348C69.513 26.1348 69.8863 26.4039 69.8863 26.736V31.2022C69.8863 31.5342 69.513 31.8034 69.0525 31.8034Z" fill="#EAEAEA"/>
<path d="M63.658 17.8982C63.1975 17.8982 62.8242 17.6291 62.8242 17.297V14.7887C62.8242 14.4567 63.1975 14.1875 63.658 14.1875C64.1185 14.1875 64.4918 14.4567 64.4918 14.7887V17.297C64.4918 17.6291 64.1185 17.8982 63.658 17.8982Z" fill="#EAEAEA"/>
<path d="M63.658 40.4361C63.1975 40.4361 62.8242 40.1669 62.8242 39.8349V19.4001C62.8242 19.068 63.1975 18.7988 63.658 18.7988C64.1185 18.7988 64.4918 19.068 64.4918 19.4001V39.835C64.4918 40.1669 64.1185 40.4361 63.658 40.4361Z" fill="#EAEAEA"/>
<path d="M60.9744 35.1212C60.5139 35.1212 60.1406 34.8521 60.1406 34.52V18.902C60.1406 18.5699 60.5139 18.3008 60.9744 18.3008C61.4349 18.3008 61.8082 18.5699 61.8082 18.902V34.52C61.8082 34.8521 61.4349 35.1212 60.9744 35.1212Z" fill="#EAEAEA"/>
<path d="M71.74 32.606C71.2795 32.606 70.9062 32.3369 70.9062 32.0048V19.1422C70.9062 18.8102 71.2795 18.541 71.74 18.541C72.2005 18.541 72.5738 18.8102 72.5738 19.1422V32.0048C72.5738 32.3367 72.2005 32.606 71.74 32.606Z" fill="#EAEAEA"/>
<path d="M55.5838 27.3856C55.1233 27.3856 54.75 27.1165 54.75 26.7844V17.7243C54.75 17.3922 55.1233 17.123 55.5838 17.123C56.0443 17.123 56.4175 17.3922 56.4175 17.7243V26.7844C56.4175 27.1165 56.0443 27.3856 55.5838 27.3856Z" fill="#EAEAEA"/>
<path d="M55.5838 38.544C55.1233 38.544 54.75 38.2749 54.75 37.9428V28.3883C54.75 28.0563 55.1233 27.7871 55.5838 27.7871C56.0443 27.7871 56.4175 28.0563 56.4175 28.3883V37.9428C56.4175 38.2749 56.0443 38.544 55.5838 38.544Z" fill="#EAEAEA"/>
<path d="M47.4978 26.1346C47.0373 26.1346 46.6641 25.8654 46.6641 25.5333V16.3766C46.6641 16.0445 47.0373 15.7754 47.4978 15.7754C47.9584 15.7754 48.3316 16.0445 48.3316 16.3766V25.5333C48.3316 25.8654 47.9584 26.1346 47.4978 26.1346Z" fill="#EAEAEA"/>
<path d="M44.8064 29.1258C44.3459 29.1258 43.9727 28.8566 43.9727 28.5245V13.3864C43.9727 13.0543 44.3459 12.7852 44.8064 12.7852C45.267 12.7852 45.6402 13.0543 45.6402 13.3864V28.5245C45.6402 28.8565 45.267 29.1258 44.8064 29.1258Z" fill="#EAEAEA"/>
<path d="M50.1932 32.8798C49.7326 32.8798 49.3594 32.6107 49.3594 32.2786V21.1422C49.3594 20.8102 49.7326 20.541 50.1932 20.541C50.6537 20.541 51.0269 20.8102 51.0269 21.1422V32.2785C51.0269 32.6106 50.6537 32.8798 50.1932 32.8798Z" fill="#EAEAEA"/>
<path d="M58.2674 32.7668C57.8068 32.7668 57.4336 32.4976 57.4336 32.1655V21.2536C57.4336 20.9215 57.8068 20.6523 58.2674 20.6523C58.7279 20.6523 59.1011 20.9215 59.1011 21.2536V32.1655C59.1011 32.4976 58.7279 32.7668 58.2674 32.7668Z" fill="#EAEAEA"/>
<path d="M77.1307 23.2373C76.6701 23.2373 76.2969 22.9682 76.2969 22.6361V16.5758C76.2969 16.2438 76.6701 15.9746 77.1307 15.9746C77.5912 15.9746 77.9644 16.2438 77.9644 16.5758V22.6361C77.9644 22.9681 77.5912 23.2373 77.1307 23.2373Z" fill="#EAEAEA"/>
<path d="M74.4353 21.6208C73.9748 21.6208 73.6016 21.3516 73.6016 21.0195V15.4528C73.6016 15.1207 73.9748 14.8516 74.4353 14.8516C74.8959 14.8516 75.2691 15.1207 75.2691 15.4528V21.0195C75.2691 21.3516 74.8959 21.6208 74.4353 21.6208Z" fill="#EAEAEA"/>
<path d="M74.4353 25.4021C73.9748 25.4021 73.6016 25.133 73.6016 24.8009V22.6188C73.6016 22.2867 73.9748 22.0176 74.4353 22.0176C74.8959 22.0176 75.2691 22.2867 75.2691 22.6188V24.8009C75.2691 25.133 74.8959 25.4021 74.4353 25.4021Z" fill="#EAEAEA"/>
</svg>
