<svg width="178" height="106" viewBox="0 0 178 106" fill="none" xmlns="http://www.w3.org/2000/svg">
<rect x="2" y="5" width="174" height="98.7896" rx="14" fill="url(#paint0_linear_2481_6247)" stroke="white" stroke-width="4"/>
<g style="mix-blend-mode:screen">
<path d="M14.4137 24.7087C11.2904 25.0479 8.28756 22.8967 8.5144 19.9579C8.74262 17.0012 9.6594 13.4531 12.4053 11.0447C15.6469 8.20145 20.4316 8.18862 28.4602 8.18896C34.5417 8.18921 40.2918 8.45266 42.7231 8.58042C43.4783 8.6201 44.1761 9.03684 44.5605 9.66857C45.2736 10.8406 44.6429 12.2462 43.2908 12.4981L41.2167 12.8845C40.9843 12.9278 40.7499 12.9496 40.5103 12.9556C38.9982 12.9937 32.9332 13.2709 27.12 15.2881C23.1347 16.6711 20.4627 19.6892 18.9693 21.8676C17.9453 23.3612 16.3444 24.499 14.4137 24.7087Z" fill="white" fill-opacity="0.51"/>
</g>
<path d="M68.5999 10.5706C68.6652 12.9665 61.0668 11.9666 57.6577 11.9977C54.2486 12.0289 47.5047 13.6923 47.4394 11.2963C47.3741 8.90037 49.4718 8.80685 52.8809 8.7757C56.2899 8.74455 68.5346 8.17461 68.5999 10.5706Z" fill="white" fill-opacity="0.51"/>
<defs>
<linearGradient id="paint0_linear_2481_6247" x1="89" y1="3" x2="89" y2="105.79" gradientUnits="userSpaceOnUse">
<stop stop-color="#FA9960"/>
<stop offset="0.5" stop-color="#F27C36"/>
<stop offset="1" stop-color="#E86C23"/>
</linearGradient>
</defs>
</svg>
