<svg width="175" height="104" viewBox="0 0 175 104" fill="none" xmlns="http://www.w3.org/2000/svg">
<rect x="2.19141" y="4.72656" width="170.806" height="96.9453" rx="14" fill="url(#paint0_linear_2481_6256)" stroke="white" stroke-width="4"/>
<g style="mix-blend-mode:screen">
<path d="M14.3476 24.219C11.2803 24.5521 8.33138 22.4396 8.55415 19.5535C8.77827 16.6499 9.67861 13.1654 12.3752 10.8002C15.5586 8.00798 20.2575 7.99537 28.142 7.99571C34.1145 7.99596 39.7614 8.25467 42.149 8.38014C42.8907 8.41912 43.5759 8.82837 43.9534 9.44877C44.6538 10.5998 44.0344 11.9802 42.7066 12.2275L40.6696 12.607C40.4415 12.6495 40.2112 12.6709 39.9759 12.6768C38.491 12.7142 32.5348 12.9864 26.8259 14.9675C22.9121 16.3257 20.2881 19.2896 18.8214 21.429C17.8159 22.8958 16.2437 24.0131 14.3476 24.219Z" fill="white" fill-opacity="0.51"/>
</g>
<path d="M67.5588 10.3336C67.6229 12.6865 60.1609 11.7045 56.813 11.7351C53.4651 11.7657 46.8421 13.3993 46.778 11.0463C46.7139 8.69333 48.7739 8.60149 52.1218 8.5709C55.4697 8.5403 67.4947 7.9806 67.5588 10.3336Z" fill="white" fill-opacity="0.51"/>
<defs>
<linearGradient id="paint0_linear_2481_6256" x1="87.5945" y1="2.72656" x2="87.5945" y2="103.672" gradientUnits="userSpaceOnUse">
<stop stop-color="#FA6060"/>
<stop offset="0.5" stop-color="#F23636"/>
<stop offset="1" stop-color="#E82323"/>
</linearGradient>
</defs>
</svg>
