<svg width="89" height="87" viewBox="0 0 89 87" fill="none" xmlns="http://www.w3.org/2000/svg">
<path opacity="0.31" d="M43.9949 79.4082C61.916 79.4082 76.4439 65.1144 76.4439 47.4822C76.4439 29.8499 61.916 15.5562 43.9949 15.5562C26.0738 15.5562 11.5459 29.8499 11.5459 47.4822C11.5459 65.1144 26.0738 79.4082 43.9949 79.4082Z" fill="#F7E484"/>
<path d="M70.2583 58.2032C76.6457 42.6689 69.2307 24.8979 53.6964 18.5106C38.1622 12.1232 20.3912 19.5382 14.0038 35.0725C7.61646 50.6067 15.0315 68.3777 30.5657 74.7651C46.1 81.1524 63.8709 73.7374 70.2583 58.2032Z" fill="white"/>
<path d="M58.0087 35.2891C55.9921 27.2348 47.8296 22.339 39.774 24.3546C31.7197 26.3707 26.8244 34.5337 28.84 42.5884C29.4235 44.9201 30.535 46.9762 31.9967 48.6875L31.9776 48.6866C31.9776 48.6866 35.5381 52.8588 36.1184 59.6024C36.1848 61.1951 35.8587 63.2834 35.8587 63.2834L35.8605 63.2839C35.4485 64.46 35.3607 65.7638 35.6859 67.0636C36.5705 70.5991 40.1537 72.7485 43.6892 71.863C46.6913 71.1121 48.6842 68.4166 48.6805 65.4578L48.6878 65.4601C48.6878 65.4601 48.5987 62.2979 48.9316 60.2041C49.2204 58.6255 50.4706 53.0235 54.1421 49.482L54.1193 49.4816C57.6707 45.871 59.3275 40.5628 58.0087 35.2891Z" fill="#F7E484"/>
<path d="M52.3676 30.5947C53.8943 32.0709 54.2982 34.1302 53.2699 35.1944C52.2416 36.2586 50.1696 35.9252 48.642 34.449C47.1148 32.9728 46.7101 30.914 47.7392 29.8493C48.7689 28.7851 50.8409 29.118 52.3676 30.5947Z" fill="white"/>
<path d="M45.8088 27.1516C46.4478 27.7692 46.6169 28.631 46.1863 29.0762C45.7556 29.5215 44.8888 29.3819 44.2507 28.7643C43.6113 28.1467 43.443 27.2853 43.8723 26.8401C44.303 26.3948 45.1698 26.5344 45.8088 27.1516Z" fill="white"/>
<path d="M49.0671 48.1968C48.6606 48.1363 47.8806 47.9599 47.1525 47.6511C47.2221 47.6079 47.2903 47.5624 47.3531 47.5137C47.7328 47.2217 47.9352 46.8393 47.9406 46.4081C47.947 45.6791 47.6309 45.137 47.072 44.9205C46.4658 44.6858 45.6753 44.8832 45.2315 45.3803C44.8731 45.7801 44.814 46.2885 45.0682 46.7733C45.2155 47.0562 45.4347 47.3022 45.6931 47.5169C44.552 47.742 43.199 47.6779 42.9289 47.6097L42.9271 47.6047C42.6551 47.6524 41.2994 47.6142 40.1765 47.3036C40.4512 47.1094 40.6877 46.8802 40.8555 46.6091C41.1452 46.1448 41.1238 45.6336 40.7973 45.2079C40.3912 44.6786 39.6144 44.4293 38.9963 44.6104C38.4224 44.7845 38.0663 45.3021 38.0195 46.0297C37.9908 46.4604 38.1645 46.8565 38.5215 47.1763C38.5811 47.229 38.6439 47.2795 38.7112 47.3272C37.9622 47.5801 37.1695 47.6988 36.7611 47.7288L36.2881 47.7638L36.5087 48.1836C40.6686 56.0828 39.196 61.7731 39.1805 61.8295L39.7804 61.9932C39.845 61.7581 41.2921 56.2151 37.2682 48.2969C37.7875 48.2232 38.6584 48.0604 39.4402 47.7134C40.6636 48.1982 42.3131 48.2609 42.8766 48.2304C43.375 48.305 45.0982 48.3805 46.3966 47.9803C47.1511 48.3851 48.007 48.6138 48.5191 48.7253C43.9103 56.3188 44.9381 61.955 44.9841 62.1951L45.5953 62.076C45.5839 62.0187 44.5325 56.2515 49.2845 48.6693L49.5374 48.2673L49.0671 48.1968ZM38.9372 46.7133C38.7203 46.5195 38.6243 46.3094 38.6398 46.0698C38.6607 45.7437 38.7712 45.3289 39.1773 45.2057C39.1892 45.2025 39.2015 45.1993 39.2137 45.1966C39.5835 45.1038 40.0651 45.2739 40.3039 45.5859C40.4712 45.8042 40.4794 46.0384 40.3284 46.2808C40.1388 46.585 39.8118 46.8324 39.4279 47.0298C39.2374 46.9375 39.07 46.8329 38.9372 46.7133ZM46.4608 47.3C46.0924 47.0739 45.7863 46.8029 45.6194 46.485C45.4871 46.2312 45.5125 45.9988 45.6953 45.7937C45.8327 45.6404 46.0328 45.5304 46.2429 45.4781C46.4489 45.4267 46.6672 45.4294 46.8469 45.4995C47.2421 45.6518 47.3221 46.0743 47.318 46.4013C47.3158 46.641 47.203 46.8434 46.9738 47.0203C46.8319 47.1299 46.6572 47.2222 46.4608 47.3Z" fill="white"/>
<path d="M36.0594 61.5059C35.9794 62.4887 35.8557 63.2845 35.8557 63.2845L35.858 63.2836C35.4455 64.4602 35.3581 65.7645 35.6833 67.0638C36.5674 70.6002 40.1507 72.7482 43.6876 71.8636C46.6873 71.1123 48.682 68.4177 48.6779 65.458L48.6857 65.4607C48.6857 65.4607 48.6384 63.7903 48.7411 62.0739L36.0594 61.5059Z" fill="#F4C02F"/>
<path d="M0.980769 28.547C2.66257 29.4497 4.34756 30.3466 6.10167 31.1056C7.57927 31.745 8.86586 29.5711 7.37552 28.9258C5.62232 28.1672 3.93689 27.2704 2.25464 26.3676C0.820696 25.5981 -0.454082 27.777 0.980769 28.547Z" fill="#F7E484"/>
<path d="M14.1166 11.2064C15.2121 12.7704 16.3127 14.3298 17.537 15.797C18.5685 17.0335 20.696 15.6714 19.6563 14.4244C18.432 12.9573 17.3314 11.3978 16.2359 9.83426C15.3017 8.50128 13.182 9.87292 14.1166 11.2064Z" fill="#F7E484"/>
<path d="M33.6472 1.63854C33.921 3.52818 34.202 5.41645 34.6341 7.27744C34.9979 8.84554 37.5115 8.58722 37.1445 7.00547C36.7124 5.14449 36.4314 3.25667 36.1576 1.36703C35.9234 -0.243368 33.4134 0.0272303 33.6472 1.63854Z" fill="#F7E484"/>
<path d="M55.4003 1.88983C54.7936 3.69988 54.1946 5.51266 53.7417 7.3691C53.3606 8.93356 55.7214 9.83404 56.1056 8.25729C56.5577 6.4004 57.1571 4.58899 57.7633 2.77803C58.2795 1.23448 55.9174 0.345828 55.4003 1.88983Z" fill="#F7E484"/>
<path d="M74.7069 11.909C73.3498 13.2524 71.9982 14.6013 70.7589 16.0548C69.7133 17.28 71.4156 19.1469 72.4698 17.9122C73.7091 16.4582 75.0598 15.1098 76.4169 13.7663C77.5725 12.6203 75.8634 10.7634 74.7069 11.909Z" fill="#F7E484"/>
<path d="M87.4387 29.549C85.6214 30.1371 83.8077 30.7333 82.0467 31.4728C80.5614 32.0963 81.2408 34.5299 82.7385 33.9013C84.4998 33.1619 86.3126 32.5656 88.129 31.9771C89.6762 31.4742 88.9872 29.0465 87.4387 29.549Z" fill="#F7E484"/>
</svg>
