<svg width="58" height="58" viewBox="0 0 58 58" fill="none" xmlns="http://www.w3.org/2000/svg">
<path d="M49.5502 37.4491C54.2169 26.0995 48.7994 13.1158 37.4498 8.44906C26.1003 3.78235 13.1165 9.19988 8.44981 20.5494C3.78311 31.899 9.20063 44.8827 20.5502 49.5494C31.8997 54.2161 44.8835 48.7986 49.5502 37.4491Z" fill="white"/>
<path d="M40.6071 20.7087C39.1338 14.8241 33.1701 11.2472 27.2846 12.7198C21.4 14.1928 17.8234 20.1568 19.296 26.0417C19.7223 27.7453 20.5344 29.2475 21.6023 30.4978L21.5884 30.4971C21.5884 30.4971 24.1897 33.5454 24.6137 38.4724C24.6622 39.636 24.424 41.1618 24.424 41.1618L24.4253 41.1621C24.1243 42.0214 24.0602 42.974 24.2977 43.9237C24.944 46.5068 27.562 48.0771 30.1451 47.4301C32.3384 46.8816 33.7945 44.9122 33.7918 42.7504L33.7971 42.7521C33.7971 42.7521 33.732 40.4418 33.9752 38.912C34.1862 37.7587 35.0996 33.6657 37.7821 31.0783L37.7655 31.078C40.3602 28.44 41.5707 24.5617 40.6071 20.7087Z" fill="#F7E484"/>
<path d="M36.4811 17.2789C37.5965 18.3574 37.8916 19.862 37.1403 20.6395C36.3891 21.417 34.8752 21.1735 33.7591 20.0949C32.6433 19.0163 32.3476 17.5121 33.0995 16.7343C33.8518 15.9568 35.3657 16.2 36.4811 17.2789Z" fill="white"/>
<path d="M31.6977 14.7617C32.1646 15.2129 32.2882 15.8425 31.9735 16.1678C31.6589 16.4931 31.0256 16.3911 30.5594 15.9399C30.0922 15.4887 29.9693 14.8593 30.2829 14.534C30.5976 14.2088 31.2309 14.3108 31.6977 14.7617Z" fill="white"/>
<path d="M34.0748 30.1377C33.7778 30.0935 33.2079 29.9646 32.676 29.739C32.7268 29.7074 32.7767 29.6742 32.8225 29.6387C33.1 29.4253 33.2478 29.1459 33.2518 28.8309C33.2565 28.2983 33.0255 27.9022 32.6172 27.744C32.1742 27.5726 31.5967 27.7168 31.2725 28.08C31.0106 28.372 30.9674 28.7435 31.1532 29.0977C31.2608 29.3044 31.421 29.4841 31.6097 29.641C30.776 29.8055 29.7875 29.7586 29.5902 29.7088L29.5888 29.7051C29.3901 29.74 28.3996 29.7121 27.5792 29.4851C27.7799 29.3433 27.9527 29.1758 28.0753 28.9778C28.287 28.6385 28.2714 28.265 28.0328 27.954C27.7361 27.5673 27.1685 27.3852 26.717 27.5174C26.2976 27.6447 26.0375 28.0228 26.0033 28.5544C25.9823 28.8691 26.1092 29.1585 26.3701 29.3921C26.4136 29.4307 26.4595 29.4675 26.5086 29.5024C25.9614 29.6872 25.3822 29.7739 25.0838 29.7958L24.7383 29.8214L24.8994 30.1281C27.9387 35.8994 26.8628 40.0568 26.8515 40.098L27.2898 40.2176C27.337 40.0458 28.3943 35.9961 25.4543 30.2108C25.8338 30.157 26.4701 30.038 27.0413 29.7845C27.9351 30.1387 29.1402 30.1846 29.5519 30.1623C29.9161 30.2168 31.1751 30.272 32.1237 29.9796C32.675 30.2753 33.3003 30.4424 33.6745 30.5238C30.3072 36.0718 31.0581 40.1897 31.0917 40.3651L31.5383 40.2781C31.53 40.2362 30.7617 36.0226 34.2337 30.483L34.4184 30.1892L34.0748 30.1377ZM26.6738 29.0539C26.5153 28.9123 26.4452 28.7588 26.4565 28.5837C26.4718 28.3454 26.5525 28.0424 26.8492 27.9524C26.8579 27.95 26.8668 27.9477 26.8758 27.9457C27.1459 27.8779 27.4978 28.0022 27.6723 28.2301C27.7945 28.3896 27.8005 28.5608 27.6902 28.7379C27.5516 28.9602 27.3127 29.1409 27.0323 29.2851C26.8931 29.2177 26.7708 29.1412 26.6738 29.0539ZM32.1706 29.4825C31.9014 29.3173 31.6778 29.1193 31.5559 28.8871C31.4592 28.7016 31.4778 28.5319 31.6114 28.382C31.7117 28.27 31.8579 28.1896 32.0114 28.1514C32.1619 28.1139 32.3214 28.1158 32.4527 28.167C32.7414 28.2783 32.7999 28.587 32.7969 28.8259C32.7953 29.001 32.7129 29.1489 32.5454 29.2781C32.4417 29.3582 32.3141 29.4257 32.1706 29.4825Z" fill="white"/>
<path d="M24.5679 39.8652C24.5094 40.5833 24.419 41.1648 24.419 41.1648L24.4207 41.1641C24.1193 42.0237 24.0555 42.9766 24.2931 43.926C24.939 46.5097 27.557 48.079 30.1411 47.4328C32.3328 46.8839 33.7901 44.9151 33.7871 42.7527L33.7928 42.7547C33.7928 42.7547 33.7582 41.5342 33.8333 40.2802L24.5679 39.8652Z" fill="#F4C02F"/>
</svg>
