<svg width="441" height="31" viewBox="0 0 441 31" fill="none" xmlns="http://www.w3.org/2000/svg">
<rect width="441" height="31" rx="15.5" fill="white"/>
<path d="M85.5133 22.2C84.9266 22.2 84.3399 22.1533 83.7533 22.06C83.1666 21.98 82.6133 21.8533 82.0933 21.68C81.5733 21.4933 81.1066 21.2667 80.6933 21C80.4533 20.84 80.2866 20.6467 80.1933 20.42C80.0999 20.1933 80.0666 19.9733 80.0933 19.76C80.1333 19.5333 80.2199 19.34 80.3533 19.18C80.4999 19.0067 80.6799 18.9 80.8933 18.86C81.1066 18.82 81.3399 18.88 81.5933 19.04C82.1799 19.3867 82.7999 19.64 83.4533 19.8C84.1066 19.96 84.7933 20.04 85.5133 20.04C86.5666 20.04 87.3333 19.8667 87.8133 19.52C88.2933 19.16 88.5333 18.7 88.5333 18.14C88.5333 17.6733 88.3599 17.3067 88.0133 17.04C87.6799 16.7733 87.0999 16.5533 86.2733 16.38L84.0733 15.92C82.8066 15.6533 81.8599 15.2067 81.2333 14.58C80.6199 13.94 80.3133 13.1 80.3133 12.06C80.3133 11.4067 80.4466 10.8133 80.7133 10.28C80.9799 9.74667 81.3533 9.28667 81.8333 8.9C82.3266 8.51333 82.9066 8.22 83.5733 8.02C84.2533 7.80667 84.9999 7.7 85.8133 7.7C86.6133 7.7 87.3733 7.8 88.0933 8C88.8133 8.2 89.4599 8.49333 90.0333 8.88C90.2466 9.02667 90.3866 9.20667 90.4533 9.42C90.5333 9.63333 90.5533 9.84667 90.5133 10.06C90.4733 10.26 90.3799 10.4333 90.2333 10.58C90.0866 10.7267 89.8999 10.8133 89.6733 10.84C89.4599 10.8667 89.2133 10.8 88.9333 10.64C88.4399 10.36 87.9399 10.16 87.4333 10.04C86.9266 9.92 86.3799 9.86 85.7933 9.86C85.1799 9.86 84.6533 9.94667 84.2133 10.12C83.7733 10.2933 83.4333 10.54 83.1933 10.86C82.9666 11.1667 82.8533 11.5333 82.8533 11.96C82.8533 12.44 83.0133 12.8267 83.3333 13.12C83.6533 13.4 84.1999 13.62 84.9733 13.78L87.1533 14.24C88.4733 14.52 89.4533 14.96 90.0933 15.56C90.7466 16.16 91.0733 16.96 91.0733 17.96C91.0733 18.6 90.9399 19.18 90.6733 19.7C90.4199 20.22 90.0466 20.6667 89.5533 21.04C89.0733 21.4133 88.4933 21.7 87.8133 21.9C87.1333 22.1 86.3666 22.2 85.5133 22.2ZM94.6305 22C94.1905 22 93.8505 21.8867 93.6105 21.66C93.3838 21.42 93.2705 21.08 93.2705 20.64V9.26C93.2705 8.82 93.3838 8.48667 93.6105 8.26C93.8505 8.02 94.1905 7.9 94.6305 7.9H101.77C102.104 7.9 102.357 7.98667 102.53 8.16C102.717 8.33333 102.81 8.58 102.81 8.9C102.81 9.23333 102.717 9.49333 102.53 9.68C102.357 9.85333 102.104 9.94 101.77 9.94H95.7305V13.82H101.33C101.677 13.82 101.937 13.9067 102.11 14.08C102.284 14.2533 102.37 14.5067 102.37 14.84C102.37 15.1733 102.284 15.4267 102.11 15.6C101.937 15.7733 101.677 15.86 101.33 15.86H95.7305V19.96H101.77C102.104 19.96 102.357 20.0467 102.53 20.22C102.717 20.3933 102.81 20.6467 102.81 20.98C102.81 21.3133 102.717 21.5667 102.53 21.74C102.357 21.9133 102.104 22 101.77 22H94.6305ZM106.504 22C106.091 22 105.771 21.8867 105.544 21.66C105.317 21.42 105.204 21.0933 105.204 20.68V9.14C105.204 8.71333 105.311 8.39333 105.524 8.18C105.751 7.95333 106.071 7.84 106.484 7.84C106.897 7.84 107.211 7.95333 107.424 8.18C107.651 8.39333 107.764 8.71333 107.764 9.14V19.82H113.564C113.924 19.82 114.197 19.9133 114.384 20.1C114.584 20.2867 114.684 20.5533 114.684 20.9C114.684 21.2467 114.584 21.52 114.384 21.72C114.197 21.9067 113.924 22 113.564 22H106.504ZM117.795 22C117.355 22 117.015 21.8867 116.775 21.66C116.548 21.42 116.435 21.08 116.435 20.64V9.26C116.435 8.82 116.548 8.48667 116.775 8.26C117.015 8.02 117.355 7.9 117.795 7.9H124.935C125.268 7.9 125.521 7.98667 125.695 8.16C125.881 8.33333 125.975 8.58 125.975 8.9C125.975 9.23333 125.881 9.49333 125.695 9.68C125.521 9.85333 125.268 9.94 124.935 9.94H118.895V13.82H124.495C124.841 13.82 125.101 13.9067 125.275 14.08C125.448 14.2533 125.535 14.5067 125.535 14.84C125.535 15.1733 125.448 15.4267 125.275 15.6C125.101 15.7733 124.841 15.86 124.495 15.86H118.895V19.96H124.935C125.268 19.96 125.521 20.0467 125.695 20.22C125.881 20.3933 125.975 20.6467 125.975 20.98C125.975 21.3133 125.881 21.5667 125.695 21.74C125.521 21.9133 125.268 22 124.935 22H117.795ZM134.909 22.2C133.442 22.2 132.182 21.9067 131.129 21.32C130.089 20.72 129.289 19.88 128.729 18.8C128.169 17.7067 127.889 16.42 127.889 14.94C127.889 13.8333 128.049 12.84 128.369 11.96C128.689 11.0667 129.149 10.3067 129.749 9.68C130.349 9.04 131.082 8.55333 131.949 8.22C132.829 7.87333 133.815 7.7 134.909 7.7C135.642 7.7 136.362 7.79333 137.069 7.98C137.775 8.16667 138.395 8.43333 138.929 8.78C139.209 8.95333 139.395 9.16667 139.489 9.42C139.582 9.66 139.602 9.9 139.549 10.14C139.495 10.3667 139.382 10.56 139.209 10.72C139.049 10.88 138.842 10.9733 138.589 11C138.349 11.0133 138.082 10.9267 137.789 10.74C137.375 10.4733 136.929 10.28 136.449 10.16C135.969 10.04 135.482 9.98 134.989 9.98C134.042 9.98 133.242 10.1733 132.589 10.56C131.935 10.9467 131.442 11.5067 131.109 12.24C130.775 12.9733 130.609 13.8733 130.609 14.94C130.609 15.9933 130.775 16.8933 131.109 17.64C131.442 18.3867 131.935 18.9533 132.589 19.34C133.242 19.7267 134.042 19.92 134.989 19.92C135.495 19.92 135.995 19.86 136.489 19.74C136.982 19.6067 137.449 19.4067 137.889 19.14C138.182 18.9667 138.442 18.8933 138.669 18.92C138.909 18.9333 139.109 19.0133 139.269 19.16C139.429 19.3067 139.535 19.4933 139.589 19.72C139.642 19.9333 139.629 20.16 139.549 20.4C139.469 20.6267 139.309 20.8267 139.069 21C138.535 21.3867 137.895 21.6867 137.149 21.9C136.415 22.1 135.669 22.2 134.909 22.2ZM146.427 22.16C146.014 22.16 145.694 22.0467 145.467 21.82C145.254 21.58 145.147 21.2533 145.147 20.84V10.04H141.247C140.9 10.04 140.627 9.94667 140.427 9.76C140.24 9.56 140.147 9.29333 140.147 8.96C140.147 8.61333 140.24 8.35333 140.427 8.18C140.627 7.99333 140.9 7.9 141.247 7.9H151.607C151.954 7.9 152.22 7.99333 152.407 8.18C152.607 8.35333 152.707 8.61333 152.707 8.96C152.707 9.29333 152.607 9.56 152.407 9.76C152.22 9.94667 151.954 10.04 151.607 10.04H147.707V20.84C147.707 21.2533 147.6 21.58 147.387 21.82C147.174 22.0467 146.854 22.16 146.427 22.16ZM164.279 22.16C163.865 22.16 163.545 22.0467 163.319 21.82C163.105 21.58 162.999 21.2533 162.999 20.84V10.04H159.099C158.752 10.04 158.479 9.94667 158.279 9.76C158.092 9.56 157.999 9.29333 157.999 8.96C157.999 8.61333 158.092 8.35333 158.279 8.18C158.479 7.99333 158.752 7.9 159.099 7.9H169.459C169.805 7.9 170.072 7.99333 170.259 8.18C170.459 8.35333 170.559 8.61333 170.559 8.96C170.559 9.29333 170.459 9.56 170.259 9.76C170.072 9.94667 169.805 10.04 169.459 10.04H165.559V20.84C165.559 21.2533 165.452 21.58 165.239 21.82C165.025 22.0467 164.705 22.16 164.279 22.16ZM173.3 22.16C172.887 22.16 172.567 22.0467 172.34 21.82C172.127 21.58 172.02 21.2533 172.02 20.84V9.06C172.02 8.63333 172.127 8.30667 172.34 8.08C172.567 7.85333 172.887 7.74 173.3 7.74C173.714 7.74 174.027 7.85333 174.24 8.08C174.467 8.30667 174.58 8.63333 174.58 9.06V13.78H181.84V9.06C181.84 8.63333 181.947 8.30667 182.16 8.08C182.387 7.85333 182.707 7.74 183.12 7.74C183.534 7.74 183.847 7.85333 184.06 8.08C184.287 8.30667 184.4 8.63333 184.4 9.06V20.84C184.4 21.2533 184.287 21.58 184.06 21.82C183.847 22.0467 183.534 22.16 183.12 22.16C182.707 22.16 182.387 22.0467 182.16 21.82C181.947 21.58 181.84 21.2533 181.84 20.84V15.92H174.58V20.84C174.58 21.2533 174.474 21.58 174.26 21.82C174.047 22.0467 173.727 22.16 173.3 22.16ZM188.849 22C188.409 22 188.069 21.8867 187.829 21.66C187.603 21.42 187.489 21.08 187.489 20.64V9.26C187.489 8.82 187.603 8.48667 187.829 8.26C188.069 8.02 188.409 7.9 188.849 7.9H195.989C196.323 7.9 196.576 7.98667 196.749 8.16C196.936 8.33333 197.029 8.58 197.029 8.9C197.029 9.23333 196.936 9.49333 196.749 9.68C196.576 9.85333 196.323 9.94 195.989 9.94H189.949V13.82H195.549C195.896 13.82 196.156 13.9067 196.329 14.08C196.503 14.2533 196.589 14.5067 196.589 14.84C196.589 15.1733 196.503 15.4267 196.329 15.6C196.156 15.7733 195.896 15.86 195.549 15.86H189.949V19.96H195.989C196.323 19.96 196.576 20.0467 196.749 20.22C196.936 20.3933 197.029 20.6467 197.029 20.98C197.029 21.3133 196.936 21.5667 196.749 21.74C196.576 21.9133 196.323 22 195.989 22H188.849ZM211.413 22.2C209.946 22.2 208.686 21.9067 207.633 21.32C206.593 20.72 205.793 19.88 205.233 18.8C204.673 17.7067 204.393 16.42 204.393 14.94C204.393 13.8333 204.553 12.84 204.873 11.96C205.193 11.0667 205.653 10.3067 206.252 9.68C206.853 9.04 207.586 8.55333 208.452 8.22C209.333 7.87333 210.319 7.7 211.413 7.7C212.146 7.7 212.866 7.79333 213.573 7.98C214.279 8.16667 214.899 8.43333 215.433 8.78C215.713 8.95333 215.899 9.16667 215.993 9.42C216.086 9.66 216.106 9.9 216.053 10.14C215.999 10.3667 215.886 10.56 215.713 10.72C215.553 10.88 215.346 10.9733 215.093 11C214.853 11.0133 214.586 10.9267 214.293 10.74C213.879 10.4733 213.433 10.28 212.953 10.16C212.473 10.04 211.986 9.98 211.493 9.98C210.546 9.98 209.746 10.1733 209.093 10.56C208.439 10.9467 207.946 11.5067 207.613 12.24C207.279 12.9733 207.113 13.8733 207.113 14.94C207.113 15.9933 207.279 16.8933 207.613 17.64C207.946 18.3867 208.439 18.9533 209.093 19.34C209.746 19.7267 210.546 19.92 211.493 19.92C211.999 19.92 212.499 19.86 212.993 19.74C213.486 19.6067 213.953 19.4067 214.393 19.14C214.686 18.9667 214.946 18.8933 215.173 18.92C215.413 18.9333 215.613 19.0133 215.773 19.16C215.933 19.3067 216.039 19.4933 216.093 19.72C216.146 19.9333 216.133 20.16 216.053 20.4C215.973 20.6267 215.813 20.8267 215.573 21C215.039 21.3867 214.399 21.6867 213.653 21.9C212.919 22.1 212.173 22.2 211.413 22.2ZM224.317 22.2C222.957 22.2 221.764 21.9 220.737 21.3C219.724 20.7 218.937 19.86 218.377 18.78C217.817 17.6867 217.537 16.4067 217.537 14.94C217.537 13.8333 217.697 12.84 218.017 11.96C218.337 11.0667 218.79 10.3067 219.377 9.68C219.977 9.04 220.69 8.55333 221.517 8.22C222.357 7.87333 223.29 7.7 224.317 7.7C225.69 7.7 226.884 8 227.897 8.6C228.91 9.18667 229.697 10.02 230.257 11.1C230.817 12.18 231.097 13.4533 231.097 14.92C231.097 16.0267 230.937 17.0267 230.617 17.92C230.297 18.8133 229.837 19.58 229.237 20.22C228.65 20.86 227.937 21.3533 227.097 21.7C226.27 22.0333 225.344 22.2 224.317 22.2ZM224.317 20C225.184 20 225.917 19.8 226.517 19.4C227.13 19 227.597 18.42 227.917 17.66C228.25 16.9 228.417 15.9933 228.417 14.94C228.417 13.34 228.057 12.1 227.337 11.22C226.63 10.34 225.624 9.9 224.317 9.9C223.464 9.9 222.73 10.1 222.117 10.5C221.504 10.8867 221.03 11.46 220.697 12.22C220.377 12.9667 220.217 13.8733 220.217 14.94C220.217 16.5267 220.577 17.7667 221.297 18.66C222.017 19.5533 223.024 20 224.317 20ZM234.98 22.16C234.567 22.16 234.247 22.0467 234.02 21.82C233.807 21.58 233.7 21.2533 233.7 20.84V9.2C233.7 8.77333 233.813 8.45333 234.04 8.24C234.267 8.01333 234.587 7.9 235 7.9H239.82C241.367 7.9 242.56 8.27333 243.4 9.02C244.24 9.75333 244.66 10.7867 244.66 12.12C244.66 12.9867 244.467 13.7333 244.08 14.36C243.707 14.9867 243.16 15.4667 242.44 15.8C241.72 16.1333 240.847 16.3 239.82 16.3L240 16H240.66C241.207 16 241.68 16.1333 242.08 16.4C242.493 16.6667 242.853 17.0867 243.16 17.66L244.66 20.44C244.82 20.72 244.893 20.9933 244.88 21.26C244.867 21.5267 244.767 21.7467 244.58 21.92C244.393 22.08 244.12 22.16 243.76 22.16C243.4 22.16 243.107 22.0867 242.88 21.94C242.653 21.78 242.453 21.54 242.28 21.22L240.26 17.5C240.02 17.0467 239.733 16.7467 239.4 16.6C239.08 16.44 238.667 16.36 238.16 16.36H236.26V20.84C236.26 21.2533 236.153 21.58 235.94 21.82C235.727 22.0467 235.407 22.16 234.98 22.16ZM236.26 14.46H239.38C240.3 14.46 240.993 14.2733 241.46 13.9C241.94 13.5133 242.18 12.94 242.18 12.18C242.18 11.4333 241.94 10.8733 241.46 10.5C240.993 10.1133 240.3 9.92 239.38 9.92H236.26V14.46ZM248.691 22.16C248.278 22.16 247.958 22.0467 247.731 21.82C247.518 21.58 247.411 21.2533 247.411 20.84V9.2C247.411 8.77333 247.524 8.45333 247.751 8.24C247.978 8.01333 248.298 7.9 248.711 7.9H253.531C255.078 7.9 256.271 8.27333 257.111 9.02C257.951 9.75333 258.371 10.7867 258.371 12.12C258.371 12.9867 258.178 13.7333 257.791 14.36C257.418 14.9867 256.871 15.4667 256.151 15.8C255.431 16.1333 254.558 16.3 253.531 16.3L253.711 16H254.371C254.918 16 255.391 16.1333 255.791 16.4C256.204 16.6667 256.564 17.0867 256.871 17.66L258.371 20.44C258.531 20.72 258.604 20.9933 258.591 21.26C258.578 21.5267 258.478 21.7467 258.291 21.92C258.104 22.08 257.831 22.16 257.471 22.16C257.111 22.16 256.818 22.0867 256.591 21.94C256.364 21.78 256.164 21.54 255.991 21.22L253.971 17.5C253.731 17.0467 253.444 16.7467 253.111 16.6C252.791 16.44 252.378 16.36 251.871 16.36H249.971V20.84C249.971 21.2533 249.864 21.58 249.651 21.82C249.438 22.0467 249.118 22.16 248.691 22.16ZM249.971 14.46H253.091C254.011 14.46 254.704 14.2733 255.171 13.9C255.651 13.5133 255.891 12.94 255.891 12.18C255.891 11.4333 255.651 10.8733 255.171 10.5C254.704 10.1133 254.011 9.92 253.091 9.92H249.971V14.46ZM262.482 22C262.042 22 261.702 21.8867 261.462 21.66C261.235 21.42 261.122 21.08 261.122 20.64V9.26C261.122 8.82 261.235 8.48667 261.462 8.26C261.702 8.02 262.042 7.9 262.482 7.9H269.622C269.955 7.9 270.209 7.98667 270.382 8.16C270.569 8.33333 270.662 8.58 270.662 8.9C270.662 9.23333 270.569 9.49333 270.382 9.68C270.209 9.85333 269.955 9.94 269.622 9.94H263.582V13.82H269.182C269.529 13.82 269.789 13.9067 269.962 14.08C270.135 14.2533 270.222 14.5067 270.222 14.84C270.222 15.1733 270.135 15.4267 269.962 15.6C269.789 15.7733 269.529 15.86 269.182 15.86H263.582V19.96H269.622C269.955 19.96 270.209 20.0467 270.382 20.22C270.569 20.3933 270.662 20.6467 270.662 20.98C270.662 21.3133 270.569 21.5667 270.382 21.74C270.209 21.9133 269.955 22 269.622 22H262.482ZM279.596 22.2C278.129 22.2 276.869 21.9067 275.816 21.32C274.776 20.72 273.976 19.88 273.416 18.8C272.856 17.7067 272.576 16.42 272.576 14.94C272.576 13.8333 272.736 12.84 273.056 11.96C273.376 11.0667 273.836 10.3067 274.436 9.68C275.036 9.04 275.769 8.55333 276.636 8.22C277.516 7.87333 278.503 7.7 279.596 7.7C280.329 7.7 281.049 7.79333 281.756 7.98C282.463 8.16667 283.083 8.43333 283.616 8.78C283.896 8.95333 284.083 9.16667 284.176 9.42C284.269 9.66 284.289 9.9 284.236 10.14C284.183 10.3667 284.069 10.56 283.896 10.72C283.736 10.88 283.529 10.9733 283.276 11C283.036 11.0133 282.769 10.9267 282.476 10.74C282.063 10.4733 281.616 10.28 281.136 10.16C280.656 10.04 280.169 9.98 279.676 9.98C278.729 9.98 277.929 10.1733 277.276 10.56C276.623 10.9467 276.129 11.5067 275.796 12.24C275.463 12.9733 275.296 13.8733 275.296 14.94C275.296 15.9933 275.463 16.8933 275.796 17.64C276.129 18.3867 276.623 18.9533 277.276 19.34C277.929 19.7267 278.729 19.92 279.676 19.92C280.183 19.92 280.683 19.86 281.176 19.74C281.669 19.6067 282.136 19.4067 282.576 19.14C282.869 18.9667 283.129 18.8933 283.356 18.92C283.596 18.9333 283.796 19.0133 283.956 19.16C284.116 19.3067 284.223 19.4933 284.276 19.72C284.329 19.9333 284.316 20.16 284.236 20.4C284.156 20.6267 283.996 20.8267 283.756 21C283.223 21.3867 282.583 21.6867 281.836 21.9C281.103 22.1 280.356 22.2 279.596 22.2ZM291.115 22.16C290.701 22.16 290.381 22.0467 290.155 21.82C289.941 21.58 289.835 21.2533 289.835 20.84V10.04H285.935C285.588 10.04 285.315 9.94667 285.115 9.76C284.928 9.56 284.835 9.29333 284.835 8.96C284.835 8.61333 284.928 8.35333 285.115 8.18C285.315 7.99333 285.588 7.9 285.935 7.9H296.295C296.641 7.9 296.908 7.99333 297.095 8.18C297.295 8.35333 297.395 8.61333 297.395 8.96C297.395 9.29333 297.295 9.56 297.095 9.76C296.908 9.94667 296.641 10.04 296.295 10.04H292.395V20.84C292.395 21.2533 292.288 21.58 292.075 21.82C291.861 22.0467 291.541 22.16 291.115 22.16ZM305.486 22.16C305.099 22.16 304.799 22.0533 304.586 21.84C304.386 21.6267 304.286 21.32 304.286 20.92V9.02C304.286 8.60667 304.386 8.29333 304.586 8.08C304.799 7.85333 305.073 7.74 305.406 7.74C305.713 7.74 305.939 7.8 306.086 7.92C306.246 8.02667 306.433 8.21333 306.646 8.48L314.306 18.42H313.786V8.96C313.786 8.57333 313.886 8.27333 314.086 8.06C314.299 7.84667 314.599 7.74 314.986 7.74C315.373 7.74 315.666 7.84667 315.866 8.06C316.066 8.27333 316.166 8.57333 316.166 8.96V20.96C316.166 21.3333 316.073 21.6267 315.886 21.84C315.699 22.0533 315.446 22.16 315.126 22.16C314.819 22.16 314.573 22.1 314.386 21.98C314.213 21.86 314.019 21.6667 313.806 21.4L306.166 11.46H306.666V20.92C306.666 21.32 306.566 21.6267 306.366 21.84C306.166 22.0533 305.873 22.16 305.486 22.16ZM319.387 22.16C319.067 22.16 318.807 22.0867 318.607 21.94C318.42 21.7933 318.307 21.6 318.267 21.36C318.227 21.1067 318.274 20.8267 318.407 20.52L323.687 8.82C323.86 8.43333 324.067 8.16 324.307 8C324.56 7.82667 324.847 7.74 325.167 7.74C325.474 7.74 325.747 7.82667 325.987 8C326.24 8.16 326.454 8.43333 326.627 8.82L331.927 20.52C332.074 20.8267 332.127 21.1067 332.087 21.36C332.047 21.6133 331.934 21.8133 331.747 21.96C331.56 22.0933 331.314 22.16 331.007 22.16C330.634 22.16 330.34 22.0733 330.127 21.9C329.927 21.7133 329.747 21.4333 329.587 21.06L328.287 18.04L329.367 18.74H320.927L322.007 18.04L320.727 21.06C320.554 21.4467 320.374 21.7267 320.187 21.9C320 22.0733 319.734 22.16 319.387 22.16ZM325.127 10.68L322.327 17.34L321.807 16.7H328.487L327.987 17.34L325.167 10.68H325.127ZM335.33 22.16C334.957 22.16 334.67 22.0533 334.47 21.84C334.27 21.6267 334.17 21.3333 334.17 20.96V8.94C334.17 8.55333 334.277 8.26 334.49 8.06C334.703 7.84667 334.997 7.74 335.37 7.74C335.703 7.74 335.963 7.80667 336.15 7.94C336.35 8.06 336.53 8.27333 336.69 8.58L341.63 17.72H340.99L345.93 8.58C346.09 8.27333 346.263 8.06 346.45 7.94C346.637 7.80667 346.897 7.74 347.23 7.74C347.603 7.74 347.89 7.84667 348.09 8.06C348.29 8.26 348.39 8.55333 348.39 8.94V20.96C348.39 21.3333 348.29 21.6267 348.09 21.84C347.903 22.0533 347.617 22.16 347.23 22.16C346.857 22.16 346.57 22.0533 346.37 21.84C346.17 21.6267 346.07 21.3333 346.07 20.96V11.7H346.51L342.31 19.36C342.177 19.5867 342.037 19.7533 341.89 19.86C341.743 19.9667 341.543 20.02 341.29 20.02C341.037 20.02 340.83 19.9667 340.67 19.86C340.51 19.74 340.37 19.5733 340.25 19.36L336.01 11.68H336.49V20.96C336.49 21.3333 336.39 21.6267 336.19 21.84C336.003 22.0533 335.717 22.16 335.33 22.16ZM352.853 22C352.413 22 352.073 21.8867 351.833 21.66C351.606 21.42 351.493 21.08 351.493 20.64V9.26C351.493 8.82 351.606 8.48667 351.833 8.26C352.073 8.02 352.413 7.9 352.853 7.9H359.993C360.326 7.9 360.58 7.98667 360.753 8.16C360.94 8.33333 361.033 8.58 361.033 8.9C361.033 9.23333 360.94 9.49333 360.753 9.68C360.58 9.85333 360.326 9.94 359.993 9.94H353.953V13.82H359.553C359.9 13.82 360.16 13.9067 360.333 14.08C360.506 14.2533 360.593 14.5067 360.593 14.84C360.593 15.1733 360.506 15.4267 360.333 15.6C360.16 15.7733 359.9 15.86 359.553 15.86H353.953V19.96H359.993C360.326 19.96 360.58 20.0467 360.753 20.22C360.94 20.3933 361.033 20.6467 361.033 20.98C361.033 21.3133 360.94 21.5667 360.753 21.74C360.58 21.9133 360.326 22 359.993 22H352.853Z" fill="black"/>
</svg>
