<svg width="84" height="147" viewBox="0 0 84 147" fill="none" xmlns="http://www.w3.org/2000/svg">
<path d="M46.7826 48.0117V7L53 131H40L46.7826 48.0117Z" fill="#815730"/>
<path d="M65.8239 45C69.9311 70.2551 81.442 90 46.9521 90C12.4623 90 24.1982 68.8775 28.1027 45C33.9595 20.2041 33.2949 0 46.9521 0C60.6094 0 61.2687 16.9898 65.8239 45Z" fill="url(#paint0_linear_1398_993)"/>
<path d="M79.9311 146.115H40.4792L38.165 143.925C35.6059 140.903 38.4889 139.537 40.4792 139.609C38.6026 132.185 46.6951 130.113 49.0094 134.245C46.9621 121.467 62.9023 123.422 62.9023 127.738C68.8734 116.299 81.2421 126.874 75.4843 134.245C84.185 130.964 85.0807 138.745 83.1614 141.367L79.9311 146.115Z" fill="url(#paint1_linear_1398_993)"/>
<path d="M61.2123 146.115H4.75528L1.44349 143.018C-2.21857 138.746 1.907 136.815 4.75528 136.917C2.06976 126.42 13.6504 123.491 16.9622 129.332C14.0325 111.268 36.8435 114.032 36.8435 120.133C45.3884 103.961 63.0884 118.912 54.8487 129.333C67.2998 124.695 68.5815 135.695 65.835 139.402L61.2123 146.115Z" fill="url(#paint2_linear_1398_993)"/>
<defs>
<linearGradient id="paint0_linear_1398_993" x1="30.055" y1="-5.96939" x2="61.5017" y2="94.179" gradientUnits="userSpaceOnUse">
<stop stop-color="#43916C"/>
<stop offset="1" stop-color="#1B2D10"/>
</linearGradient>
<linearGradient id="paint1_linear_1398_993" x1="45.4731" y1="122.692" x2="62.6211" y2="151.217" gradientUnits="userSpaceOnUse">
<stop stop-color="#95B131"/>
<stop offset="1" stop-color="#36443D"/>
</linearGradient>
<linearGradient id="paint2_linear_1398_993" x1="11.9017" y1="113" x2="36.0066" y2="153.586" gradientUnits="userSpaceOnUse">
<stop stop-color="#95B131"/>
<stop offset="1" stop-color="#36443D"/>
</linearGradient>
</defs>
</svg>
