<svg width="45" height="45" viewBox="0 0 45 45" fill="none" xmlns="http://www.w3.org/2000/svg">
<rect x="1.5" y="1.5" width="41.7092" height="41.7092" rx="20.8546" fill="url(#paint0_linear_2919_4485)" stroke="white" stroke-width="3"/>
<rect x="4.25635" y="4.25684" width="36.1956" height="36.1956" rx="18.0978" fill="url(#paint1_linear_2919_4485)"/>
<g filter="url(#filter0_d_2919_4485)">
<path d="M14.8571 20.4444C13.2792 20.4444 12 21.7047 12 23.2593V28.1852C12 29.7398 13.2792 31 14.8571 31H24.8571C26.3265 31 27.5368 29.9072 27.6964 28.5016L29.8571 29.7306C30.8095 30.2723 32 29.5952 32 28.5118V23.6364C32 22.553 30.8095 21.8758 29.8571 22.4175L27.7143 23.6364V23.2593C27.7143 21.7047 26.4351 20.4444 24.8571 20.4444H14.8571Z" fill="white"/>
<path d="M18.4286 16.9259C18.4286 18.4805 17.1494 19.7407 15.5714 19.7407C13.9935 19.7407 12.7143 18.4805 12.7143 16.9259C12.7143 15.3713 13.9935 14.1111 15.5714 14.1111C17.1494 14.1111 18.4286 15.3713 18.4286 16.9259Z" fill="white"/>
<path d="M27 15.8704C27 18.0079 25.2411 19.7407 23.0714 19.7407C20.9017 19.7407 19.1429 18.0079 19.1429 15.8704C19.1429 13.7328 20.9017 12 23.0714 12C25.2411 12 27 13.7328 27 15.8704Z" fill="white"/>
<path d="M12.2143 16.9259C12.2143 18.3135 13.0752 19.4955 14.2921 19.9913C12.7118 20.2562 11.5 21.613 11.5 23.2593V28.1852C11.5 30.0229 13.0101 31.5 14.8571 31.5H24.8571C26.3233 31.5 27.5761 30.5702 28.0313 29.2673L29.6099 30.1652C30.8845 30.8902 32.5 29.9914 32.5 28.5118V23.6364C32.5 22.1567 30.8845 21.258 29.6099 21.9829L28.1817 22.7953C27.9529 21.1791 26.5458 19.9444 24.8571 19.9444H24.6769C26.3263 19.3108 27.5 17.7295 27.5 15.8704C27.5 13.4497 25.5102 11.5 23.0714 11.5C20.723 11.5 18.7909 13.3079 18.651 15.6033C18.1327 14.4283 16.9453 13.6111 15.5714 13.6111C13.7244 13.6111 12.2143 15.0882 12.2143 16.9259ZM21.4659 19.9444H16.9602C17.996 19.4791 18.7529 18.5089 18.9018 17.3471C19.3348 18.5381 20.2767 19.4876 21.4659 19.9444Z" stroke="black"/>
</g>
<defs>
<filter id="filter0_d_2919_4485" x="11" y="11" width="23" height="21" filterUnits="userSpaceOnUse" color-interpolation-filters="sRGB">
<feFlood flood-opacity="0" result="BackgroundImageFix"/>
<feColorMatrix in="SourceAlpha" type="matrix" values="0 0 0 0 0 0 0 0 0 0 0 0 0 0 0 0 0 0 127 0" result="hardAlpha"/>
<feOffset dx="1"/>
<feComposite in2="hardAlpha" operator="out"/>
<feColorMatrix type="matrix" values="0 0 0 0 0 0 0 0 0 0 0 0 0 0 0 0 0 0 0.3 0"/>
<feBlend mode="normal" in2="BackgroundImageFix" result="effect1_dropShadow_2919_4485"/>
<feBlend mode="normal" in="SourceGraphic" in2="effect1_dropShadow_2919_4485" result="shape"/>
</filter>
<linearGradient id="paint0_linear_2919_4485" x1="22.3546" y1="3" x2="22.3546" y2="41.7092" gradientUnits="userSpaceOnUse">
<stop stop-color="#F9F9F9"/>
<stop offset="0.213542" stop-color="#FFB680"/>
<stop offset="0.921875" stop-color="#F96900"/>
</linearGradient>
<linearGradient id="paint1_linear_2919_4485" x1="22.3542" y1="4.25684" x2="22.3542" y2="40.4525" gradientUnits="userSpaceOnUse">
<stop stop-color="#FF7F11"/>
<stop offset="0.213542" stop-color="#FF7F11"/>
<stop offset="0.5" stop-color="#FF7F11"/>
<stop offset="0.921875" stop-color="#F96900"/>
</linearGradient>
</defs>
</svg>
