<svg width="161" height="46" viewBox="0 0 161 46" fill="none" xmlns="http://www.w3.org/2000/svg">
<rect x="1.5" y="2.48242" width="157.556" height="42" rx="21" fill="url(#paint0_linear_2381_7802)" stroke="white" stroke-width="3"/>
<path d="M42.9072 31.4578C42.4379 31.4578 42.0492 31.3551 41.7412 31.1498C41.4479 30.9298 41.2059 30.5998 41.0152 30.1598L35.4712 17.8398C35.2659 17.3998 35.2072 17.0111 35.2952 16.6738C35.3832 16.3218 35.5666 16.0504 35.8452 15.8598C36.1239 15.6544 36.4612 15.5518 36.8572 15.5518C37.3559 15.5518 37.7372 15.6691 38.0012 15.9038C38.2652 16.1238 38.4852 16.4538 38.6612 16.8938L43.5232 28.1358H42.4232L47.2852 16.8718C47.4759 16.4318 47.7032 16.1018 47.9672 15.8818C48.2312 15.6618 48.5979 15.5518 49.0672 15.5518C49.4632 15.5518 49.7859 15.6544 50.0352 15.8598C50.2992 16.0504 50.4606 16.3218 50.5192 16.6738C50.5926 17.0111 50.5339 17.3998 50.3432 17.8398L44.7992 30.1598C44.5939 30.5998 44.3446 30.9298 44.0512 31.1498C43.7726 31.3551 43.3912 31.4578 42.9072 31.4578ZM54.1616 31.4578C53.6043 31.4578 53.1789 31.3038 52.8856 30.9958C52.5923 30.6878 52.4456 30.2551 52.4456 29.6978V17.3118C52.4456 16.7544 52.5923 16.3218 52.8856 16.0138C53.1789 15.7058 53.6043 15.5518 54.1616 15.5518C54.7043 15.5518 55.1223 15.7058 55.4156 16.0138C55.7089 16.3218 55.8556 16.7544 55.8556 17.3118V29.6978C55.8556 30.2551 55.7089 30.6878 55.4156 30.9958C55.1369 31.3038 54.7189 31.4578 54.1616 31.4578ZM60.7588 31.2598C60.1868 31.2598 59.7468 31.1058 59.4388 30.7978C59.1308 30.4898 58.9768 30.0498 58.9768 29.4778V17.5318C58.9768 16.9598 59.1308 16.5198 59.4388 16.2118C59.7468 15.9038 60.1868 15.7498 60.7588 15.7498H65.0488C67.7035 15.7498 69.7495 16.4244 71.1868 17.7738C72.6388 19.1084 73.3648 21.0151 73.3648 23.4938C73.3648 24.7404 73.1742 25.8478 72.7928 26.8158C72.4262 27.7691 71.8908 28.5758 71.1868 29.2358C70.4828 29.8958 69.6175 30.4018 68.5908 30.7538C67.5642 31.0911 66.3835 31.2598 65.0488 31.2598H60.7588ZM62.3868 28.4658H64.8508C65.6868 28.4658 66.4128 28.3631 67.0288 28.1578C67.6448 27.9524 68.1582 27.6444 68.5688 27.2338C68.9795 26.8231 69.2875 26.3098 69.4928 25.6938C69.6982 25.0631 69.8008 24.3298 69.8008 23.4938C69.8008 21.8218 69.3828 20.5824 68.5468 19.7758C67.7255 18.9544 66.4935 18.5438 64.8508 18.5438H62.3868V28.4658ZM77.796 31.2598C77.224 31.2598 76.784 31.1058 76.476 30.7978C76.168 30.4898 76.014 30.0498 76.014 29.4778V17.5318C76.014 16.9598 76.168 16.5198 76.476 16.2118C76.784 15.9038 77.224 15.7498 77.796 15.7498H85.474C85.914 15.7498 86.244 15.8671 86.464 16.1018C86.6986 16.3218 86.816 16.6444 86.816 17.0698C86.816 17.5098 86.6986 17.8471 86.464 18.0818C86.244 18.3018 85.914 18.4118 85.474 18.4118H79.27V22.0418H84.968C85.4226 22.0418 85.76 22.1591 85.98 22.3938C86.2146 22.6138 86.332 22.9438 86.332 23.3838C86.332 23.8238 86.2146 24.1611 85.98 24.3958C85.76 24.6158 85.4226 24.7258 84.968 24.7258H79.27V28.5978H85.474C85.914 28.5978 86.244 28.7151 86.464 28.9498C86.6986 29.1698 86.816 29.4924 86.816 29.9178C86.816 30.3578 86.6986 30.6951 86.464 30.9298C86.244 31.1498 85.914 31.2598 85.474 31.2598H77.796ZM96.5283 31.5018C95.0029 31.5018 93.6609 31.1718 92.5023 30.5118C91.3583 29.8371 90.4636 28.8984 89.8183 27.6958C89.1876 26.4931 88.8723 25.0924 88.8723 23.4938C88.8723 22.2764 89.0483 21.1838 89.4003 20.2158C89.7669 19.2331 90.2876 18.3971 90.9623 17.7078C91.6369 17.0038 92.4436 16.4611 93.3823 16.0798C94.3356 15.6984 95.3843 15.5078 96.5283 15.5078C98.0829 15.5078 99.4323 15.8378 100.576 16.4978C101.72 17.1578 102.608 18.0891 103.238 19.2918C103.884 20.4798 104.206 21.8731 104.206 23.4718C104.206 24.6891 104.023 25.7891 103.656 26.7718C103.29 27.7544 102.769 28.5978 102.094 29.3018C101.42 30.0058 100.613 30.5484 99.6743 30.9298C98.7356 31.3111 97.6869 31.5018 96.5283 31.5018ZM96.5283 28.5978C97.3936 28.5978 98.1269 28.3998 98.7283 28.0038C99.3443 27.5931 99.8136 27.0064 100.136 26.2438C100.474 25.4664 100.642 24.5498 100.642 23.4938C100.642 21.8804 100.283 20.6338 99.5643 19.7538C98.8456 18.8591 97.8336 18.4118 96.5283 18.4118C95.6776 18.4118 94.9443 18.6098 94.3283 19.0058C93.7123 19.4018 93.2429 19.9811 92.9203 20.7438C92.5976 21.5064 92.4363 22.4231 92.4363 23.4938C92.4363 25.0924 92.7956 26.3464 93.5143 27.2558C94.2329 28.1504 95.2376 28.5978 96.5283 28.5978ZM114.881 31.2598C114.411 31.2598 114.052 31.1351 113.803 30.8858C113.553 30.6364 113.429 30.2918 113.429 29.8518C113.429 29.3971 113.553 29.0524 113.803 28.8178C114.052 28.5831 114.411 28.4658 114.881 28.4658H117.103V18.5438H118.709L115.497 20.5018C115.159 20.7071 114.844 20.7878 114.551 20.7438C114.272 20.6998 114.03 20.5751 113.825 20.3698C113.619 20.1644 113.48 19.9224 113.407 19.6438C113.348 19.3504 113.377 19.0644 113.495 18.7858C113.612 18.4924 113.832 18.2431 114.155 18.0378L117.213 16.1898C117.521 15.9991 117.829 15.8451 118.137 15.7278C118.459 15.6104 118.775 15.5518 119.083 15.5518C119.523 15.5518 119.867 15.6691 120.117 15.9038C120.381 16.1238 120.513 16.4684 120.513 16.9378V28.4658H122.515C122.969 28.4658 123.321 28.5831 123.571 28.8178C123.82 29.0524 123.945 29.3971 123.945 29.8518C123.945 30.3064 123.82 30.6584 123.571 30.9078C123.321 31.1424 122.969 31.2598 122.515 31.2598H114.881Z" fill="white"/>
<g style="mix-blend-mode:screen">
<path d="M29.2564 5.88118C28.7682 5.51064 28.1751 5.28118 27.584 5.24525C25.7622 5.13453 21.6907 4.94403 19.754 5.30668C18.106 5.61529 16.2505 6.67471 15.0609 7.44869C14.2788 7.95755 14.0685 8.89386 14.4578 9.81855C15.1947 11.5694 17.662 12.4748 19.2723 11.6567C20.6919 10.9355 22.3006 10.2214 23.5017 9.98151C24.5697 9.76825 26.4603 9.64548 28.3456 9.57492C30.4528 9.49607 31.0337 7.22996 29.2564 5.88118Z" fill="white" fill-opacity="0.51"/>
</g>
<path d="M8.26033 14.3823C9.40888 15.9996 12.7893 15.4403 13.7849 14.7333C14.7805 14.0263 15.5368 13.3816 14.3882 11.7643C13.2397 10.147 11.5015 9.40909 10.5059 10.1161C9.51035 10.8231 7.11179 12.765 8.26033 14.3823Z" fill="white" fill-opacity="0.51"/>
<defs>
<linearGradient id="paint0_linear_2381_7802" x1="80.2778" y1="3.98242" x2="80.2778" y2="42.9824" gradientUnits="userSpaceOnUse">
<stop stop-color="#CEF16C"/>
<stop offset="0.213542" stop-color="#A5DB4B"/>
<stop offset="0.5" stop-color="#83C830"/>
<stop offset="0.921875" stop-color="#6EBD1F"/>
</linearGradient>
</defs>
</svg>
