<svg width="124" height="125" viewBox="0 0 124 125" fill="none" xmlns="http://www.w3.org/2000/svg">
<rect x="2" y="3.08594" width="119.142" height="119.142" rx="14" fill="url(#paint0_linear_2651_4702)" stroke="white" stroke-width="4"/>
<path d="M62.9924 86.7103V38.2885C62.9924 33.59 56.9931 31.2301 53.4838 34.5561L42.3431 45.1147C41.2987 46.1048 39.8821 46.6612 38.4049 46.6615H29.5703C28.093 46.6615 26.6762 47.2177 25.6315 48.2078C24.5869 49.1979 24 50.5407 24 51.9408V73.0581C24 74.4582 24.5869 75.801 25.6315 76.7911C26.6762 77.7812 28.093 78.3374 29.5703 78.3374H38.4049C39.8821 78.3377 41.2987 78.8941 42.3431 79.8842L53.4838 90.4428C56.9931 93.7688 62.9924 91.4142 62.9924 86.7103Z" fill="white"/>
<path d="M72.3429 46.5482C71.5356 45.2281 72.4759 43.4414 74.0233 43.4414C74.6247 43.4414 75.1877 43.7242 75.5273 44.2206C77.3013 46.8138 82.7783 55.3825 82.7783 62.3296C82.7783 69.2767 77.3013 77.8454 75.5273 80.4386C75.1877 80.935 74.6247 81.2178 74.0233 81.2178C72.4759 81.2178 71.5356 79.4311 72.3429 78.111C74.6535 74.3326 78.0993 67.7837 78.0993 62.3296C78.0993 56.8755 74.6535 50.3266 72.3429 46.5482Z" fill="white"/>
<path d="M85.4775 41.0067C84.4076 39.2406 85.6667 36.8633 87.7316 36.8633C88.5412 36.8633 89.2982 37.2459 89.7518 37.9163C92.1193 41.4151 99.418 52.9603 99.418 62.3213C99.418 71.6822 92.1193 83.2275 89.7518 86.7262C89.2982 87.3967 88.5412 87.7793 87.7316 87.7793C85.6667 87.7793 84.4076 85.402 85.4775 83.6358C88.5584 78.5502 93.1792 69.6936 93.1792 62.3213C93.1792 54.949 88.5584 46.0924 85.4775 41.0067Z" fill="white"/>
<g style="mix-blend-mode:screen">
<path d="M11.2867 22.5848C8.44684 22.8932 5.71647 20.9373 5.92273 18.2651C6.13024 15.5767 6.96384 12.3505 9.46059 10.1606C12.408 7.57534 16.7586 7.56367 24.0587 7.56398C29.5885 7.56421 34.8168 7.80375 37.0275 7.91992C37.7141 7.95601 38.3486 8.33493 38.6981 8.90934C39.3466 9.97506 38.7731 11.2531 37.5437 11.4821L35.6577 11.8335C35.4465 11.8728 35.2333 11.8926 35.0155 11.8981C33.6406 11.9327 28.1259 12.1848 22.8401 14.019C19.2164 15.2765 16.7869 18.0208 15.429 20.0015C14.4979 21.3596 13.0423 22.3941 11.2867 22.5848Z" fill="white" fill-opacity="0.51"/>
</g>
<path d="M60.5565 9.72746C60.6159 11.906 53.7069 10.9968 50.6072 11.0251C47.5074 11.0534 41.3754 12.5659 41.316 10.3874C41.2566 8.20881 43.164 8.12377 46.2637 8.09545C49.3635 8.06712 60.4971 7.5489 60.5565 9.72746Z" fill="white" fill-opacity="0.51"/>
<defs>
<linearGradient id="paint0_linear_2651_4702" x1="61.5709" y1="1.08594" x2="61.5709" y2="124.228" gradientUnits="userSpaceOnUse">
<stop stop-color="#F89053"/>
<stop offset="0.5" stop-color="#F17B34"/>
<stop offset="1" stop-color="#ED722A"/>
</linearGradient>
</defs>
</svg>
