<svg width="115" height="103" viewBox="0 0 115 103" fill="none" xmlns="http://www.w3.org/2000/svg">
<rect x="2" y="2" width="111" height="99" rx="14" fill="url(#paint0_linear_2612_10949)" stroke="white" stroke-width="4"/>
<g style="mix-blend-mode:screen">
<path d="M7.77284 23.3076C6.20049 23.5719 4.86719 22.4748 4.85725 20.6884C4.84161 17.8763 5.19596 13.7732 7.11016 11.1745C8.95736 8.66667 11.684 8.65535 16.2591 8.65565C19.6316 8.65587 22.8252 8.87592 24.2711 8.99159C24.7809 9.03237 25.1998 9.36537 25.4017 9.87889C25.8206 10.9446 25.161 12.3265 24.0852 12.6367L23.5789 12.7827C23.4132 12.8305 23.2479 12.8546 23.0822 12.8618C22.1528 12.9018 18.7546 13.1667 15.4954 14.9174C13.3254 16.0829 11.8387 18.5652 10.9683 20.46C10.3065 21.9006 9.11803 23.0815 7.77284 23.3076Z" fill="white" fill-opacity="0.51"/>
</g>
<path d="M39.1324 10.7552C39.1697 12.8685 34.8397 11.9865 32.897 12.014C30.9543 12.0414 27.1113 13.5086 27.0741 11.3953C27.0369 9.282 28.2322 9.19951 30.1749 9.17204C32.1176 9.14456 39.0952 8.64186 39.1324 10.7552Z" fill="white" fill-opacity="0.51"/>
<path d="M58.7623 70.3737V32.1723C58.7623 28.4654 54.0293 26.6037 51.2607 29.2276L42.4714 37.5576C41.6475 38.3388 40.5299 38.7777 39.3645 38.778H32.3946C31.2291 38.778 30.1113 39.2168 29.2872 39.9979C28.463 40.779 28 41.8384 28 42.943V59.603C28 60.7076 28.463 61.767 29.2872 62.5481C30.1113 63.3292 31.2291 63.768 32.3946 63.768H39.3645C40.5299 63.7682 41.6475 64.2072 42.4714 64.9884L51.2607 73.3184C54.0293 75.9423 58.7623 74.0847 58.7623 70.3737Z" fill="white"/>
<path d="M66.1384 38.6873C65.5015 37.6459 66.2434 36.2363 67.4642 36.2363C67.9386 36.2363 68.3828 36.4594 68.6507 36.851C70.0503 38.8969 74.3713 45.657 74.3713 51.1378C74.3713 56.6186 70.0503 63.3787 68.6507 65.4246C68.3828 65.8162 67.9386 66.0392 67.4642 66.0392C66.2434 66.0392 65.5015 64.6297 66.1384 63.5882C67.9613 60.6073 70.6798 55.4407 70.6798 51.1378C70.6798 46.8349 67.9613 41.6682 66.1384 38.6873Z" fill="white"/>
<path d="M76.5021 34.3158C75.658 32.9224 76.6514 31.0469 78.2805 31.0469C78.9192 31.0469 79.5164 31.3487 79.8743 31.8777C81.7421 34.6379 87.5002 43.7463 87.5002 51.1315C87.5002 58.5166 81.7421 67.625 79.8743 70.3852C79.5164 70.9142 78.9192 71.216 78.2805 71.216C76.6514 71.216 75.658 69.3405 76.5021 67.9472C78.9327 63.9349 82.5783 56.9477 82.5783 51.1315C82.5783 45.3152 78.9327 38.328 76.5021 34.3158Z" fill="white"/>
<defs>
<linearGradient id="paint0_linear_2612_10949" x1="57.5" y1="0" x2="57.5" y2="103" gradientUnits="userSpaceOnUse">
<stop stop-color="#FA9960"/>
<stop offset="0.5" stop-color="#F27C36"/>
<stop offset="1" stop-color="#E86C23"/>
</linearGradient>
</defs>
</svg>
