<svg width="178" height="103" viewBox="0 0 178 103" fill="none" xmlns="http://www.w3.org/2000/svg">
<rect x="2" y="2" width="174" height="99" rx="14" fill="url(#paint0_linear_2601_4893)" stroke="white" stroke-width="4"/>
<g style="mix-blend-mode:screen">
<path d="M12.7778 23.2266C10.023 23.5257 7.37438 21.6284 7.57446 19.0362C7.77576 16.4284 8.5844 13.2988 11.0064 11.1745C13.8655 8.66667 18.0858 8.65535 25.1673 8.65565C30.5314 8.65587 35.6032 8.88824 37.7477 9.00093C38.4138 9.03593 39.0292 9.4035 39.3683 9.96071C39.9973 10.9945 39.441 12.2343 38.2484 12.4565L36.4189 12.7973C36.214 12.8354 36.0072 12.8547 35.7959 12.86C34.4622 12.8936 29.1127 13.1381 23.9852 14.9174C20.47 16.1372 18.1133 18.7993 16.796 20.7207C15.8928 22.0381 14.4808 23.0416 12.7778 23.2266Z" fill="white" fill-opacity="0.51"/>
</g>
<path d="M60.5682 10.7552C60.6258 12.8685 53.9238 11.9865 50.9169 12.014C47.91 12.0414 41.9616 13.5086 41.904 11.3953C41.8464 9.282 43.6966 9.19951 46.7035 9.17204C49.7105 9.14456 60.5106 8.64186 60.5682 10.7552Z" fill="white" fill-opacity="0.51"/>
<path d="M89.8383 70.7761V32.5746C89.8383 28.8678 84.2312 27.006 80.9512 29.63L70.5387 37.96C69.5626 38.7411 68.2386 39.1801 66.8579 39.1803H58.6008C57.22 39.1803 55.8958 39.6191 54.9194 40.4002C53.943 41.1813 53.3945 42.2407 53.3945 43.3453V60.0054C53.3945 61.11 53.943 62.1694 54.9194 62.9505C55.8958 63.7315 57.22 64.1704 58.6008 64.1704H66.8579C68.2386 64.1706 69.5626 64.6096 70.5387 65.3907L80.9512 73.7207C84.2312 76.3447 89.8383 74.4871 89.8383 70.7761Z" fill="white"/>
<path d="M98.8735 39.5041C98.054 38.3472 98.8704 36.6387 100.288 36.6387C100.767 36.6387 101.221 36.8454 101.523 37.2167C103.149 39.2173 108.33 46.0261 108.33 51.5401C108.33 57.0541 103.149 63.8629 101.523 65.8636C101.221 66.2349 100.767 66.4416 100.288 66.4416C98.8704 66.4416 98.054 64.733 98.8735 63.5761C101.019 60.5475 103.957 55.6498 103.957 51.5401C103.957 47.4304 101.019 42.5328 98.8735 39.5041Z" fill="white"/>
<path d="M111.255 35.2744C110.167 33.7245 111.262 31.4492 113.155 31.4492C113.8 31.4492 114.412 31.7294 114.816 32.2322C116.987 34.9335 123.889 44.1054 123.889 51.5338C123.889 58.9622 116.987 68.1341 114.816 70.8354C114.412 71.3382 113.8 71.6184 113.155 71.6184C111.262 71.6184 110.167 69.3431 111.255 67.7932C114.117 63.7141 118.058 57.0897 118.058 51.5338C118.058 45.9779 114.117 39.3535 111.255 35.2744Z" fill="white"/>
<defs>
<linearGradient id="paint0_linear_2601_4893" x1="89" y1="0" x2="89" y2="103" gradientUnits="userSpaceOnUse">
<stop stop-color="#FA9960"/>
<stop offset="0.5" stop-color="#F27C36"/>
<stop offset="1" stop-color="#E86C23"/>
</linearGradient>
</defs>
</svg>
