<svg width="181" height="105" viewBox="0 0 181 105" fill="none" xmlns="http://www.w3.org/2000/svg">
<rect x="2" y="2" width="177" height="100.522" rx="14" fill="url(#paint0_linear_2601_4902)" stroke="white" stroke-width="4"/>
<g style="mix-blend-mode:screen">
<path d="M12.7778 23.2266C10.023 23.5257 7.37438 21.6284 7.57446 19.0362C7.77576 16.4284 8.5844 13.2988 11.0064 11.1745C13.8655 8.66667 18.0858 8.65535 25.1673 8.65565C30.5314 8.65587 35.6032 8.88824 37.7477 9.00093C38.4138 9.03593 39.0292 9.4035 39.3683 9.96071C39.9973 10.9945 39.441 12.2343 38.2484 12.4565L36.4189 12.7973C36.214 12.8354 36.0072 12.8547 35.7959 12.86C34.4622 12.8936 29.1127 13.1381 23.9852 14.9174C20.47 16.1372 18.1133 18.7993 16.796 20.7207C15.8928 22.0381 14.4808 23.0416 12.7778 23.2266Z" fill="white" fill-opacity="0.51"/>
</g>
<path d="M60.5682 10.7552C60.6258 12.8685 53.9238 11.9865 50.9169 12.014C47.91 12.0414 41.9616 13.5086 41.904 11.3953C41.8464 9.282 43.6966 9.19951 46.7035 9.17204C49.7105 9.14456 60.5106 8.64186 60.5682 10.7552Z" fill="white" fill-opacity="0.51"/>
<path d="M91.4438 71.3737V33.1723C91.4438 29.4654 85.8366 27.6037 82.5567 30.2276L72.1442 38.5576C71.1681 39.3388 69.844 39.7777 68.4634 39.778H60.2063C58.8255 39.778 57.5012 40.2168 56.5249 40.9979C55.5485 41.779 55 42.8384 55 43.943V60.603C55 61.7076 55.5485 62.767 56.5249 63.5481C57.5012 64.3292 58.8255 64.768 60.2063 64.768H68.4634C69.844 64.7682 71.1681 65.2072 72.1442 65.9884L82.5567 74.3184C85.8366 76.9423 91.4438 75.0847 91.4438 71.3737Z" fill="white"/>
<path d="M100.479 40.1018C99.6595 38.9449 100.476 37.2363 101.894 37.2363C102.372 37.2363 102.827 37.4431 103.129 37.8144C104.754 39.815 109.935 46.6238 109.935 52.1378C109.935 57.6518 104.754 64.4606 103.129 66.4612C102.827 66.8325 102.372 67.0392 101.894 67.0392C100.476 67.0392 99.6595 65.3307 100.479 64.1738C102.624 61.1451 105.562 56.2475 105.562 52.1378C105.562 48.0281 102.624 43.1304 100.479 40.1018Z" fill="white"/>
<path d="M112.86 35.872C111.772 34.3221 112.867 32.0469 114.76 32.0469C115.405 32.0469 116.018 32.3271 116.422 32.8298C118.593 35.5312 125.495 44.7031 125.495 52.1315C125.495 59.5598 118.593 68.7317 116.422 71.4331C116.018 71.9358 115.405 72.216 114.76 72.216C112.867 72.216 111.772 69.9408 112.86 68.3909C115.723 64.3118 119.664 57.6874 119.664 52.1315C119.664 46.5755 115.723 39.9511 112.86 35.872Z" fill="white"/>
<defs>
<linearGradient id="paint0_linear_2601_4902" x1="90.5" y1="0" x2="90.5" y2="104.522" gradientUnits="userSpaceOnUse">
<stop stop-color="#FA6060"/>
<stop offset="0.5" stop-color="#F23636"/>
<stop offset="1" stop-color="#E82323"/>
</linearGradient>
</defs>
</svg>
