<svg width="800" height="360" viewBox="0 0 800 360" fill="none" xmlns="http://www.w3.org/2000/svg">
<g clip-path="url(#clip0_2601_4847)">
<rect width="800" height="360" fill="#A0F3FF"/>
<circle opacity="0.5" cy="67" r="100" fill="#46E8FF"/>
<circle cx="145" cy="360" r="7" fill="#46E8FF"/>
<circle cx="73" cy="360" r="7" fill="#46E8FF"/>
<circle cx="109" cy="360" r="7" fill="#46E8FF"/>
<circle cx="37" cy="360" r="7" fill="#46E8FF"/>
<circle cx="127" cy="360" r="7" fill="#46E8FF"/>
<circle cx="55" cy="360" r="7" fill="#46E8FF"/>
<circle cx="91" cy="360" r="7" fill="#46E8FF"/>
<circle cx="792" cy="76" r="7" fill="#46E8FF"/>
<circle cx="19" cy="360" r="7" fill="#46E8FF"/>
<circle opacity="0.5" cx="932" cy="295" r="135" fill="#46E8FF"/>
<path opacity="0.5" d="M1003 -102H326C314.954 -102 306 -93.0457 306 -82V-80C306 -1.02328 370.023 63 449 63H1003V-102Z" fill="#46E8FF"/>
<path fill-rule="evenodd" clip-rule="evenodd" d="M125.803 27.9902L122.336 24.8354L115.501 32.3472L107.989 25.5118L104.834 28.9787L112.346 35.8141L105.51 43.3259L108.977 46.4807L115.813 38.9689L123.325 45.8043L126.479 42.3374L118.968 35.502L125.803 27.9902Z" fill="#73EEFF"/>
<path opacity="0.85" fill-rule="evenodd" clip-rule="evenodd" d="M112.682 235.471L100.884 213.848L54.0356 239.412L28.472 192.563L6.84976 204.362L32.4133 251.21L-14.4349 276.774L-2.63641 298.396L44.2118 272.833L69.7752 319.681L91.3975 307.882L65.8341 261.034L112.682 235.471Z" fill="#73EEFF"/>
<path opacity="0.25" fill-rule="evenodd" clip-rule="evenodd" d="M719.926 286.397L710.19 239.921L609.492 261.017L588.396 160.319L541.92 170.055L563.016 270.753L462.318 291.849L472.055 338.325L572.752 317.229L593.848 417.927L640.324 408.19L619.228 307.493L719.926 286.397Z" fill="#73EEFF"/>
<path opacity="0.75" fill-rule="evenodd" clip-rule="evenodd" d="M362.326 69.3257L367.324 62.4821L352.496 51.6536L363.325 36.8258L356.481 31.828L345.653 46.6558L330.825 35.8273L325.827 42.6709L340.655 53.4994L329.826 68.3271L336.67 73.3249L347.498 58.4972L362.326 69.3257Z" fill="#73EEFF"/>
<path d="M148.65 120.781C149.08 120.002 150.236 120.131 150.485 120.984L151.593 124.783C151.908 125.863 152.8 126.676 153.905 126.889L157.79 127.638C158.664 127.806 158.899 128.946 158.164 129.446L154.894 131.674C153.964 132.307 153.466 133.407 153.605 134.524L154.094 138.45C154.203 139.333 153.192 139.909 152.489 139.364L149.36 136.942C148.471 136.254 147.271 136.12 146.252 136.598L142.668 138.275C141.863 138.652 141.003 137.869 141.303 137.032L142.64 133.308C143.02 132.249 142.775 131.066 142.007 130.245L139.304 127.355C138.696 126.706 139.175 125.645 140.065 125.673L144.02 125.793C145.144 125.827 146.193 125.229 146.737 124.245L148.65 120.781Z" fill="#F78E11" stroke="#F0E92D" stroke-width="2"/>
<path d="M196.75 299.96C197.18 299.181 198.336 299.31 198.585 300.163L200.727 307.508C201.042 308.588 201.935 309.401 203.039 309.614L210.552 311.063C211.425 311.231 211.661 312.37 210.926 312.871L204.602 317.178C203.672 317.811 203.175 318.911 203.314 320.027L204.258 327.62C204.368 328.502 203.357 329.078 202.653 328.534L196.603 323.851C195.714 323.162 194.514 323.029 193.495 323.506L186.566 326.75C185.76 327.127 184.9 326.344 185.201 325.507L187.785 318.306C188.165 317.247 187.921 316.064 187.152 315.243L181.926 309.655C181.318 309.006 181.798 307.946 182.687 307.973L190.334 308.206C191.458 308.24 192.507 307.642 193.051 306.657L196.75 299.96Z" fill="#F78E11" stroke="#F0E92D" stroke-width="2"/>
<path d="M810.581 94.7797C810.532 93.8915 811.581 93.3871 812.245 93.9791L817.955 99.0709C818.795 99.8196 819.983 100.036 821.032 99.6304L828.17 96.8748C828.999 96.5545 829.803 97.3957 829.445 98.21L826.367 105.214C825.915 106.244 826.076 107.441 826.786 108.314L831.612 114.25C832.173 114.94 831.622 115.965 830.737 115.876L823.124 115.113C822.005 115.001 820.916 115.525 820.306 116.469L816.151 122.894C815.668 123.641 814.523 123.433 814.334 122.563L812.707 115.088C812.468 113.988 811.634 113.115 810.547 112.826L803.153 110.86C802.293 110.632 802.137 109.479 802.906 109.03L809.513 105.173C810.484 104.606 811.057 103.543 810.996 102.419L810.581 94.7797Z" fill="#F78E11" stroke="#F0E92D" stroke-width="2"/>
<path d="M806.919 217.688C806.871 216.8 807.919 216.295 808.583 216.887L815.868 223.383C816.708 224.132 817.896 224.348 818.945 223.943L828.051 220.427C828.881 220.107 829.684 220.948 829.326 221.763L825.4 230.698C824.947 231.728 825.109 232.925 825.818 233.798L831.976 241.371C832.537 242.061 831.985 243.086 831.1 242.997L821.388 242.024C820.269 241.912 819.181 242.435 818.57 243.38L813.269 251.576C812.786 252.323 811.642 252.115 811.453 251.246L809.377 241.708C809.138 240.609 808.304 239.736 807.217 239.447L797.784 236.939C796.924 236.71 796.768 235.557 797.536 235.109L805.966 230.188C806.937 229.621 807.51 228.557 807.449 227.434L806.919 217.688Z" fill="#F78E11" stroke="#F0E92D" stroke-width="2"/>
<path d="M460.315 356.11C460.829 355.384 461.964 355.641 462.116 356.518L462.921 361.169C463.112 362.277 463.908 363.185 464.982 363.521L469.488 364.928C470.337 365.193 470.443 366.352 469.656 366.767L465.481 368.97C464.486 369.495 463.869 370.532 463.882 371.657L463.935 376.377C463.945 377.266 462.876 377.725 462.238 377.105L458.853 373.816C458.047 373.032 456.869 372.765 455.803 373.125L451.331 374.634C450.488 374.919 449.721 374.044 450.114 373.246L452.196 369.01C452.693 368 452.583 366.798 451.911 365.895L449.093 362.108C448.562 361.395 449.157 360.395 450.038 360.522L454.71 361.193C455.824 361.353 456.933 360.877 457.584 359.96L460.315 356.11Z" fill="#F78E11" stroke="#F0E92D" stroke-width="2"/>
<path d="M374.833 6.94614C375.348 6.22063 376.483 6.47769 376.634 7.35417L377.801 14.0948C377.993 15.2033 378.789 16.1113 379.862 16.4468L386.392 18.4866C387.241 18.7519 387.347 19.9105 386.56 20.3256L380.51 23.518C379.515 24.043 378.898 25.0805 378.91 26.2054L378.988 33.0458C378.998 33.9352 377.929 34.3942 377.291 33.7743L372.385 29.0067C371.579 28.2226 370.401 27.9558 369.335 28.3156L362.854 30.5034C362.011 30.7878 361.244 29.9129 361.636 29.1147L364.655 22.9757C365.151 21.9661 365.041 20.7637 364.369 19.8612L360.286 14.3729C359.755 13.6593 360.35 12.6595 361.23 12.7861L368.002 13.7597C369.115 13.9198 370.225 13.4434 370.876 12.5259L374.833 6.94614Z" fill="#F78E11" stroke="#F0E92D" stroke-width="2"/>
<path d="M474.102 112.876C474.616 112.151 475.751 112.408 475.903 113.285L476.317 115.678C476.509 116.786 477.305 117.694 478.378 118.03L480.697 118.754C481.546 119.019 481.652 120.178 480.865 120.593L478.717 121.727C477.722 122.252 477.104 123.289 477.117 124.414L477.145 126.843C477.155 127.732 476.086 128.191 475.448 127.571L473.706 125.878C472.899 125.094 471.722 124.828 470.656 125.187L468.354 125.964C467.512 126.249 466.745 125.374 467.137 124.576L468.209 122.396C468.705 121.386 468.595 120.184 467.924 119.281L466.474 117.333C465.943 116.619 466.538 115.619 467.418 115.746L469.823 116.091C470.936 116.252 472.046 115.775 472.696 114.858L474.102 112.876Z" fill="#F78E11" stroke="#F0E92D" stroke-width="2"/>
</g>
<defs>
<clipPath id="clip0_2601_4847">
<rect width="800" height="360" fill="white"/>
</clipPath>
</defs>
</svg>
