<svg width="38" height="38" viewBox="0 0 38 38" fill="none" xmlns="http://www.w3.org/2000/svg">
<rect width="38" height="38" rx="5" fill="#FFB62A"/>
<path d="M10.1719 24.2344C13.2448 22.9844 16.1875 22.3594 19 22.3594C21.8125 22.3594 24.7292 22.9844 27.75 24.2344C30.8229 25.4323 32.3594 27.0208 32.3594 29V32.3594H5.64062V29C5.64062 27.0208 7.15104 25.4323 10.1719 24.2344ZM23.6875 17.0469C22.3854 18.349 20.8229 19 19 19C17.1771 19 15.6146 18.349 14.3125 17.0469C13.0104 15.7448 12.3594 14.1823 12.3594 12.3594C12.3594 10.5365 13.0104 8.97396 14.3125 7.67188C15.6146 6.31771 17.1771 5.64062 19 5.64062C20.8229 5.64062 22.3854 6.31771 23.6875 7.67188C24.9896 8.97396 25.6406 10.5365 25.6406 12.3594C25.6406 14.1823 24.9896 15.7448 23.6875 17.0469Z" fill="#F96900"/>
</svg>
