<svg width="12" height="16" viewBox="0 0 12 16" fill="none" xmlns="http://www.w3.org/2000/svg">
<path d="M7.84015 13.7054C8.13596 15.022 10.0122 15.022 10.308 13.7054L11.0358 10.4663C11.2134 9.67567 10.6121 8.92433 9.80185 8.92433L8.34632 8.92433C7.53602 8.92433 6.93476 9.67567 7.11239 10.4663L7.84015 13.7054Z" fill="#FF9B3F" stroke="#FF9B3F" stroke-width="0.5"/>
<path d="M9.07785 8.0796C9.87239 8.0796 10.4431 7.37055 10.4431 6.59191C10.4431 5.81327 9.87239 5.10421 9.07785 5.10421C8.28331 5.10421 7.71263 5.81327 7.71263 6.59191C7.71263 7.37055 8.28331 8.0796 9.07785 8.0796Z" fill="#FF9B3F" stroke="#FF9B3F" stroke-width="0.75"/>
<path d="M3.27131 4.45311C4.34545 4.45311 5.16727 3.48421 5.16727 2.35302C5.16727 1.22184 4.34545 0.252938 3.27131 0.252938C2.19717 0.252938 1.37535 1.22184 1.37535 2.35302C1.37535 3.48421 2.19717 4.45311 3.27131 4.45311Z" fill="#FF9B3F" stroke="#FF9B3F" stroke-width="0.5"/>
<path d="M3.16065 4.72579C1.83415 4.72579 0.758814 5.80113 0.758814 7.12763L0.758814 9.64069C0.758814 10.2128 1.22259 10.6766 1.7947 10.6766L4.5266 10.6766C5.0987 10.6766 5.56248 10.2128 5.56248 9.64069L5.56248 7.12763C5.56248 5.80113 4.48715 4.72579 3.16065 4.72579Z" fill="#FF9B3F" stroke="#FF9B3F" stroke-width="1.5"/>
<path d="M1.68973 14.3539C2.0801 15.8742 4.23926 15.8742 4.62962 14.3539L5.31731 11.6757C5.56386 10.7156 4.83868 9.78067 3.84737 9.78067L2.47199 9.78067C1.48067 9.78067 0.755498 10.7156 1.00204 11.6757L1.68973 14.3539Z" fill="#FF9B3F" stroke="#FF9B3F"/>
<path d="M6.73057 1.13592C6.38894 2.32731 8.17076 3.54113 8.17076 3.54113C8.17076 3.54113 10.0451 2.32731 9.67356 1.13592C9.54233 0.715167 9.19861 0.445626 8.79692 0.517438C8.47222 0.575487 8.17076 1.13592 8.17076 1.13592C8.17076 1.13592 7.82921 0.533541 7.48197 0.517438C7.1155 0.500444 6.84123 0.750018 6.73057 1.13592Z" fill="#FF9B3F"/>
<path d="M6.73057 1.13592C6.38894 2.32731 8.17076 3.54113 8.17076 3.54113C8.17076 3.54113 10.0451 2.32731 9.67356 1.13592C9.54233 0.715167 9.19861 0.445626 8.79692 0.517438C8.47222 0.575487 8.17076 1.13592 8.17076 1.13592C8.17076 1.13592 7.82921 0.533541 7.48197 0.517438C7.1155 0.500444 6.84123 0.750018 6.73057 1.13592Z" stroke="#FF9B3F"/>
</svg>
