<svg width="12" height="7" viewBox="0 0 12 7" fill="none" xmlns="http://www.w3.org/2000/svg">
<g style="mix-blend-mode:screen">
<path d="M0.10263 5.80838C-0.0976308 5.24694 -0.00385316 4.56117 0.382365 4.03951C1.00174 3.20293 1.99557 1.99129 2.86823 1.51429C3.68804 1.06616 4.84159 0.814287 5.70356 0.679015C6.42264 0.566169 7.03244 1.0247 7.24625 1.76841C7.61662 3.0567 6.6606 4.56368 5.42339 4.92351C4.97786 5.05309 4.5348 5.2165 4.14929 5.42164C3.93567 5.5353 3.72544 5.69755 3.52207 5.89195C2.4149 6.95031 0.586217 7.16412 0.10263 5.80838Z" fill="white" fill-opacity="0.51"/>
</g>
<path d="M11.9948 0.991001C12.1149 2.10754 10.293 3.151 9.53464 3.22966C8.77629 3.30833 8.15622 3.32273 8.03615 2.20619C7.91608 1.08965 8.43351 0.120748 9.19186 0.0420848C9.95021 -0.0365786 11.8748 -0.125538 11.9948 0.991001Z" fill="white" fill-opacity="0.51"/>
</svg>
