<svg width="25" height="25" viewBox="0 0 25 25" fill="none" xmlns="http://www.w3.org/2000/svg">
<g filter="url(#filter0_d_310_2566)">
<path d="M11.5419 1.65378C11.9078 0.83307 13.0727 0.833071 13.4385 1.65378L15.9751 7.34437C16.126 7.68287 16.4458 7.91527 16.8144 7.95417L23.0103 8.60811C23.9039 8.70243 24.2639 9.81032 23.5964 10.4119L18.9682 14.5828C18.6929 14.8309 18.5707 15.2069 18.6476 15.5695L19.9403 21.6642C20.1267 22.5432 19.1843 23.2279 18.4059 22.779L13.0089 19.6662C12.6879 19.481 12.2925 19.481 11.9715 19.6662L6.5745 22.779C5.79614 23.2279 4.8537 22.5432 5.04014 21.6642L6.33285 15.5695C6.40974 15.2069 6.28756 14.8309 6.01226 14.5828L1.38403 10.4119C0.716534 9.81032 1.07651 8.70243 1.9701 8.60811L8.16603 7.95417C8.53458 7.91527 8.85445 7.68287 9.00534 7.34437L11.5419 1.65378Z" fill="#FFB62A"/>
<path d="M13.9126 1.44243C13.3639 0.211367 11.6165 0.211365 11.0678 1.44243L8.5312 7.13302C8.45575 7.30227 8.29582 7.41847 8.11154 7.43792L1.91561 8.09187C0.575233 8.23334 0.0352627 9.89518 1.0365 10.7975L5.66473 14.9684C5.80238 15.0925 5.86347 15.2805 5.82503 15.4618L4.53232 21.5565C4.25266 22.875 5.66632 23.9021 6.83386 23.2287L12.2308 20.1159C12.3914 20.0233 12.5891 20.0233 12.7496 20.1159L18.1466 23.2287C19.3141 23.9021 20.7278 22.875 20.4481 21.5565L19.1554 15.4618C19.1169 15.2805 19.178 15.0925 19.3157 14.9684L23.9439 10.7975C24.9452 9.89518 24.4052 8.23334 23.0648 8.09187L16.8689 7.43792C16.6846 7.41847 16.5247 7.30227 16.4492 7.13302L13.9126 1.44243Z" stroke="#CA5B00"/>
</g>
<defs>
<filter id="filter0_d_310_2566" x="0" y="0" width="24.9804" height="25" filterUnits="userSpaceOnUse" color-interpolation-filters="sRGB">
<feFlood flood-opacity="0" result="BackgroundImageFix"/>
<feColorMatrix in="SourceAlpha" type="matrix" values="0 0 0 0 0 0 0 0 0 0 0 0 0 0 0 0 0 0 127 0" result="hardAlpha"/>
<feOffset dy="1"/>
<feComposite in2="hardAlpha" operator="out"/>
<feColorMatrix type="matrix" values="0 0 0 0 1 0 0 0 0 0.452282 0 0 0 0 0 0 0 0 1 0"/>
<feBlend mode="normal" in2="BackgroundImageFix" result="effect1_dropShadow_310_2566"/>
<feBlend mode="normal" in="SourceGraphic" in2="effect1_dropShadow_310_2566" result="shape"/>
</filter>
</defs>
</svg>
