<svg width="18" height="18" viewBox="0 0 18 18" fill="none" xmlns="http://www.w3.org/2000/svg">
<path d="M15.5884 6.43501L8.26225 6.43501L10.2781 4.32342C10.735 3.84608 10.9875 3.20911 10.9875 2.53243C10.9875 1.85574 10.735 1.21878 10.2781 0.741051C9.33502 -0.247017 7.79907 -0.247017 6.85547 0.741051L0.709989 7.17692C0.252115 7.65388 0 8.29027 0 8.96906L0 9.02758C0 9.70446 0.250649 10.3399 0.706141 10.8167L6.85474 17.255C7.31151 17.735 7.91963 18 8.5675 18C9.21446 18 9.82295 17.735 10.2762 17.2592C10.7343 16.7804 10.9877 16.1438 10.9877 15.4659C10.9877 14.7893 10.7359 14.1534 10.2783 13.6732L8.2639 11.5628H15.5886C16.9183 11.5628 18 10.4128 18 8.99842C17.9998 7.58519 16.9181 6.43501 15.5884 6.43501Z" fill="white"/>
</svg>
